<svg xmlns="http://www.w3.org/2000/svg" xmlns:xlink="http://www.w3.org/1999/xlink" viewBox="0 0 4680 3120"><defs><style>.cls-1{fill:none;}.cls-2,.cls-4{fill:#fff;}.cls-2{opacity:0;}.cls-3{fill:#fcdee0;}.cls-5{fill:#ff8098;}.cls-6{opacity:0.5;}.cls-7{fill:#ce4a70;}.cls-8{fill:#fdeeef;}.cls-9{clip-path:url(#clip-path);}.cls-10{opacity:0.4;}.cls-11{fill:#ffce80;}.cls-12{fill:#063359;}.cls-13{fill:#f05a62;}.cls-14{fill:#f7bb63;}.cls-15{clip-path:url(#clip-path-2);}.cls-16{opacity:0.3;}.cls-17{fill:#c6a3a8;}.cls-18{fill:#ffbda6;}.cls-19{clip-path:url(#clip-path-3);}.cls-20{fill:#246089;}.cls-21{clip-path:url(#clip-path-4);}.cls-22{fill:#ff977b;}.cls-23{fill:#ff9357;}.cls-24{clip-path:url(#clip-path-5);}.cls-25{clip-path:url(#clip-path-6);}.cls-26{fill:#601e0d;}.cls-27{clip-path:url(#clip-path-8);}.cls-28{fill:#441107;}.cls-29{clip-path:url(#clip-path-9);}.cls-30{fill:#77101a;}.cls-31{fill:#ff6845;}</style><clipPath id="clip-path"><rect class="cls-1" x="1916.89" y="1183.68" width="1424.11" height="773.97" rx="23"/></clipPath><clipPath id="clip-path-2"><circle class="cls-1" cx="2619.27" cy="1209.26" r="72.88"/></clipPath><clipPath id="clip-path-3"><path class="cls-1" d="M1637.29,1652.88s81.33,407-111.18,660.26c-168.55,221.76-346.53,290.64-346.53,290.64l-123.63-205s202.12-129.6,271.31-275.24c56.2-118.3,41.35-284.47,31.93-507.56Z"/></clipPath><clipPath id="clip-path-4"><path class="cls-1" d="M1312.6,1196.7l-125-27.25V957.85s28.85-40.08,27.25-56.11-51.3-59.31-49.69-49.69,4.81,22.44,4.81,22.44-16-24-30.46-20.84c-16-9.62-41.68,6.41-41.68,6.41s-19.24-1.6-20.84,4.81-19.23,3.21-22.44,12.83,12.82,56.1,28.85,67.32-59.31,176.34-38.47,270.91,296.56,147.48,296.56,147.48S1379.92,1331.35,1312.6,1196.7Z"/></clipPath><clipPath id="clip-path-5"><path class="cls-1" d="M1773.6,1151.94,1890,1098.73,1845,892s-36.71-33-38.56-49,37.52-68.86,38-59.12.07,23,.07,23,10.55-26.9,25.33-26.83c13.62-12.81,42.09-2.6,42.09-2.6s18.46-5.65,21.39.27,19.47-1,24.65,7.76-.6,57.55-13.88,71.92,95.44,159.7,95.18,256.54S1780.84,1321,1780.84,1321,1736.43,1297.82,1773.6,1151.94Z"/></clipPath><clipPath id="clip-path-6"><path class="cls-1" d="M1919.55,1290a80.6,80.6,0,0,1-5.24,9.77l-110.94,41.28s-.18,2.58-.46,7.12c-1.7,26.22-7.66,118-9.86,155.42-2.58,43.86,78.26,191.77,8.6,171.13-61.4-18.19-287.23,12-333.66,3.44-5.12-1-121.26,6-121.26,6L1370,1410.71s5.16-28.38-31-23.22c-24.3,3.48-48.6,14-63.46,10.22-7.25-1.81-12.26-7-13.94-18,87.72-49-30.95-237.35-30.95-237.35s136.73,31,216.71,15.48,116.09-5.16,116.09-5.16,103.2-25.8,157.38-18.06,136.73-59.34,136.73-59.34,10.32,2.58,54.18,82.56C1945.24,1219,1929.07,1269.54,1919.55,1290Z"/></clipPath><clipPath id="clip-path-8"><path class="cls-1" d="M1485.24,913s-32.34-63,48.79-77,94.75,22,121.89,22.91,106.9,51.92,14.28,103.64-178.83,99.75-178.83,99.75S1348.86,986,1485.24,913Z"/></clipPath><clipPath id="clip-path-9"><path class="cls-1" d="M1508.82,1105a51.73,51.73,0,0,0,30.65-3.63l5.93,16.1-20.25,63.27s30.88,68.17,95.7,38.31c12.14-5.6,36.8-45.56,36.8-45.56a192.17,192.17,0,0,1-8.75-26.18,135,135,0,0,1-4.5-29.92c19.48.26,70-28.19,60-87s-32.7-93.21-32.7-93.21-68,32.54-145.23,13.91c11.28,32.95-6.21,75.78-10,84.43-22.34-2.12-42.11,9.48-45.27,27.29C1467.82,1081.81,1484.69,1100.69,1508.82,1105Z"/></clipPath></defs><title>09</title><g id="_09" data-name="09"><rect id="_09-2" data-name="09" class="cls-2" width="4680" height="3120"/><ellipse class="cls-3" cx="3121.7" cy="2416.87" rx="601.12" ry="69.66"/><path class="cls-3" d="M3502.17,874.91l-146.45-41a662.66,662.66,0,0,1-180.67-81.44L2731.89,466.09c-296-191.24-689.89-117.28-896.32,168.32C1726.7,785,1608,949.22,1500.9,1097.46c-195.48,270.51-159.17,644.18,84.71,872l134,125.19A662.35,662.35,0,0,0,2354,2247.45l325-93a662.47,662.47,0,0,1,261.72-20.76l303.14,36.65c313,37.84,609.23-150.11,708.34-449.36h0C4071,1362.24,3866.07,976.93,3502.17,874.91Z"/><circle class="cls-4" cx="2944.85" cy="1015.4" r="35.15"/><circle class="cls-4" cx="3046.59" cy="1015.4" r="35.15"/><circle class="cls-4" cx="3148.33" cy="1015.4" r="35.15"/><path class="cls-4" d="M3250.06,980.25a35.15,35.15,0,1,0,35.15,35.15A35.15,35.15,0,0,0,3250.06,980.25Z"/><path class="cls-4" d="M3351.8,980.25A35.15,35.15,0,1,0,3387,1015.4,35.15,35.15,0,0,0,3351.8,980.25Z"/><path class="cls-4" d="M3453.54,980.25a35.15,35.15,0,1,0,35.14,35.15A35.15,35.15,0,0,0,3453.54,980.25Z"/><path class="cls-4" d="M3555.28,980.25a35.15,35.15,0,1,0,35.14,35.15A35.15,35.15,0,0,0,3555.28,980.25Z"/><circle class="cls-4" cx="2944.85" cy="1111.59" r="35.15"/><circle class="cls-4" cx="3046.59" cy="1111.59" r="35.15"/><circle class="cls-4" cx="3148.33" cy="1111.59" r="35.15"/><path class="cls-4" d="M3250.06,1076.44a35.15,35.15,0,1,0,35.15,35.15A35.15,35.15,0,0,0,3250.06,1076.44Z"/><path class="cls-4" d="M3351.8,1076.44a35.15,35.15,0,1,0,35.15,35.15A35.15,35.15,0,0,0,3351.8,1076.44Z"/><path class="cls-4" d="M3453.54,1076.44a35.15,35.15,0,1,0,35.14,35.15A35.15,35.15,0,0,0,3453.54,1076.44Z"/><path class="cls-4" d="M3555.28,1076.44a35.15,35.15,0,1,0,35.14,35.15A35.15,35.15,0,0,0,3555.28,1076.44Z"/><circle class="cls-4" cx="2944.85" cy="1207.77" r="35.15"/><circle class="cls-4" cx="3046.59" cy="1207.77" r="35.15"/><circle class="cls-4" cx="3148.33" cy="1207.77" r="35.15"/><path class="cls-4" d="M3250.06,1172.63a35.15,35.15,0,1,0,35.15,35.14A35.14,35.14,0,0,0,3250.06,1172.63Z"/><path class="cls-4" d="M3351.8,1172.63a35.15,35.15,0,1,0,35.15,35.14A35.14,35.14,0,0,0,3351.8,1172.63Z"/><path class="cls-4" d="M3453.54,1172.63a35.15,35.15,0,1,0,35.14,35.14A35.15,35.15,0,0,0,3453.54,1172.63Z"/><path class="cls-4" d="M3555.28,1172.63a35.15,35.15,0,1,0,35.14,35.14A35.15,35.15,0,0,0,3555.28,1172.63Z"/><circle class="cls-4" cx="2944.85" cy="1303.96" r="35.15"/><circle class="cls-4" cx="3046.59" cy="1303.96" r="35.15"/><circle class="cls-4" cx="3148.33" cy="1303.96" r="35.15"/><path class="cls-4" d="M3250.06,1268.82a35.15,35.15,0,1,0,35.15,35.14A35.14,35.14,0,0,0,3250.06,1268.82Z"/><path class="cls-4" d="M3351.8,1268.82A35.15,35.15,0,1,0,3387,1304,35.14,35.14,0,0,0,3351.8,1268.82Z"/><path class="cls-4" d="M3453.54,1268.82a35.15,35.15,0,1,0,35.14,35.14A35.15,35.15,0,0,0,3453.54,1268.82Z"/><path class="cls-4" d="M3555.28,1268.82a35.15,35.15,0,1,0,35.14,35.14A35.15,35.15,0,0,0,3555.28,1268.82Z"/><circle class="cls-4" cx="2944.85" cy="1400.15" r="35.15"/><circle class="cls-4" cx="3046.59" cy="1400.15" r="35.15"/><circle class="cls-4" cx="3148.33" cy="1400.15" r="35.15"/><path class="cls-4" d="M3250.06,1365a35.15,35.15,0,1,0,35.15,35.15A35.15,35.15,0,0,0,3250.06,1365Z"/><path class="cls-4" d="M3351.8,1365a35.15,35.15,0,1,0,35.15,35.15A35.15,35.15,0,0,0,3351.8,1365Z"/><path class="cls-4" d="M3453.54,1365a35.15,35.15,0,1,0,35.14,35.15A35.15,35.15,0,0,0,3453.54,1365Z"/><path class="cls-4" d="M3555.28,1365a35.15,35.15,0,1,0,35.14,35.15A35.15,35.15,0,0,0,3555.28,1365Z"/><circle class="cls-4" cx="2944.85" cy="1496.34" r="35.15"/><circle class="cls-4" cx="3046.59" cy="1496.34" r="35.15"/><circle class="cls-4" cx="3148.33" cy="1496.34" r="35.15"/><path class="cls-4" d="M3250.06,1461.19a35.15,35.15,0,1,0,35.15,35.15A35.15,35.15,0,0,0,3250.06,1461.19Z"/><path class="cls-4" d="M3351.8,1461.19a35.15,35.15,0,1,0,35.15,35.15A35.15,35.15,0,0,0,3351.8,1461.19Z"/><path class="cls-4" d="M3453.54,1461.19a35.15,35.15,0,1,0,35.14,35.15A35.15,35.15,0,0,0,3453.54,1461.19Z"/><path class="cls-4" d="M3555.28,1461.19a35.15,35.15,0,1,0,35.14,35.15A35.15,35.15,0,0,0,3555.28,1461.19Z"/><circle class="cls-4" cx="2944.85" cy="1592.53" r="35.15"/><circle class="cls-4" cx="3046.59" cy="1592.53" r="35.15"/><circle class="cls-4" cx="3148.33" cy="1592.53" r="35.15"/><path class="cls-4" d="M3250.06,1557.38a35.15,35.15,0,1,0,35.15,35.15A35.15,35.15,0,0,0,3250.06,1557.38Z"/><path class="cls-4" d="M3351.8,1557.38a35.15,35.15,0,1,0,35.15,35.15A35.15,35.15,0,0,0,3351.8,1557.38Z"/><path class="cls-4" d="M3453.54,1557.38a35.15,35.15,0,1,0,35.14,35.15A35.15,35.15,0,0,0,3453.54,1557.38Z"/><path class="cls-4" d="M3555.28,1557.38a35.15,35.15,0,1,0,35.14,35.15A35.15,35.15,0,0,0,3555.28,1557.38Z"/><polygon class="cls-5" points="2502.53 2140.82 2486.3 2250.78 2456.09 2455.57 2827.59 2455.57 2778.58 2143.4 2502.53 2140.82"/><g class="cls-6"><path d="M2502.53,2140.82l-16.23,110c77.63,31.27,147.65,81.68,201.18,146a588.5,588.5,0,0,1,42.75,58.74h97.37l-49-312.17Z"/></g><path class="cls-7" d="M3013.35,2416.87H2244.54a59.51,59.51,0,0,0-59.34,59.34h0a58.7,58.7,0,0,0,2.84,18.06h881.81a59,59,0,0,0,2.84-18.06h0A59.52,59.52,0,0,0,3013.35,2416.87Z"/><path class="cls-5" d="M3294.56,1070.16H1958.17c-51.24,0-95.46,31.53-114.21,76.14a122.51,122.51,0,0,0-9.63,47.7v768.81a215.38,215.38,0,0,0,10.71,67.08c26.83,81.81,101.29,142.56,190.19,149,5.21.39,10.5.59,15.81.59H3201.68c3.1,0,6.17-.08,9.21-.2A215.24,215.24,0,0,0,3324.67,2141a218.29,218.29,0,0,0,52.93-52.06,216,216,0,0,0,30.09-59,215.69,215.69,0,0,0,10.7-67.08V1194C3418.39,1125.89,3362.67,1070.16,3294.56,1070.16Z"/><path class="cls-7" d="M2031.08,2219.9q9.86.88,20,.9H3201.68a215.58,215.58,0,0,0,137.48-49.53,217.48,217.48,0,0,0,77.68-141.38h-1581C1848,2130.5,1929.69,2210.51,2031.08,2219.9Z"/><rect class="cls-8" x="1916.89" y="1183.68" width="1424.11" height="773.97" rx="23"/><g class="cls-9"><rect class="cls-4" x="1720.12" y="1329.36" width="1666.62" height="299.27" transform="translate(-219.8 2487.28) rotate(-50.06)"/><rect class="cls-4" x="2132.88" y="1685" width="1625.34" height="129" transform="translate(-286.81 2884.76) rotate(-50.06)"/></g><path class="cls-4" d="M2628.94,2074.33a48.44,48.44,0,1,0,48.44,48.43A48.49,48.49,0,0,0,2628.94,2074.33Zm0,92.87a44.44,44.44,0,1,1,44.44-44.44A44.49,44.49,0,0,1,2628.94,2167.2Z"/><g class="cls-10"><rect x="2219.59" y="1070.16" width="895.23" height="870.28"/></g><g class="cls-10"><path d="M3395.23,1967.43c-9.22,19.63-14.3,40.68-16.67,62.46-2.12,19.3-2.09,39.13-1,59,.73,12.28,1.84,24.58,3.15,36.81a215.3,215.3,0,0,0,36.09-95.84h-9.15a215.69,215.69,0,0,0,10.7-67.08V1929.5c-.18.24-.33.47-.51.7C3409,1942.38,3401.06,1955,3395.23,1967.43Z"/><path d="M3314.4,2122.56c-22-37.49-51.6-69.58-86-92.67A236.47,236.47,0,0,0,3178,2004c.05,8.62.15,17.26.36,25.88.75,33.43,3.09,66.89,11.69,98.81a205.41,205.41,0,0,0,20.84,50.62c8.57,14.55,19,27.47,31.45,37.61a215.88,215.88,0,0,0,96.82-45.66c-4.49-10.48-9.39-20.62-14.49-30.29Q3319.63,2131.43,3314.4,2122.56Z"/></g><rect class="cls-11" x="2169.72" y="731.34" width="895.23" height="1168.7"/><g class="cls-6"><path class="cls-4" d="M2897.71,805.18c0-1.4.05-2.79.11-4.19H2342c0,1.4.1,2.79.1,4.19a107.48,107.48,0,0,1-107.49,107.49c-1.68,0-3.35,0-5-.13v800.15c1.66-.07,3.33-.12,5-.12a107.48,107.48,0,0,1,107.49,107.49h555.6a107.49,107.49,0,0,1,107.49-107.49c1.68,0,3.35,0,5,.12V912.54c-1.67.08-3.34.13-5,.13A107.49,107.49,0,0,1,2897.71,805.18Z"/></g><path class="cls-4" d="M3029.93,885.91A113.24,113.24,0,0,1,2916.82,772.8c0-1.52.06-3,.12-4.41l.08-2.08H2317.65l.08,2.08c.05,1.36.11,2.89.11,4.41a113.24,113.24,0,0,1-113.11,113.11c-1.6,0-3.32,0-5.27-.13l-2.1-.1v861.05l2.09-.09c2-.09,3.68-.14,5.28-.14a113.24,113.24,0,0,1,113.11,113.11v2h599v-2a113.24,113.24,0,0,1,113.11-113.11c1.6,0,3.28,0,5.28.14l2.09.09v-861l-2.09.1C3033.26,885.87,3031.53,885.91,3029.93,885.91Zm3.37,856.65c-1.2,0-2.3-.06-3.37-.06a117.25,117.25,0,0,0-117.09,115.11h-591a117.25,117.25,0,0,0-117.1-115.11c-1.07,0-2.17,0-3.37.06V889.85c1.2,0,2.31.06,3.37.06A117.24,117.24,0,0,0,2321.84,772.8c0-.84,0-1.68,0-2.49h591.07c0,.81,0,1.65,0,2.49a117.25,117.25,0,0,0,117.11,117.11c1.07,0,2.18,0,3.37-.06Z"/><path class="cls-4" d="M2551.27,848H2367.79a4,4,0,0,0-4,4v6.32a4,4,0,0,0,4,4h183.48a4,4,0,0,0,4-4V852A4,4,0,0,0,2551.27,848Zm0,12.32v0Zm0-2H2367.79V852h183.48Z"/><path class="cls-4" d="M2873.75,848H2690.28a4,4,0,0,0-4,4v6.32a4,4,0,0,0,4,4h183.47a4,4,0,0,0,4-4V852A4,4,0,0,0,2873.75,848Zm0,12.32v-2H2690.28V852h183.47v6.32h0Z"/><path class="cls-4" d="M2933.09,1609.08H2749.62a4,4,0,0,0-4,4v6.32a4,4,0,0,0,4,4h183.47a4,4,0,0,0,4-4v-6.32A4,4,0,0,0,2933.09,1609.08Zm0,12.32v-2H2749.62v-6.32h183.47v6.32h0Z"/><path class="cls-4" d="M2618.62,835.39a20.21,20.21,0,1,0,20.21,20.21A20.21,20.21,0,0,0,2618.62,835.39Z"/><path class="cls-12" d="M2376.18,900.53a28.63,28.63,0,0,0-9.19-5.43,31.31,31.31,0,0,0-10.43-1.73,32,32,0,0,0-10.86,1.81,29.64,29.64,0,0,0-9.48,5.64,25.4,25.4,0,0,0-6.94,10.93,49.48,49.48,0,0,0-2.54,16.65v33.73a49.48,49.48,0,0,0,2.54,16.65,25.4,25.4,0,0,0,6.94,10.93,29.45,29.45,0,0,0,9.48,5.64,32,32,0,0,0,10.86,1.81,31.06,31.06,0,0,0,10.43-1.73,28.63,28.63,0,0,0,9.19-5.43,25.06,25.06,0,0,0,6.81-10.64,50.11,50.11,0,0,0,2.67-16.36v-3.19h-19.4v2.9q-.72,15.63-9.7,15.63-10,0-10-17.22V929.27q0-17.09,10-17.08,9.14,0,9.7,15.78v2.6h19.4v-3.18A49.45,49.45,0,0,0,2383,911.1,25.1,25.1,0,0,0,2376.18,900.53Z"/><polygon class="cls-12" points="2393.76 996 2437.63 996 2437.63 977.19 2413.16 977.19 2413.16 954.17 2436.18 954.17 2436.18 935.35 2413.16 935.35 2413.16 913.49 2437.63 913.49 2437.63 894.67 2393.76 894.67 2393.76 996"/><path class="cls-12" d="M2502.2,929v-6.23a29.6,29.6,0,0,0-2.9-13.53,21.54,21.54,0,0,0-7.74-8.76,35.74,35.74,0,0,0-10.36-4.41,48,48,0,0,0-11.72-1.38h-23.74V996h19.39V956.92h7.53l11,39.09h20.55l-14.33-45.17Q2502.19,944,2502.2,929Zm-19-2.61q0,6.23-3.11,9a10.9,10.9,0,0,1-7.6,2.82h-7.39v-24.9h7.39a10.85,10.85,0,0,1,7.67,2.83q3,2.82,3,9.19Z"/><polygon class="cls-12" points="2507.26 913.49 2524.05 913.49 2524.05 996 2543.45 996 2543.45 913.49 2560.24 913.49 2560.24 894.67 2507.26 894.67 2507.26 913.49"/><rect class="cls-12" x="2569.65" y="894.67" width="20.12" height="101.33"/><polygon class="cls-12" points="2600.49 996 2619.89 996 2619.89 955.76 2641.6 955.76 2641.6 936.94 2619.89 936.94 2619.89 913.49 2643.05 913.49 2643.05 894.67 2600.49 894.67 2600.49 996"/><rect class="cls-12" x="2651.15" y="894.67" width="20.12" height="101.33"/><path class="cls-12" d="M2730,900.53a28.63,28.63,0,0,0-9.19-5.43,31.31,31.31,0,0,0-10.43-1.73,32,32,0,0,0-10.85,1.81,29.68,29.68,0,0,0-9.49,5.64,25.4,25.4,0,0,0-6.94,10.93,49.49,49.49,0,0,0-2.53,16.65v33.73a49.49,49.49,0,0,0,2.53,16.65,25.4,25.4,0,0,0,6.94,10.93,29.5,29.5,0,0,0,9.49,5.64,32,32,0,0,0,10.85,1.81,31.06,31.06,0,0,0,10.43-1.73A28.63,28.63,0,0,0,2730,990a25.06,25.06,0,0,0,6.81-10.64,50.11,50.11,0,0,0,2.67-16.36v-3.19h-19.39v2.9q-.74,15.63-9.71,15.63-10,0-10-17.22V929.27q0-17.09,10-17.08,9.13,0,9.71,15.78v2.6h19.39v-3.18a49.45,49.45,0,0,0-2.67-16.29A25.1,25.1,0,0,0,2730,900.53Z"/><path class="cls-12" d="M2763.78,894.67,2743.37,996h19.4l4.64-22.44h17.66l4.49,22.44H2809l-20.41-101.34Zm5.65,59.5,6.66-37.5,6.66,37.5Z"/><polygon class="cls-12" points="2806.05 913.49 2822.85 913.49 2822.85 996 2842.25 996 2842.25 913.49 2859.04 913.49 2859.04 894.67 2806.05 894.67 2806.05 913.49"/><polygon class="cls-12" points="2867.15 996 2911.01 996 2911.01 977.19 2886.54 977.19 2886.54 954.17 2909.56 954.17 2909.56 935.35 2886.54 935.35 2886.54 913.49 2911.01 913.49 2911.01 894.67 2867.15 894.67 2867.15 996"/><path class="cls-4" d="M2936.86,1028.61H2312.42a3.66,3.66,0,0,0-3.66,3.66v5.27a3.67,3.67,0,0,0,3.66,3.67h624.44a3.67,3.67,0,0,0,3.67-3.67v-5.27A3.66,3.66,0,0,0,2936.86,1028.61Zm-.33,8.6H2312.76v-4.6h623.77Z"/><path class="cls-4" d="M2936.86,1160.18H2312.42a3.66,3.66,0,0,0-3.66,3.67v5.26a3.67,3.67,0,0,0,3.66,3.67h624.44a3.67,3.67,0,0,0,3.67-3.67v-5.26A3.67,3.67,0,0,0,2936.86,1160.18Zm-.33,8.6H2312.76v-4.6h623.77Z"/><path class="cls-4" d="M2936.86,1266H2312.42a3.66,3.66,0,0,0-3.66,3.66v5.27a3.67,3.67,0,0,0,3.66,3.67h624.44a3.67,3.67,0,0,0,3.67-3.67v-5.27A3.66,3.66,0,0,0,2936.86,1266Zm-.33,8.6H2312.76V1270h623.77Z"/><path class="cls-4" d="M2936.86,1371.73H2312.42a3.67,3.67,0,0,0-3.66,3.67v5.27a3.66,3.66,0,0,0,3.66,3.66h624.44a3.66,3.66,0,0,0,3.67-3.66v-5.27A3.67,3.67,0,0,0,2936.86,1371.73Zm-.33,8.6H2312.76v-4.6h623.77Z"/><path class="cls-4" d="M2936.86,1477.51H2312.42a3.66,3.66,0,0,0-3.66,3.66v5.27a3.67,3.67,0,0,0,3.66,3.67h624.44a3.67,3.67,0,0,0,3.67-3.67v-5.27A3.66,3.66,0,0,0,2936.86,1477.51Zm-.33,8.6H2312.76v-4.6h623.77Z"/><g class="cls-6"><path d="M2736,1200.29h0a15.45,15.45,0,0,1-7.74-25.18c10.43-11.83-1.47-29.85-16.44-24.9a15.46,15.46,0,0,1-20.14-17h0c2.38-15.59-17.37-24.32-27.29-12.06h0a15.45,15.45,0,0,1-26.13-3.42c-6.43-14.4-27.76-11.06-29.48,4.62h0A15.45,15.45,0,0,1,2585,1133.6c-13.19-8.64-29.33,5.7-22.3,19.82a15.46,15.46,0,0,1-14,22.35c-15.77-.14-21.59,20.66-8,28.73a15.46,15.46,0,0,1,.33,26.35h0c-13.34,8.41-7,29.05,8.77,28.52a15.45,15.45,0,0,1,14.52,22h0c-5.32,11.39,4.09,22.51,14.7,22v158.7l65.32-35.5,58.22,36.92V1281.59a15.2,15.2,0,0,1,11-.78h0c15.09,4.57,26.54-13.74,15.81-25.3h0a15.46,15.46,0,0,1,7.11-25.38C2751.56,1225.82,2751.29,1204.22,2736,1200.29Zm-96.69,63a47.57,47.57,0,1,1,47.57-47.57A47.57,47.57,0,0,1,2639.32,1263.29Z"/></g><polygon class="cls-4" points="2564.45 1230.56 2564.45 1433.08 2623.78 1400.83 2676.67 1434.37 2676.67 1220.24 2667.8 1221.06 2564.45 1230.56"/><path class="cls-13" d="M2707.11,1195.25h0a14,14,0,0,1-7-22.88h0c9.48-10.75-1.34-27.12-14.94-22.62h0a14,14,0,0,1-18.28-15.45h0c2.16-14.16-15.79-22.08-24.8-10.94h0a14,14,0,0,1-23.73-3.11h0c-5.84-13.08-25.22-10-26.78,4.19h0a14,14,0,0,1-21.65,10.22h0c-12-7.85-26.65,5.19-20.26,18h0a14,14,0,0,1-12.69,20.3h0c-14.32-.13-19.61,18.76-7.3,26.1h0a14,14,0,0,1,.3,23.93h0c-12.12,7.65-6.36,26.4,8,25.91h0a14,14,0,0,1,13.2,20h0c-6.07,13,8.92,25.63,20.7,17.49h0a14,14,0,0,1,21.9,9.66h0c1.92,14.2,21.37,16.75,26.88,3.52h0a14,14,0,0,1,23.65-3.7h0c9.28,10.91,27,2.53,24.51-11.57h0a14,14,0,0,1,17.89-15.9h0c13.71,4.15,24.11-12.48,14.36-23h0a14,14,0,0,1,6.46-23.05h0C2721.23,1218.43,2721,1198.82,2707.11,1195.25Z"/><circle class="cls-14" cx="2619.27" cy="1209.26" r="72.88"/><g class="cls-15"><g class="cls-16"><rect class="cls-4" x="2512.1" y="1183.82" width="197.96" height="36.09" transform="matrix(0.57, -0.82, 0.82, 0.57, 130.9, 2654.77)"/><rect class="cls-4" x="2544.74" y="1224.79" width="199.22" height="13.91" transform="translate(120.61 2694.79) rotate(-55.08)"/></g></g><g class="cls-6"><path class="cls-4" d="M2636.05,1168.76a44.16,44.16,0,0,0-58.48,23.23,44.26,44.26,0,0,0,9.93,49,44.23,44.23,0,0,0,75-31.77,43.26,43.26,0,0,1-3.36,16.51,42.25,42.25,0,0,1-39.85,25.71,42.21,42.21,0,0,1-29.34-71.55,42.16,42.16,0,0,1,69.19,12.83,43.25,43.25,0,0,1,3.36,16.5,44.36,44.36,0,0,0-26.43-40.5Z"/></g><path class="cls-4" d="M2775.05,1695.89c.48-1,1-2,1.51-3q-3,3.27-6.23,6.34c-.63,1.54-1.51,3.73-2.4,6.24q2.52-2.17,4.92-4.49Q2773.87,1698.4,2775.05,1695.89Z"/><path class="cls-4" d="M2776.56,1692.89a84.83,84.83,0,0,1,15.92-21.3c1.5-2.49,2.93-5,4.26-7.65l2.35,1.82q-3.45,2.76-6.61,5.83a130.86,130.86,0,0,1-15.92,21.3c-.52,1-1,2-1.51,3q-1.18,2.5-2.2,5.09a133.44,133.44,0,0,0,26.48-35.52,1.51,1.51,0,0,0-2.36-1.82,87.56,87.56,0,0,0-26.57,35.41l-.07.18Q2773.54,1696.17,2776.56,1692.89Z"/><path class="cls-4" d="M2808.77,1704.2a179.44,179.44,0,0,1-14.33,12.67c-5,4-10.55,8.82-16.79,10.74-3.52,1.08-8.11,1.41-9.66-2.94-1.11-3.1.24-7.52.9-10.58a82.14,82.14,0,0,1,4-13.11q-2.4,2.31-4.92,4.49c-3.4,9.64-6.83,24.08,3.92,25.73,5.38.82,10.79-2.12,15.05-5a175,175,0,0,0,18.55-14.7c3.48-3.15,6.82-6.45,10-9.86a116.52,116.52,0,0,1,6.11-11.47A175.94,175.94,0,0,1,2808.77,1704.2Z"/><path class="cls-4" d="M2796.74,1663.94c-1.33,2.61-2.76,5.16-4.26,7.65q3.15-3.06,6.61-5.83Z"/><path class="cls-4" d="M2716.79,1730.14c-1.85.54-1.07,3.43.79,2.89a134.23,134.23,0,0,0,50.35-27.56c.89-2.51,1.77-4.7,2.4-6.24A131.27,131.27,0,0,1,2716.79,1730.14Z"/><path class="cls-4" d="M2864.61,1680.64l2.35,1.81A110.17,110.17,0,0,0,2849.8,1704c-1,1.57-1.86,3.18-2.74,4.81a137.42,137.42,0,0,0,20.14-26.66,1.51,1.51,0,0,0-2.36-1.82,112.7,112.7,0,0,0-20.25,26.75c.36-.37.71-.74,1.07-1.1A135,135,0,0,0,2864.61,1680.64Z"/><path class="cls-4" d="M2895,1691.67a5.54,5.54,0,0,1,.81,1.56l1.55-1.26Z"/><path class="cls-4" d="M2929.08,1702.57c-6.56,8.44-16.89,20.55-28.64,13.45-11.49-6.93,3.27-17.44-2.88-25.86a1.53,1.53,0,0,0-2.35-.31l-24.37,19.7c-6.65,5.38-13.91,13.45-22.72,15-1.88.34-5.22.6-6.51-1.3s1.28-5.87,2.07-7.61c1-2.33,2.18-4.61,3.38-6.85-1.48,1.53-3,3-4.55,4.5-.57.53-1.16,1-1.73,1.57-.12.26-.25.51-.36.77-.76,1.76-2.64,4.65-2.57,6.48.08,2.49,2.61,4.47,4.86,5.21,7.63,2.53,15.66-3.87,21.12-8.28l32-25.83a5.54,5.54,0,0,0-.81-1.56l2.36.3-1.55,1.26c1.71,5.08-4,11.77-3,17.24.86,4.48,4.6,7.77,8.68,9.4,12.65,5.06,22.74-6.2,29.71-15.18C2932.38,1703.19,2930.27,1701.05,2929.08,1702.57Z"/><path class="cls-4" d="M2836.49,1674.7a121.93,121.93,0,0,0-12.52,17.23,186.45,186.45,0,0,0,12.76-17.54c.91-1.41-1.23-3.11-2.36-1.81a124.41,124.41,0,0,0-12.77,17.55,185.09,185.09,0,0,0,12.54-17.25Z"/><path class="cls-4" d="M2847.06,1708.81c.88-1.63,1.79-3.24,2.74-4.81a110.17,110.17,0,0,1,17.16-21.55l-2.35-1.81a135,135,0,0,1-19,25.34c-.36.36-.71.73-1.07,1.1-.07.14-.16.27-.23.41q-1.93,3.63-3.58,7.39c.57-.53,1.16-1,1.73-1.57C2844.07,1711.85,2845.58,1710.34,2847.06,1708.81Z"/><path class="cls-4" d="M2844.59,1707.08c-6.76,7-14.54,14.09-23.05,18.72-1.8,1-5.19,2.6-7.27,1.85-1.71-.61-3-4-2.87-5.88a17.93,17.93,0,0,1,1.1-3.94,114.72,114.72,0,0,1,5.86-15.35,116.83,116.83,0,0,1,5.61-10.55q-4.06,5-8.48,9.67-1,2.14-1.91,4.34c-2.38,5.75-11.26,23.44.45,24.76,4.71.53,9.12-2.24,12.81-4.77a137.13,137.13,0,0,0,13.94-11q1.65-3.77,3.58-7.39C2844.43,1707.35,2844.52,1707.22,2844.59,1707.08Z"/><path class="cls-4" d="M2836.49,1674.7l-2.35-1.82a185.09,185.09,0,0,1-12.54,17.25,116.52,116.52,0,0,0-6.11,11.47q4.41-4.69,8.48-9.67A121.93,121.93,0,0,1,2836.49,1674.7Z"/><path class="cls-17" d="M1987.84,889.11,1920,864.25c-15.59-5.71-24.5,18.5-8.88,24.22L1979,913.33C1994.55,919.05,2003.45,894.83,1987.84,889.11Z"/><path class="cls-17" d="M3322.23,883.17,3254.41,908c-15.62,5.72-6.71,29.94,8.88,24.22l67.82-24.86C3346.72,901.67,3337.82,877.45,3322.23,883.17Z"/><path class="cls-17" d="M2327.46,459c-9.73-13.44-30.65,1.66-20.9,15.13l42.36,58.52c9.74,13.44,30.65-1.66,20.9-15.13Z"/><path class="cls-17" d="M2927.68,467.56l-42.36,58.52c-9.75,13.47,11.17,28.57,20.9,15.13l42.36-58.52C2958.33,469.22,2937.42,454.12,2927.68,467.56Z"/><path class="cls-17" d="M2087.08,594.6a43,43,0,1,0,43,43A43,43,0,0,0,2087.08,594.6Zm0,67.86a24.86,24.86,0,1,1,24.86-24.86A24.86,24.86,0,0,1,2087.08,662.46Z"/><path class="cls-17" d="M3143,592.1a43,43,0,1,0,43,43A43,43,0,0,0,3143,592.1Zm0,67.86a24.86,24.86,0,1,1,24.86-24.86A24.86,24.86,0,0,1,3143,660Z"/><polygon class="cls-17" points="2634.01 540.5 2656.19 457.75 2573.44 479.92 2634.01 540.5"/><ellipse class="cls-3" cx="1295.13" cy="2674.86" rx="601.12" ry="85.14"/><path class="cls-11" d="M3488,1868c-12.59,13.58-26.75,29.75-39.13,46.75-8.87,12.19-16.84,24.81-22.66,37.22-25.95,55.32-19.06,121.87-11.5,183.75.2,1.62.53,3.46,1.81,4.24,1.66,1,3.61-.45,5-1.84,16.62-16.21,33.33-31.41,49.35-48,28.63-29.7,55.55-61.86,76.54-98.85,32.85-57.91,50.11-130.47,32.32-196.08C3546.65,1815,3515.06,1838.73,3488,1868Z"/><path class="cls-14" d="M3209,1988.53c.32,42,1.24,84.52,12,124.7s32.8,78.31,66,97.84c18,10.59,38.26,15.22,57.4,22.93s36.25,19.36,47.86,38.42c6.05-57.16-19.5-118.69-46.91-165.35C3313.19,2052.3,3264.86,2009,3209,1988.53Z"/><path class="cls-14" d="M3440.78,2240.23c-1.83,7.73-14.57,40.14-6.46,45.16,3.29,2,55.28-20.28,63.6-22.34,44-10.86,86.27-34.48,116.69-71.67,32.59-39.86,49.66-92.13,66-143-55.71,13.94-112.57,29.45-160.08,64.84C3479,2144.16,3453.35,2187,3440.78,2240.23Z"/><path class="cls-4" d="M3482.23,2223.78c-15.62,13.85-31.77,28.17-43.24,47.14-18.86,31.2-22.3,70.35-25.33,104.88l4,.35c3-34.1,6.4-72.75,24.78-103.16,11.15-18.45,27.07-32.56,42.46-46.21l88.79-78.73-2.66-3Z"/><path class="cls-4" d="M3401.53,2364.44c.66-17,1.35-34.56.21-51.78-5-75.83-44-142.06-80.1-198.18l-3.36,2.16c35.86,55.7,74.52,121.4,79.47,196.28,1.12,17,.44,34.48-.21,51.37-1,24.58-1.95,50,2.59,74.53l3.93-.73C3399.61,2414,3400.59,2388.8,3401.53,2364.44Z"/><path class="cls-4" d="M3414,2162.09c-5.58,36.28-6.13,73.59-6.66,109.67l-2,136.5,4,.06,2-136.5c.52-36,1.07-73.11,6.62-109.12,10.61-68.93,39-132.44,66.5-193.85l-3.65-1.63C3453.2,2028.87,3424.67,2092.63,3414,2162.09Z"/><path class="cls-17" d="M3322.05,2561.35s181-2.11,181.11-3.19l12-183H3307.65S3322,2561,3322.05,2561.35Z"/><g class="cls-6"><path d="M3313.22,2437.38c2.62-1.13,5.23-2.31,7.85-3.43,38.78-16.58,77.9-32.17,117.38-45.72q16.2-6.6,32.43-13H3307.65Z"/></g><path class="cls-17" d="M3301.34,2341.53v50.18a31.1,31.1,0,0,0,5.41.52h206.87l5-51.2H3306.75A31.91,31.91,0,0,0,3301.34,2341.53Z"/><path class="cls-18" d="M1144.8,1866.21,990.56,2054.67a11.05,11.05,0,0,0,13.58,17L1115.81,2031l156.32,116.43,102.81-143.54L1211.12,1906Z"/><path class="cls-14" d="M984.28,2054.1c-4.41,5.11-4.86,15.13.94,20.14,4.34,3.74,10.26,4.75,14.9,2.53l124-39.52c11.71-57.86,89-129.86,89-129.86l-63.6-54.52Z"/><path class="cls-4" d="M1102.14,2046.28a134.67,134.67,0,0,0-9.8-29.93Z"/><path class="cls-4" d="M1090.53,2017.19a133.2,133.2,0,0,1,9.65,29.48l3.92-.79a137.06,137.06,0,0,0-9.94-30.37Z"/><path class="cls-4" d="M1086.19,2051.47a118.24,118.24,0,0,0-8.63-25.11Z"/><path class="cls-4" d="M1075.74,2027.17a117.59,117.59,0,0,1,8.51,24.75l3.89-.9a120,120,0,0,0-8.75-25.47Z"/><path class="cls-4" d="M1073.46,2056.51c-1.6-7.38-5.27-15.91-8-22.94Z"/><path class="cls-4" d="M1067.32,2032.84l-3.73,1.45c.47,1.21,1,2.47,1.48,3.75,2.41,6.06,5.15,12.94,6.44,18.89l3.91-.85c-1.36-6.27-4.16-13.31-6.63-19.52C1068.28,2035.29,1067.79,2034,1067.32,2032.84Z"/><path class="cls-12" d="M1486.54,1628.27C1443.3,1738.51,1660,2032.52,1679,2115.8c4.15,18.24-14.5,18.55-46.18,7.92-3-1-6.06-2.09-9.26-3.28-66.61-24.69-179.64-88.82-265.6-140.11l-15.46-9.24c-58.79-35.34-101.51-62.51-101.51-62.51l-89.3,195.35s12.26,11.3,33.9,29.31c20,16.69,48.17,39.16,82,63.77,65.4,47.58,152.29,103.12,244.18,140.51,43.19,17.59,87.51,31.16,131.19,38,74.3,11.63,146.85,3.79,209.15-36.92,206.47-134.9-56.08-699.08-56.08-699.08Z"/><path class="cls-18" d="M1008.43,2431.41l-67.7,37.36,85.44,228.06a11.06,11.06,0,0,0,21.5-3.22l21-117L1247.84,2500l-72.45-161Z"/><path class="cls-14" d="M1010.67,2430.37,931.58,2458l90.94,244c2.2,6.38,10.64,11.8,17.88,9.31,5.42-1.87,9.27-6.49,9.68-11.62l28.16-127.09C1034.09,2533.37,1010.67,2430.37,1010.67,2430.37Z"/><path class="cls-4" d="M1075,2596.14a134.67,134.67,0,0,0-30.8-6.57Z"/><path class="cls-4" d="M1044,2591.56a132.75,132.75,0,0,1,30.35,6.47l1.28-3.79a136.73,136.73,0,0,0-31.26-6.66Z"/><path class="cls-4" d="M1071.45,2612.53a118.24,118.24,0,0,0-26-5.15Z"/><path class="cls-4" d="M1045.19,2609.36a117.42,117.42,0,0,1,25.68,5.08l1.17-3.82a120.07,120.07,0,0,0-26.41-5.23Z"/><path class="cls-4" d="M1069.41,2626.07c-7.18-2.32-16.4-3.44-23.85-4.6Z"/><path class="cls-4" d="M1045.87,2619.49l-.62,4,4,.61c6.45,1,13.77,2,19.56,3.92l1.23-3.81c-6.11-2-13.6-3.09-20.2-4.07Z"/><path class="cls-12" d="M1359.19,1615.94c9.42,223.09,24.27,389.26-31.93,507.56C1258.07,2269.14,1056,2398.74,1056,2398.74l123.63,205s178-68.88,346.53-290.64c192.51-253.29,111.18-660.26,111.18-660.26Z"/><g class="cls-19"><path class="cls-4" d="M1062.82,2464.47a36.61,36.61,0,0,0-5.86,2.61,2,2,0,0,0,1.11,3.67,2,2,0,0,0,1.1-.34,47,47,0,0,1,5.1-2.21,2,2,0,0,0-1.45-3.73Z"/><path class="cls-4" d="M1193.36,2401.38c-3.37,2.12-6.83,4.25-10.3,6.34a2,2,0,0,0,1,3.71,2,2,0,0,0,1-.28c3.48-2.1,7-4.25,10.36-6.39a2,2,0,1,0-2.13-3.38Z"/><path class="cls-4" d="M1172.64,2413.87c-3.48,2-7,4-10.53,5.94a2,2,0,0,0,1,3.75,2,2,0,0,0,1-.25c3.53-1.94,7.1-4,10.6-6a2,2,0,1,0-2-3.46Z"/><path class="cls-4" d="M1213.57,2388.1c-3.31,2.27-6.69,4.54-10,6.74a2,2,0,0,0,1.1,3.67,1.94,1.94,0,0,0,1.1-.33c3.37-2.21,6.77-4.49,10.1-6.78a2,2,0,0,0-2.26-3.3Z"/><path class="cls-4" d="M1151.46,2425.55c-3.53,1.87-7.15,3.73-10.75,5.55a2,2,0,0,0,.9,3.78,2.08,2.08,0,0,0,.9-.21c3.62-1.83,7.26-3.7,10.82-5.58a2,2,0,1,0-1.87-3.54Z"/><path class="cls-4" d="M1129.85,2436.44c-3.63,1.74-7.31,3.47-10.95,5.14a2,2,0,0,0,.83,3.82,2.08,2.08,0,0,0,.84-.18c3.65-1.68,7.36-3.42,11-5.18a2,2,0,0,0-1.74-3.6Z"/><path class="cls-4" d="M1288.55,2327.21c-2.88,2.77-5.84,5.56-8.8,8.28a2,2,0,0,0,1.35,3.47,2,2,0,0,0,1.36-.53c3-2.74,6-5.54,8.86-8.33a2,2,0,0,0-2.77-2.89Z"/><path class="cls-4" d="M1305.62,2310.1c-2.76,2.89-5.6,5.79-8.44,8.65a2,2,0,0,0,0,2.83,2,2,0,0,0,2.83,0c2.87-2.87,5.73-5.8,8.5-8.71a2,2,0,0,0-2.89-2.76Z"/><path class="cls-4" d="M1270.77,2343.58c-3,2.65-6.07,5.31-9.14,7.9a2,2,0,0,0,1.29,3.53,2,2,0,0,0,1.29-.47c3.09-2.62,6.19-5.29,9.21-8a2,2,0,1,0-2.65-3Z"/><path class="cls-4" d="M1233.24,2374c-3.19,2.38-6.48,4.78-9.77,7.13a2,2,0,0,0,2.33,3.25c3.31-2.36,6.62-4.78,9.83-7.17a2,2,0,0,0-2.39-3.21Z"/><path class="cls-4" d="M1321.93,2292.27c-2.65,3-5.36,6.05-8.06,9a2,2,0,1,0,3,2.7c2.72-3,5.45-6,8.12-9.07a2,2,0,0,0-3-2.64Z"/><path class="cls-4" d="M1252.32,2359.19c-3.11,2.53-6.3,5.06-9.47,7.52a2,2,0,0,0,2.46,3.16c3.19-2.48,6.4-5,9.53-7.57a2,2,0,0,0-2.52-3.11Z"/><path class="cls-4" d="M1476.79,1698.46q.33,6,.61,12.1a2,2,0,0,0,2,1.91h.09a2,2,0,0,0,1.91-2.09q-.29-6.15-.61-12.13a2,2,0,0,0-4,.21Z"/><path class="cls-4" d="M1473.36,1650.13q.53,5.92,1,12.08a2,2,0,0,0,2,1.84h.16a2,2,0,0,0,1.84-2.15q-.49-6.17-1-12.11a2,2,0,0,0-2.17-1.81A2,2,0,0,0,1473.36,1650.13Z"/><path class="cls-4" d="M1475.28,1674.28q.42,6,.8,12.09a2,2,0,0,0,2,1.88h.12a2,2,0,0,0,1.88-2.12q-.39-6.15-.81-12.12a2,2,0,0,0-2.14-1.85A2,2,0,0,0,1475.28,1674.28Z"/><path class="cls-4" d="M1479.84,1720.59a2,2,0,0,0-1.93,2.07q.22,6,.41,12.11a2,2,0,0,0,2,1.94h.06a2,2,0,0,0,1.94-2.06q-.18-6.14-.41-12.14A2,2,0,0,0,1479.84,1720.59Z"/><path class="cls-4" d="M1480.63,1744.83h0a2,2,0,0,0-2,2.05q.12,6,.21,12.11a2,2,0,0,0,2,2h0a2,2,0,0,0,2-2q-.09-6.14-.21-12.15A2,2,0,0,0,1480.63,1744.83Z"/><path class="cls-4" d="M1085.48,2455.8c-3.57,1.41-7.16,2.8-11.3,4.37a2,2,0,0,0,.7,3.87,1.94,1.94,0,0,0,.71-.13c4.17-1.58,7.78-3,11.36-4.39a2,2,0,1,0-1.47-3.72Z"/><path class="cls-4" d="M1472.84,1623.82a2,2,0,0,0-1.78,2.19q.62,5.88,1.2,12.06a2,2,0,0,0,2,1.81h.19a2,2,0,0,0,1.8-2.18q-.59-6.2-1.2-12.09A2,2,0,0,0,1472.84,1623.82Z"/><path class="cls-4" d="M1107.85,2446.52c-3.64,1.59-7.39,3.18-11.14,4.74a2,2,0,0,0,.77,3.85,1.89,1.89,0,0,0,.76-.16c3.77-1.56,7.55-3.17,11.21-4.77a2,2,0,0,0-1.6-3.66Z"/><path class="cls-4" d="M1463.47,1565.93a2,2,0,0,0,2,1.7,1.51,1.51,0,0,0,.3,0,2,2,0,0,0,1.68-2.27c-.61-4-1.24-8.09-1.88-12a2,2,0,1,0-4,.64C1462.24,1557.88,1462.87,1561.9,1463.47,1565.93Z"/><path class="cls-4" d="M1466.92,1575.66a2,2,0,0,0-1.71,2.26c.53,3.77,1.08,7.78,1.63,12a2,2,0,0,0,2,1.74,1.18,1.18,0,0,0,.26,0,2,2,0,0,0,1.72-2.24q-.83-6.35-1.62-12A2,2,0,0,0,1466.92,1575.66Z"/><path class="cls-4" d="M1470.09,1599.71a2,2,0,0,0-1.74,2.23q.7,5.8,1.41,12a2,2,0,0,0,2,1.78l.23,0a2,2,0,0,0,1.76-2.21q-.7-6.24-1.41-12.06A2,2,0,0,0,1470.09,1599.71Z"/><path class="cls-4" d="M1424,2126.55a2,2,0,0,0-2.59,1.14l-1.44,3.66c-1,2.54-2,5.05-3.07,7.55a2,2,0,0,0,1.09,2.62,2.06,2.06,0,0,0,.76.15,2,2,0,0,0,1.85-1.24c1-2.51,2.07-5,3.08-7.6.49-1.23,1-2.46,1.45-3.69A2,2,0,0,0,1424,2126.55Z"/><path class="cls-4" d="M1476,1890.23a2,2,0,0,0-2.17,1.81q-.55,6-1.18,12a2,2,0,0,0,1.79,2.19h.21a2,2,0,0,0,2-1.79q.63-6.06,1.18-12.1A2,2,0,0,0,1476,1890.23Z"/><path class="cls-4" d="M1473.55,1914.36a2,2,0,0,0-2.21,1.76c-.46,4-.94,8.05-1.44,12.05a2,2,0,0,0,1.73,2.23l.25,0a2,2,0,0,0,2-1.75c.5-4,1-8.09,1.44-12.09A2,2,0,0,0,1473.55,1914.36Z"/><path class="cls-4" d="M1470.57,1938.49a2,2,0,0,0-2.25,1.71c-.55,4-1.13,8-1.72,12a2,2,0,0,0,1.68,2.28l.3,0a2,2,0,0,0,2-1.71c.6-4,1.18-8.06,1.73-12A2,2,0,0,0,1470.57,1938.49Z"/><path class="cls-4" d="M1340.25,2273.44a2,2,0,0,0-2.81.31c-2.5,3.13-5.08,6.27-7.65,9.35a2,2,0,0,0,1.53,3.28,2,2,0,0,0,1.53-.71c2.6-3.1,5.19-6.27,7.71-9.42A2,2,0,0,0,1340.25,2273.44Z"/><path class="cls-4" d="M1462.9,1986.46a2,2,0,0,0-2.34,1.6c-.74,4-1.52,8-2.31,11.89a2,2,0,0,0,1.56,2.36,2.85,2.85,0,0,0,.4,0,2,2,0,0,0,2-1.61c.79-3.94,1.58-8,2.33-11.94A2,2,0,0,0,1462.9,1986.46Z"/><path class="cls-4" d="M1479.36,1841.84a2,2,0,0,0-2.1,1.89q-.32,6-.68,12.09a2,2,0,0,0,1.88,2.12h.12a2,2,0,0,0,2-1.88q.38-6.09.69-12.13A2,2,0,0,0,1479.36,1841.84Z"/><path class="cls-4" d="M1477.92,1866.05a2,2,0,0,0-2.14,1.85q-.42,6-.92,12.08a2,2,0,0,0,1.83,2.15h.17a2,2,0,0,0,2-1.84q.5-6.08.92-12.11A2,2,0,0,0,1477.92,1866.05Z"/><path class="cls-4" d="M1480.85,1793.35h0a2,2,0,0,0-2,2q-.09,6-.22,12.11a2,2,0,0,0,2,2h0a2,2,0,0,0,2-2q.14-6.11.22-12.15A2,2,0,0,0,1480.85,1793.35Z"/><path class="cls-4" d="M1480.94,1769.09h0a2,2,0,0,0-2,2c0,1.84,0,3.68,0,5.53q0,3.28,0,6.58a2,2,0,0,0,2,2h0a2,2,0,0,0,2-2q0-3.32,0-6.6c0-1.85,0-3.7,0-5.55A2,2,0,0,0,1480.94,1769.09Z"/><path class="cls-4" d="M1458.15,2010.28a2,2,0,0,0-2.38,1.53c-.85,4-1.74,7.93-2.64,11.82a2,2,0,0,0,1.5,2.4,2.49,2.49,0,0,0,.46,0,2,2,0,0,0,1.94-1.55c.9-3.91,1.8-7.91,2.65-11.88A2,2,0,0,0,1458.15,2010.28Z"/><path class="cls-4" d="M1480.33,1817.6a2,2,0,0,0-2.06,1.93q-.19,6-.45,12.1a2,2,0,0,0,1.92,2.08h.08a2,2,0,0,0,2-1.92q.26-6.1.45-12.14A2,2,0,0,0,1480.33,1817.6Z"/><path class="cls-4" d="M1467,1962.53a2,2,0,0,0-2.29,1.65c-.66,4-1.34,8.07-2,12a2,2,0,0,0,1.63,2.32,2.07,2.07,0,0,0,.35,0,2,2,0,0,0,2-1.66c.69-3.9,1.37-7.93,2-12A2,2,0,0,0,1467,1962.53Z"/><path class="cls-4" d="M1393.61,2192.59a2,2,0,0,0-2.71.8c-1.93,3.54-3.92,7.09-5.9,10.55a2,2,0,0,0,3.47,2c2-3.48,4-7,5.94-10.62A2,2,0,0,0,1393.61,2192.59Z"/><path class="cls-4" d="M1404.67,2171a2,2,0,0,0-2.67.92c-1.78,3.63-3.61,7.26-5.44,10.79a2,2,0,0,0,.86,2.69,2,2,0,0,0,2.7-.86c1.84-3.55,3.68-7.21,5.47-10.86A2,2,0,0,0,1404.67,2171Z"/><path class="cls-4" d="M1452.75,2033.94a2,2,0,0,0-2.42,1.47c-1,3.94-2,7.88-3,11.73a2,2,0,0,0,1.43,2.44,1.77,1.77,0,0,0,.5.07,2,2,0,0,0,1.94-1.5c1-3.86,2-7.83,3-11.79A2,2,0,0,0,1452.75,2033.94Z"/><path class="cls-4" d="M1368.71,2234.19a2,2,0,0,0-2.77.56c-2.22,3.34-4.51,6.7-6.8,10a2,2,0,0,0,.5,2.78,2,2,0,0,0,1.14.36,2,2,0,0,0,1.64-.86c2.31-3.3,4.61-6.69,6.85-10.05A2,2,0,0,0,1368.71,2234.19Z"/><path class="cls-4" d="M1354.92,2254.13a2,2,0,0,0-2.8.44c-2.36,3.24-4.8,6.49-7.23,9.67a2,2,0,1,0,3.17,2.43c2.45-3.2,4.91-6.48,7.29-9.75A2,2,0,0,0,1354.92,2254.13Z"/><path class="cls-4" d="M1381.62,2213.67a2,2,0,0,0-2.75.68c-2.06,3.42-4.2,6.88-6.35,10.27a2,2,0,0,0,.62,2.76,2,2,0,0,0,2.76-.62c2.17-3.41,4.32-6.9,6.4-10.35A2,2,0,0,0,1381.62,2213.67Z"/><path class="cls-4" d="M1414.8,2149a2,2,0,0,0-2.64,1c-1.6,3.66-3.27,7.37-5,11a2,2,0,0,0,1,2.66,1.94,1.94,0,0,0,.84.19,2,2,0,0,0,1.81-1.16c1.71-3.67,3.39-7.4,5-11.09A2,2,0,0,0,1414.8,2149Z"/><path class="cls-4" d="M1439.88,2080.72a2,2,0,0,0-2.51,1.32c-1.2,3.85-2.45,7.72-3.7,11.52a2,2,0,0,0,3.8,1.25c1.26-3.81,2.51-7.71,3.72-11.58A2,2,0,0,0,1439.88,2080.72Z"/><path class="cls-4" d="M1446.67,2057.44a2,2,0,0,0-2.46,1.39c-1.08,3.88-2.2,7.79-3.33,11.63a2,2,0,0,0,1.35,2.48,1.88,1.88,0,0,0,.57.09,2,2,0,0,0,1.92-1.44c1.14-3.86,2.26-7.79,3.34-11.69A2,2,0,0,0,1446.67,2057.44Z"/><path class="cls-4" d="M1432.33,2103.78a2,2,0,0,0-2.55,1.22c-1.33,3.8-2.7,7.63-4.09,11.38a2,2,0,0,0,1.18,2.57,1.93,1.93,0,0,0,.7.13,2,2,0,0,0,1.87-1.31c1.4-3.78,2.78-7.63,4.11-11.45A2,2,0,0,0,1432.33,2103.78Z"/><path class="cls-4" d="M1462.47,1535.77a2,2,0,0,0-3.92.78s.4,2,1.08,5.86a2,2,0,0,0,2,1.65,2,2,0,0,0,2-2.35C1462.88,1537.81,1462.47,1535.77,1462.47,1535.77Z"/></g><g class="cls-6"><path class="cls-4" d="M1638,1666.11c.22,1,21.5,103.16,16.42,235.45-3,77.67-14.33,150.36-33.74,216.05-24.24,82-61.19,153.33-109.83,211.88l3.07,2.56c49-59,86.2-130.74,110.6-213.31,19.5-66,30.91-139,33.9-217,5.09-132.78-16.29-235.4-16.5-236.43Z"/></g><g class="cls-6"><path class="cls-4" d="M1314.16,2136.09c-20.81,37.58-40.91,60.42-41.11,60.64l3,2.66c.21-.23,20.54-23.33,41.56-61.27,19.41-35,43.41-90.24,47.6-154.51l-4-.26C1357.07,2046.83,1333.34,2101.45,1314.16,2136.09Z"/></g><polygon class="cls-20" points="1036.53 2408.51 1147.74 2622.76 1198.27 2600.92 1070.53 2390.15 1036.53 2408.51"/><g class="cls-6"><path class="cls-4" d="M1675.26,1682.64l4.51,106.86c.4,9.46-14.14,23.33-19.78,27.87l2.5,3.12c.9-.72,21.85-17.75,21.28-31.16l-4.51-106.85Z"/></g><polygon class="cls-20" points="1132.66 2098.89 1178.4 2130.45 1273.97 1928.16 1236.86 1903.43 1132.66 2098.89"/><path d="M1228.74,1142.79c-25.81,5.37-35.35,64.48-21.31,132s46.34,118,72.14,112.61,35.35-64.48,21.32-132S1254.55,1137.43,1228.74,1142.79Z"/><path class="cls-18" d="M1187.56,1169.45V957.85s28.85-40.08,27.25-56.11-51.3-59.31-49.69-49.69,4.81,22.44,4.81,22.44-16-24-30.46-20.84c-16-9.62-41.68,6.41-41.68,6.41s-19.24-1.6-20.84,4.81-19.23,3.21-22.44,12.83,12.82,56.1,28.85,67.32-59.31,176.34-38.47,270.91,296.56,147.48,296.56,147.48,38.47-32.06-28.85-166.71Z"/><g class="cls-21"><path class="cls-22" d="M1239.26,1058.18l-49.6-88-32.28,185.06c-1.82,10.46-3.64,21.34-.84,31.59,3.22,11.78,12.09,21.12,21.2,29.26,26,23.18,56.27,41,82.72,63.6s49.73,51.87,54.35,86.36c1.12,8.36,1.17,17.08,4.71,24.73s12.07,13.94,20.13,11.45c3.86-1.2,6.9-4.15,9.64-7.11,27.68-29.88,41.25-70.52,46.17-111,6.27-51.5-1-105.9-28.16-150.09S1291.14,1057.72,1239.26,1058.18Z"/></g><path class="cls-23" d="M1108.92,881.75a35.1,35.1,0,0,0-4.09-3.5,70.82,70.82,0,0,0-8.87-5.5,108.25,108.25,0,0,0-19-7.88c5.89,3.51,11.77,6.91,17.43,10.56a99,99,0,0,1,8.13,5.8,37.15,37.15,0,0,1,3.56,3.25,10.14,10.14,0,0,1,2.35,3.48,2.61,2.61,0,0,1,.15,1.34,2.15,2.15,0,0,1-.74,1,11.09,11.09,0,0,1-3.95,1.48,54.66,54.66,0,0,1-9.79.9c-6.71.1-13.5-.24-20.34-.51a97.48,97.48,0,0,0,20.27,3.63,47,47,0,0,0,10.57-.3,13.93,13.93,0,0,0,5.56-2,6,6,0,0,0,2.25-3.07,6.45,6.45,0,0,0-.19-3.68A13.84,13.84,0,0,0,1108.92,881.75Z"/><path class="cls-23" d="M1134.49,930.59a73.31,73.31,0,0,0-4.57-11.86,62.46,62.46,0,0,0-6.83-10.86,48.3,48.3,0,0,0-9.43-8.85,39.55,39.55,0,0,0-11.6-5.66c-.52-.16-1-.34-1.54-.48l-1.57-.34a31.79,31.79,0,0,0-3.15-.61l-3.18-.34a12.11,12.11,0,0,0-1.59-.09l-1.59,0a47.39,47.39,0,0,0-6.31.35c-2.09.21-4.14.7-6.18,1.1h3.13a29.16,29.16,0,0,1,3.1,0,54.28,54.28,0,0,1,6.13.5,46.93,46.93,0,0,1,11.73,2.87c.92.4,1.87.71,2.76,1.17l2.67,1.33a44.45,44.45,0,0,1,5,3.28,46.86,46.86,0,0,1,8.54,8.29,63.06,63.06,0,0,1,6.58,10.08,89.53,89.53,0,0,1,5,11.11,120.21,120.21,0,0,1,3.68,11.74c1.07,4,1.94,8,2.65,12.13a74,74,0,0,0-.73-12.52A86,86,0,0,0,1134.49,930.59Z"/><path class="cls-23" d="M1130.57,875.36a33.29,33.29,0,0,0-5.84-6,56.54,56.54,0,0,0-6.65-4.63,71.56,71.56,0,0,0-7.1-3.72c-1.23-.53-2.46-1.06-3.72-1.51a20.49,20.49,0,0,0-3.86-1.09,77.18,77.18,0,0,1,6.61,4.3c2.16,1.48,4.25,3,6.31,4.61s4.06,3.2,6,4.91c.93.86,1.86,1.72,2.7,2.63a25.66,25.66,0,0,1,2.37,2.8c1.43,1.92,2.39,4,2.17,5.84a4.22,4.22,0,0,1-1.08,2.49,7.16,7.16,0,0,1-2.65,1.69,24,24,0,0,1-7.3,1.27,73.82,73.82,0,0,1-7.86-.08,34.59,34.59,0,0,0,7.77,2,22.2,22.2,0,0,0,8.34-.23,9.92,9.92,0,0,0,4.17-2.17,7.66,7.66,0,0,0,2.36-4.45,9.4,9.4,0,0,0-.53-4.85A16.28,16.28,0,0,0,1130.57,875.36Z"/><path class="cls-23" d="M1159.77,878.28a16,16,0,0,0-9.86,6.17,25.11,25.11,0,0,0-4.56,10.35,29.26,29.26,0,0,0-.27,11c1-3.5,2-6.86,3.27-10.07a34.74,34.74,0,0,1,4.71-8.77,16.19,16.19,0,0,1,7.5-5.58,28.5,28.5,0,0,1,10.17-1.23,18.48,18.48,0,0,0-5.23-1.78A15.75,15.75,0,0,0,1159.77,878.28Z"/><path class="cls-23" d="M1157.36,872.43a55.27,55.27,0,0,0-6.86-6c-2.39-1.81-4.84-3.52-7.37-5.09a115,115,0,0,0-15.68-8.46c4.59,3.79,9.27,7.37,13.89,11,2.29,1.84,4.58,3.65,6.8,5.51a73,73,0,0,1,6.29,5.8,14.68,14.68,0,0,1,2.31,3.05,2.35,2.35,0,0,1,.32.92s.1,0-.41.3a25.17,25.17,0,0,1-7.73,2.51,127.78,127.78,0,0,1-17.47,1.38,57.15,57.15,0,0,0,8.82,1.56,51.4,51.4,0,0,0,9,.15,22.42,22.42,0,0,0,2.3-.24,20.6,20.6,0,0,0,2.3-.42l1.16-.27,1.15-.39a15.61,15.61,0,0,0,2.29-1,4.5,4.5,0,0,0,1.38-1,4,4,0,0,0,1-2,5.56,5.56,0,0,0-.58-3.33A17.69,17.69,0,0,0,1157.36,872.43Z"/><path class="cls-23" d="M1157.06,879.13h0S1157.05,879.13,1157.06,879.13Z"/><path class="cls-18" d="M1944.09,857.28c13.28-14.37,19.06-63.2,13.88-71.92s-21.72-1.83-24.65-7.76-21.39-.27-21.39-.27-28.47-10.21-42.09,2.6c-14.78-.07-25.33,26.83-25.33,26.83s.41-13.21-.07-23-39.84,43.12-38,59.12S1845,892,1845,892l45,206.77-116.38,53.21c-37.17,145.88,7.24,169,7.24,169s258.17-110.3,258.43-207.15S1930.81,871.66,1944.09,857.28Z"/><g class="cls-24"><path class="cls-22" d="M1841.65,888.67l-184.51,165.6-31.23,213.6c-1.77,12.05-3.53,24.34-1.44,36.34s8.72,23.88,19.72,29.13c12.51,6,27.35,2.25,40.46-2.28,90.16-31.12,167.69-97.31,212.58-181.46,10.23-19.18,19-39.88,19.37-61.61.7-37.58-23-70.47-40.67-103.65A352.14,352.14,0,0,1,1841.65,888.67Z"/></g><path class="cls-23" d="M1912.72,809.57a11.14,11.14,0,0,1-4.18-.61,2.22,2.22,0,0,1-.93-.77,2.52,2.52,0,0,1-.13-1.34A10.14,10.14,0,0,1,1909,803a36.2,36.2,0,0,1,2.79-3.93,96.67,96.67,0,0,1,6.71-7.39c4.76-4.77,9.78-9.35,14.79-14a107.18,107.18,0,0,0-16.9,11.74,71.25,71.25,0,0,0-7.5,7.26,36.09,36.09,0,0,0-3.26,4.29,13.89,13.89,0,0,0-2.16,5.52,6.44,6.44,0,0,0,.6,3.64,5.92,5.92,0,0,0,2.85,2.52,13.92,13.92,0,0,0,5.86.79,47,47,0,0,0,10.4-2,97.5,97.5,0,0,0,19-7.85c-6.63,1.71-13.19,3.49-19.77,4.82A54.66,54.66,0,0,1,1912.72,809.57Z"/><path class="cls-23" d="M1926.77,806.25l-1.55.36a11.58,11.58,0,0,0-1.53.43l-3,1a31.69,31.69,0,0,0-2.94,1.26l-1.47.67c-.47.25-.93.53-1.4.8a39.39,39.39,0,0,0-10.14,8,48.8,48.8,0,0,0-7.33,10.64,62.66,62.66,0,0,0-4.36,12.07,73.54,73.54,0,0,0-2,12.56,85.59,85.59,0,0,0,0,12.61,72.65,72.65,0,0,0,2,12.39q-.29-6.24,0-12.42a121.43,121.43,0,0,1,1.1-12.25,89.77,89.77,0,0,1,2.51-11.92,62.59,62.59,0,0,1,4.29-11.25,46.41,46.41,0,0,1,6.58-9.91,41.81,41.81,0,0,1,4.16-4.26l2.32-1.87c.77-.64,1.64-1.15,2.45-1.73a46.94,46.94,0,0,1,10.86-5.3,54.79,54.79,0,0,1,5.88-1.79c1-.32,2-.46,3-.68l3.06-.66c-2.07,0-4.18,0-6.27.24A49.11,49.11,0,0,0,1926.77,806.25Z"/><path class="cls-23" d="M1888.53,797.62c.63-1.07,1.35-2.11,2.08-3.15,1.48-2.07,3.09-4.08,4.77-6.06s3.39-3.94,5.18-5.84a75.29,75.29,0,0,1,5.55-5.61,20,20,0,0,0-3.54,1.88c-1.14.71-2.22,1.49-3.31,2.27a71.67,71.67,0,0,0-6.16,5.14,58.7,58.7,0,0,0-5.51,5.94,33.24,33.24,0,0,0-4.43,7,15.8,15.8,0,0,0-1.29,4.28,9.37,9.37,0,0,0,.52,4.85,7.54,7.54,0,0,0,3.25,3.84,9.78,9.78,0,0,0,4.53,1.24,22.17,22.17,0,0,0,8.21-1.55,34.16,34.16,0,0,0,7.15-3.65,74.07,74.07,0,0,1-7.66,1.76,24.58,24.58,0,0,1-7.41.31,7.24,7.24,0,0,1-2.94-1.09,4.22,4.22,0,0,1-1.59-2.21c-.61-1.74-.11-4,.88-6.16A25.27,25.27,0,0,1,1888.53,797.62Z"/><path class="cls-23" d="M1866.19,812.24a16,16,0,0,0-11-3.93,15.83,15.83,0,0,0-5.59,1.25,18.43,18.43,0,0,0-4.73,2.86,28.4,28.4,0,0,1,10.2-1,16.28,16.28,0,0,1,8.51,3.86,34.54,34.54,0,0,1,6.46,7.57c1.91,2.87,3.62,5.94,5.34,9.15a29.31,29.31,0,0,0-2.58-10.65A25.32,25.32,0,0,0,1866.19,812.24Z"/><path class="cls-23" d="M1858.07,808.56Z"/><path class="cls-23" d="M1858.54,808.75c-.57-.17-.49-.2-.47-.19a2.37,2.37,0,0,1,.11-1,14.59,14.59,0,0,1,1.61-3.47,72.35,72.35,0,0,1,4.92-7c1.77-2.29,3.63-4.55,5.47-6.83,3.74-4.52,7.56-9,11.24-13.69a115.06,115.06,0,0,0-13.53,11.59q-3.2,3.12-6.12,6.55a56.25,56.25,0,0,0-5.42,7.35,17.73,17.73,0,0,0-2,4.57,5.59,5.59,0,0,0,.14,3.38,4,4,0,0,0,1.38,1.69,4.6,4.6,0,0,0,1.56.66,15.42,15.42,0,0,0,2.44.47l1.21.13c.4,0,.79,0,1.19,0a20.19,20.19,0,0,0,2.34-.07c.78,0,1.54-.15,2.29-.26a50.66,50.66,0,0,0,8.81-2.07,56.92,56.92,0,0,0,8.28-3.4,125.7,125.7,0,0,1-17.36,2.36A24.85,24.85,0,0,1,1858.54,808.75Z"/><path class="cls-13" d="M1857.55,1075.32s-82.56,67.08-136.73,59.34-157.38,18.06-157.38,18.06-36.12-10.32-116.09,5.16-216.71-15.48-216.71-15.48,95.79,152,51.62,218.44a58.76,58.76,0,0,1-20.67,18.91c1.68,11,6.69,16.15,13.94,18,14.86,3.74,39.16-6.74,63.46-10.22,36.12-5.16,31,23.22,31,23.22l-23.22,273.47s116.15-7,121.26-6a104.62,104.62,0,0,0,14.39,1.37c67,2.71,262.77-21.57,319.27-4.83,69.65,20.64-11.18-127.26-8.6-171.12,2.2-37.41,8.16-129.2,9.86-155.42.28-4.54.46-7.12.46-7.12l110.94-41.28a80.6,80.6,0,0,0,5.24-9.77c9.52-20.46,25.69-71-7.82-132.12C1867.87,1077.9,1857.55,1075.32,1857.55,1075.32Z"/><g class="cls-16"><path d="M1282.26,1360.84a58.76,58.76,0,0,1-20.67,18.91c1.68,11,6.69,16.15,13.94,18,14.86,3.74,39.16-6.74,63.46-10.22,36.12-5.16,31,23.22,31,23.22l-23.22,273.47s116.15-7,121.26-6a104.62,104.62,0,0,0,14.39,1.37c-9.62-90.14-33.56-287-62.56-321.28C1397.19,1331.48,1331.41,1345.39,1282.26,1360.84Z"/></g><g class="cls-25"><path class="cls-4" d="M1273.63,1103.7,1253,1120.9s68.8,77.4,77.4,146.2-27.52,166.83-27.52,166.83l31-12s34.4-108.36,18.92-170.27S1273.63,1103.7,1273.63,1103.7Z"/><path class="cls-4" d="M1555.37,1656.35c-51.88,4.22-232.59,1.82-232.59,1.82L1286,1702.78l569.39,46.48s28.8-24.35-8.06-77.91S1607.25,1652.12,1555.37,1656.35Z"/></g><g class="cls-25"><path class="cls-4" d="M1209.84,1079.11s-125.4,110.59-118.95,118.33,89,232.19,89,232.19,54.18,15.48,96.74-6.45,33.54-120,21.93-180.59S1209.84,1079.11,1209.84,1079.11Z"/><path class="cls-4" d="M1862.71,1034c-6.45-2.58-28.38,41.28-28.38,41.28s76.11,101.91,76.11,141.9S1891.09,1363,1891.09,1363l54.18-15.48,27.09-192.2S1869.16,1036.63,1862.71,1034Z"/><path class="cls-4" d="M1824,1081.77l-9,12.9s51.6,87.72,55.47,122.55-7.74,145.76-7.74,145.76l18.06-16.77s16.77-113.51,7.74-141.89S1824,1081.77,1824,1081.77Z"/><path class="cls-4" d="M1636.25,1083.37c-5.6,32.94,26.07,118.37-33,118.37-56.58,0-45.93-54.38-52.74-79.12l-61.91,9.46s16.77,117.39,114.8,117.39S1683,1093.38,1683,1093.38Z"/></g><path class="cls-26" d="M1655.92,858.88c-27.14-.87-40.77-37-121.89-22.91s-48.79,77-48.79,77c-136.38,73,6.13,149.25,6.13,149.25s86.21-48,178.83-99.75S1683.06,859.75,1655.92,858.88Z"/><g class="cls-27"><path class="cls-28" d="M1424,1017.74l4.89-37.32C1423.54,992.16,1421.4,1005.12,1424,1017.74Z"/><path class="cls-28" d="M1741.59,855.38c-3-1.73-6.72-.44-10,.74a117.87,117.87,0,0,1-53.86,6.22c-15.71-1.87-30.94-6.91-46.69-8.48A108.42,108.42,0,0,0,1554.54,876c-8,6.26-15.26,13.85-19.5,23.1s-5.15,20.35-.84,29.56c-4.67-2.71-10.08-2.69-15.41-1.37-12.53-10.4-21-27-17.61-42.95,2.75-13.05,12.64-23.35,22.93-31.84a201.66,201.66,0,0,1,63.75-35.45c-44.53-15.84-97.74-3.6-130.88,30.1s-44.46,87.11-27.87,131.36l-.25,1.89a78.09,78.09,0,0,1,21.63-28c18.48-15,42.34-22,66.08-24.48a57.52,57.52,0,0,0-9.08,3.84c-20.13,10.46-38.15,26-48.54,46.18s-12.36,45.23-2.3,65.57a37.62,37.62,0,0,0,6.27,9.38l21.16,33.92c4.7,2.21,10.22.55,15.13-1.13,35.78-12.26,73.09-25.75,98.38-53.88,11.16-12.41,19.48-27.19,30.9-39.36,30-31.92,77.22-42.06,109.16-72,4.45-4.18,8.64-8.8,11.2-14.34,6.32-13.66,1.69-29.63-3-43.93C1745,859.57,1744,856.75,1741.59,855.38Z"/></g><path class="cls-18" d="M1671.73,937.18s-68,32.54-145.23,13.91c11.28,32.95-6.21,75.79-10,84.43-22.34-2.12-42.11,9.48-45.27,27.29-3.38,19,13.49,37.88,37.62,42.17a51.73,51.73,0,0,0,30.65-3.63l5.93,16.1-20.25,63.27s30.88,68.17,95.7,38.31c12.14-5.6,36.8-45.56,36.8-45.56a192.17,192.17,0,0,1-8.75-26.18,135,135,0,0,1-4.5-29.92c19.48.26,70-28.19,60-87S1671.73,937.18,1671.73,937.18Z"/><g class="cls-29"><path class="cls-22" d="M1678.6,872.21c-26.08-17.05-58.86-20.77-89.94-18.49-63.87,4.69-127.75,35.37-162.44,89.19l89.37,91.5a89.25,89.25,0,0,0,32.33-65,169.52,169.52,0,0,0,117.2-6.16c19.65-8.54,39.48-23.85,41.08-45.22C1707.6,899.34,1694.25,882.45,1678.6,872.21Z"/></g><path class="cls-23" d="M1533.44,1063.45a12.76,12.76,0,0,0-4.59-3.34,19,19,0,0,0-10.48-1.22,20.41,20.41,0,0,0-9.34,3.94,13,13,0,0,0-3.28,3.76,8.51,8.51,0,0,0-1.13,4.75,7.81,7.81,0,0,1,1.25-4.68,11,11,0,0,1,3.48-3.38,17.27,17.27,0,0,1,9.17-2.39,18.3,18.3,0,0,1,8.77,2.31c2.53,1.45,4.36,3.7,4.54,6.11s-1.28,4.92-3.58,6.74a18.28,18.28,0,0,1-8.33,3.58,17.35,17.35,0,0,1-9.43-1,11.14,11.14,0,0,1-3.94-2.83,7.88,7.88,0,0,1-1.93-4.45,8.52,8.52,0,0,0,1.82,4.54,12.87,12.87,0,0,0,3.81,3.22,20.34,20.34,0,0,0,9.82,2.51,19.1,19.1,0,0,0,10.17-2.76,12.91,12.91,0,0,0,4-4,9.34,9.34,0,0,0-.85-11.42Z"/><path class="cls-22" d="M1598.76,1116.26c-18.3-6.59,6.19,30.4,50.14,31a135,135,0,0,1-4.5-29.92S1617.07,1122.86,1598.76,1116.26Z"/><path class="cls-30" d="M1584.69,985.55a26.53,26.53,0,0,0-3.88-.88,29.93,29.93,0,0,0-3.9-.37,27.09,27.09,0,0,0-7.92.87,21,21,0,0,0-7.41,3.59,23.71,23.71,0,0,0-5.63,6.11l-.1.14a3,3,0,0,0,5.18,3.2l.16-.25a17.59,17.59,0,0,1,3.86-4.85,15.5,15.5,0,0,1,5.41-3.12,22.18,22.18,0,0,1,6.45-1.17,25.33,25.33,0,0,1,3.37.08,23.15,23.15,0,0,1,3.27.48l.13,0a2,2,0,0,0,1-3.86Z"/><path class="cls-30" d="M1659.92,955.19a26.53,26.53,0,0,0-3.88-.88,29.93,29.93,0,0,0-3.9-.37,27.09,27.09,0,0,0-7.92.87,21,21,0,0,0-7.41,3.59,23.71,23.71,0,0,0-5.63,6.11l-.1.14a3,3,0,0,0,5.18,3.2l.16-.26a17.69,17.69,0,0,1,3.86-4.84,15.5,15.5,0,0,1,5.41-3.12,22.18,22.18,0,0,1,6.45-1.17,25.29,25.29,0,0,1,3.37.08,23.15,23.15,0,0,1,3.27.48l.13,0a2,2,0,0,0,1-3.86Z"/><path class="cls-22" d="M1635.29,1012.9c-10.49-3.34-3.55,26.08-.3,31.62s7.24,12.13,18.51,4.37C1668.81,1038.35,1635.29,1012.9,1635.29,1012.9Z"/><path class="cls-31" d="M1567.12,1032.7a25.29,25.29,0,1,0,29.45,20.3A25.28,25.28,0,0,0,1567.12,1032.7Z"/><path class="cls-30" d="M1598.22,1004.91a13.82,13.82,0,0,0-5.37-2.39,8,8,0,0,0-1.53-.23l-.78-.07h-.79a10.17,10.17,0,0,0-1.56.15,9.64,9.64,0,0,0-1.53.31,15.21,15.21,0,0,0-5.35,2.72,18.77,18.77,0,0,0-3.84,4.09,20.51,20.51,0,0,0-3.71,9.93c2.55-2.46,4.86-4.77,7.24-6.74a19.71,19.71,0,0,1,7.24-4.13,10.73,10.73,0,0,1,3.71-.35,18,18,0,0,1,2,.29c.66.21,1.35.33,2,.62a68,68,0,0,1,8.76,4.29A18.33,18.33,0,0,0,1598.22,1004.91Z"/><path class="cls-30" d="M1669.94,982.49a13.84,13.84,0,0,0-5.87-.4,7.91,7.91,0,0,0-1.52.32l-.76.21-.73.28a9.21,9.21,0,0,0-1.42.67,11.31,11.31,0,0,0-1.33.82,15.25,15.25,0,0,0-4.07,4.39A18.64,18.64,0,0,0,1652,994a20.6,20.6,0,0,0-.06,10.6c1.55-3.19,2.92-6.15,4.48-8.82a19.86,19.86,0,0,1,5.36-6.38,10.9,10.9,0,0,1,3.37-1.6,16.21,16.21,0,0,1,1.94-.41c.69,0,1.39-.15,2.13-.12a69.29,69.29,0,0,1,9.71,1A18.28,18.28,0,0,0,1669.94,982.49Z"/><path class="cls-26" d="M1657.89,1070.29c-16.61,3.28-32.56-2.84-39.39-6.06a3,3,0,0,0-4.26,2,51.41,51.41,0,0,0-.46,8.61,33.06,33.06,0,0,0,3.07,13.34c4,8,30.59,16.57,41.15-4.1a37,37,0,0,0,3.45-10.81A2.86,2.86,0,0,0,1657.89,1070.29Z"/><path class="cls-4" d="M1657.89,1070.29c-16.61,3.28-32.56-2.84-39.39-6.06a3,3,0,0,0-4.26,2,51.41,51.41,0,0,0-.46,8.61,64.89,64.89,0,0,0,22.47,8.49,67.45,67.45,0,0,0,21.75.75,37,37,0,0,0,3.45-10.81A2.86,2.86,0,0,0,1657.89,1070.29Z"/><g class="cls-6"><path d="M1801.65,1347.94l1.26.23c.28-4.54.46-7.12.46-7.12l110.94-41.28a80.6,80.6,0,0,0,5.24-9.77l-119.61-21.18Z"/></g><g class="cls-6"><path d="M1623.53,2120.44c-20.15,110.86-93.29,196.85-111.74,217.08,43.19,17.59,57,24.79,100.67,31.62,29.33-94.47,33.59-200,20.33-245.42Z"/></g><g class="cls-6"><path d="M1209,2155.31c20,16.69,24.75,17.09,58.63,41.7,67.67-62.25,85.6-167.41,90.32-216.68l-15.46-9.24Z"/></g></g></svg>