<?xml version="1.0" encoding="utf-8"?>
<!-- Generator: Adobe Illustrator 15.0.2, SVG Export Plug-In . SVG Version: 6.00 Build 0)  -->
<!DOCTYPE svg PUBLIC "-//W3C//DTD SVG 1.1//EN" "http://www.w3.org/Graphics/SVG/1.1/DTD/svg11.dtd">
<svg version="1.1" id="layer_1" xmlns="http://www.w3.org/2000/svg" xmlns:xlink="http://www.w3.org/1999/xlink" x="0px" y="0px"
	 width="1159px" height="771px" viewBox="0 0 1159 771" style="enable-background:new 0 0 1159 771;" xml:space="preserve">
<style type="text/css">
<![CDATA[
	.st0{opacity:0.36;fill:#FFFFFF;}
	.st1{fill:#474D63;}
	.st2{opacity:0.46;fill:#FCFCFE;}
	.st3{fill:#ADD6DB;}
	.st4{fill:#E25A40;}
	.st5{clip-path:url(#SVGID_2_);fill:#ADD6DB;}
	.st6{fill:#EADACE;}
	.st7{fill:#EBFBFF;}
	.st8{opacity:0.46;clip-path:url(#SVGID_2_);fill:#FCFCFE;}
	.st9{fill:#BED0E2;}
	.st10{fill:#F06A4A;}
	.st11{clip-path:url(#SVGID_2_);fill:#EBFBFF;}
	.st12{fill:#F2F8FF;}
	.st13{fill:#F4A300;}
	.st14{fill:#F5E9DF;}
	.st15{clip-path:url(#SVGID_2_);}
	.st16{clip-path:url(#SVGID_6_);}
	.st17{display:inline;fill:#FFFFFF;}
	.st18{fill:#2A2B3C;}
	.st19{fill:#C5E6ED;}
	.st20{fill:#2E3248;}
	.st21{fill:#FCFCFE;}
	.st22{fill:#FFBA31;}
	.st23{fill:#FFC255;}
	.st24{fill:#FFFFFF;}
	.st25{fill:#669FAD;}
	.st26{fill:#9CC6D4;}
	.st27{clip-path:url(#SVGID_2_);fill:#C5E6ED;}
	.st28{clip-path:url(#SVGID_2_);fill:#FCFCFE;}
	.st29{fill:#D07D73;}
	.st30{opacity:0.22;fill:url(#SVGID_3_);}
	.st31{opacity:0.22;fill:url(#SVGID_4_);}
	.st32{fill:#3C4159;}
	.st33{fill:#D7F2F9;}
	.st34{display:none;}
	.st35{fill:#76B1C1;}
	.st36{clip-path:url(#SVGID_2_);fill:#D7F2F9;}
]]>
</style>
<g>
	<defs>
		<rect id="SVGID_1_" width="1159" height="771"/>
	</defs>
	<clipPath id="SVGID_2_">
		<use xlink:href="#SVGID_1_"  style="overflow:visible;"/>
	</clipPath>
	<rect class="st11" width="1159" height="771"/>
	<g class="st15">
		<polygon class="st19" points="260.1,116 261,617.6 217.1,617.7 216.2,100.6 260.5,116 		"/>
		<polygon class="st33" points="377.3,617.3 261,617.6 260.1,116 377.3,115.8 		"/>
		<polygon class="st24" points="377.3,115.5 377.3,115.7 260.1,116 216.2,100.6 335.7,100.6 		"/>
	</g>
	<g class="st15">
		<polygon class="st19" points="476.8,258.3 477.5,617.6 440.4,617.7 439.5,245.2 477.1,258.3 		"/>
		<polygon class="st33" points="576,617.4 477.5,617.6 476.8,258.3 576,258.1 		"/>
		<polygon class="st24" points="576,257.8 576,258 476.8,258.3 439.6,245.2 540.8,245.2 		"/>
	</g>
	<g class="st15">
		<polygon class="st19" points="706.6,225.3 707.3,623.9 671.9,624 671.1,209.8 706.9,225.3 		"/>
		<polygon class="st33" points="801.1,623.6 707.3,623.9 706.6,225.3 801.1,225 		"/>
		<polygon class="st2" points="706.6,225.3 741.9,54.9 801.1,225 		"/>
		<polygon class="st33" points="741.9,54.9 671.1,209.8 706.6,225.3 		"/>
	</g>
	<path class="st28" d="M962.2,89.5H962c-10.8-8.7-24.3-11.5-37.3-7.4c1.2-3.9,3.2-7.6,1.5-11.9c-1.8-4.3-6.6-6.8-10.8-8
		c-7.7-2.2-16-1.1-22,3.6c-2.2-10.4-11-19.2-22.4-18.7c-12,0.5-20.4,11.4-20.7,22.7c-6.3-1.7-13.3-2.4-19.6-0.3
		c-5.4,1.8-6.9,7.3-10.8,9c-5.4,2.4-11.6-1.8-16.4,3.3c-2.1,2.2-2.6,4.8-1.9,7.3c1,2,2.6,3.7,4.4,5.1h154.5c1.1,0.6,2.3,0.3,3-0.4
		C965.1,92.7,964.7,89.5,962.2,89.5z"/>
	<path class="st28" d="M529.4,145.6h-0.1c-6.2-5-14-6.6-21.6-4.3c0.7-2.3,1.8-4.4,0.8-6.9c-1-2.5-3.8-3.9-6.2-4.6
		c-4.5-1.2-9.3-0.7-12.8,2.1c-1.3-6-6.4-11.1-13-10.8c-7,0.3-11.8,6.6-12,13.1c-3.7-1-7.7-1.4-11.3-0.2c-3.1,1.1-4,4.2-6.3,5.2
		c-3.1,1.4-6.7-1-9.5,1.9c-1.2,1.3-1.5,2.8-1.1,4.2c0.6,1.1,1.5,2.1,2.5,2.9h89.5c0.6,0.4,1.3,0.2,1.7-0.2
		C531.1,147.5,530.8,145.6,529.4,145.6z"/>
	<path class="st28" d="M578.2,40.3h-0.1c-5.6-4.5-12.5-5.9-19.3-3.8c0.6-2,1.6-4,0.8-6.1c-0.9-2.2-3.4-3.5-5.6-4.1
		c-4-1.1-8.3-0.6-11.4,1.9c-1.1-5.4-5.7-9.9-11.6-9.7c-6.2,0.3-10.5,5.9-10.7,11.7c-3.3-0.9-6.9-1.3-10.1-0.2
		c-2.8,1-3.5,3.8-5.6,4.7c-2.8,1.2-6-0.9-8.5,1.7c-1.1,1.1-1.3,2.5-1,3.8c0.5,1,1.3,1.9,2.3,2.6h79.9c0.6,0.3,1.2,0.2,1.6-0.2
		C579.7,41.9,579.5,40.3,578.2,40.3z"/>
	<path class="st28" d="M131.5,70.3h-0.1c-5.6-4.5-12.5-5.9-19.3-3.8c0.6-2,1.6-4,0.8-6.1c-0.9-2.2-3.4-3.5-5.6-4.1
		c-4-1.1-8.3-0.6-11.4,1.9c-1.1-5.4-5.7-9.9-11.6-9.7c-6.2,0.3-10.5,5.9-10.7,11.7c-3.3-0.9-6.9-1.3-10.1-0.2
		c-2.8,1-3.5,3.8-5.6,4.7c-2.8,1.2-6-0.9-8.5,1.7c-1.1,1.1-1.3,2.5-1,3.8c0.5,1,1.3,1.9,2.3,2.6h79.9c0.6,0.3,1.2,0.2,1.6-0.2
		C133,72,132.8,70.3,131.5,70.3z"/>
	<g class="st15">
		<polygon class="st19" points="36.9,149.1 37.8,473.9 74.9,473.9 74.2,258.1 74.5,258.1 		"/>
		<polygon class="st33" points="173.3,257.9 173.3,473.6 74.9,473.9 74.2,258.1 		"/>
		<polygon class="st21" points="74.2,258.1 37,149.1 138.1,149.1 173.3,257.6 173.3,257.8 		"/>
	</g>
	<g class="st15">
		<rect x="8.1" y="324.6" class="st19" width="164.4" height="347.5"/>
		<rect x="-3.6" y="316.1" class="st33" width="187.8" height="16.9"/>
		<rect x="71.3" y="324.6" class="st33" width="164.4" height="347.5"/>
		<g>
			<rect x="71.3" y="376.2" class="st24" width="164.4" height="7.2"/>
			<rect x="71.3" y="435.1" class="st24" width="164.4" height="7.2"/>
			<rect x="71.3" y="493.9" class="st24" width="164.4" height="7.2"/>
			<rect x="71.3" y="552.8" class="st24" width="164.4" height="7.2"/>
			<rect x="71.3" y="611.7" class="st24" width="164.4" height="7.2"/>
		</g>
		<rect x="119.5" y="324.6" class="st24" width="7.2" height="347.5"/>
		<rect x="180.2" y="324.6" class="st24" width="7.2" height="347.5"/>
		<rect x="59.6" y="316.1" class="st19" width="187.8" height="16.9"/>
	</g>
	<g class="st15">
		<g id="XMLID_171_">
			<g id="XMLID_173_">
				<rect x="1004.6" y="65.8" class="st33" width="69.8" height="551.9"/>
			</g>
			<g id="XMLID_172_">
				<polygon class="st21" points="1092.9,65.8 1074.4,65.8 1074.4,617.7 1214.4,617.7 1214.4,117.5 				"/>
			</g>
		</g>
		<rect x="1074.4" y="139.2" class="st7" width="103.9" height="27.2"/>
		<rect x="1110.1" y="213.5" class="st7" width="103.9" height="27.2"/>
		<rect x="1013.5" y="252.1" class="st7" width="43" height="15.5"/>
		<rect x="1013.5" y="450.4" class="st7" width="43" height="15.5"/>
		<rect x="1021.6" y="94.5" class="st7" width="51.9" height="27.2"/>
		<rect x="1021.6" y="309.8" class="st7" width="51.9" height="27.2"/>
		<rect x="1150.9" y="452.4" class="st7" width="51.9" height="27.2"/>
		<rect x="1073" y="347.7" class="st7" width="103.9" height="27.2"/>
	</g>
	<rect y="631.7" class="st36" width="1159" height="139.3"/>
	<ellipse class="st27" cx="541.8" cy="695.7" rx="575.5" ry="22.3"/>
	<ellipse class="st27" cx="-17" cy="640.2" rx="290.8" ry="13.4"/>
	<rect y="605.3" class="st27" width="1159" height="26.4"/>
	<rect y="626.5" class="st5" width="1159" height="5.2"/>
	<polygon class="st8" points="340,606.3 239.3,606.3 63.8,0 164.5,0 	"/>
	<polygon class="st8" points="443.2,606.3 399.4,606.3 223.9,0 267.7,0 	"/>
	<polygon class="st8" points="690.4,606.3 589.7,606.3 414.2,0 514.9,0 	"/>
	<polygon class="st8" points="1159.7,606.3 1059,606.3 883.5,0 984.2,0 	"/>
	<polygon class="st8" points="793.6,606.3 749.8,606.3 574.3,0 618.2,0 	"/>
	<g class="st15">
		<g>
			<rect x="260.2" class="st19" width="22.4" height="606.3"/>
			<rect x="275.5" class="st3" width="7.1" height="606.3"/>
		</g>
		<g>
			<rect x="568.3" class="st19" width="22.4" height="606.3"/>
			<rect x="583.6" class="st3" width="7.1" height="606.3"/>
		</g>
		<g>
			<rect x="876.4" class="st19" width="22.4" height="606.3"/>
			<rect x="891.7" class="st3" width="7.1" height="606.3"/>
		</g>
	</g>
	<g class="st15">
		<linearGradient id="SVGID_3_" gradientUnits="userSpaceOnUse" x1="389.7095" y1="400.1055" x2="389.7095" y2="138.0381">
			<stop  offset="0" style="stop-color:#FFFFFF;stop-opacity:0"/>
			<stop  offset="1" style="stop-color:#F9D77F"/>
		</linearGradient>
		<polygon class="st30" points="352.8,138 271.5,400.1 507.9,400.1 431.1,138 		"/>
		<rect x="387.5" y="-7.8" class="st19" width="7.5" height="103.1"/>
		<path class="st3" d="M403.8,118.8h-25.1v-18.3c0-4.9,4-8.8,8.8-8.8h7.4c4.9,0,8.8,4,8.8,8.8V118.8z"/>
		<circle class="st33" cx="390.9" cy="149.2" r="14.6"/>
		<path class="st3" d="M449,149.2c-5.6-26.9-27.9-46.9-54.4-46.9s-48.8,20.1-54.4,46.9H449z"/>
		<path class="st19" d="M442.4,149.2c-5.6-26.9-27.9-46.9-54.4-46.9s-48.8,20.1-54.4,46.9H442.4z"/>
		<path class="st24" d="M391.1,158.3c-3.5-0.6-8.2-3.3-9.1-7c-0.3-1.3-2.3-0.8-2,0.6c1.1,4.4,6.4,7.7,10.5,8.4
			C391.9,160.6,392.5,158.6,391.1,158.3z"/>
	</g>
	<g class="st15">
		<linearGradient id="SVGID_4_" gradientUnits="userSpaceOnUse" x1="812.2515" y1="400.1055" x2="812.2515" y2="138.0381">
			<stop  offset="0" style="stop-color:#FFFFFF;stop-opacity:0"/>
			<stop  offset="1" style="stop-color:#F9D77F"/>
		</linearGradient>
		<polygon class="st31" points="775.3,138 694,400.1 930.5,400.1 853.6,138 		"/>
		<rect x="810.1" y="-7.8" class="st19" width="7.5" height="103.1"/>
		<path class="st3" d="M826.3,118.8h-25.1v-18.3c0-4.9,4-8.8,8.8-8.8h7.4c4.9,0,8.8,4,8.8,8.8V118.8z"/>
		<circle class="st33" cx="813.5" cy="149.2" r="14.6"/>
		<path class="st3" d="M871.6,149.2c-5.6-26.9-27.9-46.9-54.4-46.9c-26.6,0-48.8,20.1-54.4,46.9H871.6z"/>
		<path class="st19" d="M864.9,149.2c-5.6-26.9-27.9-46.9-54.4-46.9c-26.6,0-48.8,20.1-54.4,46.9H864.9z"/>
		<path class="st24" d="M813.7,158.3c-3.5-0.6-8.2-3.3-9.1-7c-0.3-1.3-2.3-0.8-2,0.6c1.1,4.4,6.4,7.7,10.5,8.4
			C814.4,160.6,815,158.6,813.7,158.3z"/>
	</g>
	<g class="st15">
		<g>
			<rect x="148.3" y="394.4" class="st10" width="16" height="61.3"/>
			
				<rect x="172.8" y="393.8" transform="matrix(-0.9572 0.2895 -0.2895 -0.9572 476.8085 778.465)" class="st13" width="16" height="61.3"/>
			<rect x="129.8" y="411.7" class="st35" width="14.6" height="44"/>
		</g>
		<g>
			<polygon class="st13" points="127.5,322.7 127.5,340.1 62.6,339.9 62.6,322.5 			"/>
			<polygon class="st24" points="131.8,322.7 131.8,340.1 66.9,339.9 66.9,322.5 			"/>
			<rect x="62.6" y="322.5" class="st13" width="72.5" height="2.9"/>
			<rect x="62.6" y="337" class="st13" width="72.5" height="2.9"/>
		</g>
		<g>
			<polygon class="st10" points="104.5,339.9 104.4,357.3 39.5,357 39.6,339.6 			"/>
			<polygon class="st24" points="108.8,339.9 108.7,357.3 43.9,357 43.9,339.6 			"/>
			<rect x="39.6" y="339.6" class="st10" width="72.5" height="2.9"/>
			<rect x="39.6" y="354.1" class="st10" width="72.5" height="2.9"/>
		</g>
		<g>
			
				<rect x="85.5" y="326.1" transform="matrix(3.032159e-003 -1 1 3.032159e-003 -271.1129 458.2102)" class="st35" width="17.4" height="78"/>
			
				<rect x="90.7" y="326.1" transform="matrix(3.032159e-003 -1 1 3.032159e-003 -265.9487 463.3901)" class="st24" width="17.4" height="78"/>
			<rect x="55.3" y="356.3" class="st35" width="87.2" height="2.9"/>
			<rect x="55.3" y="370.7" class="st35" width="87.2" height="2.9"/>
		</g>
		<g>
			<rect x="64.3" y="231.3" class="st10" width="16" height="61.3"/>
			
				<rect x="39.7" y="230.8" transform="matrix(0.9572 0.2895 -0.2895 0.9572 77.7158 -2.6301)" class="st13" width="16" height="61.3"/>
			<rect x="84.2" y="248.6" class="st35" width="14.6" height="44"/>
		</g>
		<g>
			<polygon class="st13" points="130.1,276 130.1,292.7 192.4,292.5 192.4,275.8 			"/>
			<polygon class="st24" points="126,276 126,292.7 188.3,292.5 188.2,275.8 			"/>
			<rect x="122.8" y="275.8" class="st13" width="69.6" height="2.8"/>
			<rect x="122.8" y="289.7" class="st13" width="69.6" height="2.8"/>
		</g>
		<g>
			
				<rect x="161.9" y="230.3" transform="matrix(-3.042022e-003 -1 1 -3.042022e-003 -96.9587 438.7352)" class="st35" width="16.7" height="74.8"/>
			
				<rect x="156.9" y="230.3" transform="matrix(-3.012696e-003 -1 1 -3.012696e-003 -101.9507 433.7555)" class="st24" width="16.7" height="74.8"/>
			<rect x="124" y="259.2" class="st35" width="83.7" height="2.8"/>
			<rect x="124" y="273.1" class="st35" width="83.7" height="2.8"/>
		</g>
		<g>
			<rect x="-5.5" y="455.3" class="st9" width="245.2" height="186.7"/>
		</g>
		<g>
			<rect x="216.4" y="211" class="st13" width="30.3" height="247.9"/>
		</g>
		<g>
			<rect x="-11.1" y="211" class="st13" width="22.2" height="431"/>
		</g>
		<path class="st22" d="M1.5,211v8.5v72.8v8.5v72.8v8.5v73.2v3.6v183.1h245.2V458.9v-3.6v-73.2v-8.5v-72.8v-8.5v-72.8V211h-20H21.5
			H1.5z M21.5,382.1h205.2v73.2H21.5V382.1z M21.5,300.8h205.2v72.8H21.5V300.8z M21.5,219.5h205.2v72.8H21.5V219.5z"/>
		<rect x="21.5" y="481.4" class="st13" width="205.2" height="59.4"/>
		<rect x="21.5" y="481.4" class="st23" width="205.2" height="4.6"/>
		<circle class="st18" cx="124.1" cy="511.1" r="8.8"/>
		<rect x="21.5" y="558" class="st13" width="205.2" height="59.4"/>
		<rect x="21.5" y="558" class="st23" width="205.2" height="4.6"/>
		<circle class="st18" cx="124.1" cy="587.7" r="8.8"/>
		<g>
			<polygon class="st0" points="201.4,382.1 138.8,382.1 142.1,373.6 204.7,373.6 			"/>
			<polygon class="st0" points="226.7,317.1 226.7,300.8 170.5,300.8 173.8,292.3 226.7,292.3 226.7,219.5 202.2,219.5 205.5,211 
				226.7,211 246.7,211 246.7,219.5 246.7,266 			"/>
			<polygon class="st0" points="70.2,455.3 132.8,455.3 60,641.9 -2.6,641.9 			"/>
			<polygon class="st0" points="222.8,455.3 226.7,455.3 226.7,445.3 246.7,394.3 246.7,455.3 246.7,458.9 246.7,641.9 149.7,641.9 
							"/>
		</g>
	</g>
</g>
<g>
	<path class="st32" d="M470.2,695.8c-0.1,0-0.2,0-0.2,0c-0.9-0.1-1.6-1-1.5-1.9L498,506.5c0.1-0.9,5.4-1.6,6.3-1.4
		c0.9,0.1,1.6,1,1.5,1.9l-33.9,187.4C471.7,695.2,471,695.8,470.2,695.8z"/>
	<path class="st32" d="M371.8,695.8c0.1,0,0.2,0,0.2,0c0.9-0.1,1.6-1,1.5-1.9L344,506.5c-0.1-0.9-5.4-1.6-6.3-1.4
		c-0.9,0.1-1.6,1-1.5,1.9l33.9,187.4C370.2,695.2,371,695.8,371.8,695.8z"/>
	<g>
		<g>
			<g>
				<path class="st1" d="M434.8,497.1c-2.6,0-4.4-2.1-4-4.7l7.8-59.6c0.4-2.6,2.8-4.7,5.4-4.7h97c2.6,0,4.4,2.1,4,4.7l-8.3,64.3
					H434.8z"/>
				<path class="st32" d="M526.2,492.6h-97c-2.6,0-4.4-2.1-4-4.7l7.8-55.2c0.4-2.6,2.8-4.7,5.4-4.7h97c2.6,0,4.4,2.1,4,4.7
					l-7.8,55.2C531.2,490.5,528.8,492.6,526.2,492.6z"/>
				<path class="st19" d="M523.1,490.1h-90.2c-2.4,0-4.1-1.9-3.7-4.3l7.1-50.9c0.3-2.4,2.6-4.3,5-4.3h90.2c2.4,0,4.1,1.9,3.7,4.3
					l-7.1,50.9C527.7,488.2,525.5,490.1,523.1,490.1z"/>
				<g>
					<rect x="398.3" y="484.8" class="st1" width="10.8" height="2.2"/>
					<rect x="411" y="484.8" class="st1" width="10.8" height="2.2"/>
					<rect x="423.6" y="484.8" class="st1" width="10.8" height="2.2"/>
					<rect x="436.3" y="484.8" class="st1" width="35.7" height="2.2"/>
					<rect x="474.3" y="484.8" class="st1" width="10.8" height="2.2"/>
					<rect x="486.9" y="484.8" class="st1" width="10.8" height="2.2"/>
					<rect x="499.6" y="484.8" class="st1" width="10.8" height="2.2"/>
					<rect x="512.3" y="484.8" class="st1" width="10.8" height="2.2"/>
				</g>
				<g>
					<rect x="391.8" y="487" class="st1" width="140.1" height="10.1"/>
					<polygon class="st32" points="531.3,490.7 391.8,490.7 391.8,487 531.7,487 					"/>
				</g>
			</g>
			<g>
				<path class="st1" d="M471.6,440.2l0.2-0.9l-24.4-0.1l-0.3,1.5l24.5,0.1C471.5,440.6,471.5,440.4,471.6,440.2z"/>
				<path class="st1" d="M513.1,439.4l-37.3-0.2l-0.3,1.5l37.2,0.2C512.9,440.4,513,439.9,513.1,439.4z"/>
				<path class="st1" d="M516.3,439.4c0,0.5-0.1,1-0.3,1.5l7.4,0l0.3-1.5L516.3,439.4z"/>
				<path class="st1" d="M465.2,474.8l0.2-0.9l-24.4-0.1l-0.3,1.5l24.5,0.1C465.1,475.2,465.1,475,465.2,474.8z"/>
				<path class="st1" d="M506.7,474.1l-37.3-0.2l-0.3,1.5l37.2,0.2C506.5,475.1,506.6,474.6,506.7,474.1z"/>
				<path class="st1" d="M509.9,474.1c0,0.5-0.1,1-0.3,1.5l7.4,0l0.3-1.5L509.9,474.1z"/>
				<polygon class="st1" points="453.3,447.9 445.7,447.9 445.4,449.4 453,449.5 				"/>
				<polygon class="st1" points="482.2,448 457.9,447.9 457.6,449.5 481.9,449.6 				"/>
				<polygon class="st1" points="489.3,448.1 489,449.6 521.8,449.8 522.1,448.2 				"/>
				<polygon class="st1" points="495.9,456.9 466.7,456.8 466.4,458.3 495.6,458.4 				"/>
				<path class="st1" d="M502.2,456.9L502,458c0,0.1,0,0.2,0,0.3c0,0.1,0,0.1,0,0.2l18.3,0.1l0.3-1.5L502.2,456.9z"/>
				<polygon class="st1" points="459.5,456.7 444.1,456.6 443.8,458.2 459.2,458.3 				"/>
				<polygon class="st1" points="506.9,465.7 478.3,465.6 478,467.1 506.7,467.3 				"/>
				<polygon class="st1" points="510.7,465.7 510.4,467.3 518.6,467.3 518.9,465.8 				"/>
				<polygon class="st1" points="470.9,465.6 457,465.5 456.8,467 470.6,467.1 				"/>
				<polygon class="st1" points="453,465.5 442.5,465.4 442.2,467 452.7,467 				"/>
			</g>
		</g>
		<g>
			<rect x="232.3" y="676.4" class="st35" width="79" height="8.4"/>
			<rect x="267" y="524.9" class="st35" width="9.7" height="155.8"/>
			<path class="st25" d="M270.1,606.6h3.5c5.7,0,10.3-4.6,10.3-10.3v-16.4c0-5.7-4.6-10.3-10.3-10.3h-3.5c-5.7,0-10.3,4.6-10.3,10.3
				v16.4C259.8,602,264.4,606.6,270.1,606.6z"/>
			<path class="st35" d="M279.2,471.9h-91.8l22.1,114.7l93.6,3.3L289,483.3C289,476.2,281.9,471.9,279.2,471.9z"/>
			<path class="st35" d="M242.7,593c0,0,88.3,2.2,107.8-3.1c4.1-1.1,3.6-17-7.5-17h-93.2L242.7,593z"/>
			<path class="st25" d="M185.6,472.1c7.2-1.4,10.7,2.6,11.5,5.2l14.5,95.5h51.9c8.8,0,14.9,16.2,6.6,19.1c-7.1,2.4-63.9,2.8-70-8
				c-14.3-25.5-21-99.7-21-99.7C178.4,477.8,181.2,473,185.6,472.1z"/>
			<circle class="st32" cx="298.8" cy="688.8" r="6.1"/>
			<circle class="st20" cx="298.8" cy="688.8" r="4"/>
			<circle class="st32" cx="271.8" cy="688.8" r="6.1"/>
			<circle class="st20" cx="271.8" cy="688.8" r="4"/>
			<circle class="st32" cx="244.9" cy="688.8" r="6.1"/>
			<circle class="st20" cx="244.9" cy="688.8" r="4"/>
		</g>
		<g>
			<g>
				<polygon class="st14" points="349.2,677.1 361,635.7 390.2,635 377.9,671.2 				"/>
				<g>
					<path class="st35" d="M352.7,663.8l27.9-0.3l31.9,15.7c4.3,1.8,7,6,7.1,10.6l0,0.8c0,2.2-1.7,4-3.9,4l-66,0.4
						c-2.2,0-4.1-1.8-4.1-4L352.7,663.8z"/>
					<path class="st20" d="M345.5,690.9l0.9-3.5l73.1,0.9l0,2.2c0,2.2-1.7,4-3.9,4l-66,0.4C347.4,694.9,345.5,693.1,345.5,690.9z"/>
				</g>
			</g>
			<path class="st32" d="M296.7,495.3c4.7,0.8,123.3,20.9,123.3,20.9l7.6,61.4l-144.5-10.9C223.7,528.5,282.5,493,296.7,495.3z"/>
			<path class="st32" d="M390.9,512.8c2,1.3,13.5,2.3,26.6,3.2c21.5,1.4,35,23.7,26.2,43.3l-40.9,91.9l-64.7,2.4L390.9,512.8z"/>
			<g>
				<polygon class="st14" points="410.5,672.2 402.9,633.4 432,632.7 439.1,664.2 				"/>
				<g>
					<path class="st26" d="M408.2,664.9l30.4-3l40.2,17.3c4.3,1.8,7,6,7.1,10.6l0,0.8c0,2.2-1.7,4-3.9,4l-66,0.4
						c-2.2,0-4.1-1.8-4.1-4L408.2,664.9z"/>
					<path class="st20" d="M411.8,690.9l-0.5-3.3l74.5,0.7l0,2.2c0,2.2-1.7,4-3.9,4l-66,0.4C413.6,694.9,411.8,693.1,411.8,690.9z"
						/>
				</g>
			</g>
			<path class="st1" d="M241.5,504.1c4.7,0.8,144.4,17.1,144.4,17.1l-9,60.5c0,0-98.6-2.6-133.3-13
				C216.2,560.5,227.3,501.8,241.5,504.1z"/>
			<path class="st1" d="M340.3,516.9c2.8,1.8,24,3.2,42.6,4.1c17.5,0.8,32.8,12,39,28.3l39.2,102.7l-64.7,2.4L340.3,516.9z"/>
			<g>
				<path class="st14" d="M302.6,414.7l65.1,46.8l8.8-33.3l-47.6-43.8c-0.1-0.1-0.2-0.2-0.3-0.3
					C325.2,388.3,307.9,408.7,302.6,414.7z"/>
				<path class="st14" d="M385.2,456.5l34.1-64.6l-19.5-18.8l-39.4,58.4l4.3,27.4C370.3,465.7,381.2,464.5,385.2,456.5z"/>
				<path class="st4" d="M289.6,375.3c-7.4,8.2-8.1,19.8-1.5,26l24.9,23c1.5,1.4,8.8-4.1,16.3-12.3c7.4-8.2,12.2-16,10.7-17.4
					l-24.9-23C308.4,365.5,297,367.1,289.6,375.3z"/>
			</g>
			<path class="st10" d="M346,501.8l-122,11.9c0,0,3.7-101.8,9.4-126.4c3.3-14.1,13.8-20.9,20.4-20.9h43.8c9.3,0,20.8,8.4,24.9,22.7
				C328.4,410.1,346,501.8,346,501.8z"/>
			<path class="st6" d="M274.6,339.3c0,0,1.3,16.3,1.8,27.2c2.2,5.5,18.8,6.6,21.1,2.8l-1.7-21.7L274.6,339.3z"/>
			<path class="st14" d="M307.8,336.8c0,12-5.5,23.1-13.9,23.1c-6.9,0-20.6-11.2-20.6-23.2c0-12,7.5-21.7,16.7-21.7
				C305.5,315.1,307.8,324.9,307.8,336.8z"/>
			<ellipse class="st20" cx="292.3" cy="336.8" rx="1.6" ry="1.9"/>
			<ellipse class="st20" cx="302.9" cy="335.8" rx="1.6" ry="1.9"/>
			<path class="st20" d="M297.2,347c-0.9,0-1.7-0.1-2-0.1l0.1-0.7c1.6,0.2,4.1,0.2,4.5-0.3c0,0,0-0.1,0-0.1
				c-0.3-1.4-1.5-5.8-1.5-5.9l0.7-0.2c0.1,0.2,1.2,4.5,1.5,5.9c0.1,0.3,0,0.5-0.2,0.7C299.8,346.9,298.4,347,297.2,347z"/>
			<path class="st20" d="M296.8,352.9C296.8,352.9,296.8,352.9,296.8,352.9c-1.8,0-3.1-1.4-3.2-1.5l0.6-0.5c0,0,1.1,1.2,2.6,1.3
				c0,0,0,0,0,0c0.9,0,1.7-0.4,2.5-1.3l0.6,0.5C298.9,352.4,297.9,352.9,296.8,352.9z"/>
			<path class="st20" d="M289.1,333.7l-0.6-0.4c0.9-1.2,1.9-1.9,3-2.1c1.8-0.2,3.3,1,3.4,1l-0.5,0.6c0,0-1.3-1.1-2.8-0.9
				C290.7,332.1,289.8,332.7,289.1,333.7z"/>
			<path class="st20" d="M300.4,332.3l-0.6-0.5c0.8-1,1.7-1.6,2.7-1.6c1.5-0.1,2.6,1.1,2.6,1.1l-0.5,0.5c0,0-0.9-0.9-2.1-0.9
				C301.8,331,301.1,331.5,300.4,332.3z"/>
			<path class="st20" d="M282.8,322.3c0,0-6.9,5.6-7.4,28.3c-17.2-15.6-15.8-48.4,17-44.3c16.5-3.7,25.1,5.8,18.5,14.2
				C306.6,326.1,285.6,326.8,282.8,322.3z"/>
			<path class="st14" d="M279.4,337.7c0,3-1.1,5.9-3.8,5.9c-2.7,0-5.3-3-5.9-5.9c-0.6-3,1.2-5.9,3.9-5.9
				C276.3,331.7,279.4,334.7,279.4,337.7z"/>
			<path class="st14" d="M228.8,399.6l-4.3,99.4l38.1-21l5-77.4c0-0.1,0-0.2,0-0.4C262.4,400.4,236.5,399.9,228.8,399.6z"/>
			<path class="st14" d="M320.1,492.7l-9.4-26l-85.4,15l-0.8,17.2c-0.5,11.1,10.1,19.4,20.7,16.2L320.1,492.7z"/>
			<path class="st4" d="M250.4,366.5c-10.7-0.5-19.9,7-20.5,16.9l-2.3,37.1c-0.1,2.3,8.4,4.6,19.1,5.1c10.7,0.5,19.5-0.9,19.7-3.2
				l2.3-37.1C269.3,375.5,261.1,367,250.4,366.5z"/>
			<path class="st20" d="M251.2,426.3c-1.5,0-3,0-4.5-0.1c-9.3-0.5-17.2-2.3-19.1-4.4c-0.4-0.4-0.5-0.8-0.5-1.3l1,0.1
				c0,0.2,0.1,0.3,0.3,0.5c1.4,1.6,8.4,3.6,18.4,4.1c11.7,0.6,19-1.2,19.1-2.7l2.3-37.1c0.3-4.4-1.2-8.6-4.2-12
				c-3.3-3.7-8.3-6-13.5-6.3l0-1c5.5,0.3,10.7,2.7,14.2,6.6c3.2,3.6,4.8,8.1,4.5,12.7l-2.3,37.1
				C266.7,425.1,259.4,426.3,251.2,426.3z"/>
			<path class="st4" d="M321.6,417.4c-2.9-1.6-6.1-1.2-9.2-0.4c-3.2,0.9-6.2,1.8-9.4,2.3c-6.5,1-13.2,1.2-19.4,3.8
				c-0.6,0.2-1.1,0.7-1.2,1.3c-0.2,0.3-0.3,0.6-0.3,0.9c0,0.9,0.8,1.9,1.8,1.8c0.9-0.1,1.8-0.2,2.7-0.3c11.5-1.1,23.4-0.7,34.1-5.6
				c0.3-0.1,0.5-0.3,0.6-0.6C322.6,420.2,322.9,418.1,321.6,417.4z"/>
			<path class="st12" d="M294.3,371c0,0-13.8,1.9-17.9-4.6h-4.9c0,0,10.8,13.2,19,14.7L294.3,371z"/>
			<path class="st12" d="M294.3,371l8.2,6.6c0,0-1.3-9.6-3.7-11.2c0,0-0.9-0.3-1.6,0l0.2,2.8C297.5,369.2,295,370.8,294.3,371z"/>
			<g>
				<path class="st14" d="M354.2,471c-7.8-4.2-15.5-6.3-23.5-6.4c-0.1-0.2-0.2-0.3-0.3-0.5c2-0.8,15.6-0.2,25.9,4.1
					c3.3,1.4,2.7-5.3-0.5-6.7c-14.8-6.8-30.7-5-40.9,1.9c-3.1,2.1-6.4,4-9.8,5.8c-12.4,6.4-1.4,28.9,13.3,24.3
					c3.9-1.2,7.9-7.6,12.5-9.9c5.5-2.7,12.1,1.2,17.8,3.8c2.8,1.2,3.9-2.8,2.3-5.2c0,0,0.1,0,0.1,0c2.6,1.2,3.7-2.2,2.6-4.7
					C356.7,478.5,357.4,472.7,354.2,471z"/>
			</g>
			<g>
				<path class="st14" d="M416.9,394.7c0,0,3.1-4.8,7.4-4.7c4.3,0.1,10.1-1,12.5-2c6.7-2.9,13.6-7.6,13.6-7.6l-8.7-15.1l-14.7,5.6
					c0,0-15.5-4.7-20.1-3.7c-4.6,1-8.9,10.2-8.9,10.2L416.9,394.7z"/>
				<path class="st14" d="M441.9,365.5c0,0,3-0.8,3.7,0.4c0.7,1.1-1.6,2.9-1.6,2.9s3-1,4,0.4c1,1.3-1.3,2.7-1.3,2.7s3.4-0.7,4.1,0.8
					s-1.9,3.6-1.9,3.6s1.9-0.5,2.6,0.3c1.4,1.7-1,3.7-1,3.7l-5.7-1.2l-8.2-8.6L441.9,365.5z"/>
				<path class="st29" d="M416.9,395.2c-0.1,0-0.2,0-0.3-0.1c-0.2-0.2-0.2-0.5-0.1-0.7c3.7-4.6,8.3-5,12.7-5.4
					c1-0.1,2.1-0.2,3.2-0.3c3.4-0.5,9.1-3.3,16.9-8.3c0.7-0.5,1.3-1.1,1.6-1.8c0.3-0.7,0.3-1.2,0-1.6c-0.3-0.5-1.5-0.3-2-0.1
					c-0.2,0.1-0.5,0-0.6-0.2c-0.1-0.2-0.1-0.5,0.1-0.6c0.6-0.5,2.2-2.1,1.8-3c-0.4-0.9-2.7-0.7-3.5-0.5c-0.2,0-0.5-0.1-0.6-0.3
					c-0.1-0.2,0-0.5,0.2-0.6c0.3-0.2,1.2-0.8,1.3-1.4c0-0.2,0-0.4-0.1-0.5c-0.6-0.9-2.7-0.4-3.4-0.2c-0.2,0.1-0.5,0-0.6-0.2
					c-0.1-0.2-0.1-0.5,0.1-0.6c0.7-0.5,1.8-1.8,1.5-2.3c-0.4-0.6-2.1-0.4-3.2-0.2c-0.3,0.1-0.5-0.1-0.6-0.4
					c-0.1-0.3,0.1-0.5,0.4-0.6c0.6-0.1,3.4-0.8,4.3,0.6c0.5,0.8,0.1,1.7-0.5,2.4c1-0.1,2.2,0,2.8,0.9c0.3,0.4,0.4,0.9,0.3,1.3
					c-0.1,0.4-0.3,0.7-0.5,1c1.2,0,2.5,0.2,3,1.3c0.5,1.1-0.2,2.3-1,3.1c0.6,0,1.2,0.2,1.6,0.7c0.4,0.5,0.7,1.4,0.1,2.6
					c-0.4,0.9-1.1,1.7-2,2.3c-8.1,5.2-13.7,7.9-17.3,8.4c-1.1,0.2-2.2,0.2-3.2,0.3c-4.4,0.4-8.6,0.7-12.1,5
					C417.2,395.1,417.1,395.2,416.9,395.2z"/>
				<path class="st29" d="M430.4,375.1c-0.2,0-0.4-0.1-0.5-0.3c-0.1-0.3,0-0.5,0.3-0.7l13.7-5.8c0.3-0.1,0.5,0,0.7,0.3
					c0.1,0.3,0,0.5-0.3,0.7l-13.7,5.8C430.6,375.1,430.5,375.1,430.4,375.1z"/>
				<path class="st29" d="M432.9,379.1c-0.2,0-0.4-0.1-0.5-0.3c-0.1-0.2,0-0.5,0.2-0.7l13.8-6.7c0.2-0.1,0.5,0,0.7,0.2
					c0.1,0.2,0,0.5-0.2,0.7l-13.8,6.7C433,379.1,432.9,379.1,432.9,379.1z"/>
				<path class="st29" d="M434.8,383.1c-0.2,0-0.4-0.1-0.5-0.3c-0.1-0.3,0-0.5,0.3-0.7l14-6.3c0.3-0.1,0.5,0,0.7,0.3
					c0.1,0.3,0,0.5-0.3,0.7l-14,6.3C434.9,383.1,434.9,383.1,434.8,383.1z"/>
				<path class="st14" d="M398.6,374.9c0,0,7.4-11.9,14.7-14.6c2.6-0.9,9.4,0.1,11.8,2.1c2.4,2,0.3,3.5-3.1,3.4
					c-3.3-0.2-7.2,3.1-7.8,4.6S398.6,374.9,398.6,374.9z"/>
				<path class="st29" d="M417.5,377.3c-0.1,0-0.2,0-0.3-0.1c-0.2-0.1-0.3-0.5-0.2-0.7c2.6-4.2-0.9-8-1.1-8.1
					c-0.2-0.2-0.2-0.5,0-0.7c0.2-0.2,0.5-0.2,0.7,0c0,0,4.1,4.5,1.2,9.3C417.8,377.2,417.6,377.3,417.5,377.3z"/>
			</g>
			<g>
				<path class="st29" d="M353.8,478.1c-0.1,0-0.2,0-0.3-0.1c-0.1-0.1-11.3-7-22.6-6.8c-0.3,0-0.5-0.2-0.5-0.5
					c0-0.3,0.2-0.5,0.5-0.5c11.5-0.2,23,6.8,23.1,6.9c0.2,0.1,0.3,0.5,0.2,0.7C354.1,478,353.9,478.1,353.8,478.1z"/>
				<path class="st29" d="M351.1,482.7c-0.1,0-0.2,0-0.3-0.1c-0.1-0.1-11.7-6.9-19.8-5.6c-0.3,0-0.5-0.1-0.6-0.4
					c0-0.3,0.1-0.5,0.4-0.6c8.4-1.3,20,5.5,20.4,5.8c0.2,0.1,0.3,0.4,0.2,0.7C351.4,482.6,351.2,482.7,351.1,482.7z"/>
				<path class="st29" d="M349.8,487.8c-2,0-4.6-1.5-4.9-1.7c-0.2-0.1-0.3-0.4-0.2-0.7c0.1-0.2,0.4-0.3,0.7-0.2
					c1.6,0.9,4.4,2.1,5.4,1.3c1.3-1.1,0-4.1,0-4.1c-0.1-0.2-0.1-0.3,0-0.5c0.1-0.1,0.2-0.3,0.4-0.2c0,0,1.6,0,2.4-0.9
					c0.6-0.7,0-2.5-0.2-3c-0.1-0.2,0-0.4,0.1-0.5c0.1-0.1,0.3-0.2,0.5-0.2c0,0,1.3,0.2,1.9-2c0.4-1.4-1.2-3.1-1.9-3.7
					c-1-0.5-15.7-7.3-23.6-6.8c-0.3,0-0.5-0.2-0.5-0.4c0-0.3,0.2-0.5,0.4-0.5c0.1,0,11-1.4,26.8,4.3c0.3,0.1,0.8-0.3,1-0.9
					c0.5-1.1,0.5-3.5-2.6-5.1c-7.3-3.9-23.6-5.9-31.3-2.4c-0.3,0.1-0.5,0-0.7-0.3c-0.1-0.3,0-0.5,0.3-0.7c8.2-3.6,24.5-1.7,32.2,2.4
					c3.7,2,3.7,5,3,6.4c-0.5,1.1-1.4,1.7-2.3,1.4c-7.4-2.7-13.6-3.8-18.2-4.2c7.5,1.9,15.4,5.6,15.8,5.9c0,0,0.1,0,0.1,0.1
					c0.1,0.1,2.9,2.4,2.2,4.7c-0.5,1.9-1.6,2.5-2.3,2.7c0.3,0.9,0.6,2.5-0.2,3.4c-0.7,0.8-1.7,1.1-2.5,1.2c0.4,1.1,0.9,3.4-0.5,4.6
					C351,487.6,350.4,487.8,349.8,487.8z"/>
			</g>
		</g>
		<g>
			<path class="st20" d="M582.6,695.8c0.1,0,0.2,0,0.2,0c0.9-0.1,1.6-1,1.5-1.9l-29.5-187.4c-0.1-0.9-5.4-1.6-6.3-1.4
				c-0.9,0.1-1.6,1-1.5,1.9L581,694.4C581.1,695.2,581.8,695.8,582.6,695.8z"/>
			<path class="st20" d="M244.6,695.8c-0.1,0-0.2,0-0.2,0c-0.9-0.1-1.6-1-1.5-1.9l29.5-187.4c0.1-0.9,5.4-1.6,6.3-1.4
				c0.9,0.1,1.6,1,1.5,1.9l-33.9,187.4C246.1,695.2,245.4,695.8,244.6,695.8z"/>
			<rect x="242.9" y="496.8" class="st3" width="340.3" height="14.5"/>
			<rect x="242.9" y="510" class="st19" width="340.3" height="9"/>
		</g>
	</g>
</g>
<g>
	<g>
		<path class="st35" d="M899.1,249.8c0-0.2,0.1-0.3,0.1-0.5c0.1-0.3,0.4-0.6,0.7-0.9c0.1-0.1,0.1-0.1,0.2-0.2c0,0,0,0,0,0
			c0,0,0.1-0.1,0.1-0.1c0.1,0,0.2-0.1,0.2-0.1c0.2-0.1,0.5-0.1,0.7-0.2c0,0,0.1,0,0.1,0c0,0,0.1,0,0.1,0c0.1,0,0.2,0,0.4,0
			c0,0,0,0,0,0c0,0,0.1,0,0.1,0c0.1,0,0.2,0.1,0.3,0.1c0.1,0,0.2,0.1,0.3,0.2c0,0,0,0,0.1,0c0,0,0,0,0,0c0.1,0.1,0.2,0.2,0.3,0.2
			c0,0,0,0,0.1,0c0.1,0.1,0.1,0.1,0.2,0.2c0,0.1,0.1,0.1,0.1,0.2c0,0,0,0,0,0c0.2,0.3,0.3,0.6,0.3,0.9l81.8,445.8
			c0.1,0.6,0,1.2-0.3,1.7c-0.3,0.5-0.9,0.9-1.5,1c-0.1,0-0.3,0-0.5,0c-1.1,0-2-0.8-2.3-1.9l-79.5-433.7l-81.2,433
			c-0.2,1.1-1.2,1.8-2.2,1.8c-0.1,0-0.3,0-0.5,0c-1.2-0.3-2-1.5-1.8-2.7L899.1,249.8z"/>
		<path class="st35" d="M606.2,695.1l85.1-445.3c0,0,0,0,0,0v0c0,0,0,0,0,0c0-0.1,0.1-0.3,0.1-0.4c0-0.1,0.1-0.1,0.1-0.2
			c0-0.1,0.1-0.1,0.1-0.2c0,0,0,0,0,0c0,0,0.1-0.1,0.1-0.1c0.1-0.1,0.1-0.1,0.2-0.2c0,0,0,0,0,0c0.2-0.2,0.5-0.4,0.7-0.5
			c0.2-0.1,0.5-0.1,0.7-0.2c0,0,0.1,0,0.1,0c0,0,0,0,0.1,0c0.1,0,0.3,0,0.4,0c0,0,0,0,0,0c0,0,0.1,0,0.1,0c0.1,0,0.2,0,0.3,0.1
			c0.4,0.2,0.7,0.4,1,0.8c0,0,0,0.1,0.1,0.1c0,0,0,0,0,0c0.2,0.3,0.3,0.6,0.3,0.9L777,694.9c0.1,0.6,0,1.2-0.3,1.7
			c-0.3,0.5-0.9,0.9-1.5,1c-0.1,0-0.3,0-0.5,0c-1.1,0-2-0.8-2.3-1.9l-78.9-433L610.7,696c-0.2,1.1-1.2,1.8-2.2,1.8
			c-0.1,0-0.3,0-0.5,0c-0.6-0.1-1.1-0.5-1.5-1C606.2,696.3,606.1,695.7,606.2,695.1z"/>
	</g>
	<polygon class="st35" points="787.3,485.6 944.9,485.6 901.4,250.2 743.9,250.2 	"/>
	<polygon class="st10" points="854.6,490 648.1,490 694.8,250.2 901.4,250.2 	"/>
	<polygon class="st24" points="842.2,477.1 659.8,477.1 702.8,263.1 885.2,263.1 	"/>
	<path class="st35" d="M902.3,255.2H694.8c-2.8,0-5-2.2-5-5l0,0c0-2.8,2.2-5,5-5h207.5c2.8,0,5,2.2,5,5l0,0
		C907.3,253,905.1,255.2,902.3,255.2z"/>
	<g>
		<polygon class="st3" points="733.5,281.9 713.2,281.8 712.6,284.6 733,284.7 		"/>
		<path class="st3" d="M742.4,281.9l-0.6,2.8l64.8,0.3c0.1-0.9,0.2-1.9,0.5-2.8L742.4,281.9z"/>
		<path class="st3" d="M820.7,282.3c-0.1,0.9-0.4,1.9-0.7,2.8l43.9,0.2l0.6-2.8L820.7,282.3z"/>
		<path class="st3" d="M758,299.8l0.3-1.7l-48.4-0.2l-0.6,2.8l48.5,0.2C757.9,300.5,757.9,300.2,758,299.8z"/>
		<path class="st3" d="M840.3,298.5l-73.8-0.3l-0.6,2.8l73.7,0.3C839.8,300.4,840,299.4,840.3,298.5z"/>
		<path class="st3" d="M846.6,298.5c-0.1,0.9-0.3,1.9-0.5,2.8l14.7,0.1l0.6-2.8L846.6,298.5z"/>
		<path class="st3" d="M745.4,363.4l0.3-1.7l-48.4-0.2l-0.6,2.8l48.5,0.2C745.2,364.1,745.3,363.7,745.4,363.4z"/>
		<path class="st3" d="M827.6,362l-73.8-0.3l-0.6,2.8l73.7,0.3C827.1,363.9,827.3,363,827.6,362z"/>
		<path class="st3" d="M833.9,362.1c-0.1,0.9-0.3,1.9-0.5,2.8l14.7,0.1l0.6-2.8L833.9,362.1z"/>
		<polygon class="st3" points="721.8,314 706.7,313.9 706.2,316.8 721.2,316.8 		"/>
		<polygon class="st3" points="779.1,314.3 730.8,314.1 730.3,316.9 778.5,317.1 		"/>
		<polygon class="st3" points="793.1,314.4 792.5,317.2 857.6,317.5 858.1,314.7 		"/>
		<polygon class="st3" points="806.2,330.5 748.3,330.2 747.7,333.1 805.7,333.3 		"/>
		<path class="st3" d="M818.6,330.6l-0.4,2c0,0.2,0,0.3-0.1,0.5c0,0.1-0.1,0.2-0.1,0.4l36.3,0.2l0.6-2.8L818.6,330.6z"/>
		<polygon class="st3" points="734,330.2 703.5,330 703,332.9 733.4,333 		"/>
		<polygon class="st3" points="828,346.7 771.4,346.4 770.8,349.3 827.5,349.5 		"/>
		<polygon class="st3" points="835.5,346.8 834.9,349.6 851.1,349.7 851.7,346.8 		"/>
		<polygon class="st3" points="756.7,346.4 729.2,346.3 728.7,349.1 756.1,349.2 		"/>
		<polygon class="st3" points="721.2,346.2 700.3,346.1 699.8,348.9 720.7,349 		"/>
	</g>
	<g>
		<path class="st3" d="M737.9,399l0.3-1.7l-48.4-0.2l-0.6,2.8l48.5,0.2C737.7,399.7,737.8,399.3,737.9,399z"/>
		<path class="st3" d="M820.1,397.6l-73.8-0.3l-0.6,2.8l73.7,0.3C819.6,399.5,819.8,398.6,820.1,397.6z"/>
		<path class="st3" d="M826.5,397.7c-0.1,0.9-0.3,1.9-0.5,2.8l14.7,0.1l0.6-2.8L826.5,397.7z"/>
		<path class="st3" d="M725.2,462.5l0.3-1.7l-48.4-0.2l-0.6,2.8l48.5,0.2C725.1,463.3,725.1,462.9,725.2,462.5z"/>
		<path class="st3" d="M807.5,461.2l-73.8-0.3l-0.6,2.8l73.7,0.3C807,463.1,807.2,462.1,807.5,461.2z"/>
		<path class="st3" d="M813.8,461.2c-0.1,0.9-0.3,1.9-0.5,2.8l14.7,0.1l0.6-2.8L813.8,461.2z"/>
		<polygon class="st3" points="701.6,413.2 686.6,413.1 686,415.9 701.1,416 		"/>
		<polygon class="st3" points="758.9,413.4 710.7,413.2 710.1,416 758.3,416.3 		"/>
		<polygon class="st3" points="773,413.5 772.4,416.3 837.4,416.6 838,413.8 		"/>
		<polygon class="st3" points="786.1,429.7 728.1,429.4 727.5,432.2 785.5,432.5 		"/>
		<path class="st3" d="M798.5,429.7l-0.4,2c0,0.2,0,0.3-0.1,0.5c0,0.1-0.1,0.2-0.1,0.4l36.3,0.2l0.6-2.8L798.5,429.7z"/>
		<polygon class="st3" points="713.9,429.3 683.4,429.2 682.8,432 713.3,432.2 		"/>
		<polygon class="st3" points="807.9,445.9 751.2,445.6 750.7,448.4 807.3,448.7 		"/>
		<polygon class="st3" points="815.3,445.9 814.8,448.7 831,448.8 831.6,446 		"/>
		<polygon class="st3" points="736.5,445.5 709.1,445.4 708.5,448.2 736,448.4 		"/>
		<polygon class="st3" points="701.1,445.4 680.2,445.3 679.6,448.1 700.5,448.2 		"/>
	</g>
</g>
<g>
	<path class="st35" d="M96.7,429.4H51.1c-1.2,0-2.2-1-2.2-2.2v-34.5c0-1.2,1-2.2,2.2-2.2h45.6c1.2,0,2.2,1,2.2,2.2v34.5
		C98.9,428.5,97.9,429.4,96.7,429.4z"/>
	<path class="st25" d="M98.9,429.4H53.2c-1.2,0-2.2-1-2.2-2.2v-34.5c0-1.2,1-2.2,2.2-2.2h45.6c1.2,0,2.2,1,2.2,2.2v34.5
		C101,428.5,100.1,429.4,98.9,429.4z"/>
	<g>
		<rect x="53.2" y="392.5" class="st24" width="45.7" height="35"/>
		<g>
			<path class="st10" d="M53.2,413.5c0-2.3,0-4.7,0-7c0,0,20.5,0,20.6,0c0-0.2,0-12.7,0-14c1.5,0,3,0,4.6,0c0,0,0,13.9,0,14
				c6.9,0,13.7,0,20.5,0c0,2.3,0,4.7,0,7c-6.9,0-13.7,0-20.6,0c0,4.7,0,9.3,0,14c-1.5,0-3,0-4.6,0c0-4.7,0-9.3,0-14
				C73.6,413.5,53.2,413.5,53.2,413.5z"/>
			<g class="st34">
				<path class="st17" d="M98.9,392.5C98.9,392.5,98.9,392.5,98.9,392.5c-0.7,0.4-1.4,0.9-2,1.4c-4.4,3.3-13.3,10.2-13.4,10.2
					c-1,0-3.1,0-3.2,0c0,0,0,0,0,0c0.1-0.1,10-7.7,14.9-11.4c0.1-0.1,0.1-0.1,0.2-0.2c-0.6,0-1.1,0-1.7,0c-0.9,0.7-1.8,1.4-2.7,2.1
					c-3.7,2.8-11.1,8.5-11.2,8.6c0-3.6,0-7.1,0-10.7c-0.5,0-1,0-1.5,0c0,0,0,0.1,0,0.1c0,4.6,0,9.1,0,13.7c0,0.1,0,0.1,0,0.3
					c6.9,0,13.7,0,20.5,0c0,2.3,0,4.7,0,7c-6.9,0-13.7,0-20.6,0c0,4.7,0,9.3,0,14c-1.5,0-3,0-4.6,0c0-4.7,0-9.3,0-14
					c-0.1,0-0.2,0-0.2,0c-6.7,0-13.4,0-20.1,0c-0.1,0-0.1,0-0.2,0c0,0.8,0,1.6,0,2.3c0.9,0,1.9,0,2.8,0c2.3,0,4.7,0,7,0
					c0.1,0,0.1,0,0.2,0c0,0,0,0,0,0c-0.1,0-0.1,0.1-0.2,0.1c-3.2,2.5-6.5,5-9.7,7.4c-0.1,0-0.1,0.1-0.2,0.1c0,1.3,0,2.6,0,4
					c15.2,0,30.5,0,45.7,0c0-11.6,0-23.2,0-34.8C98.9,392.7,98.9,392.6,98.9,392.5z M56.5,427.5c-1.1,0-2.1,0-3.2,0c0,0,0,0-0.1,0
					c0.1-0.1,0.1-0.1,0.2-0.1c5-3.8,9.9-7.6,14.9-11.4c0.1-0.1,0.1-0.1,0.2-0.1c1.1,0,2.2,0,3.3,0c-0.1,0.1-0.1,0.1-0.2,0.2
					c-5,3.8-9.9,7.6-14.9,11.4C56.6,427.4,56.6,427.5,56.5,427.5z M72.2,427.5c-4.6,0-9.2,0-13.9,0c4.6-3.6,9.2-7.1,13.9-10.6
					C72.2,420.4,72.2,423.9,72.2,427.5z M88.8,404.1C88.8,404.1,88.8,404.1,88.8,404.1c3.3-2.6,6.7-5.1,10-7.7c0,2.6,0,5.2,0,7.7
					C95.5,404.1,92.2,404.1,88.8,404.1z M88.8,415.8c3.3,0,6.7,0,10,0c0,2.6,0,5.1,0,7.7C95.5,421,92.2,418.4,88.8,415.8
					C88.8,415.9,88.8,415.9,88.8,415.8z M93.7,427.5c-4.6,0-9.2,0-13.8,0c0-3.5,0-7.1,0-10.6C84.5,420.4,89.1,423.9,93.7,427.5
					C93.7,427.4,93.7,427.5,93.7,427.5z M98.9,427.5c-5.1-3.9-10.1-7.7-15.1-11.6c0,0,0,0,0-0.1c0.7,0,1.3,0,2,0
					c0.4,0,0.9-0.1,1.3,0c0.4,0.1,0.8,0.5,1.2,0.8c3.5,2.7,7,5.4,10.5,8c0.1,0.1,0.2,0.2,0.2,0.5C98.9,425.9,98.9,426.7,98.9,427.5z
					"/>
				<path class="st17" d="M73.6,406.5c0.1,0,0.1,0,0.2,0c0-0.2,0-0.3,0-0.4c0-3.3,0-6.5,0-9.8c0-1.3,0-2.5,0-3.8c-0.5,0-1,0-1.5,0
					c0,3.4,0,6.8,0,10.3c0,0.1,0,0.2,0,0.4c-0.1,0-0.1-0.1-0.2-0.1c-4.6-3.5-9.1-7-13.7-10.5c0,0-0.1-0.1-0.1-0.1
					c-1.7,0-3.4,0-5.1,0c0.1,0.1,0.1,0.1,0.2,0.2c4.9,3.8,9.8,7.5,14.8,11.3c0.1,0,0.1,0.1,0.2,0.2c-0.1,0-0.1,0-0.2,0
					c-1,0-1.9,0-2.9,0c-0.1,0-0.3,0-0.4-0.1c-3.8-2.9-7.6-5.8-11.4-8.8c-0.1-0.1-0.1-0.1-0.2-0.1c0,0.4,0,0.9,0,1.3
					c1.8,1.4,3.7,2.8,5.5,4.2c1.5,1.1,2.9,2.3,4.4,3.4c0,0,0.1,0.1,0.1,0.2c-0.1,0-0.1,0-0.2,0c-3.2,0-6.4,0-9.6,0
					c-0.1,0-0.2,0-0.2,0c0,0.8,0,1.6,0,2.3c0,0,0.1,0,0.1,0C60,406.5,66.8,406.5,73.6,406.5z"/>
			</g>
			<path class="st35" d="M72.2,392.5c0,0,0,10.5,0,10.6c-0.1,0-13.8-10.5-13.8-10.5l-0.1-0.1H72.2z"/>
			<path class="st35" d="M93.7,392.5c-0.9,0.7-13.8,10.6-13.9,10.7c0-3.6,0-7.1,0-10.7C84.5,392.5,89.1,392.5,93.7,392.5z"/>
			<polygon class="st10" points="98.8,392.5 83.5,404.1 80.3,404.1 80.3,404.1 95.4,392.5 			"/>
			<polygon class="st35" points="53.2,396.4 63.2,404.1 53.2,404.1 			"/>
			<path class="st35" d="M53.2,415.8c0.9,0,10,0,10,0c0,0-10,7.7-10,7.8C53.2,421,53.2,418.4,53.2,415.8z"/>
			<polygon class="st10" points="53.2,392.5 68.3,404.1 65.2,404.1 53.2,395.1 			"/>
			<path class="st35" d="M72.2,416.8c0,3.6,0,7.1,0,10.6c-4.6,0-9.2,0-13.9,0C63,423.9,67.6,420.4,72.2,416.8z"/>
			<path class="st35" d="M93.7,427.5c-4.6,0-9.2,0-13.8,0c0-3.5,0-7.1,0-10.6C84.5,420.4,89.1,423.9,93.7,427.5
				C93.7,427.4,93.7,427.5,93.7,427.5z"/>
			<polygon class="st10" points="53.2,427.5 68.5,415.8 71.8,415.8 56.5,427.5 			"/>
			<path class="st35" d="M98.9,396.4c0,2.6,0,5.2,0,7.7c-3.3,0-6.7,0-10,0c0,0,0,0,0,0C92.2,401.5,95.5,399,98.9,396.4z"/>
			<path class="st35" d="M88.8,415.8c3.3,0,6.7,0,10,0c0,2.6,0,5.1,0,7.7C95.5,421,92.2,418.4,88.8,415.8
				C88.8,415.9,88.8,415.9,88.8,415.8z"/>
			<polygon class="st10" points="83.7,415.8 87,415.9 98.9,425.2 98.9,427.5 			"/>
		</g>
	</g>
	<rect x="49" y="427.5" class="st35" width="4.3" height="22.5"/>
	<path class="st35" d="M56.7,455.3H44.6v-0.8c0-3.3,2.7-6,6-6l0,0c3.3,0,6,2.7,6,6V455.3z"/>
	<rect x="51.1" y="427.5" class="st25" width="4.3" height="22.5"/>
	<path class="st25" d="M59.4,455.3H47.3v-0.8c0-3.3,2.7-6,6-6l0,0c3.3,0,6,2.7,6,6V455.3z"/>
</g>
<g>
	<g>
		<polygon class="st14" points="926.3,689.4 943.4,646.4 916.5,646.8 903.5,685.2 		"/>
		<g>
			<path class="st26" d="M932.1,675.2l-24.9-2.5l-37.1,15.9c-3.9,1.7-6.5,5.5-6.5,9.8l0,0.7c0,2,1.6,3.6,3.6,3.7l60.9,0.5
				c2.1,0,3.7-1.6,3.8-3.7L932.1,675.2z"/>
			<path class="st20" d="M931.9,699.5l0-3l-68.3,0.5l0,2.1c0,2,1.6,3.6,3.6,3.7l60.9,0.5C930.2,703.2,931.9,701.6,931.9,699.5z"/>
		</g>
	</g>
	<path class="st22" d="M1000.5,453l-45.7,214.4l-60.8-8.7L939.1,436c1-6.1,3.9-8.5,8.3-9.1c5.1-0.6,12.2,1.2,20.1,2.5
		C982.3,431.7,1002.6,439.6,1000.5,453z"/>
	<path class="st13" d="M945.8,620.2c-4.4,17.1-10,27-15.9,43.7l24.8,3.5L994,474.1C992.6,477.3,953.4,590.9,945.8,620.2z"/>
	<polygon class="st14" points="1056.5,679.5 1049.4,642.2 1023.6,645 1030,676.7 	"/>
	<g>
		<path class="st26" d="M1055.8,675.3l-25.9,1.4L997.6,689c-3.9,1.7-6.5,5.5-6.5,9.8l0,0.7c0,2,1.6,3.6,3.6,3.7l60.9,0.5
			c2.1,0,3.7-1.6,3.8-3.7L1055.8,675.3z"/>
		<path class="st20" d="M1059.3,699.9l0-3l-68.3,0.5l0,2.1c0,2,1.6,3.6,3.6,3.7l60.9,0.5C1057.6,703.6,1059.3,702,1059.3,699.9z"/>
	</g>
	<path class="st22" d="M1036.3,447.2l31.8,213.6l-43.4,4l-3.3,0.3l-10.9,1l-37.8-215.2c-1.1-6.1,1-9.3,5-11.3
		c4.6-2.3,11.9-2.7,19.8-4.1C1012.2,433,1034,433.9,1036.3,447.2z"/>
	<path class="st13" d="M1039.8,609.1c1.3,17.6,4,36.3,3.9,54l24.4-2.2l-31-205.4C1036.8,458.9,1037.6,578.8,1039.8,609.1z"/>
	<path class="st20" d="M1025.3,475.8c-3.4,0-6.4-0.3-7.7-1.3c-3.6-2.9-4.1-28-4.1-30.8l1,0c0.2,11,1.3,28.1,3.8,30.1
		c2.8,2.2,16.5,0.7,21.6-0.1l0.2,1C1039.5,474.6,1031.7,475.8,1025.3,475.8z"/>
	<path class="st20" d="M945.1,457.1c-4.6,0-9.3-2.6-9.6-2.7l0.5-0.9c0.1,0,8.6,4.6,13.3,1.5c4.8-3.2,6.7-22.6,6.7-22.7l1,0.1
		c-0.1,0.8-2,20-7.2,23.5C948.5,456.8,946.8,457.1,945.1,457.1z"/>
	
		<rect x="902.6" y="575" transform="matrix(0.1729 0.9849 -0.9849 0.1729 1389.4664 -503.5707)" class="st20" width="183.9" height="1"/>
	<path class="st20" d="M1010.9,700.5l-0.9-0.4c2.6-5.7-2.9-14.5-2.9-14.6l0.8-0.5C1008.2,685.3,1013.7,694.3,1010.9,700.5z"/>
	<path class="st20" d="M882.9,699.8l-0.9-0.4c2.6-5.6-2.7-14.5-2.7-14.6l0.9-0.5C880.4,684.6,885.8,693.6,882.9,699.8z"/>
	<path class="st20" d="M975,276.6c0,0-7.4,59.7-19.1,63.9c3.2,5,55.1,8,68.1,3.8c0,0-20.1-57.6-17.9-64.2
		C1006.1,280,978.4,285.1,975,276.6z"/>
	<g>
		<path class="st14" d="M973.9,379.4l-45.4,34.5l-20.9-24.1l46.4-37c0.1-0.1,0.2-0.2,0.3-0.2C956.7,356.3,969.8,374.1,973.9,379.4z"
			/>
		<path class="st14" d="M905.7,420.3l-62.9-46.4l12.2-19.1l81.8,52.7l-16.4,12.7C916.1,423.5,910.1,423.6,905.7,420.3z"/>
		<path class="st33" d="M992.1,343.5c5.7,7.2,4.5,17.6-2.6,23.3l-26.9,21.5c-1.7,1.3-7.7-3.4-13.4-10.6c-5.7-7.2-9-14.1-7.3-15.4
			l26.9-21.5C975.9,335.2,986.4,336.4,992.1,343.5z"/>
	</g>
	<path class="st24" d="M937.4,440.7l100.7,12c0,0,1.9-74.8,0.8-100.5c-0.6-14.2-9.9-20.6-16.5-20l-38.9,3.5
		c-9.4,0.9-15.8,4.4-21.4,19.2C954.4,375.7,937.4,440.7,937.4,440.7z"/>
	<path class="st6" d="M1004.2,306.2c0,0,0.2,16.6,0.7,27.7c-1.7,5.8-15.1,8.6-17.8,4.9l-0.2-22.1L1004.2,306.2z"/>
	<path class="st14" d="M976.6,299.5c-1.1,12.1,3,22.4,11.5,23.1c7,0.6,21.3-8,22.4-20.1s-5.6-22.6-14.9-23.4
		C986.1,278.2,977.7,287.3,976.6,299.5z"/>
	
		<ellipse transform="matrix(-0.996 -8.982186e-002 8.982186e-002 -0.996 1951.2432 689.5743)" class="st20" cx="991.1" cy="300.9" rx="1.6" ry="1.9"/>
	
		<ellipse transform="matrix(-0.996 -8.983564e-002 8.983564e-002 -0.996 1930.1829 684.5715)" class="st20" cx="980.5" cy="298.8" rx="1.6" ry="1.9"/>
	<path class="st20" d="M987.2,310.8c-1,0-4.2-0.1-5-1c-0.2-0.2-0.2-0.5-0.1-0.8c0.4-1.4,2-5.7,2.1-5.8l0.7,0.3c0,0-1.7,4.4-2.1,5.8
		c0,0,0,0.1,0,0.1c0.4,0.5,2.9,0.8,4.5,0.7l0,0.8C987.3,310.8,987.3,310.8,987.2,310.8z"/>
	<path class="st20" d="M985.5,316.8c-0.1,0-0.2,0-0.3,0c-1.1-0.1-2.1-0.7-2.9-1.8l0.6-0.5c0.7,0.9,1.5,1.4,2.4,1.5
		c1.5,0.1,2.7-1,2.8-1l0.5,0.5C988.4,315.6,987.1,316.8,985.5,316.8z"/>
	<path class="st20" d="M994.7,298c-0.6-1.1-1.5-1.8-2.4-2c-1.5-0.3-2.9,0.6-2.9,0.6l-0.4-0.6c0.1,0,1.7-1.2,3.5-0.8
		c1.2,0.3,2.1,1,2.9,2.4L994.7,298z"/>
	<path class="st20" d="M983.4,295.6c-0.6-0.9-1.3-1.4-2.1-1.6c-1.2-0.2-2.2,0.7-2.2,0.7l-0.5-0.6c0.1,0,1.2-1.1,2.8-0.9
		c1,0.1,1.9,0.8,2.6,1.9L983.4,295.6z"/>
	<path class="st20" d="M948.5,401.4l-0.7-0.2c0.1-0.3,10.1-34.4,15.4-49.6c5.2-14.9,18.7-17.3,18.8-17.3l0.1,0.7
		c-0.1,0-13.1,2.4-18.2,16.8C958.5,367,948.6,401.1,948.5,401.4z"/>
	<path class="st33" d="M958.5,390.1c2.8-1.9,6-1.8,9.2-1.3c3.3,0.6,6.4,1.3,9.8,1.5c6.7,0.4,13.5,0,19.9,2c0.6,0.2,1.2,0.6,1.4,1.2
		c0.2,0.2,0.3,0.5,0.4,0.9c0.1,0.9-0.7,2-1.7,2c-0.9,0-1.8,0-2.7,0c-11.7-0.1-23.7,1.5-35-2.5c-0.3-0.1-0.5-0.3-0.7-0.6
		C957.6,393,957.2,390.9,958.5,390.1z"/>
	<path class="st20" d="M1007.1,295.9c-2.3,7,1.5,18.3,1.5,18.3c1.8-1.3,12.4,3.4,12.4,3.4s14.4-25.5-4.4-41.3
		c-14.6-12.2-33.2-3.5-33.2-3.5c-14.8-4.3-11.5,18.1-11.5,18.1C993.7,279,1007.1,295.9,1007.1,295.9z"/>
	<path class="st14" d="M1048.3,356.8l29.8,48.7l-26.1,18.3l-32.1-49.8c-0.1-0.1-0.1-0.2-0.2-0.3
		C1023.6,371.5,1042.7,360.3,1048.3,356.8z"/>
	<path class="st14" d="M1078.3,428.9l-59.3,43.4l-18.2-10.8l72.7-63.5l8.1,12.5C1085.6,416.5,1084.1,424.6,1078.3,428.9z"/>
	<path class="st33" d="M1014.5,335c7.7-5,18-2.8,23,4.9l18.7,28.9c1.2,1.8-4.1,7.3-11.9,12.3c-7.7,5-14.9,7.5-16.1,5.7l-18.7-28.9
		C1004.6,350.3,1006.8,340,1014.5,335z"/>
	<path class="st20" d="M1029.8,387.9c-0.8,0-1.5-0.2-1.9-0.7l-18.7-28.9c-2.5-3.8-3.3-8.3-2.3-12.8s3.6-8.2,7.4-10.7l0.4,0.6
		c-3.6,2.3-6.2,6-7.1,10.2c-0.9,4.2-0.1,8.6,2.2,12.2l18.7,28.9c0.3,0.5,1.9,0.7,5.1-0.5c3-1.1,6.7-3,10.4-5.4c3.7-2.4,7-5,9.2-7.3
		c2.4-2.5,2.9-3.9,2.6-4.5l0.6-0.4c0.9,1.3-1,3.7-2.6,5.4c-2.3,2.3-5.6,5-9.3,7.4c-3.7,2.4-7.5,4.4-10.6,5.5
		C1032.6,387.4,1031,387.9,1029.8,387.9z"/>
	<path class="st14" d="M1005.1,463.4c-0.1-0.2-0.3-0.4-0.5-0.5c0-0.1,0-0.2,0-0.2c0-0.7-0.6-1.4-1.3-1.4c-1.6,0.1-3.2,0.2-4.7,0.3
		c-0.8,0.1-1.7,0-2.4,0.4c-0.8,0.4-1.1,1.3-1.4,2c-1.1,2.6-2,5.4-1.6,8.3c0.1,0.5,0.6,0.9,1.1,1c0.6,0.1,1-0.2,1.4-0.6
		c0.7-0.9,1.4-1.9,1.9-2.9c0.5-0.9,0.8-1.9,1.3-2.8c0.5-0.8,0.8-1,1.8-1c1.4,0,2.6-0.3,3.9-0.8C1005.2,465,1005.4,464,1005.1,463.4z
		"/>
	<g>
		<g>
			<path class="st14" d="M1000.6,489.3c1.2,1.3,3.6,1.5,3.5-0.4c0,0,0,0,0-0.1c1,1.6,3.8,2,3.8-0.1c-0.1-4.2-0.8-9.3,2.4-11.9
				c2.6-2.2,7.6-3,9.3-5.1c6.7-7.8-4.2-20.4-11.4-14.5c-2,1.6-4,3.1-6.1,4.5c-6.9,4.5-12.3,16.4-12.7,24.6c-0.1,2.3,4.1,3.4,4.2,1
				c0.2-6.1,3.9-15,4.9-16c0.1,0.1,0.1,0.2,0.2,0.3c-2.1,5-2.8,10.2-2.2,16.1C996.7,490.3,1000.4,491.4,1000.6,489.3z"/>
		</g>
		<g>
			<path class="st29" d="M1000.6,489.8c-0.2,0-0.5-0.2-0.5-0.4c-0.1-0.4-1.3-9,1.8-16.1c0.1-0.3,0.4-0.4,0.7-0.3
				c0.3,0.1,0.4,0.4,0.3,0.7c-3,6.8-1.8,15.4-1.8,15.5C1001.2,489.5,1001,489.8,1000.6,489.8
				C1000.7,489.8,1000.6,489.8,1000.6,489.8z"/>
			<path class="st29" d="M1004.2,489.4c-0.2,0-0.5-0.2-0.5-0.4c-0.1-0.4-1.2-9.3,1.8-14.2c0.1-0.2,0.5-0.3,0.7-0.2
				c0.2,0.1,0.3,0.5,0.2,0.7c-2.9,4.6-1.7,13.4-1.7,13.5C1004.7,489.1,1004.5,489.3,1004.2,489.4
				C1004.2,489.4,1004.2,489.4,1004.2,489.4z"/>
			<path class="st29" d="M1002.5,490.9c-0.7,0-1.3-0.4-1.8-0.8c-0.4,0.4-1.1,0.8-2.3,0.6c-1.7-0.2-2.4-2.6-2.5-2.7c0,0,0-0.1,0-0.1
				c-0.1-2.8,0.2-8,1-12.3c-1.3,3-2.8,7.3-2.9,11.8c0,1.2-0.9,2-2.1,2c0,0,0,0,0,0c-1.4,0-3-1.1-3-3c-0.2-3.3,2.9-14.8,8.3-20.8
				c0.2-0.2,0.5-0.2,0.7,0c0.2,0.2,0.2,0.5,0,0.7c-5.5,6.1-8.2,17.4-8.1,20.1c0.1,1.4,1.1,2.1,2,2.1c0,0,0,0,0,0
				c0.3,0,1.1-0.1,1.2-1c0.2-8.5,4.8-15.9,5-16.2c0.1-0.2,0.4-0.3,0.6-0.2c0.2,0.1,0.3,0.4,0.3,0.6c-1.5,4.2-2.2,12.8-2,16.2
				c0.2,0.6,0.7,1.8,1.6,2c1.3,0.2,1.5-0.5,1.5-0.5c0-0.2,0.2-0.3,0.4-0.4c0.2,0,0.4,0,0.5,0.1c0.3,0.3,1.2,1,1.6,0.9
				c0.6-0.2,1-0.9,1.1-1.1c0.1-0.2,0.2-0.3,0.4-0.3c0.2,0,0.3,0,0.5,0.2c0.4,0.4,1.6,1.4,2.3,1.1c0.6-0.3,0.7-2.3,0.5-3.5
				c0-0.3,0.2-0.5,0.4-0.6c0.3,0,0.5,0.2,0.6,0.4c0.1,0.6,0.4,3.8-1.1,4.5c-1.1,0.6-2.3-0.2-3-0.8c-0.3,0.4-0.7,0.9-1.4,1.1
				C1002.8,490.9,1002.6,490.9,1002.5,490.9z"/>
		</g>
	</g>
	<path class="st20" d="M997.6,346.2c37.2,18.1,47.6-3.3,47.6-3.3c-13.7-10.5-13.8-38.9-20.8-54.9c0,0-3.5-7.2-3.5-7.2
		c-3.1,14.4-13.5,20.8-13.5,20.8C1008.6,308.5,1001.4,339.3,997.6,346.2z"/>
	<path class="st14" d="M1004.1,302.9c-0.3,3.1,0.6,6.1,3.3,6.4s5.6-2.5,6.5-5.5c0.9-3-0.7-6.1-3.4-6.4S1004.3,299.8,1004.1,302.9z"
		/>
	<path class="st14" d="M839.4,356.8c0,0,9.7-5.9,19.4,0.4c3,2,7.5,9.6,2.4,13.1c-3.4,2.3-15.3,9.4-19.9,8.8
		c-1.5-0.2-2.3-1.9-1.5-3.1c-1.3,0.1-2.5-0.1-3.5-1.2c-1-1-1.1-2-0.6-3c-1.8,0.2-3.3-0.2-3.9-2.1c-0.3-0.9-0.1-1.7,0.3-2.4
		c-1.5,0-2.8-0.6-3.5-2.4C826.8,360.5,835.9,358,839.4,356.8z"/>
	<path class="st14" d="M847.5,351c3.6,0.8,7.1,3.4,10,5.4c0.1,0,0.1,0.1,0.1,0.1c1.6,0.8,1.8,2.9-0.6,3.6c-2.8,0.8-6.1,1.6-8.4,0.2
		c-1.3-0.8-1.5-3.3-3-3.7c-2-0.5-4.3,0.8-6,1.7c-2.9,1.5-6.8-1.2-4.3-3C838.4,353,843.6,350.2,847.5,351z"/>
	<path class="st20" d="M863.9,381.6L863.9,381.6c-1.1,1.5-3.1,1.8-4.6,0.7L728,281.6L863.2,377C864.7,378,865,380.1,863.9,381.6z"/>
	<g>
		<path class="st14" d="M852.4,372.5c-0.7,2.5-3.3,4.4-6.1,5.9c-1.1,0.4-2.7,0.8-4.3,0.9c-2.8,0.3-4.4-3.1-4.4-3.1
			c-2.5-0.1-3.1-3.3-3.1-3.3c-2.7-0.1-2.7-4.7-2.7-4.7c-2.3-0.3-3.1-2.7-2.7-3.9c0.2-0.7,10-10.9,13.8-7.8c1.5,1.2,1.7,2.5,1.1,3.8
			c0.9,0,1.7,0.1,2.5,0.7c1.6,1.2,1.6,2.6,0.7,4.1c1.1,0,2.1,0.4,2.7,1.6c0.7,1.2,0.5,2.4-0.1,3.4
			C851.4,369.8,852.7,371.2,852.4,372.5z"/>
		<g>
			<path class="st29" d="M846.3,378.9c-0.2,0-0.4-0.1-0.4-0.3c-0.1-0.2,0-0.5,0.2-0.7c3.3-1.7,5.3-3.6,5.8-5.6
				c0.1-0.4,0-0.8-0.4-1.2c-0.4-0.5-1-0.7-1.6-0.6c-0.2,0-0.4-0.1-0.5-0.2c-0.1-0.2-0.1-0.4,0-0.5c0.6-1.1,0.6-2,0.1-2.9
				c-0.5-0.9-1.2-1.4-2.3-1.3c-0.2,0-0.4-0.1-0.5-0.2s-0.1-0.4,0-0.5c0.9-1.4,0.7-2.5-0.5-3.4c-0.6-0.4-1.3-0.6-2.2-0.6
				c-0.2,0-0.3-0.1-0.4-0.2s-0.1-0.3,0-0.5c0.6-1.2,0.2-2.3-1-3.2c-0.2-0.2-0.3-0.5-0.1-0.7c0.2-0.2,0.5-0.3,0.7-0.1
				c1.6,1.3,1.8,2.6,1.5,3.7c0.8,0.1,1.5,0.3,2.1,0.8c1.5,1.1,1.9,2.5,1.2,4.1c1,0.2,1.8,0.8,2.4,1.8c0.6,1,0.6,2.1,0.2,3.2
				c0.6,0.1,1.2,0.4,1.7,0.9c0.6,0.6,0.8,1.4,0.6,2.1c-0.6,2.3-2.7,4.3-6.4,6.2C846.4,378.8,846.4,378.9,846.3,378.9z"/>
			<path class="st29" d="M837.6,376.7c-0.2,0-0.4-0.1-0.4-0.3c-0.1-0.2,0-0.5,0.2-0.7l12.2-6.1c0.2-0.1,0.5,0,0.7,0.2
				c0.1,0.2,0,0.5-0.2,0.7l-12.2,6.1C837.8,376.6,837.7,376.7,837.6,376.7z"/>
			<path class="st29" d="M834.5,373.4c-0.2,0-0.3-0.1-0.4-0.2c-0.1-0.2-0.1-0.5,0.2-0.7l12.7-7.9c0.2-0.1,0.5-0.1,0.7,0.2
				c0.1,0.2,0.1,0.5-0.2,0.7l-12.7,7.9C834.7,373.4,834.6,373.4,834.5,373.4z"/>
			<path class="st29" d="M831.8,368.7c-0.2,0-0.3-0.1-0.4-0.2c-0.1-0.2-0.1-0.5,0.1-0.7l12.2-7.9c0.2-0.1,0.5-0.1,0.7,0.1
				c0.1,0.2,0.1,0.5-0.1,0.7l-12.2,7.9C832,368.6,831.9,368.7,831.8,368.7z"/>
		</g>
	</g>
</g>
<g>
	<path class="st24" d="M566.4,394.2h-41l-22.9,14.1c-0.6,0.4-1.3-0.3-1.1-0.9l5.7-13.2h-3c-9.7,0-17.5-7.8-17.5-17.5V359
		c0-9.7,7.8-17.5,17.5-17.5h62.3c9.7,0,17.5,7.8,17.5,17.5v17.7C583.9,386.4,576.1,394.2,566.4,394.2z"/>
	<circle class="st10" cx="535.3" cy="367.8" r="13.7"/>
	<path class="st20" d="M502.2,408.8c-0.3,0-0.6-0.1-0.9-0.3c-0.5-0.4-0.6-1-0.3-1.6l5.6-12.3h-2.4c-9.9,0-17.9-8-17.9-17.9V359
		c0-9.9,8-17.9,17.9-17.9h62.3c9.9,0,17.9,8,17.9,17.9v17.7c0,9.9-8,17.9-17.9,17.9h-40.9l-22.6,14
		C502.7,408.7,502.4,408.8,502.2,408.8z M504.1,341.8c-9.5,0-17.2,7.7-17.2,17.2v17.7c0,9.5,7.7,17.2,17.2,17.2h3.6l-6,13.3
		c-0.1,0.3,0,0.6,0.2,0.7c0.2,0.1,0.4,0.2,0.7,0.1l22.8-14.1h41.1c9.5,0,17.2-7.7,17.2-17.2V359c0-9.5-7.7-17.2-17.2-17.2H504.1z"/>
</g>
<g>
	<g>
		<path class="st35" d="M603.1,247.1v17.7c0,9.7-7.8,17.5-17.5,17.5h-62.3c-9.7,0-17.5-7.9-17.5-17.5v-17.7
			c0-9.7,7.8-17.5,17.5-17.5h62.3C595.2,229.6,603.1,237.5,603.1,247.1z"/>
		<path class="st35" d="M538.2,229.6v56.5l-16.1,10.1c-0.7,0.6-1.8-0.1-1.5-1l5.5-12.8l-2.8,0c-9.7,0-17.5-7.8-17.5-17.5v-17.7
			c0-9.7,7.8-17.5,17.5-17.5H538.2z"/>
		<polygon class="st24" points="570.6,229.6 570.6,282.4 544.6,282.4 538.2,286.1 538.2,229.6 		"/>
		<path class="st10" d="M603.1,247.1v17.7c0,9.7-7.8,17.5-17.5,17.5h-14.9v-52.7h14.9C595.2,229.6,603.1,237.5,603.1,247.1z"/>
	</g>
	<path class="st20" d="M521.4,296.9c-0.3,0-0.6-0.1-0.9-0.3c-0.5-0.4-0.6-1-0.3-1.6l5.6-12.3h-2.4c-9.9,0-17.9-8-17.9-17.9v-17.7
		c0-9.9,8-17.9,17.9-17.9h62.3c9.9,0,17.9,8,17.9,17.9v17.7c0,9.9-8,17.9-17.9,17.9h-40.9l-22.6,14
		C521.9,296.8,521.6,296.9,521.4,296.9z M523.3,230c-9.5,0-17.2,7.7-17.2,17.2v17.7c0,9.5,7.7,17.2,17.2,17.2h3.6l-6,13.3
		c-0.1,0.3,0,0.6,0.1,0.7c0.2,0.1,0.4,0.2,0.7,0.1l22.8-14.1h41.1c9.5,0,17.2-7.7,17.2-17.2v-17.7c0-9.5-7.7-17.2-17.2-17.2H523.3z"
		/>
</g>
<g>
	<g>
		<defs>
			<path id="SVGID_5_" d="M440.2,259.4h-62.3c-9.7,0-17.5,7.8-17.5,17.5v17.7c0,9.7,7.8,17.5,17.5,17.5h3l-5.8,12.8
				c-0.4,0.9,0.6,1.7,1.4,1.2l22.7-14h41c9.7,0,17.5-7.8,17.5-17.5v-17.7C457.7,267.3,449.9,259.4,440.2,259.4z"/>
		</defs>
		<clipPath id="SVGID_6_">
			<use xlink:href="#SVGID_5_"  style="overflow:visible;"/>
		</clipPath>
		<g class="st16">
			<rect x="357.2" y="252.3" class="st24" width="100.5" height="63.3"/>
			<g>
				<path class="st10" d="M357.2,290.3c0-4.2,0-8.4,0-12.7c0.1,0,45.1,0,45.2,0c0-0.3,0-23,0-25.3c3.3,0,6.7,0,10,0
					c0,0.1,0,25.2,0,25.4c15.1,0,30.1,0,45.2,0c0,4.2,0,8.4,0,12.6c-15.1,0-30.1,0-45.2,0c0,8.5,0,16.9,0,25.3c-3.3,0-6.7,0-10,0
					c0-8.4,0-16.9,0-25.3C402.2,290.2,357.3,290.3,357.2,290.3z"/>
				<g class="st34">
					<path class="st17" d="M457.7,252.4c0-0.1-0.1-0.1-0.2-0.1c-1.4,0.9-2.8,1.8-4.2,2.7c-9.6,6.1-29.3,18.4-29.5,18.4
						c-2.2,0-6.8,0-6.9,0c0,0,0-0.1,0-0.1c0.2-0.1,22-13.9,32.8-20.7c0.1-0.1,0.3-0.2,0.4-0.3c-1.3,0-2.5,0-3.8,0
						c-2,1.2-3.9,2.5-5.9,3.7c-8.1,5.1-24.5,15.4-24.7,15.6c0-6.5,0-12.9,0-19.3c-1.1,0-2.2,0-3.3,0c0,0.1,0,0.1,0,0.2
						c0,8.2,0,16.5,0,24.7c0,0.1,0,0.3,0,0.5c15.1,0,30.1,0,45.2,0c0,4.2,0,8.4,0,12.6c-15.1,0-30.1,0-45.2,0c0,8.5,0,16.9,0,25.3
						c-3.3,0-6.7,0-10,0c0-8.4,0-16.9,0-25.3c-0.2,0-0.4,0-0.5,0c-14.7,0-29.5,0-44.2,0c-0.2,0-0.3,0-0.5,0c0,1.4,0,2.8,0,4.2
						c2.1,0,4.2,0,6.2,0c5.1,0,10.2,0,15.4,0c0.2,0,0.3,0,0.5,0c0,0,0,0.1,0,0.1c-0.1,0.1-0.2,0.2-0.4,0.2
						c-7.1,4.5-14.2,9-21.3,13.5c-0.1,0.1-0.2,0.2-0.4,0.2c0,2.4,0,4.8,0,7.2c33.5,0,67,0,100.6,0c0-21,0-42,0-63
						C457.7,252.6,457.7,252.5,457.7,252.4z M364.4,315.6c-2.3,0-4.6,0-6.9,0c0,0-0.1,0-0.2,0c0.1-0.1,0.3-0.2,0.4-0.3
						c10.9-6.9,21.8-13.7,32.7-20.6c0.1-0.1,0.3-0.2,0.5-0.2c2.4,0,4.7,0,7.2,0c-0.2,0.1-0.3,0.2-0.4,0.3
						c-10.9,6.9-21.8,13.7-32.7,20.6C364.8,315.5,364.6,315.6,364.4,315.6z M399,315.5c-10.1,0-20.3,0-30.5,0
						c10.2-6.4,20.3-12.8,30.5-19.2C399,302.8,399,309.1,399,315.5z M435.6,273.3C435.6,273.3,435.6,273.3,435.6,273.3
						c7.3-4.7,14.6-9.3,22-14c0,4.7,0,9.3,0,14C450.3,273.3,442.9,273.3,435.6,273.3z M435.6,294.5c7.3,0,14.7,0,22,0
						c0,4.6,0,9.3,0,14C450.2,303.8,442.9,299.2,435.6,294.5C435.6,294.6,435.6,294.5,435.6,294.5z M446.2,315.6
						c-10.1,0-20.2,0-30.4,0c0-6.4,0-12.8,0-19.2C426,302.7,436.1,309.1,446.2,315.6C446.2,315.5,446.2,315.5,446.2,315.6z
						 M457.6,315.6c-11.1-7-22.2-14-33.3-21c0,0,0-0.1,0-0.1c1.5,0,2.9,0,4.4,0c0.9,0,1.9-0.2,2.8,0.1c0.9,0.3,1.7,1,2.6,1.5
						c7.7,4.8,15.4,9.7,23.1,14.5c0.3,0.2,0.4,0.4,0.4,0.8C457.6,312.8,457.6,314.1,457.6,315.6z"/>
					<path class="st17" d="M402,277.6c0.1,0,0.3,0,0.4,0c0-0.3,0-0.5,0-0.7c0-5.9,0-11.8,0-17.7c0-2.3,0-4.6,0-6.9
						c-1.1,0-2.2,0-3.3,0c0,6.2,0,12.4,0,18.6c0,0.2,0,0.4,0,0.7c-0.1-0.1-0.2-0.1-0.3-0.2c-10-6.3-20-12.6-30-18.9
						c-0.1,0-0.1-0.1-0.2-0.2c-3.7,0-7.5,0-11.2,0c0.1,0.1,0.2,0.2,0.4,0.3c10.8,6.8,21.7,13.6,32.5,20.5c0.1,0.1,0.2,0.2,0.3,0.3
						c-0.1,0-0.3,0-0.4,0c-2.1,0-4.3,0-6.4,0c-0.3,0-0.6-0.1-0.8-0.2c-8.4-5.3-16.8-10.6-25.2-15.8c-0.1-0.1-0.3-0.2-0.5-0.2
						c0,0.8,0,1.5,0,2.3c4,2.5,8,5.1,12.1,7.6c3.2,2,6.5,4.1,9.7,6.1c0.1,0.1,0.2,0.1,0.3,0.3c-0.1,0-0.3,0-0.4,0
						c-7,0-14.1,0-21.1,0c-0.2,0-0.4,0-0.5,0c0,1.4,0,2.8,0,4.2c0.1,0,0.2,0,0.3,0C372.3,277.6,387.1,277.6,402,277.6z"/>
				</g>
				<path class="st35" d="M399,252.3c0,0,0,19,0,19.2c-0.1-0.1-30.3-19.1-30.3-19.1l-0.2-0.2H399z"/>
				<path class="st35" d="M446.3,252.3c-2,1.2-30.4,19.2-30.6,19.3c0-6.5,0-12.9,0-19.3C426,252.3,436.2,252.3,446.3,252.3z"/>
				<polygon class="st10" points="457.6,252.3 423.8,273.3 416.9,273.4 416.9,273.3 450.1,252.3 				"/>
				<polygon class="st35" points="357.2,259.3 379.2,273.4 357.2,273.4 				"/>
				<path class="st35" d="M357.2,294.5c2.1,0,21.9,0,22.1,0c0,0-21.9,13.9-22.1,14C357.2,303.8,357.2,299.2,357.2,294.5z"/>
				<polygon class="st10" points="357.2,252.3 390.4,273.4 383.6,273.3 357.2,257 				"/>
				<path class="st35" d="M399,296.3c0,6.5,0,26,0,32.4c-10.1,0-40.4-0.7-50.7-0.7C358.6,321.6,388.8,302.7,399,296.3z"/>
				<path class="st35" d="M446.2,315.6c-10.1,0-20.2,0-30.4,0c0-6.4,0-12.8,0-19.2C426,302.7,436.1,309.1,446.2,315.6
					C446.2,315.5,446.2,315.5,446.2,315.6z"/>
				<polygon class="st10" points="357.3,315.5 390.8,294.5 398,294.5 364.4,315.6 				"/>
				<path class="st35" d="M457.6,259.4c0,4.7,0,9.3,0,14c-7.4,0-14.7,0-22,0c0,0,0,0,0-0.1C442.9,268.6,450.2,264,457.6,259.4z"/>
				<path class="st35" d="M435.6,294.5c7.3,0,14.7,0,22,0c0,4.6,0,9.3,0,14C450.2,303.8,442.9,299.2,435.6,294.5
					C435.6,294.6,435.6,294.5,435.6,294.5z"/>
				<polygon class="st10" points="424.4,294.5 431.6,294.6 457.6,311.4 457.6,315.6 				"/>
			</g>
		</g>
	</g>
	<path class="st20" d="M376,326.7c-0.3,0-0.6-0.1-0.9-0.3c-0.5-0.4-0.6-1-0.3-1.6l5.6-12.3h-2.4c-9.9,0-17.9-8-17.9-17.9v-17.7
		c0-9.9,8-17.9,17.9-17.9h62.3c9.9,0,17.9,8,17.9,17.9v17.7c0,9.9-8,17.9-17.9,17.9h-40.9l-22.6,14
		C376.5,326.6,376.2,326.7,376,326.7z M377.9,259.8c-9.5,0-17.2,7.7-17.2,17.2v17.7c0,9.5,7.7,17.2,17.2,17.2h3.6l-6,13.3
		c-0.1,0.3,0,0.6,0.1,0.7s0.4,0.2,0.7,0.1l22.8-14.1h41.1c9.5,0,17.2-7.7,17.2-17.2v-17.7c0-9.5-7.7-17.2-17.2-17.2H377.9z"/>
</g>
</svg>
