<svg xmlns="http://www.w3.org/2000/svg" viewBox="0 0 1328.52 968.55"><defs><style>.cls-1{fill:#dbdcf1;}.cls-2{fill:#fff;}.cls-3{fill:#ce4646;}.cls-4{fill:#ee504f;}.cls-5{fill:#afafd5;}.cls-6{fill:#373133;}.cls-7{fill:#564f51;}.cls-8{fill:#f1884f;}.cls-9{fill:#fcbb9d;}.cls-10{fill:#411d5b;}.cls-11{fill:#e6a68a;}.cls-12{fill:#311547;}.cls-13{fill:#4f216c;}.cls-14{fill:#d87245;}.cls-15{fill:#dba18a;}.cls-16{fill:#161415;}.cls-17{fill:#5cc2ad;}.cls-18{fill:#f5f2df;}.cls-19{fill:#537fbe;}</style></defs><g id="Layer_2" data-name="Layer 2"><g id="Illustration"><g id="Certificate"><rect class="cls-1" x="55.08" y="248.45" width="170.33" height="232.14" transform="translate(-63.05 31.03) rotate(-10.32)"/><rect class="cls-2" x="69.33" y="331.08" width="61.48" height="7.77" transform="translate(-58.41 23.36) rotate(-10.32)"/><rect class="cls-2" x="72.19" y="343.68" width="130.39" height="7.77" transform="matrix(0.98, -0.18, 0.18, 0.98, -60.06, 30.25)"/><rect class="cls-2" x="75.61" y="362.46" width="130.39" height="7.77" transform="translate(-63.37 31.16) rotate(-10.32)"/><rect class="cls-2" x="79.03" y="381.24" width="130.39" height="7.77" transform="translate(-66.68 32.08) rotate(-10.32)"/><rect class="cls-2" x="82.45" y="400.01" width="130.39" height="7.77" transform="translate(-69.99 33) rotate(-10.32)"/><rect class="cls-2" x="85.87" y="418.79" width="130.39" height="7.77" transform="translate(-73.3 33.91) rotate(-10.32)"/><polygon class="cls-3" points="86.86 477.34 80.62 513.67 93.94 506.28 105.67 517.46 111.06 480.15 86.86 477.34"/><polygon class="cls-3" points="130.31 469.43 148.96 501.22 133.9 499 126.85 513.6 108.66 480.59 130.31 469.43"/><rect class="cls-2" x="89.29" y="437.57" width="130.39" height="7.77" transform="translate(-76.61 34.83) rotate(-10.32)"/><polygon class="cls-4" points="73.54 411.64 87.83 413.32 95.49 400.88 106.39 409.94 119.14 403.11 124.92 416.27 138.63 416.03 137.47 430.68 148.92 437.84 140.63 449.28 146.77 461.92 134.04 467.62 135.28 481.83 120.09 481.44 112.75 493.15 100.98 484.25 88.06 491.34 83.43 477.07 68.94 476.77 69.89 462.16 58.25 455.26 66.59 444.04 60.07 430.56 72.77 426 73.54 411.64"/><circle class="cls-3" cx="104.14" cy="446.17" r="30.35" transform="translate(-323.6 282) rotate(-55.86)"/><polygon class="cls-2" points="101.26 430.39 108.28 439.84 120.05 439.42 113.23 449.02 117.27 460.08 106.03 456.56 96.76 463.82 96.64 452.04 86.87 445.46 98.03 441.71 101.26 430.39"/><path d="M80.48,295.21a5.44,5.44,0,0,1,2.8,1.58A6.25,6.25,0,0,1,84.42,303a5.45,5.45,0,0,1-2.06,2.48,9.28,9.28,0,0,1-3.6,1.38l-3.71.68.87,4.74-3.06.56-3-16.45,6.76-1.23A9.19,9.19,0,0,1,80.48,295.21Zm.55,7.72a3,3,0,0,0,.59-2.61,3,3,0,0,0-1.47-2.23,4.79,4.79,0,0,0-3.19-.3l-3.57.65L74.58,305l3.57-.65A4.83,4.83,0,0,0,81,302.93Z"/><path d="M98.83,304.2l-8.22,1.49-.93,4.11-3.15.57,4.41-17.79,3-.55,10.42,15.09-3.2.58ZM97.39,302,93,295.36l-1.77,7.75Z"/><path d="M107.82,306.18a7.89,7.89,0,0,1-3.07-.93l.63-2.56a8.46,8.46,0,0,0,2.71.85,9.17,9.17,0,0,0,3,0,5.12,5.12,0,0,0,2.63-1.09,1.82,1.82,0,0,0,.62-1.71,1.54,1.54,0,0,0-.72-1.07,3.52,3.52,0,0,0-1.41-.49c-.55-.07-1.29-.14-2.22-.2a24.53,24.53,0,0,1-3.21-.34,5,5,0,0,1-2.25-1,3.84,3.84,0,0,1-1.3-2.42,4.39,4.39,0,0,1,.29-2.61,5.06,5.06,0,0,1,1.91-2.19A9.27,9.27,0,0,1,109,289a11.82,11.82,0,0,1,3-.16,8.29,8.29,0,0,1,2.71.62l-.53,2.55a9.49,9.49,0,0,0-2.43-.55,8.6,8.6,0,0,0-2.34.08,4.85,4.85,0,0,0-2.58,1.1,2,2,0,0,0-.59,1.79,1.48,1.48,0,0,0,.72,1,3.67,3.67,0,0,0,1.41.48c.55.07,1.29.14,2.22.2a23.32,23.32,0,0,1,3.17.33,5.29,5.29,0,0,1,2.26,1,3.79,3.79,0,0,1,1.3,2.39,4.52,4.52,0,0,1-.29,2.6,5.13,5.13,0,0,1-1.93,2.17,9.39,9.39,0,0,1-3.54,1.33A13,13,0,0,1,107.82,306.18Z"/><path d="M122.6,303.48a7.73,7.73,0,0,1-3.07-.92l.63-2.56a8.46,8.46,0,0,0,2.71.85,9.11,9.11,0,0,0,3,0,5.17,5.17,0,0,0,2.63-1.09,1.8,1.8,0,0,0,.62-1.71,1.5,1.5,0,0,0-.71-1.07,3.63,3.63,0,0,0-1.41-.49c-.55-.08-1.29-.14-2.22-.2a24.53,24.53,0,0,1-3.21-.34,5,5,0,0,1-2.25-1,3.82,3.82,0,0,1-1.3-2.42,4.51,4.51,0,0,1,.28-2.62,5.16,5.16,0,0,1,1.91-2.18,9.22,9.22,0,0,1,3.54-1.32,11.82,11.82,0,0,1,3-.16,8.29,8.29,0,0,1,2.71.62l-.53,2.55a9.47,9.47,0,0,0-2.44-.55,8.54,8.54,0,0,0-2.33.08,4.85,4.85,0,0,0-2.58,1.1,1.91,1.91,0,0,0-.59,1.78,1.47,1.47,0,0,0,.72,1.06,3.51,3.51,0,0,0,1.4.47c.55.08,1.29.15,2.23.21a23.15,23.15,0,0,1,3.16.33,5.28,5.28,0,0,1,2.27,1,3.73,3.73,0,0,1,1.29,2.39,4.36,4.36,0,0,1-.29,2.6,5.1,5.1,0,0,1-1.92,2.17,9.21,9.21,0,0,1-3.55,1.32A12.25,12.25,0,0,1,122.6,303.48Z"/><path d="M137.38,300.79a7.73,7.73,0,0,1-3.07-.92l.62-2.56a8.52,8.52,0,0,0,2.72.85,9.11,9.11,0,0,0,3,0,5.26,5.26,0,0,0,2.63-1.09,1.8,1.8,0,0,0,.62-1.72,1.5,1.5,0,0,0-.72-1.07,3.67,3.67,0,0,0-1.41-.48c-.54-.08-1.29-.14-2.22-.2a24.35,24.35,0,0,1-3.2-.34,5.14,5.14,0,0,1-2.25-1,3.83,3.83,0,0,1-1.31-2.42,4.51,4.51,0,0,1,.29-2.62A5.16,5.16,0,0,1,135,285a9.17,9.17,0,0,1,3.53-1.32,12.35,12.35,0,0,1,3-.17,8.49,8.49,0,0,1,2.71.63l-.53,2.55a9.51,9.51,0,0,0-2.43-.56,9,9,0,0,0-2.34.09,4.93,4.93,0,0,0-2.58,1.1,1.93,1.93,0,0,0-.58,1.78,1.46,1.46,0,0,0,.71,1.06,3.67,3.67,0,0,0,1.41.47c.55.08,1.29.15,2.22.2a23,23,0,0,1,3.17.34,5.24,5.24,0,0,1,2.26,1,3.74,3.74,0,0,1,1.3,2.39,4.37,4.37,0,0,1-.29,2.6,5.16,5.16,0,0,1-1.92,2.17,9.33,9.33,0,0,1-3.55,1.32A12.59,12.59,0,0,1,137.38,300.79Z"/><path d="M162.66,293.86l.46,2.56-12.33,2.25-3-16.45,12-2.19.46,2.56-8.95,1.63.78,4.28,7.94-1.45.46,2.52L152.55,291l.83,4.54Z"/><path d="M163.53,279.35l7.19-1.31a10.51,10.51,0,0,1,4.86.17,7.74,7.74,0,0,1,3.7,2.32,9,9,0,0,1,1.57,8.62,7.64,7.64,0,0,1-2.64,3.46,10.53,10.53,0,0,1-4.49,1.88l-7.19,1.31Zm9.58,12.58a7.07,7.07,0,0,0,3-1.27,5.11,5.11,0,0,0,1.76-2.36,6.42,6.42,0,0,0-1.09-5.95,5,5,0,0,0-2.47-1.58,7,7,0,0,0-3.31-.12l-4,.73,2.05,11.28Z"/></g><g id="Certificate-2" data-name="Certificate"><path class="cls-5" d="M880.7,30.29l17.36,14.52s-59.61,53.13-75.53,70.85l-4.89-3Z"/><path class="cls-3" d="M839.8,140.15l3.82-16.71c-6.63,0-10.16-5.12-12-9.49-.19-.48-1.58-6.18,1.87-15.86l-15.4,5.77s2,14,4.65,21.65l-.06.14c.29.73.6,1.43.92,2.09a12,12,0,0,0,.75,1.41h0A22.4,22.4,0,0,0,839.8,140.15Z"/><path class="cls-1" d="M768.41,208.47c-27.85-1.18-42.77-24.87-42.77-24.87,7-4.51,15.09-12.71,23.69-23.23,13.53-16.56,31.72-38.2,45.64-60.92,4.56-7.44,9-14.93,13.31-22.28C832.08,36.4,850.53,0,850.53,0,882.57,2.93,894,28.24,894,28.24c-2.49,2.19-5,4.5-7.47,6.89-17.92,17.29-35.61,39.6-51.63,62.42-.72,1-1.43,2-2.14,3.07-3.48,5-6.88,10-10.18,15h0l-1.72,2.62c-5.43,8.3-10.58,16.48-15.38,24.33-3.31,5.42-6.45,10.68-9.4,15.71C779.07,187.2,768.41,208.47,768.41,208.47Z"/><path class="cls-4" d="M808.26,77.15s13.25,16,26.73,20.45c0,0-21.89,29.65-3.84,50.55L816.4,164.63s-27.55-13,3.54-48.11c0,0-16.84-4-25-17C795,99.53,798,84.54,808.26,77.15Z"/></g><g id="Graduation_hat" data-name="Graduation hat"><path class="cls-6" d="M1102.72,206.45l-15.5,62.74s58.49,54.22,165.38,38L1264,244.6Z"/><polygon class="cls-7" points="1173.21 259.12 1038.42 191.34 1041.91 183.59 1328.52 251.37 1327.35 259.12 1173.21 259.12"/><polygon class="cls-6" points="1042.1 183.79 1193.15 191.53 1328.32 251.18 1175.72 251.18 1042.1 183.79"/><polygon class="cls-8" points="1257.71 330.77 1251.11 330.77 1251.11 253.01 1188.89 214.28 1192.38 208.68 1257.71 249.35 1257.71 330.77"/><path class="cls-8" d="M1175.63,204.55a9.34,9.34,0,0,0-2.24,1.43,4.23,4.23,0,0,0,.29,6.61c2.87,2.11,8.41,4.85,17.9,5a4.22,4.22,0,0,0,4.26-4.94,8.28,8.28,0,0,0-.83-2.47Z"/><path class="cls-7" d="M1195.08,211.24c-.57,2.18-5.65,2.73-11.34,1.24s-9.84-4.46-9.27-6.64,5.65-2.73,11.34-1.23S1195.65,209.07,1195.08,211.24Z"/><path class="cls-8" d="M1254.54,329.42h0a4.69,4.69,0,0,1,4.7,4.64l.09,7.16,3.34,26.73h-16.26l3.34-26.72.08-7.17A4.71,4.71,0,0,1,1254.54,329.42Z"/></g><g id="Effect"><rect class="cls-6" x="140.6" y="925.11" width="287.64" height="3" transform="matrix(0.96, -0.28, 0.28, 0.96, -249.63, 117.73)"/><rect class="cls-6" x="-5.4" y="911.11" width="287.64" height="3" transform="matrix(0.96, -0.28, 0.28, 0.96, -251.6, 76.01)"/><rect class="cls-6" x="102.58" y="809.86" width="165.18" height="3" transform="translate(-220.73 84.83) rotate(-16.34)"/></g><g id="Man_with_pencil" data-name="Man with pencil"><polygon class="cls-9" points="1065.17 720.09 1045.67 768.37 1021.77 755.69 994.07 741 1018.91 692.5 1043.67 707.26 1065.17 720.09"/><path class="cls-10" d="M1028.4,760.94s27.33-16.19,27-47.54c0,0,54.79-38.48,67.82-44.64a9.76,9.76,0,0,1,12.89,13.18l-57.18,105.29a10.28,10.28,0,0,1-15.92,3.19Z"/><polygon class="cls-11" points="1043.67 707.26 1021.77 755.69 994.07 741 1018.91 692.5 1043.67 707.26"/><path class="cls-12" d="M629.3,487.47l155,39.49A75.65,75.65,0,0,1,808.58,538L1040.93,698.5l-44.6,64.19-234-161.31L484,540.5Z"/><path class="cls-9" d="M460.32,242.45l12.08,26.87-64.8,16.15c-1-.6-14.08-75.5-14.08-75.5s-19.48-4.73-24.2-20.74c-1.19-4-.84-8.28,4.26-13.27l-4.25-27.46,82.44-22s53.76,95,3.6,104.93l.16.35Z"/><path class="cls-6" d="M394.06,187.63s-9.08-22.39-23.8-7.5c0,0-15-8.12-5-19.43,0,0-20.27-24,8.18-34.22,0,0-9.21-18.32,68.81-37.4,0,0,11.74-1.4,15.68,16.59,0,0,1.18,10.94-7.06,15.74,0,0,13.09,6.89,4.1,15.35S413,141.89,413,141.89s9.37,2.69,7.81,6.57-27.75,3.07-27.75,3.07l7.87,36Z"/><polygon class="cls-9" points="1064.06 825.11 1034.31 868.2 1010.11 847.46 988.69 829.11 1026.08 786.93 1043.11 804.05 1064.06 825.11"/><polygon class="cls-11" points="1043.11 804.05 1010.11 847.46 988.69 829.11 1026.08 786.93 1043.11 804.05"/><path class="cls-13" d="M1018.31,855.58s30.49-8.92,37.92-39.37c0,0,62.61-23.72,76.76-26.46a9.76,9.76,0,0,1,9.22,16l-81.46,87.84a10.28,10.28,0,0,1-16.22-.85Z"/><path class="cls-8" d="M313.84,860.59l-29-97.5a15.68,15.68,0,0,1,10.54-19.5L1033.2,523.71,1206.42,541,1078.89,645l-7.68,6.26L333.34,871.14A15.68,15.68,0,0,1,313.84,860.59Z"/><polygon class="cls-9" points="1070.95 651.33 1032.94 523.78 1033.2 523.71 1132.31 533.59 1206.42 540.97 1151.33 585.9 1148.57 588.16 1071.2 651.25 1070.95 651.33"/><polygon class="cls-6" points="1148.57 588.16 1132.31 533.59 1206.42 540.97 1148.57 588.16"/><polygon class="cls-14" points="500.3 821.38 481.38 757.58 1060.82 584.36 1078.89 644.99 1071.2 651.25 500.3 821.38"/><polygon class="cls-15" points="1070.95 651.33 1051.8 587.05 1143.79 559.64 1151.33 585.9 1148.57 588.16 1071.2 651.25 1070.95 651.33"/><polygon class="cls-16" points="1148.57 588.16 1140.37 560.65 1206.42 540.97 1148.57 588.16"/><path class="cls-4" d="M313.84,860.59l-29-97.5a15.68,15.68,0,0,1,10.54-19.5l88.74-26.44,38,127.54-88.74,26.45A15.68,15.68,0,0,1,313.84,860.59Z"/><rect class="cls-6" x="398.64" y="702.08" width="91.37" height="133.09" transform="translate(-201.01 158.91) rotate(-16.59)"/><path class="cls-3" d="M313.84,860.59l-14.45-48.5,103.76-30.92,18.93,63.52-88.74,26.45A15.68,15.68,0,0,1,313.84,860.59Z"/><rect class="cls-16" x="408.18" y="767.5" width="91.37" height="66.28" transform="translate(-209.75 162.96) rotate(-16.59)"/><path class="cls-13" d="M460,554.09s18.66,104.2,79.61,115.68,197.05-30.84,197.05-30.84L970.67,865.21l68.24-70.29L816.25,551.1A71.7,71.7,0,0,0,768.89,528L576,512.86Z"/><path class="cls-9" d="M416.82,496l-1.46,13.22.38,198.34-22.34,6.72-10.75,14.07c-11,18.23-24.6,8.05-24.6,8.05l13.21-15.08-9.63,2.51,14.77-12,.32-.46.2,0-20.5-234.75L354.36,453l65.92,11.78Z"/><polygon class="cls-11" points="420.28 464.78 416.82 495.96 356.42 476.63 354.36 453 420.28 464.78"/><path class="cls-17" d="M608.09,307.91l-79.58-64.16A38.56,38.56,0,0,0,496.44,236l-35.9,7.45s18.53,41.39-59.09,30.44l-34.89,35.58a73.22,73.22,0,0,0-20.87,54.15l4,100.5,75,12.61,19.86,137.48s93.28.24,123.43-49.62c11-18.24,83-76.29,83-76.29L590.5,366.92Z"/><rect class="cls-13" x="474.54" y="369.8" width="97.76" height="150.36" transform="translate(-159.26 368.06) rotate(-33.94)"/><rect class="cls-18" x="478" y="367.45" width="97.76" height="150.15" transform="translate(-157.3 369.57) rotate(-33.94)"/><rect class="cls-13" x="492.13" y="357.96" width="97.76" height="150.36" transform="translate(-149.66 375.87) rotate(-33.94)"/><rect class="cls-19" x="482" y="383.88" width="65.74" height="17.39" transform="translate(-131.46 354.36) rotate(-33.94)"/><rect class="cls-4" x="501.67" y="352.42" width="97.76" height="150.36" transform="translate(-144.94 380.25) rotate(-33.94)"/><rect class="cls-18" x="505.13" y="350.07" width="97.76" height="150.15" transform="translate(-142.98 381.76) rotate(-33.94)"/><rect class="cls-4" x="519.26" y="340.58" width="97.76" height="150.36" transform="translate(-135.33 388.05) rotate(-33.94)"/><rect class="cls-18" x="509.13" y="366.51" width="65.74" height="17.39" transform="translate(-117.14 366.54) rotate(-33.94)"/><path class="cls-9" d="M660.45,424.56,550.14,482.51s-13.72,24.6-41.71,27.74c0,0-3.55-1.42-4.11-4.79,0,0-8.9.65-8.68-7.16,0,0-6.22-1.19-5.44-8.26,0,0-5.78-2.93-2.82-9.74l11.94-3.89,13.35-9.73-14.53-2.75s-13.58,4.93-17.83-4.87l19.92-5.93,32.7,1.31,79.28-60.35L599.62,375l-11.73-17.77,20-48.73s2.46,2.5,6.35,6.5c13.11,13.45,42.48,43.94,49.6,54.1C673.09,382.29,683.93,403.84,660.45,424.56Z"/><path class="cls-11" d="M614.25,315l-14.63,60-11.73-17.77,20-48.73S610.36,311,614.25,315Z"/><path class="cls-11" d="M460.32,242.45a42.69,42.69,0,0,1-38.9-23.34c10.45,10.45,24.69,12.59,34.11,12.68Z"/><rect class="cls-6" x="394.91" y="449.05" width="50.88" height="3" transform="translate(-31.29 869.73) rotate(-89.85)"/></g><g id="Star"><polygon class="cls-8" points="893.92 352.44 904.55 373.98 928.32 377.44 911.12 394.2 915.18 417.87 893.92 406.69 872.66 417.87 876.73 394.2 859.53 377.44 883.29 373.98 893.92 352.44"/></g></g></g></svg>