<svg xmlns="http://www.w3.org/2000/svg" xmlns:xlink="http://www.w3.org/1999/xlink" viewBox="0 0 2607.45 1728.59"><defs><style>.cls-1,.cls-2,.cls-52{fill:none;}.cls-1{clip-rule:evenodd;}.cls-3{isolation:isolate;}.cls-17,.cls-19,.cls-30,.cls-4{fill:#293033;}.cls-4{opacity:0.2;}.cls-19,.cls-29,.cls-4,.cls-45{mix-blend-mode:multiply;}.cls-5{fill:#fff0e9;}.cls-48,.cls-6{fill:#244082;}.cls-14,.cls-15,.cls-16,.cls-21,.cls-27,.cls-28,.cls-30,.cls-31,.cls-32,.cls-33,.cls-36,.cls-38,.cls-40,.cls-41,.cls-50,.cls-51,.cls-6,.cls-7{fill-rule:evenodd;}.cls-47,.cls-7{fill:#223164;}.cls-8{fill:#d63332;}.cls-9{fill:#fbc7af;}.cls-10{fill:#5cbd80;}.cls-11{fill:#28364c;}.cls-12,.cls-33{fill:#fff;}.cls-13{fill:#243f80;}.cls-14{fill:#50c0e7;}.cls-15{fill:#bee3f4;}.cls-16{fill:#ffede1;}.cls-18,.cls-38{fill:#455e65;}.cls-19,.cls-45{opacity:0.3;}.cls-20,.cls-50{fill:#ffc72e;}.cls-21{fill:#fdbd30;}.cls-22,.cls-51{fill:#ab8242;}.cls-23,.cls-41{fill:#ffc718;}.cls-24{fill:#ffefc8;}.cls-25{fill:#00b0b2;}.cls-26{fill:#3c66af;}.cls-27{fill:#231f20;}.cls-28,.cls-44{fill:#454b55;}.cls-29,.cls-34{opacity:0.25;}.cls-31,.cls-35{fill:#fbbd9d;}.cls-32,.cls-37{fill:#f59b7d;}.cls-36{fill:#ec1c24;}.cls-39{clip-path:url(#clip-path);}.cls-40,.cls-56{fill:#e0e1e0;}.cls-42{fill:#f8ae93;}.cls-43{fill:#221f1f;}.cls-46{clip-path:url(#clip-path-2);}.cls-49{fill:#1a2229;}.cls-52{stroke:#293033;stroke-miterlimit:10;stroke-width:3px;}.cls-53{fill:#d2682c;}.cls-54{fill:#b4392a;}.cls-55{clip-path:url(#clip-path-3);}.cls-57{fill:#d3682b;}.cls-58{clip-path:url(#clip-path-4);}.cls-59{fill:#83b141;}.cls-60{fill:#da3132;}.cls-61{fill:#11b6b6;}</style><clipPath id="clip-path" transform="translate(29.1)"><path class="cls-1" d="M707.11,1075.08c-27.63-9.89-36.46-13.46-60.5-27.77-4.57-2.71-10.29-6.41-15-8.69L608.65,1025c-4-2.41-3.85-1.86-4.68-6.19-4.77-25.07,6-68.33-5.23-83.25-4.66-13.92-99.56-61.19-99.56-61.19S399.06,888.27,376.29,884.8,124.7,726.72,124.7,726.72c-5,0-5.46,1.27-8.72,2.3-1.47,1.46-17.44,8.6-20.84,10.57C63.4,758,57.81,778.7,54,782.28c-1,4.21-3.58,8.59-4.82,13.23-1,3.85,0,10.78,2.52,13.72,1.59,1.18,4,1.69,6.63,2.59,108.2,37,118.49,37.27,171,110.7,5.2,7.29,20.61,33.29,22.74,40.34,4.52,15,11.55,30.07,15.37,45.11,4.72,18.64,8.15,26.91,10.84,47.14.32,2.37,2.05,10.05,1.38,11.8-.82,2.13-5.58,6.62-7.28,9.44-7.7,12.81,4.34,21.85-1.09,25-4,2.28-12.59,15-14,17.63-8.62,15.62-4.55,20.47-19.42,43.26-4.94,7.57-7.16,13.76-8.58,22.84-7,1.61-12.12,4-20.87,4.28-9.09.23-18.74-1.74-26.49-.9-2.21,1.66,28.06,106.73,26.9,107.93-1.58,1.64-1.14.64-3.65,1.78,0,3.82,11.83,22.36,14.55,27.33,6,10.85,12.71,18.62,16.7,25.66,2.2.37.67-.15,2.26,2.16,3.77,5.48,13.19,13.68,19.36,17.79,20.85,13.88,39.22,21.19,71.12,25.42,7.33,1,17,2,24.85,2.62l26.33,1.51,60.6-.36c56.52-1.56,92.65,6.93,132.47,25.58,4.62,2.16,10.49,4.31,13.92,6.78,3.76,1.17,4.19,2.63,9,2.78,3.64-1.87,3.52-6.38,4.5-9.88.86-3.08,1.63-7.87,3-10.52.63-8.36,6.38-16.81,9.07-24.89,9.45-28.43,10.88-56,7.47-85-2.58-21.93-33.42-164.08-51.11-182.92-3.26-3.47-7.13-6.64-9.59-9.73-4-5-1.74-6.64-.8-12.32l20.61,16.21c14.47,10.59,30.79,20.61,50.88,28,5.79,2.13,27.85,8.51,31.12,10.66,3.1.12,3.63-.76,5.08-2.48,1.14-1.35,1.5-2,2.68-3.17,3.19-3.33,3.56-3.16,4.15-7.72-1.29-11.69-2.72-19.43,3.07-30.5,2.45-4.69,12-19.74,17.46-23.49l2.5-.63C710.2,1079.43,723.32,1080.88,707.11,1075.08Z"/></clipPath><clipPath id="clip-path-2" transform="translate(29.1)"><path class="cls-2" d="M1919.78,780.84s-119.75-6.45-135.1-.62-30.19-103.41-30.19-103.41L1702.93,678s-17.53,172.14,24,188.62,86,11.66,86,11.66-58.34,219.55-58.51,280.08c0,0,131,150.71,283.39,98.79,0,0,24.48-196.76,6.12-219.34,0,0,118.41-40.36,135.08-69l-26.9-69.59s-85.43,54.44-93.07,33.66S2048.5,798.45,1919.78,780.84Z"/></clipPath><clipPath id="clip-path-3" transform="translate(29.1)"><path class="cls-2" d="M856.3,389.31s61.47,138,131.16,138,99-18.82,177.25-14.65,195.32.72,245.23-80.16l59.37,21.64s-40.44,126.36-154.88,189.17c0,0-19.79,6.88-4.3,36.14s58.51,139.39,63.67,189.29c0,0-152.34,74.88-239.46,64.55,0,0-42.59-9-57.43,6.46,0,0-41.94-106.48-54.85-196.82s-116.8-65.17-174.88-200-47.1-133.83-47.1-133.83Z"/></clipPath><clipPath id="clip-path-4" transform="translate(29.1)"><path class="cls-2" d="M1060.22,427s28.12,22.09,54.5,7.05,25.46-22.42,25.46-22.42L1134.42,377,1169,356.43s-75.49-15.76-87.53-13.45-74.84,40.88-74.84,40.88l51.22,5.5Z"/></clipPath></defs><g class="cls-3"><g id="Layer_2" data-name="Layer 2"><g id="Study_Illustration_Set_02" data-name="Study Illustration Set 02"><ellipse class="cls-4" cx="945.39" cy="1677.22" rx="676.43" ry="51.36"/><ellipse class="cls-4" cx="1978.28" cy="1664.46" rx="212.96" ry="17.54"/><path class="cls-5" d="M483.5,1641.94s-478.07-620.12-253.17-852,401.18-103.66,444-353.78c39.5-230.68,290.59-510.39,636-418,351.29,93.94,284.1,507.66,456.73,488S2235,339.56,2288.34,617.75s-196.77,516.78-37.48,497.08c109.47-13.55,281.73-7.95,154.93,257.18s-266.46,269.93-266.46,269.93Z" transform="translate(29.1)"/><polygon class="cls-6" points="1563.06 716.9 1514.29 713.7 1462.48 1473.26 1511.3 1476.45 1563.06 716.9"/><polygon class="cls-7" points="1538.66 715.31 1514.29 713.7 1462.48 1473.26 1486.87 1474.86 1538.66 715.31"/><path class="cls-6" d="M1478.17,756.14l-4.89-.32-.9,13.66,4,.26h0l18.15,1.19,35.56,2.33-11.34,166.34,4.38.3c1.9-1.43,1.85-.52,6.21-33s18-135.59,17.69-149.76c-1.93-78.8-9-139.87-9.89-229.47.12-6-28.37-8.66-29.32-2Z" transform="translate(29.1)"/><path class="cls-8" d="M1313.85,1251.29l-5.56,60.54a39.91,39.91,0,0,0,36.1,43.38l40.67,3.73a39.91,39.91,0,0,0,43.38-36.09l5.55-60.55Z" transform="translate(29.1)"/><polygon class="cls-9" points="1469.36 1225.84 1343.42 1214.29 1377.15 846.55 1452.83 713.7 1503.08 858.1 1469.36 1225.84"/><path class="cls-10" d="M1452.19,864.91c-15.74-1.44-20.23-10.23-20.23-10.23s-7,6.41-21.63,5.07-20.35-8.91-20.35-8.91-4.74,8.38-21.79,6.81S1348,847,1348,847l-33.68,367.31,42,3.85,42,3.85,42,3.85,33.68-367.31S1467.93,866.35,1452.19,864.91Z" transform="translate(29.1)"/><path class="cls-11" d="M1423.73,713.7l-18.8,33c5.82,2.59,12.22,4.28,17.73,4.26a35.28,35.28,0,0,0,13.06-2.8Z" transform="translate(29.1)"/><rect class="cls-12" x="1347.58" y="1183.94" width="54.45" height="126.46" transform="translate(36.38 2502.33) rotate(-84.76)"/><rect class="cls-13" x="1365.14" y="1183.94" width="19.32" height="126.46" transform="translate(36.44 2502.39) rotate(-84.76)"/><path class="cls-8" d="M1638.12,887.48l4.79-60.61A39.92,39.92,0,0,0,1606.26,784l-40.71-3.21a39.91,39.91,0,0,0-42.92,36.64L1517.84,878Z" transform="translate(29.1)"/><polygon class="cls-9" points="1541.14 914.53 1667.22 924.48 1638.15 1292.62 1564.17 1426.42 1512.09 1282.66 1541.14 914.53"/><path class="cls-8" d="M1504.69,1275.58c15.76,1.24,20.36,10,20.36,10s6.89-6.5,21.56-5.34,20.46,8.66,20.46,8.66,4.63-8.45,21.7-7.1,20.33,10.42,20.33,10.42l29-367.71-42-3.31-42-3.32-42-3.32-29,367.71S1488.93,1274.34,1504.69,1275.58Z" transform="translate(29.1)"/><path class="cls-11" d="M1535.07,1426.42l18.38-33.24c-5.86-2.52-12.27-4.13-17.79-4a35.13,35.13,0,0,0-13,3Z" transform="translate(29.1)"/><rect class="cls-12" x="1550" y="829.13" width="54.45" height="126.46" transform="translate(592.62 2394.48) rotate(-85.49)"/><polygon class="cls-6" points="1331.93 688.92 1283.26 693.35 1351.19 1442.75 1399.91 1438.3 1331.93 688.92"/><polygon class="cls-7" points="1307.57 691.14 1283.26 693.35 1351.19 1442.75 1375.53 1440.53 1307.57 691.14"/><path class="cls-6" d="M1253.88,735.87l-4.88.44,1.25,13.47,4-.37h0l18.12-1.65,35.48-3.24,14.88,164.12,4.38-.39c1.65-1.69,1.74-.79,1-33.14s-3.47-135.14-6-148.92c-14.27-76.61-30.77-135.13-45.75-222.44-.82-5.82-29.38-4.05-29.27,2.61Z" transform="translate(29.1)"/><path class="cls-14" d="M1454,1646.92h161.55a76.28,76.28,0,0,0,76.06-76.07L1727,999.14H1181.05l35.35,571.71a76.29,76.29,0,0,0,76.07,76.07Z" transform="translate(29.1)"/><path class="cls-15" d="M1454,1646.92h68.11a76.29,76.29,0,0,0,76.07-76.07l35.35-571.71H1181.05l35.35,571.71a76.29,76.29,0,0,0,76.07,76.07Z" transform="translate(29.1)"/><path class="cls-16" d="M1735.77,971.5H1172.25a13.86,13.86,0,0,0-13.82,13.82h0a13.86,13.86,0,0,0,13.82,13.82h563.52a13.86,13.86,0,0,0,13.82-13.82h0a13.86,13.86,0,0,0-13.82-13.82" transform="translate(29.1)"/><rect class="cls-17" x="292.34" y="1638.67" width="2094.15" height="8.25"/><polygon class="cls-18" points="194.96 568.07 257.55 496.79 355.78 472.45 327.09 513.3 342.74 541.12 275.37 588.93 249.72 556.77 194.96 568.07"/><ellipse class="cls-18" cx="280.13" cy="565.12" rx="41.44" ry="21.25" transform="translate(-233.4 243.57) rotate(-32.98)"/><ellipse class="cls-19" cx="280.13" cy="565.12" rx="41.44" ry="21.25" transform="translate(-233.4 243.57) rotate(-32.98)"/><path class="cls-20" d="M336.07,490.57c-.21-.11-5.27-2.78-5.77-6.91-.45-3.82-1.79-5.86-8.16-7.12l.11-.53c6.66,1.32,8.12,3.59,8.59,7.59.46,3.85,5.43,6.47,5.48,6.49Z" transform="translate(29.1)"/><path class="cls-21" d="M355.69,510.92l.63-.65,1.52-1.53c-9.62-7.73-16.53-17.15-21-19.17L335.4,491c2.06,4.43,12.47,10.32,20.29,19.88" transform="translate(29.1)"/><rect class="cls-22" x="334.81" y="489.61" width="2.07" height="0.82" transform="translate(-219.47 383.37) rotate(-45.23)"/><rect class="cls-17" x="226.96" y="483.75" width="101.2" height="1.74" transform="translate(-79.32 81) rotate(-13.92)"/><rect class="cls-17" x="305.57" y="511.04" width="1.74" height="33.79" transform="translate(-193.84 223.99) rotate(-30)"/><path class="cls-12" d="M1263.25,1189.27c-1.35-3.67-2.58-7.51-3.7-11.49q-1.58-5.57-2.84-11.49c-.79-3.73-1.48-7.57-2.07-11.49q-.86-5.64-1.41-11.5-.54-5.65-.8-11.49c-.16-3.4-.25-6.83-.25-10.3,0-.4,0-.79,0-1.19q0-5.82.34-11.49c.21-3.9.53-7.73.93-11.5s.94-7.74,1.55-11.49q1-5.89,2.23-11.49c.89-3.95,1.88-7.79,3-11.49q1.79-6,3.91-11.5c1.57-4,3.25-7.89,5.07-11.49a99.8,99.8,0,0,1,6-10.3H842.08q-2.58,4.85-4.86,10.3t-4.29,11.49q-1.81,5.55-3.37,11.5-1.42,5.58-2.59,11.49c-.74,3.74-1.39,7.58-2,11.49s-1,7.59-1.37,11.49-.64,7.61-.83,11.5-.28,7.61-.29,11.49c0,.4,0,.79,0,1.19,0,3.47.09,6.9.22,10.3.16,3.89.39,7.72.72,11.49s.74,7.73,1.24,11.5,1.13,7.74,1.83,11.49c.73,3.93,1.55,7.77,2.46,11.49,1,4,2,7.8,3.19,11.49q1.88,6,4.07,11.5a128.41,128.41,0,0,0,5.84,12.68h433.09a102.07,102.07,0,0,1-7.11-12.68Q1265.46,1195.34,1263.25,1189.27Z" transform="translate(29.1)"/><rect class="cls-13" x="850.36" y="1087.67" width="392.15" height="8.25"/><rect class="cls-13" x="541.44" y="1147.09" width="701.07" height="8.25"/><path class="cls-8" d="M348.51,1224.94h930.83a11.5,11.5,0,0,0,0-23H890c-23.74,0-40.29-42.39-40.29-80.44s16.55-80.45,40.29-80.45h389.39a11.49,11.49,0,1,0,0-23H348.51c-35.47,0-63.27,45.43-63.27,103.43S313,1224.94,348.51,1224.94Z" transform="translate(29.1)"/><path class="cls-23" d="M825.39,1121.51c0-58,27.79-103.43,63.27-103.43H768c-35.48,0-63.27,45.43-63.27,103.43s27.79,103.43,63.27,103.43H888.66C853.18,1224.94,825.39,1179.51,825.39,1121.51Z" transform="translate(29.1)"/><path class="cls-23" d="M671,1121.51c0-58,27.79-103.43,63.27-103.43H711.37c-35.48,0-63.27,45.43-63.27,103.43s27.79,103.43,63.27,103.43h22.92C698.81,1224.94,671,1179.51,671,1121.51Z" transform="translate(29.1)"/><path class="cls-24" d="M1164.19,1547.91q-.23-5.82-.71-11.49c-.33-3.89-.75-7.73-1.25-11.49-.52-3.91-1.13-7.75-1.82-11.49q-1.1-5.91-2.47-11.49H314.66c1,3.71,2,7.53,2.84,11.49.79,3.73,1.47,7.57,2.06,11.49.57,3.75,1,7.59,1.42,11.49s.63,7.6.8,11.49c.15,3.4.24,6.83.24,10.31,0,.4,0,.79,0,1.19,0,3.88-.14,7.71-.34,11.49s-.53,7.73-.93,11.49-.94,7.74-1.55,11.49q-1,5.89-2.23,11.5c-.89,3.95-1.89,7.79-3,11.49h843.39c1-3.72,1.82-7.56,2.6-11.49q1.11-5.62,2-11.5.81-5.64,1.37-11.49c.35-3.77.64-7.6.82-11.49s.28-7.62.3-11.49c0-.4,0-.79,0-1.19C1164.41,1554.75,1164.33,1551.32,1164.19,1547.91Z" transform="translate(29.1)"/><rect class="cls-13" x="810" y="1525.57" width="392.15" height="8.25"/><rect class="cls-13" x="501.08" y="1584.99" width="701.07" height="8.25"/><path class="cls-25" d="M1135.63,1638.67H291a11.5,11.5,0,0,1,0-23h844.64c7.91,0,23-22.38,23-57.46s-15.13-57.46-23-57.46H291a11.5,11.5,0,0,1,0-23h844.64c28.43,0,46,41.76,46,80.45S1164.06,1638.67,1135.63,1638.67Z" transform="translate(29.1)"/><rect class="cls-26" x="291.36" y="1362.85" width="861.93" height="114.92"/><rect class="cls-23" x="1015.38" y="1362.85" width="22.98" height="114.92"/><rect class="cls-23" x="1061.35" y="1362.85" width="22.98" height="114.92"/><rect class="cls-23" x="1107.32" y="1362.85" width="22.98" height="114.92"/><path class="cls-24" d="M886,1282.4c-.16-3.88-.4-7.72-.72-11.49s-.74-7.73-1.24-11.49c-.53-3.92-1.13-7.75-1.83-11.5q-1.09-5.89-2.46-11.49-1.46-5.94-3.19-11.49H372.33c1.34,3.67,2.58,7.51,3.7,11.49,1,3.71,2,7.54,2.84,11.49.79,3.74,1.47,7.58,2.07,11.5q.84,5.63,1.41,11.49.54,5.65.8,11.49c.15,3.4.24,6.83.24,10.31,0,.39,0,.79,0,1.18,0,3.88-.14,7.72-.34,11.5s-.53,7.72-.93,11.49-.94,7.74-1.55,11.49q-1,5.89-2.23,11.49-1.33,5.94-3,11.5-1.78,6-3.91,11.49H875.77c1.21-3.7,2.34-7.52,3.37-11.49q1.43-5.58,2.59-11.5,1.11-5.61,1.95-11.49.81-5.64,1.37-11.49.54-5.67.83-11.49c.18-3.78.27-7.62.29-11.5,0-.39,0-.79,0-1.18C886.19,1289.23,886.1,1285.8,886,1282.4Z" transform="translate(29.1)"/><rect class="cls-13" x="748.23" y="1260.06" width="392.15" height="8.25"/><rect class="cls-13" x="439.31" y="1319.48" width="701.07" height="8.25"/><path class="cls-10" d="M802.92,1293.89c0,38.67-18.53,69-42.18,69h453.43c23.65,0,42.18-30.29,42.18-69s-18.53-69-42.18-69H760.74C784.39,1224.94,802.92,1255.23,802.92,1293.89Z" transform="translate(29.1)"/><path class="cls-23" d="M1004.76,1293.89c0,38.67-18.53,69-42.18,69h15.28c23.65,0,42.18-30.29,42.18-69s-18.53-69-42.18-69H962.58C986.23,1224.94,1004.76,1255.23,1004.76,1293.89Z" transform="translate(29.1)"/><path class="cls-23" d="M930.42,1293.89c0,38.67-18.53,69-42.19,69h15.29c23.65,0,42.18-30.29,42.18-69s-18.53-69-42.18-69H888.23C911.89,1224.94,930.42,1255.23,930.42,1293.89Z" transform="translate(29.1)"/><path class="cls-23" d="M856.08,1293.89c0,38.67-18.53,69-42.19,69h15.28c23.66,0,42.19-30.29,42.19-69s-18.53-69-42.19-69H813.89C837.55,1224.94,856.08,1255.23,856.08,1293.89Z" transform="translate(29.1)"/><path class="cls-27" d="M391.27,1660l1.64.73c-.48,5.19-1.87,11.38-1,16.44,1.21,6.72,1.87,8.88,11.85,10.7,15.19,2.78,37,.78,53.63,3.28,27.73,4.14,47,2.85,71.84-4.76,4.05-1.23,15.18-5.45,15.1-8.69-2.32-1-14.73-3.47-20.84-5.28-6.83-2-13.22-4.26-19.56-6.44l-37.1-13.7c-1.87-.8-8.15-.71-10.29-.7-3.72,0-7.54-.1-11.2.13-7.1.47-13.88.69-20.68,1.37-24.84,2.48-28.71,6.62-33.43,6.92Z" transform="translate(29.1)"/><path class="cls-27" d="M263.59,1230.43l-1.79.24c-2.32-4.67-4.38-10.67-7.81-14.5-4.56-5.08-6.26-6.57-15.71-2.88-14.38,5.62-31.86,18.75-47.36,25.38-25.78,11-41.47,22.25-58.64,41.77-2.79,3.18-10,12.61-8.28,15.33,2.5-.38,14.36-4.78,20.51-6.46,6.86-1.86,13.48-3.3,20-4.79l38.76-7.82c2-.29,7.31-3.68,9.13-4.8,3.16-2,6.46-3.87,9.45-6,5.8-4.13,11.46-7.88,16.89-12,19.84-15.16,21-20.72,24.82-23.45Z" transform="translate(29.1)"/><path class="cls-28" d="M518.21,1527.85h0l26.16-217.58-135.1-22.55-26.59,326.09c-.72,6.23-1.09,12.33-.54,15.87.94,6,1.24,10.26,3.94,16l6.11,12.86c.76,1.36-.07.93,2,1.54,6.18-.3,11.24-4.44,43.76-6.92,8.9-.68,17.78-.9,27.08-1.37,4.79-.23,9.78-.13,14.65-.13,2.8,0,11-.1,13.48.7,5.3.11,10.73,1.43,13.56,1.4l.69,0c.24,0,.45,0,.67-.06,5.28-.42,2.15-10.11,1.92-12.55-.42-4.37-.42-8.92-.67-13.24-.37-6.3-.75-12.35-.91-18.32l9.81-81.66Z" transform="translate(29.1)"/><path class="cls-28" d="M372.36,1319.34s-8.67,215.11-111,178.68S138.18,1291.59,211,1237.81,372.36,1319.34,372.36,1319.34Z" transform="translate(29.1)"/><g class="cls-29"><polygon class="cls-30" points="422.53 1482.03 560.56 1417.68 546.2 1271.98 440.2 1269.25 422.53 1482.03"/></g><polygon class="cls-31" points="739.47 1099.17 686.43 1065.21 653.76 1114.07 725.52 1155.99 739.47 1099.17"/><polygon class="cls-32" points="707.72 1145.59 735.07 1096.35 749.35 1105.11 725.52 1155.99 707.72 1145.59"/><g class="cls-29"><path class="cls-30" d="M197.06,1250.78s-6.28,129.68,44.46,159.61,117.11-3.9,145.73-39S197.06,1250.78,197.06,1250.78Z" transform="translate(29.1)"/></g><path class="cls-33" d="M731.15,1100.16c-.12,2.5,2.33,2.79,4.43,4,9.33,5.52,8.61,11.94,13.8,10.57,2.08-5.29,12.09-16.84,15.78-21.28,2.23-2.68,24.92-28.38,25.24-30.12.78-4.29-4.48-9.4-6.22-11.35a36.41,36.41,0,0,0-10.5-8c-2.38-1.21-12.42-4.86-14.62-4.42-1.63.7-12.49,28.73-13.29,30.75-4.25,10.6-9.11,21.07-14.62,29.87Z" transform="translate(29.1)"/><path class="cls-33" d="M693.39,1155.92c-.84,4.76-1,4.55-3.31,7.85-.83,1.22-1.11,1.83-1.94,3.18-1,1.71-1.46,2.61-3.3,2.29.88,2,.54.21.34,2.31l-15.09,19c-1.82,2.12-4.47,4-5,7.06,1.67,3.22,7.89,8.93,11.73,11.28,2.62,1.6,14.65,6.42,18.33,6.23,0,0,16.13-41.08,16.86-43.62l1.53.06c-2.16-2-4.69-2.84-7.16-5.33-2-2-4.41-3.91-5.17-6.65a7.41,7.41,0,0,1-1.84-5.25c-.78-.52-.55-.39-1.81-.67-1.19,1.38-1.82,1.75-2.46,3.39-.44-.31-1.38-.85-1.68-1.1Z" transform="translate(29.1)"/><g class="cls-34"><polygon class="cls-30" points="718.13 1165.45 739.11 1176.82 747.48 1158.9 726.28 1146.91 721.57 1159.91 718.13 1165.45"/></g><path class="cls-31" d="M749.38,1114.76c-5.19,1.37-4.47-5-13.8-10.57-2.1-1.24-4.55-1.53-4.43-4-10.83-3.36-12,4.14-17.34.61-.95-.62-.37-.09-.78-.84l-1.56.51c-3.67,3.6-11,18.83-13,23.61-4.65,11.28-4.63,19.5-5.12,31.87.3.25,1.24.79,1.68,1.1l.22-.52,4.84,1.49,1.2,1.21-.15.35c.76,2.74,3.19,4.64,5.17,6.65,2.47,2.49,5,3.3,7.16,5.33,4.66.67,7.73,1.2,11.53-.65a12.37,12.37,0,0,0,3.72-2.85c2-2.12,1.51-3.31,2.65-4.82.64-.86,10.85-3.46,14.08-13,1.75-5.21,2-1.79,6.64-6.64C761.77,1133.55,753.88,1121.76,749.38,1114.76Z" transform="translate(29.1)"/><path class="cls-30" d="M699.34,1154.3a7.41,7.41,0,0,0,1.84,5.25l3.93-9.46c2.08-4.4,2.65-4.63,7.76-5.4,3.5,4.84,8.62,15,17.43,16.55-.29-8.13-16-13.76-14.71-26.7.49-4.88,3.46-7,4.58-11-3,1.18-3.11,2.67-5.29,3.37-2,.64-5.73.9-7.62-.18-1.26-4.26,1.66-10.63,4.07-13.45,3-3.57,7-4.3,7.88-9.46-6-1.38-13.09,7.13-15.24,12.8-1.46,3.86-2.62,8.35-.53,11.72,2.65,4.27,6.4,2.06,9.89,1.07-2.6,6-2.14,4.85-1.76,11.44-9.12-1.14-12.19,9-12.23,13.48Z" transform="translate(29.1)"/><path class="cls-30" d="M745.47,1145.91c.41-6.39-13.05-15.86-18.68-25-3.19-5.19-1.45-6.76-3-11-5.59,9.14,1.44,16.66,5.22,21.24s10.48,14,16.47,14.75Z" transform="translate(29.1)"/><path class="cls-31" d="M91.55,741.34l-6.83-21.65c-2.06-7-7.78-23.21-11.35-27.91-4.17-5.5-9.44-4.49-10.77,3.3a27.28,27.28,0,0,0,.14,8.77c.4,2.75,1.41,5.77,1.5,8.44C54.12,709,34,693,26.62,689c-13-7-17.7,1.5-16.41,7.14C11.43,701.44,21,707,25.39,710.78,14,709.18-.08,699,1.08,711.57c1.07,11.55,10.11,11.56,17.75,14.92a3.68,3.68,0,0,1,.35.15l1.17.86c-5,1-23.51.22-19.49,8.14,4.27,8.4,19.5,3.88,23.17,4.46-3.28.44-11.73,6.28-14.42,8.35-11.23,8.65,1.86,17.15,16.87,7.29,4.27-2.81,7.63-.5,13.42,2.43l6.19,3.37.5.28,13.27,8.39.23.15,105.7,66.21,18.67-24.71Z" transform="translate(29.1)"/><path class="cls-32" d="M61.42,734.22c-4.27-.58-9.43,1.54-12.39,3-1.45.72-9.82,5.63-7.76,8.3,1.28,1.65,4.18-1.17,5-1.83,5.77-4.56,12.63-5.8,15.13-9.47Z" transform="translate(29.1)"/><path class="cls-31" d="M351.75,858.66s-1.16-17.83,25-28.77c0,0,15.81-14.79,27.31-15.63,0,0,2.72-4.15,23.6,18.36s19.24,22.62,21.11,34.42-4.31,36.88-18.07,50.47S334.46,926.78,351.75,858.66Z" transform="translate(29.1)"/><circle class="cls-35" cx="376.85" cy="871.13" r="12.72"/><circle class="cls-35" cx="479.51" cy="877.54" r="12.72"/><path class="cls-36" d="M416.47,843.06c-3.25-2.08-24.33-2.67-30.12-2.12-6.55.62-3.32,3.76-1.15,4.66,11.13,4.61,18.06,8.16,29.26.94,1.69-1.09,2.09-1.08,2-3.48Z" transform="translate(29.1)"/><path class="cls-32" d="M409,857.83c1.65-4.5-3-3.85-6.73-4.09-16.46-1-11.15,4.2-10,4.5.94.25,4.39-.15,5.69-.17,3.39-.06,8.48,1,11.05-.24Z" transform="translate(29.1)"/><ellipse class="cls-37" cx="428.54" cy="900.93" rx="34.55" ry="32.1"/><path class="cls-38" d="M707.11,1075.08c-27.63-9.89-36.46-13.46-60.5-27.77-4.57-2.71-10.29-6.41-15-8.69L608.65,1025c-4-2.41-3.85-1.86-4.68-6.19-4.77-25.07,6-68.33-5.23-83.25-4.66-13.92-99.56-61.19-99.56-61.19S399.06,888.27,376.29,884.8,124.7,726.72,124.7,726.72c-5,0-5.46,1.27-8.72,2.3-1.47,1.46-17.44,8.6-20.84,10.57C63.4,758,57.81,778.7,54,782.28c-1,4.21-3.58,8.59-4.82,13.23-1,3.85,0,10.78,2.52,13.72,1.59,1.18,4,1.69,6.63,2.59,108.2,37,118.49,37.27,171,110.7,5.2,7.29,20.61,33.29,22.74,40.34,4.52,15,11.55,30.07,15.37,45.11,4.72,18.64,8.15,26.91,10.84,47.14.32,2.37,2.05,10.05,1.38,11.8-.82,2.13-5.58,6.62-7.28,9.44-7.7,12.81,4.34,21.85-1.09,25-4,2.28-12.59,15-14,17.63-8.62,15.62-4.55,20.47-19.42,43.26-4.94,7.57-7.16,13.76-8.58,22.84-7,1.61-12.12,4-20.87,4.28-9.09.23-18.74-1.74-26.49-.9-2.21,1.66,28.06,106.73,26.9,107.93-1.58,1.64-1.14.64-3.65,1.78,0,3.82,11.83,22.36,14.55,27.33,6,10.85,12.71,18.62,16.7,25.66,2.2.37.67-.15,2.26,2.16,3.77,5.48,13.19,13.68,19.36,17.79,20.85,13.88,39.22,21.19,71.12,25.42,7.33,1,17,2,24.85,2.62l26.33,1.51,60.6-.36c56.52-1.56,92.65,6.93,132.47,25.58,4.62,2.16,10.49,4.31,13.92,6.78,3.76,1.17,4.19,2.63,9,2.78,3.64-1.87,3.52-6.38,4.5-9.88.86-3.08,1.63-7.87,3-10.52.63-8.36,6.38-16.81,9.07-24.89,9.45-28.43,10.88-56,7.47-85-2.58-21.93-33.42-164.08-51.11-182.92-3.26-3.47-7.13-6.64-9.59-9.73-4-5-1.74-6.64-.8-12.32l20.61,16.21c14.47,10.59,30.79,20.61,50.88,28,5.79,2.13,27.85,8.51,31.12,10.66,3.1.12,3.63-.76,5.08-2.48,1.14-1.35,1.5-2,2.68-3.17,3.19-3.33,3.56-3.16,4.15-7.72-1.29-11.69-2.72-19.43,3.07-30.5,2.45-4.69,12-19.74,17.46-23.49l2.5-.63C710.2,1079.43,723.32,1080.88,707.11,1075.08Z" transform="translate(29.1)"/><path class="cls-7" d="M334.33,862.51s21.77,116.11,57.44,154.25,106.86-142,106.86-142S414.51,887,373.39,884.19Z" transform="translate(29.1)"/><path class="cls-6" d="M373.39,884.19s19.36,71,27.63,76.63,78-83,78-83Z" transform="translate(29.1)"/><g class="cls-39"><g class="cls-29"><path class="cls-30" d="M680.47,1162.32S563.29,1100.06,563.29,1074s-6.51-86.44-6.51-86.44-54.65,115.07-23.42,165.81,66.36,215.28,40.33,312.57,65.06,25.73,78.07-28.92S680.47,1162.32,680.47,1162.32Z" transform="translate(29.1)"/></g><g class="cls-29"><path class="cls-30" d="M3.86,751.75S208.55,839.91,231.1,877.54s86.74,223.6,64.19,231.22,12.17,128.48-124.65,79.67l67.4-174.6-93.43-145L-29.1,814Z" transform="translate(29.1)"/></g></g><path class="cls-17" d="M337.06,865.73,124.53,727.9c-37.77,11.2-49.14,26.5-62.3,44.19-1.13,1.53-2.28,3.08-3.46,4.63-14.16,18.73-6.28,31.81-6.2,31.94l-1.83,1.15c-.37-.58-8.75-14.49,6.3-34.4,1.18-1.55,2.32-3.09,3.45-4.61,13.45-18.08,25.06-33.7,63.9-45.12l.48-.14L338.24,863.91Z" transform="translate(29.1)"/><path class="cls-17" d="M661.53,1156.14l-.37-.08a224.07,224.07,0,0,1-34.41-11.67c-18.29-7.74-45.06-21.56-68.71-43.49l-.28-.26,0-.38c-.56-4-13.54-97.52.15-119.72l1.84,1.14c-12.85,20.84-.81,111.23.1,117.9,23.33,21.54,49.7,35.16,67.74,42.79a225.75,225.75,0,0,0,33.72,11.48c3.54-1.8,11.52-7,11-12.1-.06-.59-.16-1.27-.28-2.06-1.25-8.59-4.19-28.72,21.15-52.84l1.49,1.57c-24.52,23.35-21.7,42.7-20.49,51,.12.81.22,1.51.29,2.13.87,7.89-12,14.2-12.51,14.46Z" transform="translate(29.1)"/><path class="cls-17" d="M612.51,1269.53c-.33-1.24-32.86-123.8-37.66-135.66-3.64-9-9.41-14.5-13.63-18.52-1.3-1.24-2.42-2.31-3.26-3.29-3.82-4.44-.31-12.09-.16-12.41l2,.92-1-.46,1,.46c0,.06-3.07,6.7-.16,10.08.77.89,1.86,1.93,3.12,3.13,4.11,3.92,10.33,9.85,14.14,19.28,4.85,12,36.4,130.86,37.74,135.91Z" transform="translate(29.1)"/><path class="cls-17" d="M718.74,1173.36a15.65,15.65,0,0,1-5.74-1.11c-7.46-2.92-12.19-10.83-12.81-12.27-.42-1-2.71-2.33-4.21-3l-.13-.07-23.12-14.36,1.14-1.84L696.93,1155c.87.4,4.38,2.08,5.25,4.09.53,1.23,4.93,8.49,11.61,11.11a13.62,13.62,0,0,0,10.81-.34l.12-.05.12,0c.13,0,3.46-.81,5.54-7l2,.7c-2.29,6.77-6.22,8.14-7,8.35A16.57,16.57,0,0,1,718.74,1173.36Z" transform="translate(29.1)"/><path class="cls-17" d="M90.51,741.66,83.67,720c-2-7.68-8.47-28.1-14.73-30.38a2.81,2.81,0,0,0-2.79.45l-.19.13-.1,0c-.39.21-4.7,3.09-.56,21.88l.44,2-1.89-.74c-.37-.15-9.39-3.78-37.78-23.41-.78-.37-8.28-3.82-12.25-1.22-1.85,1.21-2.7,3.69-2.52,7.37v.22c.06.54,1,4.83,14.64,13.59l13.74,7.62-1,1.9L24.8,711.69C9.82,702.06,9,697.25,9.13,696.06c-.2-4.46,1-7.56,3.51-9.21,5.21-3.4,14.09.94,14.46,1.13l.14.08c21.13,14.62,31.57,20.36,35.49,22.32C59.08,692,63.8,688.71,65,688.19a5,5,0,0,1,4.68-.65c8.44,3.08,15.29,28.78,16.08,31.85L92.58,741Z" transform="translate(29.1)"/><path class="cls-17" d="M24.59,730.12c-.56-.21-13.82-5.39-18.62-7.69C.64,719.88,0,712,0,711.64l2.16-.15c0,.07.55,7,4.74,9,4.73,2.27,18.34,7.58,18.48,7.63Z" transform="translate(29.1)"/><path class="cls-17" d="M12.3,741.3c-4.94,0-5.88-.7-6.06-1l.76-.43,0-.06c.07.06,1.85,1.48,17-.13l.09.86A115.81,115.81,0,0,1,12.3,741.3Z" transform="translate(29.1)"/><path class="cls-17" d="M60.79,771.31c-.21-.13-21.15-12.79-26.12-15.28-4.64-2.32-6.39-.78-6.4-.77l-.07,0c-8.6,5.62-14.93,5.3-15.19,5.28l.05-.87c.06,0,6.31.31,14.64-5.11.32-.28,2.43-1.82,7.36.65s26,15.18,26.18,15.31Z" transform="translate(29.1)"/><polygon class="cls-17" points="539.1 1648.18 536.41 1609.48 536.42 1609.38 560.39 1410.03 562.54 1410.29 538.59 1609.53 541.26 1648.03 539.1 1648.18"/><path class="cls-17" d="M283.91,1504.05a58.78,58.78,0,0,1-23-5l.84-2c15.73,6.67,30.44,6.47,43.71-.6,20.61-11,34.39-36.74,42.32-56.44a250,250,0,0,0,12.4-40.65l2.13.42a253.54,253.54,0,0,1-12.52,41c-8.06,20-22.12,46.27-43.31,57.55A47.47,47.47,0,0,1,283.91,1504.05Z" transform="translate(29.1)"/><path class="cls-17" d="M349,1400.26c-25,0-47.88-4.93-68.2-14.68a144.38,144.38,0,0,1-46-35.11c-22.47-25.5-30.67-51.75-30.75-52l-.27-.88,3.7-1.81-26.7-107.07,2.11-.53L210,1297l-3.6,1.75a158.94,158.94,0,0,0,30.08,50.41c20.44,23.16,57.41,50.45,117.41,48.92l.06,2.17C352.27,1400.24,350.62,1400.26,349,1400.26Z" transform="translate(29.1)"/><path class="cls-17" d="M731.15,1100.16a1.37,1.37,0,0,0,.08,1.09,2.5,2.5,0,0,0,.74.81,4.9,4.9,0,0,0,1,.56c.34.16.71.32,1,.5q1.05.54,2,1.17c.66.43,1.3.87,1.92,1.35a33.42,33.42,0,0,1,3.53,3.08c.28.28.56.56.82.84l.79.87.76.89.73.91,0,0v0a6.37,6.37,0,0,0,.87,1.1,5.25,5.25,0,0,0,1.11.88,4.11,4.11,0,0,0,1.33.5,4.21,4.21,0,0,0,1.46,0,3.91,3.91,0,0,1-1.49.22,4.12,4.12,0,0,1-1.49-.36,5.91,5.91,0,0,1-1.3-.84,5.83,5.83,0,0,1-1.05-1.16l0,0c-.51-.57-1-1.14-1.56-1.7s-1.07-1.1-1.62-1.63a45,45,0,0,0-3.44-3,34.72,34.72,0,0,0-3.73-2.67c-.33-.21-.66-.39-1-.59a5.14,5.14,0,0,1-1-.71,2.68,2.68,0,0,1-.69-1A1.38,1.38,0,0,1,731.15,1100.16Z" transform="translate(29.1)"/><path class="cls-40" d="M672,1687.39c5-1,14.93-2.59,29.39-5-11.4-25.41-18.75-74.74-18.09-131.41.54-56.33,8.31-105.45,20-131-13.58-2.39-23.1-4.15-28.21-5.16a9.12,9.12,0,0,0-4.29-1.1c-18.62-.26-34.25,61.33-34.82,136.74-.69,75.76,14.06,137.41,32.8,137.32a7.39,7.39,0,0,0,3.27-.42" transform="translate(29.1)"/><path class="cls-40" d="M1576.43,1687.39c-5-1-14.93-2.59-29.4-5,11.41-25.41,18.76-74.74,18.1-131.41-.54-56.33-8.31-105.45-20-131,13.58-2.39,23.1-4.15,28.21-5.16a9.09,9.09,0,0,1,4.29-1.1c18.62-.26,34.24,61.33,34.81,136.74.69,75.76-14.06,137.41-32.8,137.32a7.37,7.37,0,0,1-3.26-.42" transform="translate(29.1)"/><path class="cls-33" d="M715.77,1403a10.22,10.22,0,0,0-4.63-1.23c-20.26,0-37.23,66.53-38,149.27-.66,82.4,15.29,149.54,35.89,149.7a14.75,14.75,0,0,0,3.73-.64c41.66-7.7,442.54-78.77,823.36,6.06a15,15,0,0,0,3.94,1c20.25,0,37.23-66.53,38-149.27.66-82.39-15.29-149.53-35.89-149.7a7.67,7.67,0,0,0-4.79,1.45c-379.1,77.89-775,2.62-821.61-6.63" transform="translate(29.1)"/><path class="cls-41" d="M1045.7,1676.23c6.65-1.19,23.34-4.34,47.6-8-14.15-20.91-23.87-50-23.57-114.62.53-64.12,10.57-91.8,25-112.9-22.88-3.69-38.9-6.93-46.21-8.31a10.17,10.17,0,0,0-4.64-1.23c-20.25,0-37.08,39.29-37.87,122-.67,82.4,15.76,123.59,35.89,124,1.63-.21,2.8-.19,3.85-1" transform="translate(29.1)"/><polygon class="cls-9" points="1784.68 1258.12 1750.81 1244.31 1726.26 1234.29 1739.21 1197.91 1764.96 1206.17 1794.38 1215.61 1784.68 1258.12"/><path class="cls-42" d="M1755.58,1258.12l-33.87-13.81c3.62-12.53,9.85-28,14.15-38.14l29.42,9.44Z" transform="translate(29.1)"/><path class="cls-43" d="M1673.1,1169.82l-12.1-4.6-46,117.66,12.1,4.6a7.71,7.71,0,0,0,7.31-1.53c6.62-6.13,29-29.44,38.23-34.43,7.18-3.88,19.65-4.77,24.87-5l19-52.64C1704,1185.29,1678.46,1172.48,1673.1,1169.82Z" transform="translate(29.1)"/><path class="cls-44" d="M2003.13,1125.2s61.2,199.82,45,215.7-44.24,22.78-44.24,22.78l-280.09-92.28,31.13-78.05,190.1,68.34-53.86-154.16Z" transform="translate(29.1)"/><g class="cls-45"><path class="cls-17" d="M2003.13,1125.2s61.2,199.82,45,215.7-44.24,22.78-44.24,22.78l-280.09-92.28,31.13-78.05,190.1,68.34-53.86-154.16Z" transform="translate(29.1)"/></g><polygon class="cls-9" points="2085.97 1497.62 2092.44 1532.88 2097.13 1558.45 2058.73 1567.19 2051.87 1541.57 2044.04 1512.3 2085.97 1497.62"/><path class="cls-42" d="M2056.87,1497.62l6.47,35.26c-12.77,3.71-29.51,6.83-40.57,8.69l-7.83-29.27Z" transform="translate(29.1)"/><path class="cls-43" d="M2151.94,1587.84a7.56,7.56,0,0,0-5.28-5.2c-8.89-2.19-41.12-8.17-50.45-13.13-7.25-3.86-14.78-13.66-17.78-17.84l-55.72,12.42c-.68,14.84,2.15,42.73,2.77,48.57l2.59,12.42,126.47-24.82Z" transform="translate(29.1)"/><path class="cls-44" d="M2101,1521.87l-87,8.48-21.93,2.14-70.54-212s-111-141-126.23-166.37c-2.55-4.24-4.69-10.69-6.5-18.51q-.69-2.94-1.3-6.14c-.57-2.88-1.1-5.89-1.58-9q-.5-3-.92-6.2c-2.17-15.65-3.57-33.12-4.47-48.54-.06-1.15-.12-2.29-.18-3.4l147.06,42.84c27.57,57.37,67.85,141,73.5,151.92C2014.81,1283.89,2101,1521.87,2101,1521.87Z" transform="translate(29.1)"/><g class="cls-45"><path class="cls-17" d="M2014,1530.35l-21.93,2.14-70.54-212s-111-141-126.23-166.37c-8.8-14.66-12.89-56-14.77-88.4l19.11,7.91s5.42,71.42,13.65,80.32,133,163.41,130,169.8C1940.71,1329.19,1997.67,1485.77,2014,1530.35Z" transform="translate(29.1)"/></g><path class="cls-9" d="M1695.26,598.61c-3,1.55,6.38,51.59,9.7,55.87l5.35,5.29,4.18,24.78a37.34,37.34,0,0,0,9.84-.33,31.4,31.4,0,0,0,9.52-3.08,24.36,24.36,0,0,0,5.15-3.56c.84-.76-.58-14.17-.58-14.17s16.26-6.78,18-16.37c1-5.65,2.13-11.39,5.22-16.25,1.61-2.54,3.57-4.88,4.88-7.58s1.92-6,.69-8.73a2,2,0,0,0-.61-.85,2.16,2.16,0,0,0-2.11.11,1,1,0,0,0-.21.1A37.62,37.62,0,0,0,1747,631.69s-9.92-26.48-10.11-34.43c0,0-4.82-16.57-8.11-16.3a7.27,7.27,0,0,0-3,.92,7,7,0,0,0-2,1.64s5.38,36.3,4.46,37.75-13.27-29.34-16.06-30.59a3.79,3.79,0,0,0-3.09.53,19.58,19.58,0,0,0-3.26,2.19,37,37,0,0,0-3,2.71l-1.11.25c-.91.25-2.29.63-3.72,1.13A22.17,22.17,0,0,0,1695.26,598.61Z" transform="translate(29.1)"/><path class="cls-42" d="M1695.26,598.61c-3,1.55,6.38,51.59,9.7,55.87l5.35,5.29,4.18,24.78a37.34,37.34,0,0,0,9.84-.33,60.37,60.37,0,0,1-.78-30.92c2.32-9.71,7.07-18.81,8.45-28.69a66.25,66.25,0,0,0-.51-18.75,152.3,152.3,0,0,0-4.14-19.43,38.38,38.38,0,0,0-1.55-4.55,7,7,0,0,0-2,1.64s5.38,36.3,4.46,37.75-13.27-29.34-16.06-30.59a3.79,3.79,0,0,0-3.09.53,19.58,19.58,0,0,0-3.26,2.19,37,37,0,0,0-3,2.71l-1.11.25c-.91.25-2.29.63-3.72,1.13A22.17,22.17,0,0,0,1695.26,598.61Z" transform="translate(29.1)"/><path class="cls-17" d="M1705.82,593.4c.27.92.54,1.85.86,2.79a82.23,82.23,0,0,0,5.89,13.51,60.67,60.67,0,0,0,3.17,5.23c0-.26-.51-2.52-1.35-5.94-.91-3.66-2.24-8.64-4-14-.42-1.29-.86-2.55-1.29-3.76A19.58,19.58,0,0,0,1705.82,593.4Z" transform="translate(29.1)"/><path class="cls-17" d="M1697.94,597.49a85.53,85.53,0,0,0,6.61,15.71,86.24,86.24,0,0,0-2.89-16.84C1700.75,596.61,1699.37,597,1697.94,597.49Z" transform="translate(29.1)"/><path class="cls-9" d="M1772.88,843.59c-15.76.93-28.1.28-35.34-3a17.45,17.45,0,0,1-1.93-1c-32.25-19.72-22.52-163.23-22.52-163.23l8.38-.67,11-.88,6.82-.54s19.81,80,23.22,117.81l0,.18c.19,2.19.32,4.23.41,6.1,0,0,13.4-2.78,20.19-3.3Z" transform="translate(29.1)"/><path class="cls-42" d="M1737.54,840.55a17.45,17.45,0,0,1-1.93-1c-32.25-19.72-22.52-163.23-22.52-163.23l8.38-.67,1.14.78S1708,798.48,1737.54,840.55Z" transform="translate(29.1)"/><path class="cls-9" d="M2035.87,998.14l24.85-42.54q2.52-1.25,5.54-2.57l.17-.07c34.75-15.18,114.46-36.31,114.46-36.31l2.8,6.25,4.5,10,3.44,7.67s-121.15,77.54-153.94,58.76a17.39,17.39,0,0,1-1.82-1.21" transform="translate(29.1)"/><path class="cls-9" d="M2268.33,918.85c.1,3.4-48.3,19.23-53.65,18.38l-7.21-2.15-23.74,8.25a37.26,37.26,0,0,1-4.44-8.8,31.06,31.06,0,0,1-1.88-9.82,24,24,0,0,1,.65-6.23c.26-1.09,12.7-6.3,12.7-6.3s-1.87-17.52,5.67-23.69c4.46-3.65,9-7.36,11.74-12.4,1.45-2.63,2.56-5.48,4.3-7.93s4.32-4.56,7.32-4.8a1.89,1.89,0,0,1,1,.13,2.13,2.13,0,0,1,.93,1.89,2,2,0,0,1,0,.24,37.51,37.51,0,0,1-7.34,23.74s28-4,35-7.69c0,0,16.85-3.74,18.2-.72a7.27,7.27,0,0,1,.64,3.08,6.92,6.92,0,0,1-.46,2.57s-34.41,12.74-35.24,14.25,32.1-2.48,34.54-.63a3.75,3.75,0,0,1,1,3,19.53,19.53,0,0,1-.35,3.91,38.61,38.61,0,0,1-.91,4l.31,1.09c.23.93.56,2.32.8,3.81A22.4,22.4,0,0,1,2268.33,918.85Z" transform="translate(29.1)"/><path class="cls-42" d="M2268.33,918.85c.1,3.4-48.3,19.23-53.65,18.38l-7.21-2.15-23.74,8.25a37.26,37.26,0,0,1-4.44-8.8,60.41,60.41,0,0,0,27.49-14.17c7.39-6.71,13.08-15.25,21.09-21.22a66.3,66.3,0,0,1,16.68-8.56,153,153,0,0,1,19-5.72,40.47,40.47,0,0,1,4.74-.83,6.92,6.92,0,0,1-.46,2.57s-34.41,12.74-35.24,14.25,32.1-2.48,34.54-.63a3.75,3.75,0,0,1,1,3,19.53,19.53,0,0,1-.35,3.91,38.61,38.61,0,0,1-.91,4l.31,1.09c.23.93.56,2.32.8,3.81A22.4,22.4,0,0,1,2268.33,918.85Z" transform="translate(29.1)"/><path class="cls-17" d="M2267.82,907.09c-.93.21-1.89.42-2.85.59a82,82,0,0,1-14.68,1.33c-3.55,0-5.85-.23-6.12-.26.26-.08,2.45-.77,5.86-1.67,3.65-1,8.65-2.2,14.22-3.22,1.34-.25,2.66-.47,3.92-.68A19.53,19.53,0,0,1,2267.82,907.09Z" transform="translate(29.1)"/><path class="cls-17" d="M2268,916a86.33,86.33,0,0,1-16.95,1.76,86.93,86.93,0,0,1,16.15-5.57C2267.45,913.09,2267.78,914.48,2268,916Z" transform="translate(29.1)"/><path class="cls-42" d="M2035.87,998.14a17.39,17.39,0,0,0,1.82,1.21c32.79,18.78,153.94-58.76,153.94-58.76l-3.44-7.67-1.24-.62s-100,71.55-151.07,65.84Z" transform="translate(29.1)"/><path class="cls-17" d="M2212.19,904.59l-.91-.92c4.54-4.47,2.53-14.07,2.51-14.17l-.06-.27.15-.23c.07-.1,6.77-10,7-17.63l.05-1.69a35.65,35.65,0,0,0,0-5.52l-.16,0,0-.65.13-.64c1.5.18,1.49.43,1.29,6.88l0,1.68c-.23,7.44-6,16.5-7.08,18.09C2215.43,891.2,2216.83,900,2212.19,904.59Zm8.63-41.1.08-.65Z" transform="translate(29.1)"/><path class="cls-17" d="M2214.52,890l-.2-1.29c.29,0,29.25-4.63,34.84-7.62l.62,1.14C2244,885.34,2215.72,889.82,2214.52,890Z" transform="translate(29.1)"/><path class="cls-17" d="M2232.57,901.5l.08-1.3s4.52.25,15.25-.39l.08,1.3A152.32,152.32,0,0,1,2232.57,901.5Z" transform="translate(29.1)"/><path class="cls-17" d="M2215.39,937.91l-.15-1.3c8.33-.92,25-6.55,40.28-11.94,11.28-4,12.15-5.57,12.21-5.74a.42.42,0,0,0,.14.38l.92-.91a.89.89,0,0,1,.21.83c-.13.55-.51,2.24-13.05,6.67C2239.87,931.58,2223.82,937,2215.39,937.91Z" transform="translate(29.1)"/><path class="cls-17" d="M1734.5,645.38a25.69,25.69,0,0,1,1.67-4.56,21.18,21.18,0,0,1,2.59-4.17,17.66,17.66,0,0,1,3.6-3.41,12.88,12.88,0,0,1,4.57-2.17l-.47.38a33.05,33.05,0,0,1,3.19-5.7,36.58,36.58,0,0,1,4.12-5,31.89,31.89,0,0,1,5-4.13,26,26,0,0,1,2.8-1.61,23.9,23.9,0,0,1,3-1.26,33.18,33.18,0,0,0-5.35,3.44,35.58,35.58,0,0,0-4.62,4.31,42.26,42.26,0,0,0-3.88,5c-.58.88-1.13,1.77-1.64,2.69a29.17,29.17,0,0,0-1.42,2.78l-.14.32-.34.07a10.23,10.23,0,0,0-2.11.74,15,15,0,0,0-2,1.13,19.09,19.09,0,0,0-3.54,3.07,24.73,24.73,0,0,0-2.81,3.82A34.55,34.55,0,0,0,1734.5,645.38Z" transform="translate(29.1)"/><path class="cls-17" d="M1727.9,621.3c0-.28-2.2-27.52-4.45-37.71l.64-.14c2.25,10.23,4.44,37.52,4.46,37.79Z" transform="translate(29.1)"/><path class="cls-17" d="M1704.5,655c-2.47-2.44-7.67-30.93-8.25-34.17l1.28-.23c2.18,12.08,6.25,31.85,7.88,33.47Z" transform="translate(29.1)"/><path class="cls-18" d="M1919.79,780.83s-119.75-6.44-135.1-.62-30.19-103.4-30.19-103.4L1702.94,678s-17.53,172.14,24,188.62,86,11.66,86,11.66-58.34,219.55-58.51,280.08c0,0,131,150.71,283.39,98.79,0,0,24.48-196.76,6.12-219.34,0,0,118.41-40.36,135.08-69l-26.9-69.59s-85.43,54.44-93.07,33.66S2048.51,798.44,1919.79,780.83Z" transform="translate(29.1)"/><g class="cls-29"><g class="cls-46"><path class="cls-30" d="M2169.8,944.88s-81.93,66.57-107.8,56,4.23-27.46-.53-54.17c0,0-23.13,48.33-24.85,77.54s1.2,153.34-14.17,174.27-114.24,25.7-172.13-32.36c0,0,18.92,56.17,82.41,69.28s-132-7.33-160.64-102.91-63.67,16.35-63.67,16.35,115.52,121.62,190.65,137.8,126.72,47.41,147.84-3.85,28.56-239.12,31.15-238.91,112.49-52.16,112.49-52.16Z" transform="translate(29.1)"/><path class="cls-30" d="M1984,833.45s-41.18,101.88-66.25,89.29S1869.07,815,1882.51,778,1984,833.45,1984,833.45Z" transform="translate(29.1)"/><path class="cls-30" d="M1775.59,1002.38s55.62-86,53.92-113.25,7.08-39.77-67.4-43.62-34.55-166.9-38.58-191.18-55.84-4.75-38.09,97.79S1635.44,879.06,1699,905,1775.59,1002.38,1775.59,1002.38Z" transform="translate(29.1)"/></g></g><path class="cls-47" d="M1887.62,778.34s-10.21,82.51,36.83,137.56c0,0,33.06-.85,51.36-42.53S1997,809.68,1997,809.68,1966,778,1887.62,778.34Z" transform="translate(29.1)"/><path class="cls-48" d="M1906.92,783.56s-7.39,81.11,24.85,101.68,53.78-72.31,53.78-72.31Z" transform="translate(29.1)"/><path class="cls-9" d="M1963,796.69c.25-1.73.48-3.35.68-4.78.47-3.18.8-5.46.89-6,.78-4.07,7.62-21.05,7.62-21.05l-39.52-28s-2.39,8.79-4.93,18.52c-3.06,11.73-6.34,24.82-5.91,25.46-2.65-.5-8.64.86-14.92,2.71,4.4,14.08,17.93,48.72,44.67,49.79,17.57.69,28-10,34-20.42A117.07,117.07,0,0,0,1963,796.69Z" transform="translate(29.1)"/><path class="cls-42" d="M1927.75,755.39c10.36,11,33.21,35.17,35.72,36.43l.22.09c.47-3.18.8-5.46.89-6,.78-4.07,7.62-21.05,7.62-21.05l-39.52-28S1930.29,745.66,1927.75,755.39Z" transform="translate(29.1)"/><path class="cls-9" d="M1925.94,733.12s.17,3.37,3.68,8.92h0c.72,1.14,1.58,2.37,2.61,3.69,3.93,5,44.61,38.44,52,39.56s21.35-21.51,22.47-24c6.92-15.2,27.53-62.42,27.53-62.42-2.11-58.6-73.17-49.25-81.86-46.08S1925.94,733.12,1925.94,733.12Z" transform="translate(29.1)"/><path class="cls-49" d="M2018.39,730.73l-.48-.5a14,14,0,0,0-1.3-1.19,17.35,17.35,0,0,0-9.4-3.74,15.62,15.62,0,0,0-1.76,0l-.7,0s.16-.19.49-.51a7.27,7.27,0,0,1,1.62-1.11,8,8,0,0,1,11.12,4.43,7.15,7.15,0,0,1,.41,1.91A4.29,4.29,0,0,1,2018.39,730.73Z" transform="translate(29.1)"/><path class="cls-49" d="M1984.76,718.79l-.86-.73c-.54-.46-1.35-1.08-2.33-1.76a36.2,36.2,0,0,0-7.72-3.94,37,37,0,0,0-8.52-2.11c-1.21-.15-2.25-.21-3-.23l-1.17,0a6.53,6.53,0,0,1,.77-.64,10.37,10.37,0,0,1,2.61-1.34,16.55,16.55,0,0,1,11,.3,15.09,15.09,0,0,1,8.2,6.87,8.72,8.72,0,0,1,.89,2.65A6.19,6.19,0,0,1,1984.76,718.79Z" transform="translate(29.1)"/><path class="cls-49" d="M1989.58,744.17c1.08-.51,2.24-.88,3.34-1.38a23,23,0,0,0,3.87-2.17c-3.66-4.49-2.22-9.25-.43-14.6a16.43,16.43,0,0,1,9-9.8,5.8,5.8,0,0,1,1.84-.42c-.37.24-.67.56-1,.82a31.32,31.32,0,0,0-2.7,2,20.42,20.42,0,0,0-2.32,2.51,20.17,20.17,0,0,0-3.24,6,16.44,16.44,0,0,0-.81,6.64,13,13,0,0,0,2.86,7.24s-4.19,2.73-4.58,2.94a17.61,17.61,0,0,1-3.19,1.29,6,6,0,0,1-3.44.32,2,2,0,0,1-.91-.58,4,4,0,0,0,.67-.28l.27-.15C1989,744.45,1989.31,744.31,1989.58,744.17Z" transform="translate(29.1)"/><path class="cls-12" d="M1994.32,754.44a23,23,0,0,1-9.71,7.51,17.43,17.43,0,0,1-10.34.78,15.35,15.35,0,0,1-8.83-5.49,25.36,25.36,0,0,1-4.93-12.32c21.7,1.84,33.33,9.22,33.79,9.51Z" transform="translate(29.1)"/><path class="cls-49" d="M1985.47,708.1c-.89,0-.66-5.93-5.57-10.36s-11.28-4-11.29-4.87c-.06-.38,1.46-1.1,4.14-1.06a14.82,14.82,0,0,1,9.43,3.73,12.86,12.86,0,0,1,4.29,8.67C1986.6,706.7,1985.87,708.15,1985.47,708.1Z" transform="translate(29.1)"/><path class="cls-49" d="M2024.48,720.09c-.46.38-2.8-2.85-7.22-3.15s-7.6,2.54-8,2.11c-.19-.18.31-1.19,1.74-2.27a9.91,9.91,0,0,1,6.51-1.94,8.6,8.6,0,0,1,5.84,2.79C2024.5,718.89,2024.72,720,2024.48,720.09Z" transform="translate(29.1)"/><ellipse class="cls-9" cx="1931.24" cy="711.64" rx="21.42" ry="17.66" transform="translate(1094.65 2578.9) rotate(-85.36)"/><path class="cls-17" d="M1962.39,648c3.7-9.3,14.32-14.65,24.22-16.13a29.37,29.37,0,0,1,26.72,10.43c2.74,3.41,4.66,7.39,7.16,11s5.79,6.91,10,8c5.08,1.35,10.36-.72,15.59-1.23,8.57-.83,18,3.51,21,11.59,2.59,7-.42,15.38-6.25,20.06s-14,5.92-21.27,4.38-13.9-5.62-19.49-10.59c-8.7,7.34-23.09,6.55-30.93-1.7-3.26-3.42-5.39-7.81-8.8-11.09a17.31,17.31,0,0,0-12.06-5,13.74,13.74,0,0,0-11.33,6.09c-1.66,2.64-2.25,5.79-3,8.83s-1.64,6.18-3.8,8.43-5.88,3.31-8.47,1.56c.67,3.48,1.32,7.24-.19,10.45s-6.14,5.11-8.71,2.67c-1.86-1.76-1.75-4.7-1.48-7.24a238.31,238.31,0,0,1,5.69-34,39.85,39.85,0,0,1,4.59-11.81c2.29-3.57,5.77-6.56,9.92-7.4s8.8-1,10.81,2.72" transform="translate(29.1)"/><path class="cls-17" d="M1790.41,805c-22.93-27-35.56-114.71-37.31-127.58L1703,678.6l-.07-3.25,53-1.22.19,1.45c.13,1,13.14,99.55,36.76,127.35Z" transform="translate(29.1)"/><path class="cls-17" d="M1777.61,772.74a9.83,9.83,0,0,0,3.69,4.59,3.59,3.59,0,0,0,1.15.37,2.32,2.32,0,0,0,.59,0l.29,0h.08l.12,0,.23,0,1-.15.9-.11c.6-.06,1.2-.15,1.8-.19,4.75-.44,9.48-.71,14.21-.91,9.47-.4,18.93-.49,28.39-.43s18.9.35,28.35.75,18.87,1,28.29,1.69c-9.44-.4-18.88-.77-28.32-.88s-18.88-.15-28.31.07-18.87.57-28.26,1.23c-4.7.33-9.4.74-14,1.3-.58.07-1.14.16-1.72.24l-.85.13-.8.15-.2,0-.24,0-.58.08a4.65,4.65,0,0,1-1.18,0,6.39,6.39,0,0,1-2.22-.63,9.74,9.74,0,0,1-3.21-2.67,16.28,16.28,0,0,1-1.15-1.61,17.84,17.84,0,0,1-1-1.75Z" transform="translate(29.1)"/><path class="cls-17" d="M2054.72,972.84l-3.12-.91c5.07-17.29,5.81-38,5.87-40-7.07-44.62-23.44-75.16-35.94-92.93-13.5-19.22-25.42-28-25.54-28l1.91-2.63c.5.37,12.48,9.15,26.29,28.81,12.71,18.07,29.36,49.13,36.51,94.44l0,.29C2060.72,932.12,2060.13,954.38,2054.72,972.84Z" transform="translate(29.1)"/><path class="cls-17" d="M2177.55,968.38l-26.2-67.78c-60.91,37-82.81,40-90.43,36a5.86,5.86,0,0,1-3.45-4.63l1.63-.08,1.62-.12s.16,1.21,1.89,2c4.71,2.29,22.78,3.27,88.71-37l1.66-1,27.6,71.41Z" transform="translate(29.1)"/><path class="cls-17" d="M1776.72,1033l-3.17-.69c5.43-25.34,33.22-136.81,37.36-153.41-24.65.39-44.5-1.71-72.34-7.57-12.91-2.71-23-11.21-29.33-24.57a64.55,64.55,0,0,1-5.61-19.44l3.24-.3c0,.35,3.62,35.08,32.37,41.13,28.37,6,48.35,8,73.72,7.47l2.13,0-.52,2.06C1814.25,878.92,1782.56,1005.8,1776.72,1033Z" transform="translate(29.1)"/><path class="cls-17" d="M2037.38,1351.21l-2-2.58,11.39-8.77c8-18.37-7.09-71.83-10-81.69-35.16,11-71.81,12.68-109,5.07-30.12-6.17-60.62-18.44-90.65-36.48-51.1-30.69-83.61-68-83.93-68.36l2.46-2.13c.32.37,32.55,37.33,83.22,67.75,46.64,28,118.94,56,198.44,30.55l1.57-.5.48,1.57c.82,2.65,19.89,65,10.15,85.95l-.17.36Z" transform="translate(29.1)"/><polygon class="cls-17" points="2021.32 1534.1 2021 1530.87 2127.78 1520.46 2031.7 1264.57 2034.75 1263.43 2132.32 1523.28 2021.32 1534.1"/><polygon class="cls-17" points="1963.94 1365.62 1949.17 1321.23 1882.77 1235.89 1885.33 1233.89 1952.08 1319.68 1967.02 1364.6 1963.94 1365.62"/><rect class="cls-17" x="1824.03" y="1197.69" width="3.25" height="214.56" transform="translate(44.01 2630.54) rotate(-71.76)"/><rect class="cls-17" x="1715.4" y="1225.4" width="3.25" height="34" transform="translate(-52.76 2363) rotate(-67.81)"/><polygon class="cls-17" points="2094.53 1554.42 2089.67 1527.48 2092.86 1526.89 2097.73 1553.84 2094.53 1554.42"/><path class="cls-38" d="M2190,623.36l6.42-5.15c.89-1.32,6.37-5.56,7.94-6.8,2.81-2.2,5.45-4.41,8.28-6.65l25.28-19.36c2.23-1.6,1.85-2,.92-4.45a35.07,35.07,0,0,1-1.14-5.82c-1.33-7.47-2.67-15.3-4.1-22.73-4.18-21.84-8.18-45.69-14.2-66.95-2-7.18-4.62-14.82-5-22.15-3.08-1.79-31.76-9.42-37.78-11.25-12.54-3.81-25.3-7.34-37.42-11.59-4.57-1.6-33.7-12.58-35.48-12.66-2.95-.13-4.37,2.3-5.91,4.49-16.94,23.91-34,46.69-50.62,71.3-6,8.85-12,17.54-17.63,26.86l-1.27,2.08c-9.12,14.92-5.49,34.09,8.63,45.52l74.58,60.36c5.28,4.16,11,8.52,16.49,13,2.3,1.88,16.19,12.05,17.72,12.64,1.79.18,3.92-2.79,5.82-4.66s3.63-3.47,5.37-5.16c3.63-3.52,7.22-6.94,10.89-10.67,8-8.13,14.57-13.18,22.23-20.21Z" transform="translate(29.1)"/><g class="cls-29"><path class="cls-30" d="M2097.86,510.28l-1.14,2.09-.38,1.88a2.49,2.49,0,0,1,1.07-.39,49.59,49.59,0,0,1,10.93-11.4c15.63-10.77,37.82-6.72,52.7,2.66,10.49,6.61,17.08,13.1,21.69,23,3.57,7.72,8,23.9,2.67,33.94-3.11-.44-7.79-3.43-10.72-4.71l-33.54-14.49c-7.76-3.44-15.34-5.94-23.37-9.19l-17.13-7.22c-1.72-.73-3.5-2.1-4.52-2.48l-2.76-.89c-2.4,2.88-4.93,16-4.93,20.33,0,6.78,2.74,11.72,5.74,16.19,7.43,11.09,11.4,16.07,24.5,23.89,10.71,6.4,28.68,10.11,41.13,7.56,10.65-2.18,20.48-10.71,25.49-21.06a91.49,91.49,0,0,0,6.1-20c1.32-7.76-.9-12.3-3.31-18-2.16-5.13-6.07-10.72-8.66-14.37-7.83-11-15.41-17.08-29.17-20.71-14.05-3.71-27.86-5.38-39.83,2.41-2,1.34-8.33,5.85-9.87,7.75-.38.47-.72,1.07-1.14,1.63l-1.55,1.57Z" transform="translate(29.1)"/><path class="cls-30" d="M2096.12,524c1,.38,2.8,1.75,4.52,2.48l17.13,7.22c8,3.25,15.61,5.75,23.37,9.19l33.54,14.49c2.93,1.28,7.61,4.27,10.72,4.71,5.32-10,.9-26.22-2.67-33.94-4.61-9.95-11.2-16.44-21.69-23-14.88-9.38-37.07-13.43-52.7-2.66a49.59,49.59,0,0,0-10.93,11.4c-1.08,1.69-1.78,1.84-2.65,4.25a36.22,36.22,0,0,1-1.58,4.46c2.24.33,2.23.26,2.94,1.45Z" transform="translate(29.1)"/></g><path class="cls-30" d="M2097.86,510.28l1.55-1.57c.42-.56.76-1.16,1.14-1.63,1.54-1.9,7.83-6.41,9.87-7.75,12-7.79,25.78-6.12,39.83-2.41,13.76,3.63,21.34,9.67,29.17,20.71,2.59,3.65,6.5,9.24,8.66,14.37,2.41,5.71,4.63,10.25,3.31,18a91.49,91.49,0,0,1-6.1,20c-5,10.35-14.84,18.88-25.49,21.06-12.45,2.55-30.42-1.16-41.13-7.56-13.1-7.82-17.07-12.8-24.5-23.89-3-4.47-5.74-9.41-5.74-16.19,0-4.34,2.53-17.45,4.93-20.33l2.76.89c-.71-1.19-.7-1.12-2.94-1.45a36.22,36.22,0,0,0,1.58-4.46c.87-2.41,1.57-2.56,2.65-4.25a2.49,2.49,0,0,0-1.07.39l.38-1.88c-3.61,3.11-5.7,9.54-9.54,12.27-8.48,6-8,17.24-6.3,26.09,2.57,13.48,7.79,18.29,15.28,25.73a100.53,100.53,0,0,0,7.68,6.88c10.89,8.7,27.32,16.36,45.55,16.55,16.27.17,27.72-5.19,37.69-16.84,6.25-7.3,11.24-22.84,12.78-32.93,2.39-15.59-11.9-34.85-22.21-45.22-11.09-11.14-27.26-14.52-46.15-15-13.28-.38-24,7.07-31.88,16-1.74,2-2.87,2.14-1.76,4.41Z" transform="translate(29.1)"/><path class="cls-50" d="M2196.44,618.21l-6.42,5.15c5.77,6.21,44.17,16.44,57.25,24.48,3.22,2,12.71,10.48,13.31,11.53.35-1.91-6.7-11.73-9.3-14.21-11.42-10.9-31.22-16.5-45.28-22.5-3.13-1.33-6.77-3.48-9.56-4.45Z" transform="translate(29.1)"/><path class="cls-21" d="M2299.87,696.65l1.44-1.37,3.45-3.27c-22.21-17-38.25-37.51-48.48-42l-3.31,3.14c4.8,9.63,28.79,22.63,46.9,43.49" transform="translate(29.1)"/><polygon class="cls-51" points="2280.72 651.89 2284.03 648.75 2285.38 650.01 2282.07 653.16 2280.72 651.89"/><polyline class="cls-52" points="2267.96 580.95 2243.5 463.3 2132.82 427.8"/><path class="cls-30" d="M1069,413.34s-68.84,4.9-73.57,40.22,9.89,77.08-84.76,55.55-141.43,61.94-99.54,75.28,84.92,47.32,107.29,104.11-.86,55.5,42.16,94.65S1069,757.77,1069,757.77,1205.39,587.4,1222.6,562.45s-58.65-42.16-60.73-75.72S1110.75,413.08,1069,413.34Z" transform="translate(29.1)"/><polygon class="cls-53" points="1090.52 982.29 1065.22 982.03 1046.88 981.84 1046 954.95 1064.67 953.69 1086 952.26 1090.52 982.29"/><path class="cls-54" d="M1061.42,982.29l-25.29-.26a261.75,261.75,0,0,1-.56-28.34l21.33-1.43Z" transform="translate(29.1)"/><path class="cls-43" d="M986.13,1034.28a5.32,5.32,0,0,0,4.31-2.86c2.72-5.68,11.2-26.51,15.89-32.12,3.65-4.36,11.45-8.13,14.75-9.6l-1.1-39c-10.19-2.39-29.89-4.13-34-4.48l-9,.12.16,88Z" transform="translate(29.1)"/><path class="cls-44" d="M1040,992.9s281.35,51.63,311.68-27.1-33.55-120.67-33.55-120.67l-198,85.74S1131,946.44,1040,946.44Z" transform="translate(29.1)"/><g class="cls-45"><path class="cls-17" d="M1040,992.9s281.35,51.63,311.68-27.1-33.55-120.67-33.55-120.67l-198,85.74S1131,946.44,1040,946.44Z" transform="translate(29.1)"/></g><polygon class="cls-53" points="1029.3 1108.75 1002.95 1108.48 983.84 1108.29 982.92 1080.28 1002.37 1078.97 1024.58 1077.47 1029.3 1108.75"/><path class="cls-54" d="M1000.2,1108.75l-26.35-.27a270.84,270.84,0,0,1-.58-29.51l22.21-1.5Z" transform="translate(29.1)"/><path class="cls-43" d="M921.77,1162.91a5.57,5.57,0,0,0,4.5-3c2.82-5.91,11.66-27.61,16.55-33.45,3.79-4.54,11.92-8.47,15.36-10l-1.15-40.6c-10.61-2.49-31.13-4.3-35.43-4.66l-9.33.13.18,91.69Z" transform="translate(29.1)"/><path class="cls-44" d="M1269.46,910.84s82.35,205.74-120.28,215.42l-163.26-9.68v-47.11s150.36-10.32,165.84-40.65-9-94.78-9-94.78Z" transform="translate(29.1)"/><g class="cls-45"><path class="cls-17" d="M1269.46,910.84s-91.22,29.63-128.19,23.46c0,0,2.16.78,4.59,7.85,2.27,6.6,15,40.47,12.27,61.1l-1.25.7s1.68,34.34-29.11,41.53c0,0-53,16.82-131.9,23.2l-10,1.14v14s172.16,38.69,256.91-127.79h0C1255.14,943.45,1265.13,928.4,1269.46,910.84Z" transform="translate(29.1)"/></g><path class="cls-18" d="M856.3,389.31s61.47,138,131.16,138,99-18.82,177.25-14.65,195.32.72,245.23-80.16l59.37,21.64s-40.44,126.36-154.88,189.17c0,0-19.79,6.88-4.3,36.14s58.51,139.39,63.67,189.29c0,0-152.34,74.88-239.46,64.55,0,0-42.59-9-57.43,6.46,0,0-41.94-106.48-54.85-196.82s-116.8-65.17-174.88-200-47.1-133.83-47.1-133.83Z" transform="translate(29.1)"/><path class="cls-12" d="M1338.52,337.44l167.36,78.73s18.93,6.46,24.95-2.58,10.75-24.28,10.75-24.28l-193.16-88S1357,320.66,1338.52,337.44Z" transform="translate(29.1)"/><g class="cls-29"><g class="cls-55"><path class="cls-17" d="M1093.19,932s-57.78-254.33-44.76-284-1.91-55.51-1.91-55.51-42.84,65-92.7,9.9S823.55,400.83,823.55,400.83l-65.44,12.51s82.61,321.14,144.57,348.25,171.08,190.67,171.08,190.67Z" transform="translate(29.1)"/><path class="cls-17" d="M1415,860.28s-113.48-177.43-139.3-202,148.72-90.54,202.8-222.11S1415,860.28,1415,860.28Z" transform="translate(29.1)"/><polygon class="cls-17" points="1236.4 483.41 1210.08 702.51 996.32 500.97 1236.4 483.41"/></g></g><path class="cls-56" d="M1338.52,337.44s-10.75-3.44-6-20.65,15.92-15.49,15.92-15.49S1357.45,321.74,1338.52,337.44Z" transform="translate(29.1)"/><path class="cls-57" d="M1419.16,435.88s-9.28-42.08,0-54.13,18.74-16.34,23-10.75-9,33.13-9,33.13l-2,36.13Z" transform="translate(29.1)"/><path class="cls-57" d="M1442.56,378.76s37.36.16,39.65-10.18-6-14.36-10-14.65-13.77-9.17-18.65-8.31-9.75-8.89-17.21-3.73-2,27.19-2,27.19S1445.18,365.54,1442.56,378.76Z" transform="translate(29.1)"/><path class="cls-57" d="M1431.18,440.26l31.88,11.62s21.19-33.63,13.93-49.3l-38.7-18.2S1424,418.32,1431.18,440.26Z" transform="translate(29.1)"/><path class="cls-57" d="M848.11,392.19V338.3s-12.94,3-17.25-11.18-10.32-5.6-10.32-5.6-9.47,0-10.76,2.16-6.45-.87-12.9,3.87-15.92,1.21-20.22,14.37-2.59,29.58,2.15,33.85,25.1,12.06,30.4,30.1Z" transform="translate(29.1)"/><path class="cls-57" d="M843.34,361.1s24.09-9,29.25-25.59S838,340.67,838,340.67Z" transform="translate(29.1)"/><path class="cls-49" d="M838.25,341.25l-.57-1.16c.11-.06,11.61-5.68,19.17-8.77s13.24-2.52,13.47-2.5l-.15,1.29s-5.47-.59-12.83,2.41C849.81,335.58,838.36,341.19,838.25,341.25Z" transform="translate(29.1)"/><path class="cls-49" d="M791.36,356.69a15.75,15.75,0,0,1-4.67-.86l.44-1.21c1.32.47,5.09,1.42,6.65.14.65-.53.86-1.43.67-2.74-1-6.72-4.29-11.44-10.91-15.76l.71-1.08c6.86,4.48,10.4,9.62,11.47,16.65a4,4,0,0,1-1.12,3.93A5.06,5.06,0,0,1,791.36,356.69Z" transform="translate(29.1)"/><path class="cls-49" d="M801.24,352.84a22.55,22.55,0,0,1-3.47-.28l.22-1.27c1.47.25,5.67.64,7.41-.62a1.65,1.65,0,0,0,.73-1.14c.53-3.44-3.63-16.9-8.38-18.5l.41-1.23c5.49,1.86,9.85,16,9.25,19.93a3,3,0,0,1-1.25,2A8.88,8.88,0,0,1,801.24,352.84Z" transform="translate(29.1)"/><path class="cls-49" d="M812.35,350.09a19.73,19.73,0,0,1-4.47-.55l.32-1.25c.06,0,5.71,1.43,8.26-.51a3.14,3.14,0,0,0,1.21-2.6c.11-4.93-2.11-15-5.29-18.25a2.46,2.46,0,0,0-1.67-.89v-1.29A3.65,3.65,0,0,1,813.3,326c3.45,3.54,5.78,13.91,5.66,19.18a4.41,4.41,0,0,1-1.72,3.6A8.22,8.22,0,0,1,812.35,350.09Z" transform="translate(29.1)"/><path class="cls-49" d="M821.39,346.7l-.29-1.26,5.39-1.22c4.71-1.06,3.38-8.74,3.36-8.82l1.27-.23c.07.37,1.57,9-4.35,10.31Z" transform="translate(29.1)"/><path class="cls-49" d="M1418.53,436c-7.35-32.73-2.86-48.07-2.47-49.29.12-.81,1.49-7.53,14.18-16.45,5.74-4,9-3.09,10.65-1.58,3.64,3.25,3.2,12,.41,17.14-3.43,6.28-4.11,12.05-2.07,17.64l-1.22.44c-2.16-6-1.46-12.08,2.16-18.7,2.55-4.67,3-12.77-.13-15.56-2.44-2.17-6.27-.29-9.06,1.67-12.78,9-13.64,15.55-13.65,15.62l0,.13c0,.15-4.93,15.64,2.49,48.66Z" transform="translate(29.1)"/><path class="cls-49" d="M1433.44,368.2c-.23-.94-5.54-23.06,3.87-27.64l.57,1.16c-8.48,4.13-3.24,25.95-3.19,26.17Z" transform="translate(29.1)"/><path class="cls-49" d="M1443.51,358.74l-1.28-.15c1.27-10.67,7.28-14.2,7.53-14.35l.64,1.13-.32-.56.32.56C1450.35,345.4,1444.7,348.76,1443.51,358.74Z" transform="translate(29.1)"/><path class="cls-49" d="M1453.2,372.38c-1-7.34,9.4-22.52,9.84-23.16l1.07.73c-.11.16-10.57,15.41-9.63,22.25Z" transform="translate(29.1)"/><path class="cls-49" d="M1467.78,372.81c-5.73-4.18,3.46-18.61,3.85-19.23l.23-.35.41.07c.27,0,6.58,1,9.62,5.75,1.71,2.64,2,5.91.95,9.7l-1.25-.35c1-3.42.71-6.33-.78-8.65-2.3-3.58-6.93-4.8-8.32-5.1-2.6,4.15-7.78,14.32-4,17.12Z" transform="translate(29.1)"/><path class="cls-49" d="M808.78,405.91c0-.12-1.18-12.52-30.09-29.59l.66-1.11c29.64,17.5,30.68,30.1,30.72,30.63l-1.29.07.64,0Z" transform="translate(29.1)"/><path class="cls-47" d="M1012.54,526.48,1181,692.62s21.77-132.08,9.51-179c0,0-31.59-1.25-35.68-1.39s-37-.36-45,1.07-68,10-68,10S1021.32,526,1012.54,526.48Z" transform="translate(29.1)"/><path class="cls-49" d="M836.23,375.27,835,375c2.47-12.49-11.63-22.19-11.77-22.29l.72-1.07C824.52,352.08,838.86,361.94,836.23,375.27Z" transform="translate(29.1)"/><path class="cls-48" d="M1041.86,523.35l116,116.11s3.86-112.85-3-127.2C1154.81,512.26,1120.35,509.85,1041.86,523.35Z" transform="translate(29.1)"/><path class="cls-53" d="M1125.59,506.41s11,60.28,1.06,67.24-49.37-37.14-49.37-37.14V480.26Z" transform="translate(29.1)"/><path class="cls-54" d="M1077.28,495.94s22.43,40.46,52.42,40.13l-6-46.79Z" transform="translate(29.1)"/><path class="cls-53" d="M1079.13,496.25s1.48,2.1,6,4.24h0c.93.44,2,.88,3.19,1.31,4.57,1.61,44.4,6.51,49.65,4.2s5-22.56,4.66-24.61c-1.76-12.61-7.78-51.41-7.78-51.41-25.29-36.85-67.2-1.81-71.5,3.78S1079.13,496.25,1079.13,496.25Z" transform="translate(29.1)"/><path class="cls-49" d="M1137.65,457l-.52-.13a10.16,10.16,0,0,0-1.33-.23,13.2,13.2,0,0,0-7.57,1.43,12.06,12.06,0,0,0-1.15.7l-.43.31a3.92,3.92,0,0,1,.11-.53,5.06,5.06,0,0,1,.58-1.38,6.1,6.1,0,0,1,9-1.69,5.27,5.27,0,0,1,1,1.06A4.38,4.38,0,0,1,1137.65,457Z" transform="translate(29.1)"/><path class="cls-49" d="M1133.36,454.82h.2a4.84,4.84,0,0,0,.5-.07,6.77,6.77,0,0,0,1.44-.44,7,7,0,0,0,1.32-.76c.17-.12.31-.24.41-.32l.15-.14,0,.17a1.82,1.82,0,0,1-.17.47,3,3,0,0,1-1.43,1.26,2.61,2.61,0,0,1-1.84.15,1.37,1.37,0,0,1-.42-.2Z" transform="translate(29.1)"/><path class="cls-49" d="M1091,463.55l.19.05a4.4,4.4,0,0,0,.49.12,6.36,6.36,0,0,0,1.5.09,7,7,0,0,0,1.51-.23l.49-.16.19-.08a.71.71,0,0,1-.08.15,1.64,1.64,0,0,1-.33.38,3,3,0,0,1-1.79.67,2.65,2.65,0,0,1-1.77-.51,1.57,1.57,0,0,1-.32-.34A.87.87,0,0,1,1091,463.55Z" transform="translate(29.1)"/><path class="cls-49" d="M1111.13,463l-.86-.12c-.53-.07-1.3-.15-2.21-.18a27.78,27.78,0,0,0-6.59.62,28.51,28.51,0,0,0-6.34,2.12c-.83.4-1.53.78-2,1.07l-.76.46a4.87,4.87,0,0,1,.23-.73,7.91,7.91,0,0,1,1.13-1.92,12.61,12.61,0,0,1,7.22-4.32,11.47,11.47,0,0,1,8.09,1.08,6.85,6.85,0,0,1,1.65,1.33A4.63,4.63,0,0,1,1111.13,463Z" transform="translate(29.1)"/><path class="cls-49" d="M1124.6,477.37c.48-.78,1.07-1.49,1.58-2.25a17.89,17.89,0,0,0,1.6-3c-4.19-1.39-5.21-5-6.24-9.22a12.61,12.61,0,0,1,1-8.63,13.84,13.84,0,0,1,.79-1.34,4.44,4.44,0,0,1,1-1c-.14.31-.2.63-.32.94a23.45,23.45,0,0,0-.9,2.42,14.9,14.9,0,0,0-.47,2.57A15.37,15.37,0,0,0,1123,463a12.53,12.53,0,0,0,2.19,4.6,9.91,9.91,0,0,0,4.8,3.49s-1.58,3.47-1.75,3.76a13.38,13.38,0,0,1-1.52,2.14,4.55,4.55,0,0,1-2.08,1.61,1.38,1.38,0,0,1-.83,0,2.36,2.36,0,0,0,.32-.44l.11-.21A4.59,4.59,0,0,1,1124.6,477.37Z" transform="translate(29.1)"/><path class="cls-49" d="M1106.05,449.1c-.12.67-4.53-.39-8.57,2.63s-4.69,7.82-5.31,7.71c-.29,0-.61-1.25-.18-3.25a11.31,11.31,0,0,1,4.19-6.5,9.8,9.8,0,0,1,7.12-1.92C1105.18,448,1106.15,448.8,1106.05,449.1Z" transform="translate(29.1)"/><path class="cls-49" d="M1108.43,483.44c.52-.44,3.25,3.19,8.29,3.43s8.6-3.05,9-2.57c.22.19-.34,1.36-1.94,2.62a11.24,11.24,0,0,1-7.36,2.35,9.84,9.84,0,0,1-6.72-3C1108.44,484.81,1108.17,483.61,1108.43,483.44Z" transform="translate(29.1)"/><path class="cls-49" d="M1137.67,451c-.36.28-2.06-2.24-5.42-2.59s-5.86,1.73-6.11,1.39c-.14-.14.27-.89,1.38-1.68a7.6,7.6,0,0,1,5-1.3,6.54,6.54,0,0,1,4.38,2.28C1137.71,450.11,1137.85,450.92,1137.67,451Z" transform="translate(29.1)"/><ellipse class="cls-53" cx="1073.76" cy="480.26" rx="13.46" ry="16.33" transform="translate(-71.01 555.35) rotate(-27.76)"/><path class="cls-17" d="M1114.68,409.08c-24,0-62.92,12.1-57.5,36-.48,4.28-1.74,18.54,3,18.22,5.59-.36,16.56,20.38,18.28,24.46s-4.72-26-4.72-26h0c7.68-2.63,21.48-8.91,25.16-21,5.18-17,23.7-20.47,31.08-7.48s10.17,16.77,12.77,9.29S1144.08,409.08,1114.68,409.08Z" transform="translate(29.1)"/><path class="cls-20" d="M1182.86,377.53c-.32-.17-7.94-4.19-8.69-10.42-.68-5.76-2.7-8.83-12.3-10.73l.16-.81c10,2,12.24,5.42,13,11.44.7,5.81,8.18,9.75,8.26,9.79Z" transform="translate(29.1)"/><path class="cls-21" d="M1212.42,408.18l1-1,2.29-2.3c-14.5-11.66-24.92-25.85-31.62-28.89l-2.19,2.21c3.1,6.67,18.79,15.55,30.56,29.95" transform="translate(29.1)"/><rect class="cls-22" x="1180.96" y="376.07" width="3.12" height="1.24" transform="translate(111.42 950.97) rotate(-45.23)"/><path class="cls-18" d="M1060.32,427s28.12,22.09,54.51,7.06,25.45-22.43,25.45-22.43L1134.52,377l34.53-20.59s-75.49-15.76-87.53-13.45-74.83,40.88-74.83,40.88l51.21,5.5Z" transform="translate(29.1)"/><g class="cls-29"><g class="cls-58"><path class="cls-17" d="M1058.37,389.32s33.07,13.33,76.7-13.55c0,0-49.7,54.49-48.83,72.15s-38.27-10-38.9-22.84S1058.37,389.32,1058.37,389.32Z" transform="translate(29.1)"/></g></g><path class="cls-17" d="M1140.28,411.64c-.64-2.86-1.23-5.73-1.82-8.59s-1.14-5.75-1.68-8.62-1.08-5.76-1.58-8.64-1-5.76-1.51-8.65l1.2.62c-3.21,1.59-6.45,3.06-9.71,4.51s-6.57,2.79-9.89,4.09-6.71,2.47-10.13,3.51l-2.58.73-2.61.62c-.87.2-1.76.32-2.64.48a12,12,0,0,1-1.33.14l-1.34.1c.88-.18,1.76-.29,2.62-.52s1.72-.43,2.56-.7l2.53-.81,2.51-.9c1.66-.62,3.32-1.24,5-1.92s3.28-1.35,4.91-2c3.27-1.39,6.51-2.84,9.75-4.3s6.45-3,9.65-4.5l1-.48.18,1.1c.47,2.89.94,5.77,1.37,8.67s.89,5.78,1.3,8.68.82,5.8,1.2,8.7S1140,408.73,1140.28,411.64Z" transform="translate(29.1)"/><path class="cls-17" d="M1135,377.74l-.88-1.47,32.64-19.46c-10.42-2.17-56.14-11.49-80.25-13.18l.12-1.71c27.31,1.92,82.09,13.55,82.64,13.66l2.14.46Z" transform="translate(29.1)"/><rect class="cls-17" x="1058.54" y="389.31" width="1.14" height="37.74" transform="translate(5.1 68.76) rotate(-3.68)"/><path class="cls-17" d="M1215.82,1114.54l-1-2.84c28-10,48-27.77,59.23-52.71,14.44-32,12.07-70.34,7.53-96.91a281.79,281.79,0,0,0-13.5-50.69l2.8-1.11a285,285,0,0,1,13.66,51.22,228.78,228.78,0,0,1,3.39,48.53c-.86,18.86-4.6,35.75-11.13,50.19C1265.15,1085.94,1244.64,1104.21,1215.82,1114.54Z" transform="translate(29.1)"/><path class="cls-17" d="M1286.71,1005l-.23-2.14a114.74,114.74,0,0,0,34.09-10.34c22.74-11.24,35.07-28.13,36.66-50.21v-.14c.07-.32,6.21-31.94-9.44-61.43l1.9-1c15.65,29.5,10,61,9.67,62.79a57.2,57.2,0,0,1-13.09,33.07c-6.2,7.47-14.55,13.82-24.81,18.89A117.13,117.13,0,0,1,1286.71,1005Z" transform="translate(29.1)"/><path class="cls-17" d="M1150,935.84c-11.65,0-21.73-1.25-30.17-3.74l.73-2.47c16.89,5,40.65,4.83,70.62-.42,24.08-4.23,52.16-11.74,83.47-22.33,49.19-16.65,91.12-35.81,97.71-38.87-1.83-9.85-17.82-92.25-52.64-164.94L1322,702c37.07,77.38,52.88,165.7,53,166.58l.17,1-.89.42a1059.24,1059.24,0,0,1-98.86,39.39c-31.44,10.63-59.65,18.18-83.86,22.43A244.57,244.57,0,0,1,1150,935.84Z" transform="translate(29.1)"/><rect class="cls-17" x="1068.06" y="946.44" width="2.15" height="46.46"/><rect class="cls-17" x="1050.18" y="980.8" width="18.95" height="2.15"/><rect class="cls-17" x="970.86" y="1094.48" width="2.15" height="27.97" transform="translate(-117.37 2068.94) rotate(-89.41)"/><path class="cls-17" d="M1311.93,502l-.55-2.08c38.7-10.28,63.2-28.22,76.93-41.46,14.84-14.31,20.6-26.29,20.66-26.41l.41-.89,60.3,22-.74,2-58.47-21.31c-1.61,3.06-7.69,13.64-20.67,26.16C1375.89,473.44,1351.08,491.61,1311.93,502Z" transform="translate(29.1)"/><path class="cls-17" d="M940,509.11c-16.19-10.45-35.36-33.71-57-69.16-14.35-23.5-25-44.82-27.26-49.3L800.43,410.1l-.71-2L856.85,388l.42.87c.45.93,45.9,93.92,83.9,118.46Z" transform="translate(29.1)"/><polygon class="cls-17" points="1064.47 1120.59 1013.95 1117.59 1013.95 1069.47 1016.1 1069.47 1016.1 1115.56 1064.6 1118.44 1064.47 1120.59"/><path class="cls-17" d="M1125.07,1047.13l-.37-2.12c12.09-2.11,20.85-8,26-17.63,8.85-16.34,6-40.7,2-58.25a228.6,228.6,0,0,0-11-34.67l2-.85a228.49,228.49,0,0,1,11.09,35c5.93,26.06,5.21,46.17-2.16,59.76C1147.12,1038.6,1137.84,1044.9,1125.07,1047.13Z" transform="translate(29.1)"/><polygon class="cls-59" points="2598.21 866.62 2575.79 860.01 2588.78 843.54 2607.45 849.05 2598.21 866.62"/><polygon class="cls-59" points="2444.5 1053.57 2423.64 1064.09 2421.82 1043.19 2439.21 1034.42 2444.5 1053.57"/><polygon class="cls-59" points="910.49 1204.16 905.41 1246.44 872.72 1221.07 880.81 1202.7 910.49 1204.16"/><polygon class="cls-60" points="115.88 753.83 93.19 748.23 105.42 731.19 124.33 735.85 115.88 753.83"/><polygon class="cls-60" points="1929.21 1087.2 1906.52 1081.61 1918.75 1064.57 1937.66 1069.23 1929.21 1087.2"/><polygon class="cls-60" points="867.96 960.1 874.19 925.82 899.12 938.28 867.96 960.1"/><polygon class="cls-60" points="1379.72 562.09 1407.72 541.37 1417.36 567.52 1379.72 562.09"/><polygon class="cls-60" points="2512.09 1244.28 2519.86 1210.32 2544.2 1223.89 2512.09 1244.28"/><polygon class="cls-60" points="2419.5 669.75 2433.07 645.41 2454.86 646.39 2456.99 668.32 2419.5 669.75"/><polygon class="cls-60" points="139.83 1201.43 153.4 1177.09 175.19 1178.08 177.32 1200 139.83 1201.43"/><polygon class="cls-60" points="1317.2 1231.52 1279.81 1230.97 1292.73 1200 1323.89 1200.46 1317.2 1231.52"/><polygon class="cls-61" points="694.52 1128.34 667.08 1141.56 669.79 1112.08 683.98 1109.89 694.52 1128.34"/><polygon class="cls-61" points="834.73 628.79 817.76 603.5 847.33 602.01 851.5 615.74 834.73 628.79"/><polygon class="cls-61" points="520.92 1282.64 503.96 1257.34 533.52 1255.85 537.7 1269.59 520.92 1282.64"/><polygon class="cls-61" points="2579.51 449.12 2584.46 419.07 2607.03 438.22 2600.68 451.09 2579.51 449.12"/><polygon class="cls-61" points="2256.79 1233.08 2227.44 1224.93 2248.91 1204.55 2261.03 1212.26 2256.79 1233.08"/><polygon class="cls-61" points="298.83 598.67 271.39 611.89 274.1 582.41 288.29 580.22 298.83 598.67"/><polygon class="cls-61" points="1700.88 1287.78 1673.43 1300.99 1676.14 1271.51 1690.33 1269.32 1700.88 1287.78"/><polygon class="cls-61" points="1412.15 1064.47 1403.4 1086.14 1388.26 1071.62 1395.55 1053.57 1412.15 1064.47"/><polygon class="cls-59" points="94.3 355.94 71.38 340.07 74.47 318.48 96.5 318.49 94.3 355.94"/><polygon class="cls-59" points="230.28 1001.64 239.63 973.6 267.67 992.29 258.33 1014.1 230.28 1001.64"/><polygon class="cls-59" points="1995.84 1308.01 2005.19 1279.97 2033.23 1298.67 2023.88 1320.48 1995.84 1308.01"/><polygon class="cls-59" points="1918.99 551.94 1931.45 527.01 1953.26 527.01 1956.38 548.82 1918.99 551.94"/></g></g></g></svg>