<svg xmlns="http://www.w3.org/2000/svg" xmlns:xlink="http://www.w3.org/1999/xlink" viewBox="0 0 1072.95 1080"><defs><style>.cls-1{isolation:isolate;}.cls-2{fill:#f0f8ff;}.cls-3{fill:#e3f0ff;}.cls-4{fill:#36d7cd;}.cls-5{fill:#f4cb18;}.cls-6{fill:#f28b8d;mix-blend-mode:multiply;}.cls-7{fill:#0f2e40;}.cls-8{fill:#3f89bc;}.cls-9{fill:url(#linear-gradient);}.cls-10{fill:url(#linear-gradient-2);}.cls-11{fill:#b86a66;mix-blend-mode:overlay;}.cls-12{fill:url(#linear-gradient-3);}.cls-13{fill:#0366a2;}.cls-14{fill:#084360;}.cls-15{fill:url(#linear-gradient-4);}.cls-16{fill:#2bbfed;}.cls-17{fill:url(#linear-gradient-5);}.cls-18{fill:#36d5be;}.cls-19{fill:#2dbaa2;}.cls-20{fill:url(#linear-gradient-6);}.cls-21{fill:url(#linear-gradient-7);}.cls-22{fill:url(#linear-gradient-8);}.cls-23{fill:#086fbc;}.cls-24{fill:#f1c71c;}.cls-25{fill:#ddb91d;}.cls-26{fill:url(#linear-gradient-9);}.cls-27{fill:#005fd7;}.cls-28{fill:url(#linear-gradient-10);}.cls-29{fill:url(#linear-gradient-11);}.cls-30{fill:#436ad6;}.cls-31{fill:url(#linear-gradient-12);}.cls-32{fill:url(#linear-gradient-13);}</style><linearGradient id="linear-gradient" x1="304.63" y1="550.51" x2="385.71" y2="550.51" gradientUnits="userSpaceOnUse"><stop offset="0" stop-color="#fcb5b9"/><stop offset="0.79" stop-color="#f28b8d"/></linearGradient><linearGradient id="linear-gradient-2" x1="287.53" y1="485.44" x2="287.53" y2="656.4" xlink:href="#linear-gradient"/><linearGradient id="linear-gradient-3" x1="369.39" y1="615.05" x2="403.84" y2="615.05" xlink:href="#linear-gradient"/><linearGradient id="linear-gradient-4" x1="281.51" y1="650.35" x2="281.51" y2="856.31" gradientUnits="userSpaceOnUse"><stop offset="0" stop-color="#3cede8"/><stop offset="0.65" stop-color="#2bbfed"/><stop offset="1" stop-color="#1da4ff"/></linearGradient><linearGradient id="linear-gradient-5" x1="313.21" y1="410.09" x2="313.21" y2="505.63" gradientUnits="userSpaceOnUse"><stop offset="0" stop-color="#29a7da"/><stop offset="0.79" stop-color="#0f7bde"/></linearGradient><linearGradient id="linear-gradient-6" x1="389.34" y1="599.98" x2="420.98" y2="599.98" xlink:href="#linear-gradient-5"/><linearGradient id="linear-gradient-7" x1="263.43" y1="643.76" x2="298.73" y2="643.76" xlink:href="#linear-gradient-5"/><linearGradient id="linear-gradient-8" x1="200.6" y1="564.76" x2="283.1" y2="564.76" xlink:href="#linear-gradient"/><linearGradient id="linear-gradient-9" x1="760.63" y1="365.12" x2="760.63" y2="550.8" gradientUnits="userSpaceOnUse"><stop offset="0" stop-color="#5e80ef"/><stop offset="0.79" stop-color="#5c66ee"/></linearGradient><linearGradient id="linear-gradient-10" x1="750.1" y1="332.53" x2="807" y2="332.53" xlink:href="#linear-gradient-5"/><linearGradient id="linear-gradient-11" x1="570.97" y1="494.5" x2="602.95" y2="494.5" xlink:href="#linear-gradient-5"/><linearGradient id="linear-gradient-12" x1="727.52" y1="507.97" x2="822.8" y2="507.97" xlink:href="#linear-gradient-5"/><linearGradient id="linear-gradient-13" x1="783.91" y1="422.35" x2="836.39" y2="422.35" xlink:href="#linear-gradient-9"/></defs><g class="cls-1"><g id="Layer_2" data-name="Layer 2"><g id="Layer_1-2" data-name="Layer 1"><path class="cls-2" d="M1011,199.9c0,177.68-47.27,418.69-290.92,481.1-54.66,14-98.11,31.77-133.75,52H0V0H992S1011,87.21,1011,199.9Z"/><path class="cls-3" d="M586.33,733C366.66,857.7,444.1,1075.77,25.08,1080H0V733Z"/><circle class="cls-4" cx="740.89" cy="935.06" r="28.11"/><path class="cls-5" d="M233,159A24,24,0,1,0,233,193,24,24,0,0,0,233,159Zm-7.81,26.13a13,13,0,1,1,0-18.32A13,13,0,0,1,225.16,185.16Z"/><circle class="cls-6" cx="987.45" cy="148.5" r="85.5"/><path class="cls-7" d="M329.59,455.48s6.67,17,10.75,22.8-18.5,13.77-25.81,11-2.8-29.47-2.8-29.47Z"/><path class="cls-8" d="M261.41,634.07l-10.17,19.7q-9.21-1.07-18.81-2.52a321.89,321.89,0,0,0,6.06-35.84Z"/><path class="cls-9" d="M385.71,599.66l-17.13,12.55s-27.41-19.79-31.22-26.27c-.53-.9-1.56-2.93-2.92-5.73l-.26-.51c-1.3-2.7-2.91-6.07-4.68-9.84-3.91-8.29-8.64-18.53-12.94-27.84-6.47-14.11-11.93-26.12-11.93-26.12l11.87-27.09s15.16,5.38,19.72,14.15c1.51,2.92,3.92,10.46,6.56,19.55,1.36,4.7,2.78,9.79,4.17,14.84,4,14.6,7.74,29,9.06,33Z"/><path class="cls-10" d="M328.49,573.17a44.23,44.23,0,0,0-1,21.71c2.5,11.16,5.48,23.48,8,33.66.46,1.85.92,3.63,1.32,5.33,2.41,9.51,4.12,16.09,4.12,16.09-24.52,7.7-55.06,7.87-89.69,3.81q-9.21-1.07-18.81-2.52a321.89,321.89,0,0,0,6.06-35.84,90.27,90.27,0,0,0,.37-17.79c-8.57-78.53,17.82-105.55,17.82-105.55s15.25-8.7,32.75-6.17,21.22,0,27.27,2.78c1.77.81,2.39,3.41,4,5.92,2.85,4.39,7,10.82,8.48,12.85,2.29,3.21,13.43,19.08,13.43,30a13.57,13.57,0,0,1-.64,3.86,51.43,51.43,0,0,1-2.89,7.11c-2.86,6-6.9,13.33-9.6,21.4C329.13,571,328.79,572.05,328.49,573.17Z"/><path class="cls-11" d="M347,537.35c-1.81,9.77-9.64,28.29-12.51,42.86l-.26-.51c-1.3-2.7-2.91-6.07-4.68-9.84,2.7-8.07,6.74-15.35,9.6-21.4a51.43,51.43,0,0,0,2.89-7.11,13.57,13.57,0,0,0,.64-3.86c0-11-11.14-26.83-13.43-30-1.44-2-5.63-8.46-8.48-12.85l0-.24s14.14,14.4,22,28.15C344.14,527.21,345.56,532.3,347,537.35Z"/><path class="cls-12" d="M403.84,614.82s-19.43,10.81-34.45,2l21.51-7Z"/><path class="cls-13" d="M273.83,887.91c-22.46,4.14-76.52-12.36-77.89-16.72-.87-2.75,3.3-12.09,6.47-18.59,1.87-3.78,3.38-6.6,3.38-6.6l22.91,8a11.4,11.4,0,0,0,.8,3.15C234.4,869.24,258.85,879,266,881.5,273.83,884.25,273.83,887.91,273.83,887.91Z"/><path class="cls-14" d="M229.5,857.16c-4.19-.3-22.34-1.74-27.09-4.56,1.87-3.78,3.38-6.6,3.38-6.6l22.91,8A11.4,11.4,0,0,0,229.5,857.16Z"/><path class="cls-13" d="M402.29,876.51c-4.81,5.28-69.87,2.29-72.16.22-1.34-1.2-.34-9.36.73-15.94.76-4.68,1.56-8.56,1.56-8.56l24.29.69a9.63,9.63,0,0,0,1,1.61C367.17,868.07,406.92,871.44,402.29,876.51Z"/><path class="cls-14" d="M357.69,854.53c-2.65,1.51-14.33,7.62-26.83,6.26.76-4.68,1.56-8.56,1.56-8.56l24.29.69A9.63,9.63,0,0,0,357.69,854.53Z"/><path class="cls-15" d="M358.5,853.09C349,856,339.8,856,331,852.63L313.07,749.41l-19.16-64.89s-1.46,43.81-3.75,63.53-58.78,108.26-58.78,108.26c-10.87-1.76-20.32-4.86-26.86-10.66l39.31-99c-2.26-18.61-5.62-58-7.43-80.1-.8-9.5-1.29-15.77-1.29-15.77l102.55-.46h.21s18.33,78,19.26,95.41S358.5,853.09,358.5,853.09Z"/><path class="cls-16" d="M338.54,654c-29.18,16-96.9,12.85-102.14,12.58-.8-9.5-1.29-15.77-1.29-15.77l102.55-.46Z"/><path class="cls-17" d="M314.52,489.45s2.11-19.11,5.36-19.57,19.12-3.83,21-19.63,2.95-41.5-24.94-40.1-28.34,19.51-30.67,35.31,4.19,40.43,4.19,40.43.6,22.17,17.66,19.52C320.48,503.33,314.52,489.45,314.52,489.45Z"/><path class="cls-7" d="M317.44,430.94s-7,15.48-15.46,20c-7.45,4,1.69,28.66-3.37,33.73s-25.4,10.78-40.94-1-1.18-22.28,12-42.54,13.21-42.73,32-36.26c0,0,14.34-12.93,36.68-1.58C349,408.66,345,434.89,345,434.89S328.12,438.83,317.44,430.94Z"/><polygon class="cls-18" points="521.99 565.36 514.58 543.56 165.1 662.2 172.5 684 444.39 591.7 452.76 615.46 474.39 607.87 466.14 584.35 444.83 591.55 480 579.61 488.27 603.31 509.89 595.72 501.66 572.26 521.99 565.36"/><path class="cls-18" d="M191.15,676.55l-6.82-20.95a48.35,48.35,0,0,0-61-31l-4.81,1.56a48.35,48.35,0,0,0-31,61l6.82,20.95a48.34,48.34,0,0,0,60.94,31l4.81-1.56A48.36,48.36,0,0,0,191.15,676.55Zm-38.55,36.5-2.74.89a27.5,27.5,0,0,1-34.68-17.64l-3.88-11.92a27.5,27.5,0,0,1,17.64-34.68l2.74-.89a27.51,27.51,0,0,1,34.68,17.64l3.88,11.92A27.52,27.52,0,0,1,152.6,713.05Z"/><path class="cls-11" d="M264.23,603.92c-10-13.32-20.79-28.12-21-30-.44-3.56,30.63-41.28,33.73-46.16.48-.75,1.09-1.68,1.75-2.78C272.91,537.81,262,564.18,261,581.87A60.94,60.94,0,0,0,264.23,603.92Z"/><path class="cls-11" d="M336.81,633.87l-42.68,11.61-2.05-2.08,43.41-14.86C336,630.39,336.41,632.17,336.81,633.87Z"/><path class="cls-19" d="M385.2,611.88s3-15.4,4.52-14.18,2.91,6.65,5.53,2.62,9.66-19.78,17.82-17.16,4.22,12.38,4.22,12.38L398.9,607.29Z"/><path class="cls-20" d="M391,609.08s-4-14,.4-11.23,6.83,7.85,8.87,2,4.44-16,15.37-15.71,2.05,18.44-.68,23.22c0,0-3.87,7.41-14.47,8.29S391,609.08,391,609.08Z"/><path class="cls-19" d="M279.43,627.28S289.68,629,294,629.06s8.76,2.38,7,4.56-6.47,2.47-6.47,4.66a5.81,5.81,0,0,0,1.55,3.74L276.46,649l-6.84-14.05Z"/><path class="cls-21" d="M279.43,627.28s5.51,2.48,8.27,2.48,11,.28,11,2.76-12.13,1.66-11.31,4.14,9.11,6.07,9.93,13.79c.43,4-16.82,16.82-23.44,4.69-6.26-11.47-10.48-17.65-10.48-17.65"/><path class="cls-22" d="M275.59,496.67s-12.65-17.55-31.29,6-51.69,57.05-41.94,77.91,61,58.59,61,58.59c8.68-4.75,13.19-8.29,17.45-13.4,0,0-8-10.36-16.57-21.82-10-13.32-20.79-28.12-21-30-.44-3.56,30.63-41.28,33.73-46.16.48-.75,1.09-1.68,1.75-2.78l.05-.11a33.06,33.06,0,0,0,3.41-7.32s0,0,0,0l0-.12,0,0C284,511.32,283.73,503.77,275.59,496.67Z"/><path class="cls-23" d="M319.88,469.88s-10.5-.87-13.56-2.26l9.75,11.56S318,470.32,319.88,469.88Z"/><path class="cls-24" d="M667,558.28S642.29,633.76,641.61,644s-11.75,121.54-11.75,121.54c10.28,4.09,20.43,4.3,31,2.82,0,0,17.67-57.1,21.07-81.57,2.62-18.86,4.88-38.27,4.88-38.27l41.34-90.19Z"/><path class="cls-24" d="M827.11,732.44a53.94,53.94,0,0,1-23.51,18s-84.29-81.39-85.67-94.3c-.9-8.54.16-50.47,1-77.93.41-14.09.77-24.38.77-24.38l57.82-7,1.82-.22c0,.17,0,.35,0,.51q-1.53,19.18-3.78,38.39c-2.52,21.59-5.83,43.28-10.19,65.3,0,0,14.73,15.37,29.4,34.51C812,707.82,827.11,732.44,827.11,732.44Z"/><path class="cls-25" d="M779.31,547.19q-1.53,19.18-3.78,38.39a266.65,266.65,0,0,1-28-2.48,49.78,49.78,0,0,1-24.19-11.71l-4.39,6.84-2.56,5.49-54.28-10.18,6.22-21.65,62-12.48,47.18,7.49Z"/><path class="cls-13" d="M844.9,753.35c-1.74,4.87-57.35,49.18-61.36,45.37-6.12-5.81,19.1-29.94,21.45-44.34a9,9,0,0,0-.38-5.19l21.09-16.52s3.89,2.93,8.18,6.68C839.52,744.27,845.89,750.58,844.9,753.35Z"/><path class="cls-14" d="M833.88,739.35c-5.84,9.32-25.58,14.25-28.89,15a9,9,0,0,0-.38-5.19l21.09-16.52S829.59,735.6,833.88,739.35Z"/><path class="cls-13" d="M660.23,795.5c-4.44,2.66-80.52,4.23-80.59-1.32-.11-7.26,42-15.29,50.58-27.19a8.1,8.1,0,0,0,1.26-2.46l27.44,2.78s1,4.55,1.87,10C662,784.77,662.78,794,660.23,795.5Z"/><path class="cls-14" d="M660.79,777.3c-14.35.92-28.75-9-30.57-10.31a8.1,8.1,0,0,0,1.26-2.46l27.44,2.78S659.94,771.86,660.79,777.3Z"/><path class="cls-26" d="M826.65,385.29s-17.78-14.59-38.06-16.46-45.31-7.07-60-.45-34,30.71-34,30.71l43,145.59L773,550.8Z"/><rect class="cls-27" x="590.35" y="399.46" width="175.62" height="172.37" rx="9.81"/><path class="cls-27" d="M679.09,310.84h-2.67a61.66,61.66,0,0,0-61.67,61.67v26.95h126V372.51A61.68,61.68,0,0,0,679.09,310.84Zm37,88.55H640.69V372.18a37.73,37.73,0,0,1,75.45,0Z"/><path class="cls-7" d="M703.7,466.6c0-13.24-11.26-24-25.14-24s-25.13,10.73-25.13,24A23.94,23.94,0,0,0,668,488.35a9.07,9.07,0,0,0-.15,1.66v40.43a9.83,9.83,0,0,0,9.83,9.83h1.71a9.83,9.83,0,0,0,9.83-9.83V490a10,10,0,0,0-.15-1.66A23.94,23.94,0,0,0,703.7,466.6Z"/><path class="cls-28" d="M793.22,347.45c-5.21,4.61-4.63,21.38-4.63,21.38-2.88,6.93-17.91,4.63-20.81,1.16-1.64-2-1-5.28-.41-8.5.45-2.42.9-4.79.41-6.53a2.12,2.12,0,0,0-1.43-1.56c-2.47-.92-7.56.73-13-6.53-7-9.24-.58-37.57-.58-37.57,9.82-20.8,39.37-26.53,50.85,1.74C813.74,336,798.43,342.82,793.22,347.45Z"/><path class="cls-7" d="M753,309.27s20.48-3,30.43,4.57c4.64,3.56,2.15,17.19,3.44,17.19s7.73-11.6,10.74-6.45-4.39,22.87-4.39,22.87,16.44-10.93,15.7-15.85c-.58-3.92,9.41-6.38,4.68-16.26s6.62-7.91-2-16.5.84-8.2-6.89-13.79-6.31-13-15.76-9.11-12.59-9.21-19.46-1.48-13.12-2.3-15.27,8.87-11.62,3.9-6.89,12.06-2.77,9.62.24,13.06S753,309.27,753,309.27Z"/><path class="cls-23" d="M590.19,477.13s15.66,6.26,13.35,10.26-5.25,2.94-4,5.25,11.35,15.14,7.78,24.6-16.82,9.25-16.82,9.25Z"/><path class="cls-29" d="M590.35,467.45s-16.71,5.75-19.22,21.91,26.25,42.27,30.61,28.16c5.74-18.59-10.78-24.31-11.21-28.16-.54-4.92,10.25,0,10.94-4.1.55-3.28-11.12-9.47-11.12-9.47"/><path class="cls-23" d="M721.83,571.76s-.73-13.4,9-13.28,22,1.83,20.1-2.93-.36-9.13.73-8.77,14.62,10.11,14.62,10.11l-.12,15Z"/><path class="cls-30" d="M784.4,488.23s-6.39-23.23-4.35-38,10.9-37.35,16.84-52.69c5.16-13.31,20.8,14.81,20.8,14.81L799.33,486.8Z"/><path class="cls-31" d="M793.07,446.32l-7.2,36-19,72.65s-13.09-11.13-15.71-7.86,7.86,10.47,5.89,13.09-27-4.42-29,3.86c-2.27,9.41,1.48,10.68,19.81,14s24.38-2.15,30.51-9.09c7.47-8.44,36.89-79.41,36.89-79.41s9.17-27.48,7.2-39.27S802.23,429.3,793.07,446.32Z"/><path class="cls-32" d="M815.34,381.15c-7.17-.5-15.07,6.92-20.31,22.62S783.91,452,783.91,452c12.71,8.1,28.8,12.66,44,11.34,0,0,9-45.92,8.51-56.71C835.88,396.12,831.55,382.28,815.34,381.15Z"/><path class="cls-23" d="M767.37,361.49c.45-2.42.9-4.79.41-6.53a2.12,2.12,0,0,0-1.43-1.56c2.37,0,10.93-.18,13-1.28Z"/></g></g></g></svg>