<svg xmlns="http://www.w3.org/2000/svg" width="115.937" height="52.202" viewBox="0 0 115.937 52.202">
  <g xmlns="http://www.w3.org/2000/svg" id="arrow-p" transform="translate(0.004)">
    <path id="Fill_149" data-name="Fill 149" d="M20.18,39.981a44.988,44.988,0,0,1-8.849-.831c-3.542-.7-7.238-1.629-10.088-4.507A3.587,3.587,0,0,1,0,31.99a1.017,1.017,0,0,1,.628-1.03.747.747,0,0,1,.287-.071c.214,0,.307.16.425.362.041.071.084.145.136.218,1.564,2.2,4,2.68,6.351,3.143.255.05.509.1.761.152a42.7,42.7,0,0,0,8.712.847,74.388,74.388,0,0,0,12.874-1.294,77.764,77.764,0,0,0,15.992-4.556c.073-.03.151-.054.226-.077.209-.065.406-.125.481-.291a.708.708,0,0,0-.074-.56,10.528,10.528,0,0,1-.03-8.137,16.4,16.4,0,0,1,3.083-5.463,10.969,10.969,0,0,1,5.316-3.32,5.817,5.817,0,0,1,1.59-.245c1.49,0,2.7.757,3.824,2.383a9.722,9.722,0,0,1,1.646,7.791,11.785,11.785,0,0,1-4.12,6.4l-.5.406-.6.5c.03.119.061.239.092.357.171.009.353.013.54.013a22.1,22.1,0,0,0,5.453-.924l.556-.142c8.39-2.132,16.311-6.586,24.217-13.617A141.623,141.623,0,0,0,101.038,1.205l.073-.085A3.04,3.04,0,0,1,102.349.113,1.693,1.693,0,0,1,102.877,0a.341.341,0,0,1,.3.121c.089.125.076.351-.037.67a.824.824,0,0,1-.086.159c-.054.085-.105.166-.079.236.02.054.085.1.2.132,1.287.4,1.041,1.294.8,2.162l-.046.169a11.594,11.594,0,0,1-2.045,3.709c-.177.244-.358.495-.531.742A86.053,86.053,0,0,1,92.36,19.258a77.036,77.036,0,0,1-10.294,8.421A24.408,24.408,0,0,1,74.681,31.7a14.452,14.452,0,0,0-2.574,1.068A14.671,14.671,0,0,1,69.663,33.8,46.877,46.877,0,0,1,59.4,35.868c-.313.017-.628.026-.935.026a14.368,14.368,0,0,1-7.227-1.884,2.709,2.709,0,0,0-1.368-.394,2.83,2.83,0,0,0-1.09.232c-2.011.828-4.2,1.664-6.892,2.63a61.206,61.206,0,0,1-11.646,2.684,67.951,67.951,0,0,1-10.062.819Zm26.985-9.493h0l-8.778,3.145a27.583,27.583,0,0,0,8.778-3.145ZM67.538,28.97h0c-.668.156-1.345.319-2,.477a73.691,73.691,0,0,1-8.448,1.686c.394.032.807.05,1.227.05a25,25,0,0,0,9.22-2.213ZM57.947,17.048h0a4.8,4.8,0,0,0-.672.067l-.073.011c-2.792.4-4.24,2.616-5.517,4.571a9.57,9.57,0,0,0-1.823,5.05,1.208,1.208,0,0,0,.208.854.414.414,0,0,0,.307.12,1.315,1.315,0,0,0,.6-.2,17.831,17.831,0,0,0,6.468-5.534,8.007,8.007,0,0,0,1.448-3.777,1.273,1.273,0,0,0-.265-.939.894.894,0,0,0-.677-.226Z" transform="translate(0 12.22)" fill="#7735f6"/>
    <path id="Fill_151" data-name="Fill 151" d="M26.321,22.931a1.374,1.374,0,0,1-.721-.292c-1.781-1.218-1.935-1.646-1.836-5.083A51.925,51.925,0,0,1,24.6,10.34c.088-.536.178-1.087.263-1.63a2.741,2.741,0,0,1,.068-.292c.1-.349.192-.71-.239-1.009a.77.77,0,0,0-.447-.154,1.347,1.347,0,0,0-.726.314l-.124.085a22.972,22.972,0,0,1-4.559,2.123c-.577.218-1.173.444-1.752.684-.619.256-1.229.573-1.819.88a20.757,20.757,0,0,1-2.179,1.026c-1.99.753-3.96,1.66-5.865,2.537l-.487.224a7.449,7.449,0,0,1-1.168.387,4.255,4.255,0,0,0-2.066,1,1.526,1.526,0,0,1-1.072.523c-.607,0-1.24-.46-1.934-1.407a1.741,1.741,0,0,1,.166-2.55,15.439,15.439,0,0,1,2.555-1.6c3.2-1.56,6.461-3.129,9.613-4.647h.01c2.708-1.3,5.508-2.652,8.257-3.988,1.041-.5,2.072-1.073,3.068-1.623l.868-.477A4.77,4.77,0,0,1,27.219,0c.935,0,1.625.616,2.459,2.2a6.836,6.836,0,0,1,.4,5.69,64.287,64.287,0,0,0-2.972,11.7c-.062.465-.086.944-.109,1.406-.017.337-.035.685-.066,1.025C26.874,22.622,26.669,22.931,26.321,22.931ZM25.755,1.839l-3.9,1.95-.163.081L17.951,5.739a25.6,25.6,0,0,0,7.8-3.9Z" transform="translate(85.416)" fill="#7735f6"/>
  </g>
</svg>