<svg id="Icons" height="512" viewBox="0 0 60 60" width="512" xmlns="http://www.w3.org/2000/svg"><path d="m40.7 45.69a3 3 0 0 0 -2.7-1.69 2.94 2.94 0 0 0 -1.43.37.978.978 0 0 1 -1.24-.245 2.974 2.974 0 0 0 -2.33-1.125h-6a2.974 2.974 0 0 0 -2.33 1.125.978.978 0 0 1 -1.24.245 2.94 2.94 0 0 0 -1.43-.37 3 3 0 0 0 -2.7 1.69 21.059 21.059 0 0 0 21.4 0z" fill="#d9dde3"/><path d="m35 26a11.1 11.1 0 0 0 4.88 5.276 3.917 3.917 0 0 1 2.12 3.524v2.2a1 1 0 0 1 -1 1h-22a1 1 0 0 1 -1-1v-2.2a3.917 3.917 0 0 1 2.12-3.528 11.1 11.1 0 0 0 4.88-5.272z" fill="#ec5e69"/><path d="m58.9 27.61a1 1 0 0 0 -.71-.85l-4.65-1.42a23.826 23.826 0 0 0 -3.6-8.68l2.29-4.3a.986.986 0 0 0 -.11-1.1c-.51-.61-1.05-1.2-1.61-1.77s-1.16-1.1-1.77-1.61a.986.986 0 0 0 -1.1-.11l-4.3 2.29a23.826 23.826 0 0 0 -8.68-3.6l-1.42-4.65a1 1 0 0 0 -.85-.71c-.79-.07-1.59-.1-2.39-.1s-1.6.03-2.39.1a1 1 0 0 0 -.85.71l-1.42 4.65a23.826 23.826 0 0 0 -8.68 3.6l-4.3-2.29a.986.986 0 0 0 -1.1.11c-.61.51-1.2 1.05-1.77 1.61s-1.1 1.16-1.61 1.77a.986.986 0 0 0 -.11 1.1l2.29 4.3a23.826 23.826 0 0 0 -3.6 8.68l-4.65 1.42a1 1 0 0 0 -.71.85c-.07.79-.1 1.59-.1 2.39s.03 1.6.1 2.39a1 1 0 0 0 .71.85l4.65 1.42a23.826 23.826 0 0 0 3.6 8.68l-2.29 4.3a.986.986 0 0 0 .11 1.1c.51.61 1.05 1.2 1.61 1.77s1.16 1.1 1.77 1.61a.986.986 0 0 0 1.1.11l4.3-2.29a23.826 23.826 0 0 0 8.68 3.6l1.42 4.65a1 1 0 0 0 .85.71c.79.07 1.59.1 2.39.1s1.6-.03 2.39-.1a1 1 0 0 0 .85-.71l1.42-4.65a23.826 23.826 0 0 0 8.68-3.6l4.3 2.29a.986.986 0 0 0 1.1-.11c.61-.51 1.2-1.05 1.77-1.61s1.1-1.16 1.61-1.77a.986.986 0 0 0 .11-1.1l-2.29-4.3a23.826 23.826 0 0 0 3.6-8.68l4.65-1.42a1 1 0 0 0 .71-.85c.07-.79.1-1.59.1-2.39s-.03-1.6-.1-2.39zm-28.9 21.39a19 19 0 1 1 19-19 19.017 19.017 0 0 1 -19 19z" fill="#cfd2da"/><path d="m35 36v3a1 1 0 0 1 -1 1h-8a1 1 0 0 1 -1-1v-3l5-1z" fill="#bdc2cc"/><path d="m35 22.82v13.18h-10v-13.18a5.958 5.958 0 0 1 1.01-3.33l2.44-3.66a1.862 1.862 0 0 1 3.1 0l2.44 3.66a5.958 5.958 0 0 1 1.01 3.33z" fill="#cfd2da"/><path d="m27 40h6a0 0 0 0 1 0 0v3a1 1 0 0 1 -1 1h-4a1 1 0 0 1 -1-1v-3a0 0 0 0 1 0 0z" fill="#8e94a0"/><g fill="#373737"><path d="m30 50a20 20 0 1 0 -20-20 20.023 20.023 0 0 0 20 20zm-9.216-4.567a1.934 1.934 0 0 1 2.16-.189 1.973 1.973 0 0 0 2.506-.493 1.978 1.978 0 0 1 .9-.627 2 2 0 0 0 1.65.876h4a2 2 0 0 0 1.652-.876 1.984 1.984 0 0 1 .9.626 1.975 1.975 0 0 0 2.505.495 1.931 1.931 0 0 1 2.16.188 17.825 17.825 0 0 1 -18.431 0zm15.216-15.999a10.86 10.86 0 0 0 3.436 2.738 2.929 2.929 0 0 1 1.564 2.628v2.2h-5zm-2-3.45v.016h-2a1 1 0 0 0 0 2h2v3h-2a1 1 0 0 0 0 2h2v2h-8v-2h2a1 1 0 0 0 0-2h-2v-3h2a1 1 0 0 0 0-2h-2v-3.183a4.987 4.987 0 0 1 .84-2.774l2.437-3.656a.869.869 0 0 1 1.446 0l2.437 3.656a4.979 4.979 0 0 1 .84 2.774zm-10 11.016h-5v-2.2a2.926 2.926 0 0 1 1.564-2.631 10.873 10.873 0 0 0 3.436-2.735zm2 0h8v.991.009.009.991h-8zm6 4v2h-4v-2zm-2-29a17.978 17.978 0 0 1 10.924 32.273 3.973 3.973 0 0 0 -2.924-1.273 3.75 3.75 0 0 0 -1.89.5 3.959 3.959 0 0 0 -2.11-1.361v-1.139a2 2 0 0 0 2-2h5a2 2 0 0 0 2-2v-2.2a4.943 4.943 0 0 0 -2.676-4.424 10.116 10.116 0 0 1 -4.324-4.587v-2.972a6.969 6.969 0 0 0 -1.176-3.883l-2.437-3.657a2.869 2.869 0 0 0 -4.774 0l-2.437 3.657a6.977 6.977 0 0 0 -1.176 3.883v2.973a10.017 10.017 0 0 1 -4.324 4.59 4.941 4.941 0 0 0 -2.676 4.42v2.2a2 2 0 0 0 2 2h5a2 2 0 0 0 2 2v1.139a3.867 3.867 0 0 0 -2.086 1.361 3.977 3.977 0 0 0 -4.838.778 17.978 17.978 0 0 1 10.924-32.278z"/><path d="m58.479 25.8-4.079-1.248a24.712 24.712 0 0 0 -3.3-7.944l2.006-3.774a1.987 1.987 0 0 0 -.218-2.218c-.514-.616-1.077-1.231-1.676-1.829s-1.218-1.167-1.827-1.675a1.986 1.986 0 0 0 -2.218-.221l-3.774 2.009a24.708 24.708 0 0 0 -7.944-3.3l-1.249-4.08a1.989 1.989 0 0 0 -1.721-1.411 28.309 28.309 0 0 0 -4.958 0 1.992 1.992 0 0 0 -1.721 1.412l-1.248 4.079a24.68 24.68 0 0 0 -7.944 3.3l-3.776-2.009a1.988 1.988 0 0 0 -2.215.22c-.617.511-1.229 1.075-1.83 1.676s-1.165 1.213-1.676 1.829a1.991 1.991 0 0 0 -.22 2.217l2.286 4.3a1 1 0 1 0 1.765-.94l-2.294-4.293c.472-.566.994-1.136 1.554-1.7s1.128-1.08 1.692-1.543l4.3 2.285a1 1 0 0 0 1.027-.052 22.787 22.787 0 0 1 8.312-3.451 1 1 0 0 0 .763-.689l1.404-4.65a25.451 25.451 0 0 1 4.586 0l1.42 4.646a1 1 0 0 0 .762.688 22.766 22.766 0 0 1 8.311 3.451 1 1 0 0 0 1.028.052l4.293-2.289c.564.47 1.134.993 1.7 1.554s1.079 1.125 1.544 1.692l-2.285 4.3a1 1 0 0 0 .052 1.027 22.765 22.765 0 0 1 3.45 8.312 1 1 0 0 0 .689.763l4.65 1.404c.067.735.1 1.508.1 2.3s-.034 1.562-.1 2.289l-4.647 1.42a1 1 0 0 0 -.689.762 22.739 22.739 0 0 1 -3.45 8.311 1 1 0 0 0 -.052 1.028l2.29 4.29c-.471.565-.994 1.135-1.553 1.7s-1.128 1.08-1.693 1.544l-4.3-2.285a1 1 0 0 0 -1.028.052 22.737 22.737 0 0 1 -8.312 3.45 1 1 0 0 0 -.762.689l-1.404 4.65a25.625 25.625 0 0 1 -4.585 0l-1.419-4.647a1 1 0 0 0 -.763-.689 22.765 22.765 0 0 1 -8.312-3.45 1 1 0 0 0 -1.027-.052l-4.294 2.29c-.569-.474-1.139-1-1.7-1.553s-1.084-1.132-1.544-1.693l2.285-4.3a1 1 0 0 0 -.052-1.028 22.766 22.766 0 0 1 -3.45-8.308 1 1 0 0 0 -.689-.762l-4.65-1.408c-.066-.737-.1-1.51-.1-2.3s.034-1.563.1-2.289l4.65-1.419a1 1 0 0 0 .689-.762 22.921 22.921 0 0 1 1.477-4.713 1 1 0 0 0 -1.833-.8 24.877 24.877 0 0 0 -1.483 4.535l-4.08 1.248a1.99 1.99 0 0 0 -1.411 1.721c-.072.794-.109 1.628-.109 2.479s.037 1.685.109 2.479a1.988 1.988 0 0 0 1.412 1.721l4.079 1.248a24.717 24.717 0 0 0 3.3 7.945l-2.009 3.774a1.989 1.989 0 0 0 .22 2.216c.507.609 1.071 1.225 1.676 1.83s1.213 1.162 1.829 1.676a1.99 1.99 0 0 0 2.217.219l3.775-2.008a24.712 24.712 0 0 0 7.944 3.3l1.248 4.08a1.988 1.988 0 0 0 1.722 1.411c.792.072 1.626.109 2.479.109s1.687-.037 2.478-.109a1.988 1.988 0 0 0 1.721-1.412l1.248-4.079a24.717 24.717 0 0 0 7.945-3.3l3.772 2.006a1.993 1.993 0 0 0 2.22-.219c.613-.511 1.227-1.075 1.828-1.675s1.166-1.212 1.675-1.827a1.986 1.986 0 0 0 .22-2.218l-2.008-3.774a24.721 24.721 0 0 0 3.3-7.944l4.08-1.249a1.992 1.992 0 0 0 1.412-1.723c.072-.8.108-1.629.108-2.478s-.036-1.683-.108-2.479a2 2 0 0 0 -1.413-1.72z"/><path d="m31.5 21.4a3.051 3.051 0 0 0 -3 0 1 1 0 1 0 1 1.733 1.018 1.018 0 0 1 1 0 1 1 0 1 0 1-1.731z"/></g></svg>