<svg id="Filled" height="512" viewBox="0 0 512 512" width="512" xmlns="http://www.w3.org/2000/svg"><path d="m280 24h208v304h-208z" fill="#e9eef2"/><path d="m400 120h56v80h-56z" fill="#d0d2d4"/><path d="m472 488a15.947 15.947 0 0 1 -11.313-4.687l-168-168a16 16 0 1 1 22.627-22.626l168 168a16 16 0 0 1 -11.314 27.313z" fill="#d13330"/><circle cx="128" cy="112" fill="#35a872" r="16"/><circle cx="56" cy="112" fill="#35a872" r="16"/><path d="m88 168h32v80h-32z" fill="#2d85cc"/><path d="m24 176h32v72h-32z" fill="#2d85cc"/><circle cx="176" cy="64" fill="#35a872" r="16"/><path d="m216 96h32v152h-32z" fill="#2d85cc"/><path d="m216 376a80 80 0 0 1 -80 80v-80h-80a80 80 0 0 1 160 0z" fill="#2d85cc"/><path d="m216 376a80 80 0 0 1 -80 80v-80l-56.57-56.57a80 80 0 0 1 136.57 56.57z" fill="none"/><path d="m136 376h-80a79.789 79.789 0 0 1 23.43-56.57z" fill="#3dc285"/><path d="m104 408v80a80 80 0 0 1 -80-80z" fill="#d0d2d4"/><path d="m152 152h32v96h-32z" fill="#2d85cc"/><circle cx="296" cy="304" fill="#eb423f" r="120"/><circle cx="296" cy="304" fill="#e9eef2" r="88"/><path d="m88 160a8 8 0 0 0 -8 8v80a8 8 0 0 0 8 8h32a8 8 0 0 0 8-8v-80a8 8 0 0 0 -8-8zm24 80h-16v-64h16z"/><path d="m24 168a8 8 0 0 0 -8 8v72a8 8 0 0 0 8 8h32a8 8 0 0 0 8-8v-72a8 8 0 0 0 -8-8zm24 72h-16v-56h16z"/><path d="m104 400h-80a8 8 0 0 0 -8 8 88.1 88.1 0 0 0 88 88 8 8 0 0 0 8-8v-80a8 8 0 0 0 -8-8zm-8 79.559a72.148 72.148 0 0 1 -63.559-63.559h63.559z"/><path d="m488 336a8 8 0 0 0 8-8v-304a8 8 0 0 0 -8-8h-208a8 8 0 0 0 -8 8v154.266a127 127 0 0 0 -16 4.142v-86.408a8 8 0 0 0 -8-8h-32a8 8 0 0 0 -8 8v115.136a129.019 129.019 0 0 0 -16 18.332v-77.468a8 8 0 0 0 -8-8h-32a8 8 0 0 0 -8 8v96a8 8 0 0 0 8 8h25.348a127.007 127.007 0 0 0 -8.974 38.17 88 88 0 0 0 -120.374 81.83 8 8 0 0 0 8 8h72v72a8 8 0 0 0 8 8 88.31 88.31 0 0 0 82.737-58.02 127.738 127.738 0 0 0 153.833.531l82.459 82.46a24 24 0 0 0 33.942-33.942l-83.982-83.981a127.281 127.281 0 0 0 14.961-35.048zm-312-96h-16v-80h16zm112-208h192v288h-57a128.627 128.627 0 0 0 1-16h32a8 8 0 0 0 0-16h-33.013a127.182 127.182 0 0 0 -3.054-16h36.067a8 8 0 0 0 0-16h-41.356a127.61 127.61 0 0 0 -7.846-16h49.202a8 8 0 0 0 0-16h-60.163a128.955 128.955 0 0 0 -37.931-32h10.094a8 8 0 0 0 0-16h-72c-2.687 0-5.353.093-8 .257zm-64 72h16v84.918a128.041 128.041 0 0 0 -16 9.308zm-159.559 264a71.647 71.647 0 0 1 15.339-36.906l36.906 36.906zm79.559 79.553v-71.553a7.979 7.979 0 0 0 -2.343-5.657l-50.564-50.564a71.912 71.912 0 0 1 77.139-8.172 127.634 127.634 0 0 0 37.351 82.91 72.243 72.243 0 0 1 -61.583 53.036zm333.657 18.791a8 8 0 1 1 -11.313 11.312l-81.553-81.556a129.209 129.209 0 0 0 10.814-11.812zm-181.657-50.344a112 112 0 1 1 112-112 112.127 112.127 0 0 1 -112 112z"/><path d="m296 208a96 96 0 1 0 96 96 96.108 96.108 0 0 0 -96-96zm0 176a80 80 0 1 1 80-80 80.091 80.091 0 0 1 -80 80z"/><path d="m296 352a48.054 48.054 0 0 1 -48-48 8 8 0 0 0 -16 0 64.072 64.072 0 0 0 64 64 8 8 0 0 0 0-16z"/><path d="m312 64h144a8 8 0 0 0 0-16h-144a8 8 0 0 0 0 16z"/><path d="m312 96h144a8 8 0 0 0 0-16h-144a8 8 0 0 0 0 16z"/><path d="m312 128h56a8 8 0 0 0 0-16h-56a8 8 0 0 0 0 16z"/><path d="m312 160h56a8 8 0 0 0 0-16h-56a8 8 0 0 0 0 16z"/><path d="m456 112h-56a8 8 0 0 0 -8 8v80a8 8 0 0 0 8 8h56a8 8 0 0 0 8-8v-80a8 8 0 0 0 -8-8zm-8 80h-40v-64h40z"/><path d="m24 152a7.976 7.976 0 0 0 5.657-2.343l16-16a23.99 23.99 0 0 0 32.967-13.657h26.752a24 24 0 1 0 44.279-18.341l16-16a23.99 23.99 0 0 0 32.969-13.659h17.376a8 8 0 0 0 6.247-3l17.753-22.194v1.194a8 8 0 0 0 16 0v-24a8 8 0 0 0 -8-8h-24a8 8 0 0 0 0 16h7.355l-19.2 24h-13.531a24 24 0 1 0 -44.279 18.341l-16 16a23.99 23.99 0 0 0 -32.969 13.659h-26.752a24 24 0 1 0 -44.279 18.341l-16 16a8 8 0 0 0 5.655 13.659zm152-96a8 8 0 1 1 -8 8 8.009 8.009 0 0 1 8-8zm-48 48a8 8 0 1 1 -8 8 8.009 8.009 0 0 1 8-8zm-72 0a8 8 0 1 1 -8 8 8.009 8.009 0 0 1 8-8z"/></svg>