<?xml version="1.0"?>
<svg xmlns="http://www.w3.org/2000/svg" width="512" height="512" viewBox="0 0 128 128"><g><path d="M60.545,101.088a4.75,4.75,0,1,0,4.75,4.75A4.756,4.756,0,0,0,60.545,101.088Zm0,6a1.25,1.25,0,1,1,1.25-1.25A1.251,1.251,0,0,1,60.545,107.088Z"/><path d="M80.5,91.4a4.75,4.75,0,1,0,4.75,4.75A4.756,4.756,0,0,0,80.5,91.4Zm0,6a1.25,1.25,0,1,1,1.25-1.25A1.25,1.25,0,0,1,80.5,97.4Z"/><path d="M63.545,84.025a4.75,4.75,0,1,0,4.75,4.75A4.756,4.756,0,0,0,63.545,84.025Zm0,6a1.25,1.25,0,1,1,1.25-1.25A1.25,1.25,0,0,1,63.545,90.025Z"/><path d="M109.83,99.1a1.749,1.749,0,0,0-.671,2.382l2.52,4.494a1.749,1.749,0,1,0,3.052-1.711l-2.519-4.494A1.748,1.748,0,0,0,109.83,99.1Z"/><path d="M100.917,45.885a4.75,4.75,0,1,0,4.75-4.75A4.756,4.756,0,0,0,100.917,45.885Zm6,0a1.25,1.25,0,1,1-1.25-1.25A1.252,1.252,0,0,1,106.917,45.885Z"/><path d="M95.667,42.9a4.75,4.75,0,1,0-4.75-4.75A4.755,4.755,0,0,0,95.667,42.9Zm0-6a1.25,1.25,0,1,1-1.25,1.25A1.252,1.252,0,0,1,95.667,36.9Z"/><path d="M102.167,30.96a4.75,4.75,0,1,0-4.75-4.75A4.756,4.756,0,0,0,102.167,30.96Zm0-6a1.25,1.25,0,1,1-1.25,1.25A1.252,1.252,0,0,1,102.167,24.96Z"/><path d="M121.843,113.785a7.957,7.957,0,0,0,.384-8.421L110.21,83.933V65.407a4.744,4.744,0,0,0-1.748-9.157H96.873a4.744,4.744,0,0,0-1.753,9.155V83.933l-3.169,5.651L79.6,67.553V35.127a4.744,4.744,0,0,0-1.751-9.156h-7.1V18.5A13.765,13.765,0,0,0,57,4.75H48.26A13.765,13.765,0,0,0,34.51,18.5v5.96H27.584a4.744,4.744,0,0,0-1.754,9.155V37.51H20.25V6.5A1.749,1.749,0,0,0,18.5,4.75h-6A1.749,1.749,0,0,0,10.75,6.5V113.75H6.5a1.749,1.749,0,0,0-1.75,1.75v6a1.749,1.749,0,0,0,1.75,1.75h115a1.749,1.749,0,0,0,1.75-1.75v-6A1.749,1.749,0,0,0,121.843,113.785Zm-2.093-4.515a4.485,4.485,0,0,1-4.48,4.48H90.07a4.481,4.481,0,0,1-4.49-4.48,4.528,4.528,0,0,1,.576-2.195l7.5-13.374h18.02l7.505,13.385A4.417,4.417,0,0,1,119.75,109.27ZM98.62,84.39V65.75h8.09V84.39a1.744,1.744,0,0,0,.224.855l2.778,4.956H95.618L98.4,85.245A1.744,1.744,0,0,0,98.62,84.39ZM96.873,59.75h11.589a1.25,1.25,0,0,1,0,2.5H96.873a1.25,1.25,0,1,1,0-2.5ZM83.1,105.367a8.033,8.033,0,0,0-1.022,3.9,7.922,7.922,0,0,0,1.379,4.48H49.77A7.76,7.76,0,0,1,43,102.187L54.712,81.3H83.3l6.65,11.862ZM81.332,77.8H56.675l5.012-8.934a1.757,1.757,0,0,0,.223-.856V35.471H76.1V68.01a1.751,1.751,0,0,0,.223.855ZM79.1,30.721a1.251,1.251,0,0,1-1.247,1.249h-17.7a1.25,1.25,0,0,1,0-2.5H77.849A1.251,1.251,0,0,1,79.1,30.721ZM38.01,18.5A10.261,10.261,0,0,1,48.26,8.25H57A10.261,10.261,0,0,1,67.25,18.5v7.471H60.157a4.744,4.744,0,0,0-1.747,9.157V67.553L39.945,100.472a11.224,11.224,0,0,0,1.678,13.278H20.25V47.01h5.58V64.8a10.425,10.425,0,1,0,20.85,0V55.35c0-.016.005-.032.005-.048s-.005-.032-.005-.049V33.617a4.744,4.744,0,0,0-1.749-9.157H38.01Zm5.17,15.46V53.552H29.33V33.96ZM29.33,57.052H43.18V64.8a6.925,6.925,0,1,1-13.85,0ZM27.584,27.96H44.931a1.25,1.25,0,0,1,0,2.5H27.584a1.25,1.25,0,1,1,0-2.5ZM25.83,41.01v2.5H20.25v-2.5ZM14.25,8.25h2.5v105.5h-2.5Zm105.5,111.5H8.25v-2.5h111.5Z"/></g></svg>
