<?xml version="1.0" encoding="iso-8859-1"?>
<!-- Generator: Adobe Illustrator 19.0.0, SVG Export Plug-In . SVG Version: 6.00 Build 0)  -->
<svg xmlns="http://www.w3.org/2000/svg" xmlns:xlink="http://www.w3.org/1999/xlink" version="1.1" id="Layer_1" x="0px" y="0px" viewBox="0 0 512 512" style="enable-background:new 0 0 512 512;" xml:space="preserve" width="512" height="512">
<g>
	<g>
		<g>
			<path style="fill:#BFD749;" d="M491.5,348.518c0,16.61-10.65,30.73-25.5,35.89c-3.91,1.37-8.12,2.11-12.5,2.11     s-8.59-0.74-12.5-2.11c-14.85-5.16-25.5-19.28-25.5-35.89c0-20.99,17.01-38,38-38S491.5,327.528,491.5,348.518z"/>
		</g>
		<path style="fill:#84C341;" d="M461.5,383.39c-14.85-5.16-25.5-19.28-25.5-35.89c0-16.769,10.862-30.988,25.931-36.032    c-2.713-0.615-5.532-0.95-8.431-0.95c-20.99,0-38,17.01-38,38c0,16.61,10.65,30.73,25.5,35.89c3.91,1.37,8.12,2.11,12.5,2.11    c4.217,0,8.274-0.692,12.061-1.966C464.177,384.237,462.82,383.853,461.5,383.39z"/>
		<g>
			<path style="fill:#B3B5BC;" d="M458.2,331.31c3.71,5.82,1.99,13.55-3.83,17.25c-5.83,3.71-13.55,1.99-17.26-3.83l-12.39-19.47     l-15.489-24.437c8.08-2.76,15.254-7.517,21.044-13.537l15.795,24.964L458.2,331.31z"/>
		</g>
		<g>
			<path style="fill:#9C9FA7;" d="M447.838,338.328l-12.39-19.47l-14.916-23.533c-3.505,2.264-7.291,4.128-11.301,5.497     l15.489,24.437l12.39,19.47c3.71,5.82,11.43,7.54,17.26,3.83c1.816-1.154,3.232-2.701,4.209-4.46     C454.384,344.162,450.258,342.125,447.838,338.328z"/>
		</g>
		<path style="fill:#B4E3F5;" d="M160,225.5H73h-2.5v186c0,25.41,20.59,46,46,46c5.84,0,11.42-1.09,16.56-3.08    c5.14-1.98,9.83-4.87,13.89-8.45l15.55-21.539V381.18V225.5H160z"/>
		<path style="fill:#83D3F0;" d="M104.08,411.5v-186H73h-2.5v186c0,25.41,20.59,46,46,46c5.84,0,11.42-1.09,16.56-3.08    c0.077-0.03,0.152-0.064,0.229-0.094C116.19,447.618,104.08,430.982,104.08,411.5z"/>
		<g id="XMLID_8_">
			<g>
				<g id="XMLID_9_">
					<g>
						<g>
							<path style="fill:#B3B5BC;" d="M356.02,267.15L291,267.27v-25l64.95-0.12c-0.95,3.96-1.45,8.1-1.45,12.35         C354.5,258.86,355.03,263.1,356.02,267.15z"/>
						</g>
						<path style="fill:#9C9FA7;" d="M314.92,244.588v-2.362L291,242.27v25l65.02-0.12c-0.877-3.586-1.368-7.328-1.475-11.163        l-28.153,0.052C320.06,256.051,314.92,250.92,314.92,244.588z"/>
						<g>
							<path style="fill:#BB7A58;" d="M504.5,468.53v17.94c0,6.09-4.94,11.03-11.03,11.03H18.53c-6.09,0-11.03-4.94-11.03-11.03         v-17.94c0-6.09,4.94-11.03,11.03-11.03h97.97h223.45h153.52C499.56,457.5,504.5,462.44,504.5,468.53z"/>
						</g>
						<path style="fill:#AA624F;" d="M43.53,477.5c-6.09,0-11.03-4.94-11.03-11.03v-8.97H18.53c-6.09,0-11.03,4.94-11.03,11.03        v17.94c0,6.09,4.94,11.03,11.03,11.03h474.94c6.09,0,11.03-4.94,11.03-11.03v-8.97H43.53z"/>
						<g>
							<path style="fill:#4CB8E9;" d="M173.5,222c0,3.73-1.51,7.1-3.95,9.55c-2.45,2.44-5.82,3.95-9.55,3.95H73         c-7.46,0-13.5-6.04-13.5-13.5c0-3.73,1.51-7.1,3.95-9.55c2.45-2.44,5.82-3.95,9.55-3.95h87         C167.46,208.5,173.5,214.54,173.5,222z"/>
						</g>
						<path style="fill:#0AA5DC;" d="M97.85,222c0-3.73,1.51-7.1,3.95-9.55c2.45-2.44,5.82-3.95,9.55-3.95H73        c-3.73,0-7.1,1.51-9.55,3.95c-2.44,2.45-3.95,5.82-3.95,9.55c0,7.46,6.04,13.5,13.5,13.5h38.35        C103.89,235.5,97.85,229.46,97.85,222z"/>
						<g>
							<circle style="fill:#EF5227;" cx="95.5" cy="128.5" r="23"/>
						</g>
						<path style="fill:#E43A26;" d="M88.35,128.5c0-9.915,6.278-18.367,15.075-21.597c-2.471-0.907-5.14-1.403-7.925-1.403        c-12.7,0-23,10.3-23,23s10.3,23,23,23c2.785,0,5.454-0.496,7.925-1.403C94.628,146.867,88.35,138.415,88.35,128.5z"/>
						<g>
							<path style="fill:#BFD749;" d="M202.5,14.5c20.99,0,38,17.01,38,38s-17.01,38-38,38s-38-17.01-38-38S181.51,14.5,202.5,14.5z         "/>
						</g>
						<path style="fill:#84C341;" d="M191.5,52.5c0-16.234,10.179-30.079,24.5-35.524c-4.196-1.595-8.744-2.476-13.5-2.476        c-20.99,0-38,17.01-38,38s17.01,38,38,38c4.756,0,9.304-0.881,13.5-2.476C201.679,82.579,191.5,68.734,191.5,52.5z"/>
						<g>
							<circle style="fill:#BFD749;" cx="304.5" cy="77.5" r="12"/>
						</g>
						<path style="fill:#84C341;" d="M302.92,77.5c0-4.76,2.775-8.858,6.79-10.798c-1.577-0.762-3.34-1.202-5.21-1.202        c-6.63,0-12,5.37-12,12s5.37,12,12,12c1.87,0,3.633-0.44,5.21-1.202C305.695,86.358,302.92,82.26,302.92,77.5z"/>
					</g>
				</g>
			</g>
		</g>
		<g>
			<path style="fill:#EF5227;" d="M137.5,314.046v96.938c0,11.373-8.827,21.071-20.191,21.5     C105.362,432.936,95.5,423.349,95.5,411.5v-97.454c0-0.854,0.692-1.546,1.546-1.546h38.907     C136.808,312.5,137.5,313.192,137.5,314.046z"/>
		</g>
		<path style="fill:#E43A26;" d="M104.08,411.5v-99h-7.034c-0.854,0-1.546,0.692-1.546,1.546V411.5    c0,8.687,5.305,16.153,12.843,19.344C105.611,424.964,104.08,418.413,104.08,411.5z"/>
		<path style="fill:#A3DCEF;" d="M366.17,406.83l-63.61-92.32c-2.32-3.36-3.56-7.34-3.56-11.42v-35.82v-25v-96.62h-87v157.44    c0,4.08-1.24,8.06-3.56,11.42l-45.94,66.67l-17.67,25.65c-8.92,12.94-6.76,28.77,2.12,39.14c5.67,6.63,14.08,11.03,24.1,11.03    h168.9C365.65,457,380.79,428.04,366.17,406.83z"/>
		<path style="fill:#83D3F0;" d="M183.949,445.97c-8.88-10.37-11.04-26.2-2.12-39.14l17.67-25.65l45.94-66.67    c2.32-3.36,3.56-7.34,3.56-11.42V145.65H212v157.44c0,4.08-1.24,8.06-3.56,11.42l-45.94,66.67l-17.67,25.65    c-8.92,12.94-6.76,28.77,2.12,39.14c5.67,6.63,14.08,11.03,24.1,11.03h36.999C198.029,457,189.619,452.6,183.949,445.97z"/>
		<g>
			<path style="fill:#BFD749;" d="M251.5,192.5c8.84,0,16,7.16,16,16s-7.16,16-16,16s-16-7.16-16-16S242.66,192.5,251.5,192.5z"/>
		</g>
		<g>
			<circle style="fill:#BFD749;" cx="259.5" cy="293.5" r="22"/>
		</g>
		<path style="fill:#84C341;" d="M249.628,207.5c0-5.894,3.193-11.028,7.935-13.804c-1.871-0.766-3.915-1.196-6.063-1.196    c-8.84,0-16,7.16-16,16c0,8.84,7.16,16,16,16c2.946,0,5.696-0.809,8.065-2.196C253.736,219.915,249.628,214.193,249.628,207.5z"/>
		<path style="fill:#84C341;" d="M255,289c0-6.949,3.226-13.142,8.258-17.174c-1.222-0.21-2.476-0.326-3.758-0.326    c-12.15,0-22,9.85-22,22c0,12.15,9.85,22,22,22c5.201,0,9.977-1.809,13.742-4.826C262.883,308.89,255,299.868,255,289z"/>
		<g>
			<path style="fill:#BFD749;" d="M341.49,423.05c0.29,0.42,0.65,0.94,0.12,1.94c-0.53,1.01-1.16,1.01-1.66,1.01h-168.9     c-0.5,0-1.13,0-1.66-1.01c-0.53-1-0.17-1.52,0.12-1.94l48.86-70.67c2.11-3.06,5.59-4.88,9.31-4.88h55.64     c3.72,0,7.2,1.82,9.31,4.88L341.49,423.05z"/>
		</g>
		<circle style="fill:#4CB8E9;" cx="394.5" cy="254.25" r="53.25"/>
		<path style="fill:#0AA5DC;" d="M370,254.25c0-24.426,16.452-44.996,38.875-51.271C404.3,201.699,399.483,201,394.5,201    c-29.409,0-53.25,23.841-53.25,53.25c0,29.409,23.841,53.25,53.25,53.25c4.983,0,9.8-0.699,14.375-1.979    C386.452,299.246,370,278.676,370,254.25z"/>
		<g>
			<path style="fill:#B3B5BC;" d="M407,203v14.5c0,6.9-5.6,12.5-12.5,12.5s-12.5-5.6-12.5-12.5V203v-42.61     c3.91,1.37,8.12,2.11,12.5,2.11s8.59-0.74,12.5-2.11V203z"/>
		</g>
		<g>
			<path style="fill:#9C9FA7;" d="M392.818,217.5V203v-40.538c-3.776-0.164-7.411-0.879-10.818-2.072V203v14.5     c0,6.9,5.6,12.5,12.5,12.5c1.94,0,3.77-0.456,5.409-1.245C395.719,226.735,392.818,222.46,392.818,217.5z"/>
		</g>
		<g>
			<path style="fill:#EF5227;" d="M432.5,132.5c0,16.61-10.65,30.73-25.5,35.89c-3.91,1.37-8.12,2.11-12.5,2.11     s-8.59-0.74-12.5-2.11c-14.85-5.16-25.5-19.28-25.5-35.89c0-20.99,17.01-38,38-38S432.5,111.51,432.5,132.5z"/>
		</g>
		<path style="fill:#E43A26;" d="M382,132.5c0-16.516,10.535-30.562,25.25-35.802c-3.986-1.419-8.276-2.198-12.75-2.198    c-20.99,0-38,17.01-38,38c0,16.61,10.65,30.73,25.5,35.89c3.91,1.37,8.12,2.11,12.5,2.11s8.59-0.74,12.5-2.11    c0.084-0.029,0.166-0.063,0.25-0.092C392.532,163.066,382,149.016,382,132.5z"/>
		<g>
			<path style="fill:#4CB8E9;" d="M314.92,139.5v1.65c0,7.46-6.04,13.5-13.5,13.5H299h-87h-2.42c-7.46,0-13.5-6.04-13.5-13.5v-1.65     c0-7.46,6.04-13.5,13.5-13.5h91.84C308.88,126,314.92,132.04,314.92,139.5z"/>
		</g>
		<path style="fill:#0AA5DC;" d="M240.5,141.15v-1.65c0-7.46,6.04-13.5,13.5-13.5h-44.42c-7.46,0-13.5,6.04-13.5,13.5v1.65    c0,7.46,6.04,13.5,13.5,13.5H212h42C246.54,154.65,240.5,148.61,240.5,141.15z"/>
		<path style="fill:#84C341;" d="M215.556,385.737l20.236-38.237h-8.111c-3.72,0-7.2,1.82-9.31,4.88l-48.86,70.67    c-0.29,0.42-0.65,0.94-0.12,1.94c0.53,1.01,1.16,1.01,1.66,1.01h94.578c-12.3-4.018-26.937-8.734-38.788-12.537    C215.266,409.749,209.87,396.48,215.556,385.737z"/>
	</g>
	<g>
		<path d="M212.198,348.116l-48.86,70.669c-2.808,4.061-1.576,7.815-0.593,9.689c0.983,1.877,3.37,5.025,8.307,5.025h168.896    c4.937,0,7.323-3.148,8.306-5.022c0.984-1.876,2.215-5.631-0.592-9.69l-48.86-70.671c-3.513-5.082-9.3-8.116-15.478-8.116h-55.647    C221.498,340,215.711,343.034,212.198,348.116z M286.464,356.646l42.764,61.854H181.772l42.764-61.854    c0.713-1.031,1.887-1.646,3.14-1.646h55.647C284.577,355,285.751,355.616,286.464,356.646z"/>
		<path d="M259.5,264c-16.266,0-29.5,13.234-29.5,29.5s13.234,29.5,29.5,29.5s29.5-13.234,29.5-29.5S275.766,264,259.5,264z     M259.5,308c-7.995,0-14.5-6.505-14.5-14.5s6.505-14.5,14.5-14.5s14.5,6.505,14.5,14.5S267.495,308,259.5,308z"/>
		<path d="M251.5,232c12.958,0,23.5-10.542,23.5-23.5S264.458,185,251.5,185S228,195.542,228,208.5S238.542,232,251.5,232z     M251.5,200c4.687,0,8.5,3.813,8.5,8.5s-3.813,8.5-8.5,8.5s-8.5-3.813-8.5-8.5S246.813,200,251.5,200z"/>
		<path d="M493.474,450H370.488c1.613-2.012,3.055-4.211,4.3-6.581c6.859-13.057,5.923-28.708-2.442-40.849l-63.611-92.312    c-1.458-2.117-2.229-4.597-2.229-7.172V274.75l30.949-0.088C345.777,298.139,368.206,315,394.5,315    c4.742,0,9.359-0.549,13.789-1.586l7.402,11.63C411.349,332.052,409,340.204,409,348.5c0,24.538,19.962,44.5,44.5,44.5    s44.5-19.962,44.5-44.5S478.038,304,453.5,304c-1.232,0-2.464,0.052-3.691,0.153l-7.792-12.244    C450.144,281.608,455,268.61,455,254.5c0-26.018-16.379-48.714-40.5-57.106v-24.03c15.09-7.415,25.5-22.946,25.5-40.864    c0-25.089-20.411-45.5-45.5-45.5S349,107.411,349,132.5c0,17.917,10.41,33.448,25.5,40.864v24.03    c-17.709,6.161-31.245,20.033-37.189,37.269l-30.806,0.087v-20.557c0-4.142-3.358-7.5-7.5-7.5s-7.5,3.358-7.5,7.5v88.893    c0,5.628,1.687,11.052,4.878,15.684l63.611,92.312c5.272,7.651,5.838,17.132,1.515,25.362    c-4.295,8.176-12.355,13.057-21.561,13.057H171.052c-7.1,0-13.517-2.904-18.052-7.983c-0.133-0.18-0.274-0.356-0.425-0.527    c-0.094-0.106-0.19-0.209-0.289-0.308c-1.052-1.29-1.989-2.707-2.794-4.239c-4.324-8.23-3.757-17.711,1.515-25.361l17.669-25.641    c0.017-0.024,0.034-0.049,0.05-0.073l45.892-66.599c3.191-4.631,4.878-10.055,4.878-15.683V162.149h72.01v22.043    c0,4.142,3.358,7.5,7.5,7.5s7.5-3.358,7.5-7.5v-22.666c9.131-2.279,15.917-10.55,15.917-20.378V139.5c0-11.58-9.42-21-21-21    h-91.843c-11.58,0-21,9.42-21,21v1.649c0,9.827,6.785,18.099,15.917,20.378v141.558c0,2.575-0.771,5.055-2.229,7.172L170,357.081    V240.463c6.547-3.56,11-10.501,11-18.463c0-11.58-9.42-21-21-21H73c-11.58,0-21,9.42-21,21c0,7.962,4.453,14.903,11,18.463V353.5    c0,4.142,3.358,7.5,7.5,7.5s7.5-3.358,7.5-7.5V243h77v135.849l-10,14.512V312.5c0-4.142-3.358-7.5-7.5-7.5h-42    c-4.142,0-7.5,3.358-7.5,7.5v99c0,15.715,12.785,28.5,28.5,28.5c6.097,0,11.752-1.925,16.392-5.198    c0.757,2.95,1.862,5.842,3.32,8.617c0.152,0.29,0.308,0.578,0.466,0.862C130.647,448,123.673,450,116.5,450    C95.271,450,78,432.729,78,411.5v-28c0-4.142-3.358-7.5-7.5-7.5s-7.5,3.358-7.5,7.5v28c0,15.102,6.29,28.763,16.388,38.5H18.526    C8.311,450,0,458.311,0,468.526v17.948C0,496.689,8.311,505,18.526,505h474.948c10.215,0,18.526-8.311,18.526-18.526v-17.948    C512,458.311,503.689,450,493.474,450z M431.079,302.66l8.594,13.503c0.042,0.069,0.086,0.137,0.13,0.204l12.071,18.967    c0.717,1.126,0.953,2.465,0.663,3.769s-1.07,2.417-2.197,3.134c-1.126,0.718-2.464,0.951-3.769,0.663    c-1.304-0.29-2.417-1.07-3.134-2.197l-12.313-19.346c-0.055-0.09-0.111-0.179-0.17-0.267l-8.304-13.048    C425.613,306.479,428.431,304.676,431.079,302.66z M483,348.5c0,16.267-13.233,29.5-29.5,29.5S424,364.767,424,348.5    c0-2.919,0.415-5.762,1.226-8.475l5.558,8.732c2.868,4.507,7.32,7.627,12.535,8.786c1.456,0.324,2.921,0.483,4.377,0.483    c3.76,0,7.45-1.067,10.7-3.135c4.507-2.869,7.626-7.32,8.785-12.535s0.217-10.569-2.652-15.076l-4.857-7.631    C472.986,322.495,483,334.35,483,348.5z M364,132.5c0-16.818,13.682-30.5,30.5-30.5s30.5,13.682,30.5,30.5    c0,13.242-8.482,24.539-20.298,28.745c-0.117,0.038-0.234,0.078-0.348,0.122c-3.092,1.058-6.407,1.633-9.853,1.633    s-6.761-0.575-9.853-1.633c-0.115-0.043-0.231-0.084-0.348-0.122C372.482,157.039,364,145.742,364,132.5z M394.5,178    c1.69,0,3.358-0.093,5-0.274v25.135c-0.002,0.097-0.002,0.194,0,0.29V217.5c0,2.757-2.243,5-5,5s-5-2.243-5-5v-14.349    c0.002-0.097,0.002-0.193,0-0.29v-25.135C391.142,177.907,392.81,178,394.5,178z M374.5,213.611v3.889c0,11.028,8.972,20,20,20    s20-8.972,20-20v-3.889c15.39,7.482,25.5,23.16,25.5,40.889c0,19.857-12.786,36.783-30.558,42.979    c-0.172,0.052-0.343,0.11-0.512,0.175c-4.536,1.521-9.388,2.346-14.43,2.346c-21.254,0-39.15-14.648-44.125-34.379    c-0.038-0.183-0.082-0.364-0.133-0.542c-0.812-3.396-1.242-6.938-1.242-10.579c0-3.465,0.386-6.851,1.122-10.114    c0.101-0.325,0.181-0.659,0.238-1.001C353.603,230.394,362.427,219.481,374.5,213.611z M334.19,249.671    c-0.125,1.595-0.19,3.205-0.19,4.829c0,1.742,0.074,3.467,0.219,5.171l-27.714,0.079v-10L334.19,249.671z M203.579,139.5    c0-3.309,2.691-6,6-6h91.843c3.309,0,6,2.691,6,6v1.649c0,3.309-2.691,6-6,6h-91.843c-3.309,0-6-2.691-6-6V139.5z M73,228    c-3.309,0-6-2.691-6-6s2.691-6,6-6h87c3.309,0,6,2.691,6,6s-2.691,6-6,6H73z M130,411.5c0,7.444-6.056,13.5-13.5,13.5    s-13.5-6.056-13.5-13.5V320h27V411.5z M497,486.474c0,1.944-1.582,3.526-3.526,3.526H18.526c-1.944,0-3.526-1.582-3.526-3.526    v-17.948c0-1.944,1.582-3.526,3.526-3.526h474.948c1.944,0,3.526,1.582,3.526,3.526V486.474z"/>
		<path d="M95.5,159c16.818,0,30.5-13.682,30.5-30.5S112.318,98,95.5,98S65,111.682,65,128.5S78.682,159,95.5,159z M95.5,113    c8.547,0,15.5,6.953,15.5,15.5S104.047,144,95.5,144S80,137.047,80,128.5S86.953,113,95.5,113z"/>
		<path d="M304.5,97c10.752,0,19.5-8.748,19.5-19.5S315.252,58,304.5,58S285,66.748,285,77.5S293.748,97,304.5,97z M304.5,73    c2.481,0,4.5,2.019,4.5,4.5s-2.019,4.5-4.5,4.5s-4.5-2.019-4.5-4.5S302.019,73,304.5,73z"/>
		<path d="M202.5,98c25.089,0,45.5-20.411,45.5-45.5S227.589,7,202.5,7S157,27.411,157,52.5S177.411,98,202.5,98z M202.5,22    c16.818,0,30.5,13.682,30.5,30.5S219.318,83,202.5,83S172,69.318,172,52.5S185.682,22,202.5,22z"/>
	</g>
</g>















</svg>
