<svg id="Capa_1" enable-background="new 0 0 511.58 511.58" height="512" viewBox="0 0 511.58 511.58" width="512" xmlns="http://www.w3.org/2000/svg"><g><g><path d="m311.425 432.104h-111.198l14.512-89.739h82.174z" fill="#496585"/><path d="m504.117 64.017v281.22c0 6.62-5.37 12-12 12h-472.58c-6.63 0-12-5.38-12-12v-281.22c0-6.63 5.37-12 12-12h472.58c6.63 0 12 5.37 12 12z" fill="#b3dafe"/><path d="m44.537 357.237h-25c-6.63 0-12-5.38-12-12v-281.22c0-6.63 5.37-12 12-12h25c-6.63 0-12 5.37-12 12v281.22c0 6.62 5.37 12 12 12z" fill="#8ac9fe"/><path d="m239.744 342.36-14.52 89.74h-25l14.52-89.74z" fill="#3a4e66"/><path d="m372.81 243.224h-233.968c-5.523 0-10-4.477-10-10v-209.348c0-5.523 4.477-10 10-10h233.968c5.523 0 10 4.477 10 10v209.348c0 5.523-4.477 10-10 10z" fill="#f2fbff"/><path d="m504.117 292.047v53.19c0 6.62-5.37 12-12 12h-472.58c-6.63 0-12-5.38-12-12v-53.19z" fill="#7397b8"/><path d="m163.847 243.227h-25c-5.53 0-10-4.48-10-10v-209.35c0-5.52 4.47-10 10-10h25c-5.53 0-10 4.48-10 10v209.35c0 5.52 4.47 10 10 10z" fill="#d8ecfe"/><path d="m44.537 357.237h-25c-6.63 0-12-5.38-12-12v-53.19h25v53.19c0 6.62 5.37 12 12 12z" fill="#496585"/><path d="m478.444 455.765v-29.891c0-10.624-9.145-18.865-19.726-17.914-72.873 6.553-156.907-25.097-199.102-4.882-2.348 1.125-5.301 1.125-7.649 0-42.195-20.215-126.229 11.435-199.102 4.882-10.581-.952-19.726 7.29-19.726 17.914v29.891l34.878 25.799h352.957z" fill="#f2fbff"/><path d="m280.92 397.226v84.34h-25.13v-72.37c0-2.6 1.48-4.99 3.83-6.12 6.24-2.99 13.4-4.84 21.3-5.85z" fill="#d8ecfe"/><path d="m58.139 455.77 34.88 25.79h-25l-34.88-25.79v-29.9c0-10.62 9.14-18.86 19.72-17.91 5.79.52 11.65.8 17.56.88-7.09 2.38-12.28 9.03-12.28 17.03z" fill="#d8ecfe"/><path d="m496.071 455.765h-210.04c-1.253 0-2.434.587-3.19 1.587l-7.413 9.801c-.756 1-1.937 1.587-3.19 1.587h-32.894c-1.253 0-2.434-.587-3.19-1.587l-7.412-9.801c-.756-1-1.937-1.587-3.19-1.587h-210.041c-4.418 0-8 3.582-8 8v26.781c0 4.418 3.582 8 8 8h480.56c4.418 0 8-3.582 8-8v-26.781c0-4.418-3.582-8-8-8z" fill="#8795de"/><path d="m32.509 463.77v26.78c0 4.41 3.58 8 8 8h-25c-4.42 0-8-3.59-8-8v-26.78c0-4.42 3.58-8 8-8h25c-4.42 0-8 3.58-8 8z" fill="#6c7fd8"/></g><g><path d="m492.08 364.72c10.752 0 19.5-8.748 19.5-19.5v-281.22c0-10.752-8.748-19.5-19.5-19.5h-101.81v-20.64c0-9.649-7.851-17.5-17.5-17.5h-233.96c-9.649 0-17.5 7.851-17.5 17.5v20.64h-101.81c-10.752 0-19.5 8.748-19.5 19.5v15.75c0 4.142 3.358 7.5 7.5 7.5s7.5-3.358 7.5-7.5v-15.75c0-2.481 2.019-4.5 4.5-4.5h101.81v173.71c0 9.649 7.851 17.5 17.5 17.5h233.96c9.649 0 17.5-7.851 17.5-17.5v-17.85c0-4.142-3.358-7.5-7.5-7.5s-7.5 3.358-7.5 7.5v17.85c0 1.378-1.122 2.5-2.5 2.5h-233.96c-1.378 0-2.5-1.122-2.5-2.5v-209.35c0-1.378 1.122-2.5 2.5-2.5h233.96c1.378 0 2.5 1.122 2.5 2.5v156.5c0 4.142 3.358 7.5 7.5 7.5s7.5-3.358 7.5-7.5v-120.86h101.81c2.481 0 4.5 2.019 4.5 4.5v220.527h-481.58v-169.777c0-4.142-3.358-7.5-7.5-7.5s-7.5 3.358-7.5 7.5v230.47c0 10.752 8.748 19.5 19.5 19.5h183.989l-3.819 23.61c-15.15.922-31.652 3.112-49.139 5.437-32.25 4.287-65.597 8.72-96.997 5.896-7.172-.641-14.325 1.763-19.623 6.605-5.259 4.807-8.275 11.651-8.275 18.778v22.393h-10.126c-8.547 0-15.5 6.953-15.5 15.5v26.78c0 8.547 6.953 15.5 15.5 15.5h417.72c4.142 0 7.5-3.358 7.5-7.5s-3.358-7.5-7.5-7.5h-417.72c-.276 0-.5-.224-.5-.5v-26.78c0-.276.224-.5.5-.5h208.296l6.374 8.429c2.162 2.843 5.586 4.541 9.16 4.541h32.9c3.574 0 6.999-1.698 9.172-4.557l6.361-8.414h208.297c.276 0 .5.224.5.5v26.78c0 .276-.224.5-.5.5h-27.84c-4.142 0-7.5 3.358-7.5 7.5s3.358 7.5 7.5 7.5h27.84c8.547 0 15.5-6.953 15.5-15.5v-26.78c0-8.547-6.953-15.5-15.5-15.5h-10.127v-22.393c0-7.127-3.016-13.971-8.275-18.778-5.298-4.843-12.453-7.254-19.623-6.605-31.4 2.824-64.747-1.609-96.997-5.896-17.487-2.325-33.989-4.516-49.139-5.437l-3.819-23.61h183.99zm-477.08-19.5v-45.693h481.58v45.693c0 2.481-2.019 4.5-4.5 4.5h-472.58c-2.481 0-4.5-2.018-4.5-4.5zm444.388 69.383c3.038-.267 5.931.7 8.159 2.737 2.189 2.001 3.396 4.739 3.396 7.707v22.393h-184.913c-3.57 0-6.994 1.701-9.173 4.567l-6.354 8.403h-29.428l-6.365-8.419c-2.167-2.85-5.591-4.551-9.161-4.551h-184.912v-22.393c0-2.968 1.206-5.706 3.396-7.707 2.229-2.038 5.128-3.004 8.159-2.737 33.061 2.972 67.252-1.572 100.317-5.967 38.156-5.072 74.212-9.864 95.781.174v18.816c0 4.142 3.358 7.5 7.5 7.5s7.5-3.358 7.5-7.5v-18.816c21.571-10.038 57.626-5.245 95.781-.174 33.065 4.396 67.256 8.943 100.317 5.967zm-162.746-26.723c-15.312.107-28.894 2.159-40.268 7.608-.197.095-.392.193-.584.297-.192-.104-.387-.202-.584-.297-11.373-5.449-24.956-7.501-40.267-7.608l3.746-23.16h74.212z"/><path d="m245.127 113.063c2.982 0 5.802-1.791 6.972-4.73l23.487-59.054c1.531-3.849-.349-8.21-4.197-9.741-3.852-1.529-8.21.348-9.741 4.197l-23.487 59.054c-1.531 3.849.349 8.21 4.197 9.741.909.362 1.847.533 2.769.533z"/><path d="m329.11 71.627-15.773-26.161c-2.138-3.547-6.748-4.69-10.295-2.55-3.547 2.139-4.689 6.748-2.55 10.295l13.484 22.365-13.552 23.394c-2.076 3.584-.854 8.173 2.73 10.249 1.184.686 2.477 1.012 3.752 1.012 2.588 0 5.106-1.341 6.497-3.742l15.773-27.229c1.371-2.366 1.345-5.291-.066-7.633z"/><path d="m208.539 42.916c-3.547-2.14-8.157-.996-10.295 2.55l-15.774 26.161c-1.412 2.342-1.438 5.266-.067 7.632l15.773 27.229c1.391 2.401 3.908 3.742 6.497 3.742 1.276 0 2.569-.326 3.752-1.012 3.584-2.076 4.807-6.665 2.73-10.249l-13.551-23.394 13.484-22.365c2.14-3.546.998-8.155-2.549-10.294z"/><path d="m320.578 133.061h-129.576c-4.142 0-7.5 3.358-7.5 7.5s3.358 7.5 7.5 7.5h129.575c4.142 0 7.5-3.358 7.5-7.5s-3.357-7.5-7.499-7.5z"/><path d="m320.578 168.061h-129.576c-4.142 0-7.5 3.358-7.5 7.5s3.358 7.5 7.5 7.5h129.575c4.142 0 7.5-3.358 7.5-7.5s-3.357-7.5-7.499-7.5z"/><path d="m320.578 203.061h-129.576c-4.142 0-7.5 3.358-7.5 7.5s3.358 7.5 7.5 7.5h129.575c4.142 0 7.5-3.358 7.5-7.5s-3.357-7.5-7.499-7.5z"/></g></g></svg>