<svg id="Layer_1" enable-background="new 0 0 512.064 512.064" height="512" viewBox="0 0 512.064 512.064" width="512" xmlns="http://www.w3.org/2000/svg"><g><g><path d="m412.863 422.658 8.854-16.936c3.835-.19 7.708-.723 11.583-1.625 4.717-1.098 9.192-2.689 13.39-4.699l14.672 10.827c2.757 2.034 6.576 1.807 9.087-.539l14.992-14.008c2.512-2.347 3.003-6.148 1.17-9.044l-10.199-16.112c3.946-7.623 6.41-16.04 7.104-24.796l16.733-7.341c3.145-1.38 4.869-4.805 4.103-8.151l-4.573-19.969c-.766-3.346-3.806-5.662-7.232-5.511l-19.041.836c-4.711-7.37-10.826-13.621-17.89-18.469l2.069-18.185c.388-3.414-1.706-6.613-4.984-7.611l-19.565-5.961c-3.278-.999-6.809.486-8.402 3.533l-8.853 16.936c-3.835.19-7.708.723-11.583 1.625-4.717 1.098-9.192 2.689-13.39 4.699l-14.672-10.827c-2.757-2.034-6.576-1.808-9.087.539l-14.992 14.008c-2.512 2.347-3.003 6.148-1.17 9.044l10.199 16.112c-3.946 7.623-6.41 16.04-7.103 24.796l-16.733 7.341c-3.145 1.38-4.869 4.805-4.103 8.151l4.573 19.968c.766 3.346 3.806 5.662 7.232 5.511l19.041-.836c4.711 7.369 10.826 13.621 17.89 18.468l-2.069 18.185c-.388 3.414 1.706 6.613 4.984 7.611l19.565 5.961c3.277 1.001 6.807-.484 8.4-3.531zm-23.556-75.013c-3.733-16.301 6.444-32.591 22.731-36.384 16.288-3.793 32.518 6.347 36.252 22.649 3.733 16.301-6.444 32.591-22.731 36.384-16.289 3.793-32.519-6.347-36.252-22.649z" fill="#66a8ff"/><path d="m504.351 330.233-4.573-19.969c-.766-3.346-3.806-5.662-7.232-5.511l-19.041.836c-4.711-7.369-10.826-13.621-17.89-18.469l2.068-18.185c.388-3.414-1.706-6.613-4.984-7.611l-19.565-5.961c-3.278-.999-6.809.486-8.402 3.533l-8.602 16.454c10.859 11.265 18.507 25.632 21.492 41.648 5.189 4.109 9.071 9.944 10.666 16.91 3.354 14.642-4.519 29.267-17.958 34.844-10.105 20.078-28.233 35.409-50.184 41.794l-.236 2.071c-.388 3.414 1.706 6.613 4.984 7.611l19.565 5.961c3.278.999 6.809-.486 8.402-3.533l8.854-16.936c3.835-.19 7.708-.723 11.583-1.625 4.717-1.098 9.192-2.689 13.39-4.699l14.672 10.827c2.757 2.034 6.576 1.807 9.087-.539l14.992-14.008c2.512-2.347 3.003-6.148 1.17-9.044l-10.199-16.112c3.946-7.623 6.41-16.04 7.104-24.796l16.733-7.341c3.146-1.379 4.871-4.805 4.104-8.15z" fill="#4d99ff"/><g><g><g><g><g><g><path d="m7.532 504.5v-117.988c0-44.101 35.751-79.852 79.852-79.852h114.107c44.101 0 79.852 35.751 79.852 79.852v117.988z" fill="#e8f4ff"/></g></g><path d="m144.281 340.705-25.037-41.038v-45.214h50.074l.381 45.214z" fill="#fff6db"/><g><path d="m247.977 186.966h-206.866c-9.427 0-17.069-7.642-17.069-17.069 0-9.427 7.642-17.069 17.069-17.069h206.866c9.427 0 17.069 7.642 17.069 17.069 0 9.427-7.642 17.069-17.069 17.069z" fill="#fff6db"/><path d="m144.544 280.144c-49.659 0-89.916-40.257-89.916-89.916v-66.438c0-49.659 40.257-89.916 89.916-89.916 49.659 0 89.916 40.257 89.916 89.916v66.438c0 49.659-40.257 89.916-89.916 89.916z" fill="#fff6db"/><path d="m144.544 33.874c-6.875 0-13.568.775-20 2.236 40.032 9.093 69.916 44.896 69.916 87.68v66.438c0 42.785-29.884 78.587-69.916 87.68 6.432 1.461 13.125 2.236 20 2.236 49.659 0 89.916-40.257 89.916-89.916v-66.438c0-49.659-40.257-89.916-89.916-89.916z" fill="#f7eccb"/><path d="m241.564 113.004h-194.567c0-46.127 37.393-83.52 83.52-83.52h27.527c46.127-.001 83.52 37.393 83.52 83.52z" fill="#ffb938"/><path d="m158.044 29.483h-27.527c-2.1 0-4.175.104-6.237.256 43.211 3.194 77.283 39.237 77.283 83.264h40c.001-46.126-37.392-83.52-83.519-83.52z" fill="#fca90f"/><path d="m252.164 113.004h-65.686c-12.308 0-22.286-9.978-22.286-22.286v-70.65c0-6.941-5.627-12.568-12.568-12.568h-14.689c-6.941 0-12.568 5.627-12.568 12.568v70.65c0 12.308-9.978 22.286-22.286 22.286h-65.683c-6.941 0-12.568 5.627-12.568 12.568v14.689c0 6.941 5.627 12.567 12.567 12.567h215.767c6.941 0 12.567-5.627 12.567-12.567v-14.689c.001-6.942-5.626-12.568-12.567-12.568z" fill="#ffe645"/></g></g></g><path d="m7.532 504.5v-118.303c0-43.928 35.61-79.538 79.538-79.538l57.211 197.841 57.211-197.841h.314c43.928 0 79.538 35.61 79.538 79.538v118.303z" fill="#365dca"/><g><path d="m201.806 306.659h-.314l-2.646 9.152c25.266 13.324 42.499 39.836 42.499 70.385v118.304h40v-118.303c-.001-43.927-35.611-79.538-79.539-79.538z" fill="#284eb8"/></g><path d="m144.471 340.705-37.907 33.367-19.304-67.413 31.793-16.605z" fill="#dceaf7"/><path d="m144.544 340.705 37.907 33.367 19.304-67.413-31.793-16.605z" fill="#dceaf7"/><g fill="#66a8ff"><path d="m144.018 504.5h.263l-57.211-197.841-24.874 57.008 21.644 27.404-21.644 38.439 53.67 74.99"/><path d="m144.806 504.5h-.262l57.211-197.841 24.873 57.008-21.644 27.404 21.644 38.439-53.669 74.99"/></g></g><g><g><path d="m347.932 241.382 11.333-7.65c2.479 1.185 5.098 2.167 7.844 2.916 3.343.913 6.701 1.433 10.027 1.596l5.554 11.806c1.043 2.218 3.525 3.374 5.904 2.751l14.201-3.719c2.379-.623 3.981-2.848 3.812-5.295l-.941-13.611c5.076-3.456 9.49-7.916 12.905-13.193l13.03 1.07c2.449.201 4.699-1.369 5.355-3.735l3.913-14.125c.656-2.367-.47-4.858-2.678-5.929l-12.27-5.949c-.459-6.241-2.182-12.256-4.98-17.71l7.487-10.743c1.406-2.017 1.175-4.743-.549-6.486l-10.289-10.406c-1.724-1.744-4.451-2.01-6.49-.633l-11.333 7.65c-2.479-1.185-5.098-2.167-7.844-2.917-3.343-.913-6.701-1.433-10.027-1.596l-5.553-11.806c-1.043-2.218-3.524-3.374-5.904-2.751l-14.201 3.719c-2.379.623-3.981 2.848-3.812 5.295l.941 13.611c-5.076 3.457-9.49 7.917-12.905 13.193l-13.03-1.07c-2.449-.201-4.699 1.369-5.355 3.735l-3.913 14.125c-.656 2.367.47 4.858 2.678 5.929l12.27 5.949c.459 6.241 2.182 12.256 4.98 17.71l-7.487 10.743c-1.406 2.017-1.175 4.743.549 6.486l10.289 10.406c1.722 1.744 4.45 2.011 6.489.634zm14.201-54.27c2.657-9.591 12.593-15.24 22.193-12.619 9.6 2.622 15.229 12.522 12.573 22.112-2.657 9.591-12.593 15.24-22.193 12.619-9.601-2.621-15.23-12.521-12.573-22.112z" fill="#86db7b"/></g><path d="m265.578 245.915v258.585h220.162zm35 95.098 109.395 128.487h-109.395z" fill="#ffe645"/><g><path d="m265.578 245.915v54.099l35 41.108v-.109l109.395 128.487h-.093l29.8 35h46.06z" fill="#f5d60c"/></g></g></g><path d="m438.191 194.264-12.27-5.95c-.459-6.241-2.182-12.256-4.98-17.71l7.487-10.743c1.406-2.017 1.175-4.743-.549-6.486l-10.289-10.406c-1.724-1.744-4.451-2.01-6.49-.633l-11.333 7.65c-2.479-1.185-5.098-2.167-7.844-2.917-3.343-.913-6.701-1.433-10.027-1.596l-5.553-11.806c-1.043-2.218-3.524-3.374-5.904-2.751l-14.201 3.719c-.31.081-.605.192-.886.324 19.12 7.496 33.546 24.334 37.64 44.908 3.919 4.399 5.601 10.627 3.908 16.738-.758 2.735-2.122 5.134-3.887 7.128-2.662 13.514-9.781 25.419-19.76 34.141 1.297.173 2.594.307 3.884.37l5.554 11.806c1.043 2.218 3.524 3.374 5.904 2.751l14.202-3.719c2.379-.623 3.981-2.849 3.812-5.296l-.941-13.611c5.076-3.456 9.49-7.916 12.905-13.193l13.03 1.07c2.449.201 4.699-1.369 5.355-3.735l3.913-14.125c.654-2.365-.472-4.857-2.68-5.928z" fill="#6dd45f"/></g><g fill="#060606"><path d="m511.662 328.559-4.573-19.97c-1.575-6.874-7.847-11.654-14.872-11.329l-14.874.653c-3.917-5.379-8.532-10.155-13.784-14.265l1.578-13.867c.796-7.006-3.516-13.58-10.251-15.632l-19.564-5.96c-6.729-2.052-13.973.993-17.235 7.233l-6.936 13.268c-6.642.735-13.07 2.353-19.284 4.853l-11.179-8.25c-5.661-4.177-13.511-3.719-18.661 1.095l-14.993 14.008c-5.141 4.804-6.144 12.6-2.385 18.536l7.977 12.602c-2.658 5.977-4.474 12.225-5.438 18.662l-75.898-89.144c-4.43-5.2-13.211-1.973-13.211 4.862v73.831c-15.087-12.858-34.096-20.145-54.431-20.561l-26.185-13.676v-3.595c36.3-13.072 62.665-47.121 64.4-87.448h6.114c20.443 0 32.043-24.74 18.742-40.432 3.407-3.598 5.513-8.44 5.513-13.775v-14.688c0-12.708-11.641-20.81-23.491-20.068-1.644-20.024-9.824-38.927-23.48-53.874-14.144-15.482-33.018-25.521-53.566-28.615v-2.946c-.002-11.065-9.005-20.067-20.07-20.067h-14.688c-11.065 0-20.067 9.002-20.067 20.068v2.948c-12.018 1.823-23.658 6.057-34.015 12.431-8.467 5.212-.059 17.651 7.863 12.774 7.999-4.923 16.916-8.316 26.151-10.001v52.498c0 8.153-6.633 14.786-14.786 14.786h-47.203c.893-8.977 3.364-17.785 7.291-25.826 4.255-8.713-9.225-15.297-13.479-6.582-4.921 10.078-7.942 21.153-8.878 32.408-11.893-1.153-23.484 7.495-23.484 20.068v14.688c0 5.479 2.212 10.448 5.784 14.073-12.928 15.751-1.276 40.133 18.996 40.133h6.115c1.734 40.3 28.066 74.331 64.328 87.422v3.62l-26.176 13.671c-47.215.905-85.346 39.589-85.346 87.017v.314 117.99c0 9.697 15 9.697 15 0v-117.988c0-35.726 26.034-65.467 60.123-71.298l-19.833 45.453c-1.106 2.537-.727 5.477.988 7.648l18.527 23.458-19.177 34.058c-1.43 2.539-1.26 5.675.437 8.044l53.67 74.99c5.862 8.192 17.697-1.047 12.197-8.73l-50.891-71.106 19.302-34.278c1.493-2.651 1.236-5.941-.649-8.328l-18.858-23.876 14.769-33.847 50.885 175.962c.206 9.729 15.581 9.727 15.784-.002l50.918-175.883 14.734 33.768-18.857 23.876c-1.886 2.387-2.143 5.677-.649 8.328l19.301 34.278-50.89 71.106c-5.5 7.683 6.335 16.922 12.197 8.729l53.669-74.99c1.696-2.369 1.866-5.506.437-8.044l-19.176-34.058 18.526-23.458c1.715-2.171 2.095-5.111.988-7.648l-19.866-45.532c17.482 2.853 33.176 12.003 44.443 26.119v163.249c0 4.142 3.357 7.5 7.5 7.5h117.866c9.697 0 9.697-15 0-15h-110.368v-230.707l135.207 158.804c.006.007.011.013.017.02l61.202 71.883h-47.157c-9.697 0-9.697 15 0 15h63.393c5.702 0 10.104-7.202 5.711-12.362l-68.381-80.315 3.377-6.46c6.642-.735 13.07-2.353 19.284-4.853l11.179 8.249c5.663 4.178 13.512 3.718 18.66-1.095l14.992-14.007c5.141-4.803 6.145-12.598 2.387-18.537l-7.978-12.601c2.728-6.132 4.575-12.549 5.519-19.165l12.771-5.604c6.435-2.822 9.969-9.842 8.401-16.691zm-385.108-42.587c5.833 1.094 11.845 1.672 17.99 1.672 6.12 0 12.108-.573 17.918-1.658v2.292l-17.954 35.778-17.954-35.778zm51.616 74.34-24.328-21.414 19.404-38.667 19.372 10.118zm-33.662-9.647 29.056 25.576-29.282 101.261-29.19-100.943zm103.468-171.199h-6.017v-19.139h6.017c12.37 0 12.37 19.139 0 19.139zm-33.791-117.719c11.123 12.175 17.901 27.492 19.503 43.757h-47.21c-8.152 0-14.785-6.633-14.785-14.786v-52.5c16.284 2.953 31.193 11.16 42.492 23.529zm-182.855 63.824c0-2.794 2.273-5.068 5.067-5.068h65.686c16.424 0 29.786-13.362 29.786-29.786v-70.65c0-2.794 2.273-5.068 5.067-5.068h14.688c2.795 0 5.068 2.273 5.068 5.068v70.65c0 16.424 13.361 29.786 29.785 29.786h65.686c2.794 0 5.067 2.273 5.067 5.068v14.688c0 2.794-2.273 5.067-5.067 5.067h-215.766c-2.794 0-5.067-2.273-5.067-5.067zm.211 44.326c0-5.277 4.293-9.57 9.569-9.57h6.018v19.139h-6.018c-5.276 0-9.569-4.293-9.569-9.569zm30.587 20.331v-29.9h164.832v29.9c0 45.444-36.972 82.416-82.416 82.416s-82.416-36.972-82.416-82.416zm53.641 110.002 19.404 38.667-24.664 21.709-14.354-50.132zm364.732 38.627c-2.53 1.11-4.245 3.521-4.463 6.276-.607 7.674-2.723 15.055-6.287 21.94-1.226 2.368-1.103 5.208.323 7.46l10.04 15.858-14.562 13.605-14.41-10.633c-2.231-1.646-5.189-1.927-7.692-.73-6.823 3.267-14.566 5.225-22.104 5.598-2.656.131-5.044 1.66-6.275 4.016l-2.488 4.759-54.979-64.574c2.244-1.198 3.751-3.448 3.954-6.01.607-7.671 2.723-15.053 6.288-21.94 1.225-2.367 1.102-5.207-.324-7.458l-10.039-15.859 14.562-13.605 14.409 10.633c2.231 1.647 5.189 1.929 7.691.73 6.824-3.267 14.566-5.224 22.106-5.598 2.656-.131 5.044-1.66 6.275-4.017l8.719-16.679 18.952 5.773-2.034 17.87c-.313 2.757.921 5.462 3.209 7.032 6.357 4.363 11.679 9.855 15.814 16.325 1.441 2.254 3.973 3.569 6.648 3.453l18.706-.822 4.436 19.368z"/><path d="m438.845 308.689c-8.551-5.342-18.675-7.021-28.508-4.732-20.274 4.722-32.988 25.071-28.341 45.363 4.601 20.091 25.192 32.95 45.264 28.279 20.274-4.722 32.988-25.071 28.341-45.364-2.255-9.842-8.206-18.204-16.756-23.546zm-14.988 54.3c-12.011 2.799-24.517-5.13-27.24-17.019-2.808-12.259 4.873-24.553 17.122-27.405 11.966-2.789 24.49 5.012 27.24 17.018 2.808 12.26-4.873 24.554-17.122 27.406z"/><path d="m317.568 196.202 8.568 4.155c.646 4.117 1.765 8.125 3.349 11.987l-5.033 7.224c-3.476 4.984-2.899 11.734 1.368 16.049l10.288 10.407c4.255 4.304 10.993 4.968 16.02 1.576l7.948-5.365c3.91 1.49 7.942 2.517 12.097 3.08l3.73 7.931c2.401 5.103 9.148 8.237 14.591 6.813l14.201-3.719c5.86-1.535 9.812-7.03 9.395-13.068l-.658-9.521c3.277-2.639 6.213-5.629 8.779-8.942l8.776.72c6.056.5 11.583-3.377 13.196-9.208l3.914-14.126c1.621-5.856-1.169-12.03-6.634-14.679l-8.568-4.155c-.646-4.117-1.765-8.125-3.349-11.987l5.033-7.224c3.474-4.983 2.899-11.732-1.368-16.048l-10.289-10.407c-4.259-4.305-10.994-4.968-16.02-1.576l-7.948 5.365c-3.909-1.491-7.941-2.518-12.096-3.08l-3.73-7.931c-2.581-5.485-8.716-8.352-14.591-6.813l-14.201 3.719c-5.86 1.535-9.812 7.031-9.395 13.068l.658 9.521c-3.277 2.639-6.213 5.629-8.779 8.942l-8.776-.72c-6.041-.5-11.581 3.376-13.197 9.208l-3.913 14.125c-1.621 5.856 1.169 12.03 6.634 14.679zm11.209-22.902 11.07.909c2.741.231 5.409-1.08 6.91-3.4 2.835-4.382 6.479-8.106 10.829-11.068 2.203-1.5 3.444-4.057 3.261-6.716l-.804-11.633 10.366-2.715 4.698 9.989c1.181 2.509 3.649 4.163 6.42 4.299 5.262.271 10.263 1.534 15.004 3.789 2.4 1.146 5.228.937 7.431-.551l9.694-6.543 7.473 7.558-6.342 9.102c-1.586 2.276-1.786 5.242-.52 7.711 2.387 4.653 3.791 9.645 4.173 14.837.196 2.668 1.8 5.031 4.207 6.198l10.455 5.069-2.85 10.285-11.069-.909c-2.729-.225-5.409 1.08-6.91 3.4-2.835 4.382-6.479 8.106-10.829 11.068-2.203 1.5-3.444 4.057-3.261 6.716l.804 11.633-10.367 2.715-4.699-9.989c-1.181-2.51-3.649-4.163-6.42-4.299-5.261-.272-10.261-1.534-15.001-3.788-2.526-1.136-5.003-.953-7.432.55l-9.694 6.543-7.473-7.558 6.342-9.101c1.586-2.276 1.786-5.243.52-7.711-2.387-4.653-3.791-9.645-4.173-14.837-.196-2.668-1.8-5.031-4.207-6.198l-10.455-5.069z"/><path d="m372.73 216.459c2.241.612 4.496.904 6.718.904 11.215 0 21.547-7.449 24.679-18.756 1.821-6.574.97-13.457-2.398-19.379-3.367-5.922-8.846-10.173-15.427-11.971-13.56-3.702-27.643 4.306-31.396 17.852-1.821 6.574-.97 13.457 2.398 19.379 3.367 5.923 8.845 10.174 15.426 11.971zm-3.37-27.345c1.554-5.604 7.384-8.917 12.99-7.385 2.706.739 4.957 2.484 6.339 4.915 1.382 2.43 1.73 5.257.982 7.96-1.553 5.604-7.377 8.917-12.99 7.386-2.706-.739-4.957-2.484-6.339-4.915-1.381-2.431-1.73-5.258-.982-7.961z"/><path d="m416.781 472.645c1.227-2.655.798-5.78-1.098-8.007l-109.394-128.487c-2.038-2.393-5.35-3.262-8.302-2.177-2.949 1.086-4.909 3.896-4.909 7.039v128.487c0 4.142 3.357 7.5 7.5 7.5h109.395c2.924 0 5.582-1.7 6.808-4.355zm-108.703-10.645v-100.608l85.659 100.608z"/></g></g></svg>