<svg id="&#x421;&#x43B;&#x43E;&#x439;_1" height="512" viewBox="0 0 591.92 591.92" width="512" xmlns="http://www.w3.org/2000/svg"><g fill="rgb(0,0,0)" transform="translate(-54.04 -26.61)"><path d="m133.85 551.18a13.83 13.83 0 0 1 -1.43-.07 15 15 0 0 1 -13.53-16.34l28.61-304.13a15 15 0 0 1 10.5-12.92c128-39.81 196.81-.27 199.68 1.43a15 15 0 0 1 7.34 12.9v304.13a15 15 0 0 1 -30 0v-294.58a160.59 160.59 0 0 0 -36.83-9.37c-25.44-3.61-66.73-4.38-121.75 11.3l-27.68 294.05a15 15 0 0 1 -14.91 13.6z"/><path d="m133.83 551.18a15 15 0 0 1 -5-29.13c59.67-21.3 115.16-28.14 164.93-20.34a15 15 0 0 1 -4.65 29.64c-44.13-6.92-96.07-.37-150.2 18.95a14.87 14.87 0 0 1 -5.08.88z"/><path d="m566.15 551.18a15 15 0 0 1 -14.91-13.6l-11.78-125.22a15 15 0 1 1 29.87-2.81l11.78 125.22a15 15 0 0 1 -13.53 16.34c-.48.04-.96.07-1.43.07z"/><path d="m349.94 551.29a14.93 14.93 0 0 1 -14.94-15.11v-304.13a15 15 0 0 1 7.34-12.9c1.55-.92 15.93-9.15 43-14.54a15 15 0 0 1 5.86 29.39 148.74 148.74 0 0 0 -26.2 7.55v270.81c33.71-12.77 103.22-27.08 206.21 9.69a15 15 0 1 1 -10.08 28.25c-69.22-24.7-120.72-23.81-151.74-18.7-33.38 5.49-50.83 16.9-51 17a14.63 14.63 0 0 1 -8.45 2.69z"/><path d="m350 618.54a69.52 69.52 0 0 1 -49.67-20.54 15.28 15.28 0 0 0 -12.55-4.57l-188.78 21.4a40.4 40.4 0 0 1 -44.66-45l33.06-274.83a34.8 34.8 0 0 1 31.34-30.66l34.08-3.34a15 15 0 0 1 2.93 29.86l-34.08 3.34a5 5 0 0 0 -4.48 4.38l-33.07 274.87a10.4 10.4 0 0 0 11.49 11.55l188.79-21.37a45.13 45.13 0 0 1 37.2 13.22 40.34 40.34 0 0 0 56.8 0 45.07 45.07 0 0 1 37.2-13.22l188.79 21.37a10.4 10.4 0 0 0 11.49-11.57l-24.73-205.55a15 15 0 0 1 29.78-3.58l24.74 205.56a40.4 40.4 0 0 1 -44.66 45l-188.79-21.42a15.28 15.28 0 0 0 -12.55 4.56 69.52 69.52 0 0 1 -49.67 20.54z"/><path d="m460.24 398a15 15 0 0 1 -10.7-4.48c-.67-.69-16.59-17.12-26.47-47.11-8.91-27-14.72-71.16 8.17-128 19.24-47.77 46.05-74 72-99.38 23.65-23.14 46-45 61.29-83a15 15 0 0 1 19.47-8.33c27.56 11.1 45.47 31.59 51.79 59.24 4.46 19.51 3.12 42.12-4 67.44a15 15 0 0 1 13.77 13.12c.36 2.89 7.31 67.13-64 120.57l6.69 6.53a15 15 0 0 1 3.45 16.34c-14 34.82-41.23 60.93-78.68 75.51a170.33 170.33 0 0 1 -52.41 11.55zm125.4-335.72c-17.11 34.82-39.64 56.82-61.43 78.18-24.82 24.28-48.26 47.21-65.14 89.15-30.28 75.17-3.25 122.78 7.73 137.76a148.93 148.93 0 0 0 36.28-9.22c26.12-10.38 45.17-27 56.75-49.43l-12.23-11.93a15 15 0 0 1 2.5-23.44c47.11-29.57 60.74-64 64.52-84.43l-2 .5a15 15 0 0 1 -17.61-20.14c12-29.87 16-56 11.52-75.66-3.03-13.5-9.93-23.85-20.89-31.34z"/><path d="m439.1 450.46a15 15 0 0 1 -13.91-20.61l96.64-239.85a15 15 0 1 1 27.83 11.21l-96.66 239.85a15 15 0 0 1 -13.9 9.4z"/></g></svg>