<svg id="Layer_1" enable-background="new 0 0 512 512" height="512" viewBox="0 0 512 512" width="512" xmlns="http://www.w3.org/2000/svg"><path d="m494.65 126.502h-22.33-432.64-22.33c-5.44 0-9.85 4.42-9.85 9.86v312.97c0 5.44 4.41 9.85 9.85 9.85h477.3c5.44 0 9.85-4.41 9.85-9.85v-312.97c0-5.44-4.41-9.86-9.85-9.86z" fill="#24d3b5"/><path d="m470.717 75.642c-115.207-51.764-214.717.725-214.717.725s-99.51-52.489-214.717-.724c-.971.436-1.598 1.41-1.598 2.475v340.294c0 1.942 1.993 3.261 3.772 2.481 114.282-50.14 212.543 1.69 212.543 1.69s98.261-51.83 212.543-1.69c1.779.78 3.772-.538 3.772-2.481v-340.295c0-1.065-.627-2.038-1.598-2.475z" fill="#fff5f4"/><path d="m468.54 385.391c-107.089-46.985-200.11-4.429-211.393 1.113-.726.357-1.566.357-2.292.001-10.044-4.933-84.924-39.224-176.835-13.482-1.675.469-3.339-.773-3.339-2.513v-307.239c-10.93 3.21-22.09 7.29-33.4 12.37-.97.44-1.6 1.41-1.6 2.48v304.79 35.5c0 1.949 1.997 3.262 3.783 2.479 8.806-3.864 18.109-7.339 26.917-10.099 102.366-32.119 185.619 11.79 185.619 11.79s98.26-51.83 212.54-1.69c1.78.78 3.78-.54 3.78-2.48v-35.5c0 1.95-2 3.26-3.78 2.48z" fill="#ebe0da"/><path d="m427.279 176.671-4.279 6.329-16.38 3.464c-7.233 1.53-11.617 8.911-9.5 15.994l3.902 13.051-37.224 55.06c-5.832 8.626-14.254 15.177-24.05 18.705l-49.614 17.872-1.268-51.669c-.251-10.216 2.69-20.256 8.414-28.721l17.604-26.038 9.305-1.968c7.233-1.53 11.618-8.912 9.5-15.995l-2.043-6.831 28.336-41.913c10.322-15.268 25.861-26.245 43.702-30.872l18.885-4.897c7.589-1.968 15.127 3.356 15.81 11.166l1.598 18.281c1.511 17.301-2.972 34.595-12.698 48.982z" fill="#d7f1f7"/><path d="m438.52 111.03-2.34.61c-17.84 4.63-33.38 15.6-43.7 30.87l-28.33 41.91 2.04 6.84c2.12 7.08-2.27 14.46-9.5 15.99l-9.31 1.97-17.6 26.04c-5.72 8.46-8.67 18.5-8.41 28.72l.77 31.64-32.01 11.53-1.26-51.67c-.26-10.22 2.69-20.26 8.41-28.72l17.6-26.04 9.31-1.97c7.23-1.53 11.62-8.91 9.5-15.99l-2.04-6.84 28.33-41.91c10.32-15.27 25.86-26.24 43.7-30.87l18.89-4.9c7.59-1.97 15.12 3.36 15.81 11.17z" fill="#b4e7fd"/><path d="m494.65 119.001h-14.835v-40.886c0-4.015-2.365-7.672-6.024-9.316-34.675-15.579-71.369-23.479-109.062-23.479-55.742 0-96.815 17.112-108.74 22.699-19.229-8.948-43.279-15.635-64.629-19.112-4.09-.665-7.941 2.109-8.607 6.197s2.108 7.942 6.197 8.608c29.514 4.806 51.044 13.535 59.551 17.381v270.542h-69.975c-9.298 0-16.862-7.564-16.862-16.862s7.564-16.862 16.862-16.862h19.2c20.375 0 36.951-16.576 36.951-36.951s-16.576-36.951-36.951-36.951h-96.972c-11.72 0-21.254-9.535-21.254-21.254s9.534-21.254 21.254-21.254h77.913c19.759 0 35.833-16.075 35.833-35.833s-16.074-35.833-35.833-35.833h-55.667c-4.143 0-7.5 3.358-7.5 7.5s3.357 7.5 7.5 7.5h55.667c11.487 0 20.833 9.346 20.833 20.833 0 11.488-9.346 20.833-20.833 20.833h-77.913c-19.99 0-36.254 16.264-36.254 36.254s16.264 36.254 36.254 36.254h96.972c12.104 0 21.951 9.847 21.951 21.951s-9.848 21.951-21.951 21.951h-19.2c-17.569 0-31.862 14.293-31.862 31.862s14.293 31.862 31.862 31.862h69.974v44.31c-60.091-24.725-134.226-27.094-201.315.226v-98.472c0-4.142-3.357-7.5-7.5-7.5s-7.5 3.358-7.5 7.5v105.71c0 7.343 7.564 12.304 14.285 9.349 32.099-14.083 66.014-21.223 100.801-21.223 61.297 0 104.806 22.455 105.23 22.678 2.171 1.144 4.862 1.122 6.991.004.432-.227 43.94-22.682 105.237-22.682 34.787 0 68.701 7.14 100.796 21.221 6.745 2.965 14.29-2.02 14.29-9.347v-205.71c0-4.142-3.357-7.5-7.5-7.5s-7.5 3.358-7.5 7.5v198.472c-67.759-27.594-141.927-24.662-201.315-.226 0-9.291 0-38.827 0-49.973l32.896-48.109 45.893-16.532c11.368-4.095 20.954-11.551 27.722-21.561l37.224-55.06c2.507-3.707 1.195-5.605-2.929-19.4-.861-2.879.92-5.885 3.865-6.508 22.394-4.735 18.119-2.279 25.321-12.93h.001c18.684-27.639 14.071-52.497 12.356-72.116-1.09-12.46-13.122-20.896-25.165-17.772-20.237 5.248-46.985 9.348-66.917 38.828l-28.335 41.913c-2.444 3.616-.959 6.395 1.069 13.18.861 2.88-.919 5.886-3.865 6.508l-9.306 1.968c-3.952.836-3.212.995-22.265 29.175-6.635 9.813-9.989 21.261-9.699 33.106l1.246 50.783-19.112 27.952c0-11.067 0-242.205 0-253.306 57.055-25.825 133.054-29.562 201.315.141v101.467c0 4.142 3.357 7.5 7.5 7.5s7.5-3.358 7.5-7.5v-48.698h14.835c1.296 0 2.35 1.059 2.35 2.36v312.97c0 1.296-1.054 2.35-2.35 2.35h-477.3c-1.296 0-2.35-1.054-2.35-2.35v-312.971c0-1.301 1.054-2.36 2.35-2.36h14.835v148.698c0 4.142 3.357 7.5 7.5 7.5s7.5-3.358 7.5-7.5v-201.467c34.932-15.2 72.909-22.578 112.774-20.596 4.142.207 7.657-2.982 7.863-7.119.205-4.137-2.981-7.657-7.119-7.863-40.781-2.028-82.292 5.082-122.493 23.145-3.66 1.644-6.025 5.301-6.025 9.316v40.885h-14.835c-9.566 0-17.35 7.788-17.35 17.36v312.97c0 9.567 7.783 17.35 17.35 17.35h477.3c9.566 0 17.35-7.783 17.35-17.35v-312.969c0-9.572-7.783-17.359-17.35-17.359zm-175.251 88.428 6.341-1.341c11.512-2.434 18.504-14.209 15.133-25.481l-1.024-3.426 26.345-38.968c16.463-24.349 38.053-27.471 58.257-32.71 3.101-.802 6.177 1.366 6.456 4.559 2.457 28.115 4.774 40.788-12.422 66.228l-13.417 2.837c-11.512 2.435-18.504 14.208-15.133 25.48l2.883 9.646-35.232 52.116c-9.384 13.88-19.633 15.581-46.725 25.34l44.998-65.809c2.338-3.419 1.461-8.086-1.958-10.424-3.421-2.338-8.087-1.461-10.425 1.958l-46.377 67.826c-1.189-48.42-4.146-38.714 22.3-77.831z"/></svg>