<?xml version="1.0" encoding="iso-8859-1"?>
<!-- Generator: Adobe Illustrator 19.0.0, SVG Export Plug-In . SVG Version: 6.00 Build 0)  -->
<svg version="1.1" id="Capa_1" xmlns="http://www.w3.org/2000/svg" xmlns:xlink="http://www.w3.org/1999/xlink" x="0px" y="0px"
	 viewBox="0 0 496 496" style="enable-background:new 0 0 496 496;" xml:space="preserve">
<path style="fill:#F0BC5E;" d="M160,488C160,424,8,368,8,248S160,72,160,8H16c0,64,152,120,152,240S16,424,16,488H160z"/>
<path d="M107.12,400.008c-2.52-2.384-5.064-4.784-7.608-7.208C137.408,355.624,176,309.952,176,248s-38.592-107.624-76.488-144.808
	c2.544-2.424,5.088-4.824,7.608-7.208C139.792,65.12,168,38.464,168,8V0h-16v8c0,5.272-1.36,10.6-3.712,16H27.712
	C25.36,18.6,24,13.272,24,8V0H8v8c0,30.464,28.208,57.12,60.88,87.992c2.52,2.384,5.064,4.784,7.608,7.208
	C38.592,140.376,0,186.048,0,248s38.592,107.624,76.488,144.808c-2.544,2.424-5.088,4.824-7.608,7.208
	C36.208,430.88,8,457.536,8,488v8h16v-8c0-5.272,1.36-10.6,3.712-16h120.584c2.344,5.4,3.704,10.728,3.704,16v8h16v-8
	C168,457.536,139.792,430.88,107.12,400.008z M48,336.896C43.992,331.424,40.264,325.8,36.832,320h102.336
	c-3.424,5.8-7.16,11.424-11.168,16.896V336H48V336.896z M36.832,176c3.432-5.8,7.16-11.424,11.168-16.896V160h80v-0.896
	c4.008,5.464,7.736,11.096,11.168,16.896H120v16h27.608c2.344,5.176,4.32,10.536,6.056,16H22.344c1.736-5.464,3.704-10.824,6.056-16
	H104v-16H36.832z M157.792,224c0.96,5.184,1.512,10.544,1.848,16H16.368c0.328-5.456,0.88-10.816,1.848-16H157.792z M18.208,272
	c-0.96-5.184-1.512-10.544-1.848-16h143.272c-0.328,5.456-0.88,10.816-1.848,16H64v16h89.656c-1.736,5.464-3.704,10.824-6.056,16
	H28.392c-2.344-5.176-4.32-10.536-6.056-16H48v-16H18.208z M37.28,40h101.44c-3.904,5.224-8.536,10.552-13.664,16H50.944
	C45.816,50.552,41.176,45.224,37.28,40z M79.872,84.36C75.424,80.152,71.08,76.048,66.88,72h42.232
	c-4.2,4.048-8.536,8.152-12.984,12.36c-2.672,2.528-5.392,5.096-8.128,7.696C85.256,89.456,82.544,86.888,79.872,84.36z M88,114.296
	c9.68,9.472,19.248,19.304,28.088,29.704H59.912C68.752,133.6,78.32,123.768,88,114.296z M59.912,352h56.176
	c-8.84,10.4-18.408,20.232-28.088,29.704C78.32,372.232,68.752,362.4,59.912,352z M79.872,411.64
	c2.672-2.528,5.392-5.096,8.128-7.696c2.744,2.608,5.456,5.176,8.128,7.696c4.448,4.208,8.792,8.312,12.984,12.36H66.88
	C71.08,419.952,75.424,415.848,79.872,411.64z M37.28,456c3.904-5.224,8.536-10.552,13.664-16h74.12
	c5.128,5.448,9.76,10.776,13.664,16H37.28z"/>
<path d="M456,432h-12.904C461.96,397.848,472,359.256,472,320c0-64.584-27.048-126.192-74.304-170.048l21.72-21.72l-16.008-16.008
	l34.352-34.336l-11.312-11.312l-34.352,34.336l-20.728-20.728l34.416-34.304l-11.296-11.336l-34.44,34.32L344.104,52.92
	L226.448,170.576l11.312,11.312L344.104,75.544l52.688,52.688L290.448,234.576l11.312,11.312l50.536-50.536
	c23.08,20.84,40.088,47.824,48.816,77.44C386.776,275.952,376,288.72,376,304c0,17.384,13.952,31.504,31.232,31.92
	c-0.632,6.688-1.688,13.328-3.112,19.88c-6.256-2.416-13.024-3.8-20.12-3.8H264c-22.056,0-40,17.944-40,40v8h104.64
	c-0.376,2.624-0.64,5.28-0.64,8v24H216c-22.056,0-40,17.944-40,40v24h320v-24C496,449.944,478.056,432,456,432z M392,304
	c0-8.824,7.176-16,16-16s16,7.176,16,16s-7.176,16-16,16S392,312.824,392,304z M423.568,331.784C433.32,326.296,440,315.968,440,304
	c0-14.144-9.28-26.032-22.024-30.248c-8.936-34.304-27.992-65.704-54.352-89.72l22.76-22.76C430.648,202.128,456,259.664,456,320
	c0,28.368-5.584,56.368-16.288,82.352c-1.56-15.504-9.496-29.128-21.104-38.288C421.208,353.504,422.872,342.68,423.568,331.784z
	 M241.368,384c3.304-9.312,12.2-16,22.632-16h80.88c-4.696,4.592-8.544,10.008-11.4,16H241.368z M480,480H192v-8
	c0-13.232,10.768-24,24-24h144v-16h-16v-24c0-22.056,17.944-40,40-40s40,17.944,40,40v24h-48v16h80c13.232,0,24,10.768,24,24V480z"
	/>
<g>
	<path style="fill:#F0BC5E;" d="M288.104,288.232c-2.048,0-4.096-0.784-5.656-2.344l-96-96c-3.128-3.128-3.128-8.184,0-11.312l24-24
		c3.128-3.128,8.184-3.128,11.312,0l96,96c3.128,3.128,3.128,8.184,0,11.312l-24,24
		C292.192,287.456,290.152,288.232,288.104,288.232z"/>
	<path style="fill:#F0BC5E;" d="M440.104,88.232c-2.12,0-4.16-0.84-5.656-2.344l-48-47.968c-3.112-3.104-3.128-8.144-0.04-11.272
		L410.32,2.384c1.496-1.52,3.536-2.376,5.672-2.384c0.008,0,0.016,0,0.024,0c2.128,0,4.168,0.84,5.664,2.352l47.984,48.12
		c3.112,3.12,3.12,8.16,0.016,11.28l-23.896,24.12c-1.496,1.504-3.528,2.36-5.656,2.368
		C440.12,88.232,440.112,88.232,440.104,88.232z"/>
</g>
<g>
</g>
<g>
</g>
<g>
</g>
<g>
</g>
<g>
</g>
<g>
</g>
<g>
</g>
<g>
</g>
<g>
</g>
<g>
</g>
<g>
</g>
<g>
</g>
<g>
</g>
<g>
</g>
<g>
</g>
</svg>
