<svg height="512pt" viewBox="0 0 512.00125 512" width="512pt" xmlns="http://www.w3.org/2000/svg"><path d="m395.535156 399.53125c-2.628906 0-5.203125 1.066406-7.0625 2.925781-1.855468 1.859375-2.925781 4.433594-2.925781 7.0625 0 2.625 1.066406 5.203125 2.925781 7.058594 1.859375 1.859375 4.433594 2.929687 7.0625 2.929687 2.625 0 5.203125-1.070312 7.058594-2.929687 1.859375-1.855469 2.929688-4.433594 2.929688-7.058594 0-2.628906-1.070313-5.207031-2.929688-7.0625-1.855469-1.859375-4.433594-2.925781-7.058594-2.925781zm0 0"/><path d="m511.398438 268.683594c0-40.421875-15.738282-78.421875-44.320313-107-.007813-.007813-.019531-.015625-.027344-.023438l4.886719-4.886718c3.859375 1.898437 8.066406 2.855468 12.277344 2.855468 7.121094 0 14.238281-2.710937 19.65625-8.128906 10.839844-10.839844 10.839844-28.472656 0-39.3125l-61.800782-61.796875c-5.25-5.253906-12.230468-8.144531-19.65625-8.144531-7.425781 0-14.40625 2.894531-19.65625 8.144531-8.625 8.625-10.378906 21.550781-5.273437 31.933594l-36.570313 36.570312v-36.992187c-.007812.003906-.015624.003906-.023437.003906 0-2.601562-.992187-5.15625-2.902344-7.066406l-71.914062-71.914063c-1.914063-1.910156-4.46875-2.9023435-7.066407-2.9023435 0-.0078125 0-.015625.003907-.0234375h-251.265625c-15.300782 0-27.746094 12.445312-27.746094 27.746094v401.308594c0 15.300781 12.445312 27.746093 27.746094 27.746093h101.203125c5.515625 0 9.988281-4.472656 9.988281-9.988281s-4.472656-9.988281-9.988281-9.988281h-101.203125c-4.285156 0-7.769532-3.484375-7.769532-7.769531v-401.308594c0-4.285156 3.484376-7.769532 7.769532-7.769532h241.277344v45.070313c0 14.800781 12.042968 26.84375 26.84375 26.84375h45.070312v46.980469l-78.195312 78.199218c-3.902344 3.898438-3.902344 10.222657 0 14.125l4.085937 4.085938-35.605469 35.605469c-1.875 1.875-2.925781 4.414062-2.925781 7.0625 0 2.648437 1.050781 5.191406 2.925781 7.0625l38.027344 38.027343c.898438.898438 1.929688 1.578126 3.023438 2.0625h-71.507813c-16.523437 0-29.964844 13.441407-29.964844 29.964844 0 16.523438 13.441407 29.964844 29.964844 29.964844h62.554687c21.371094 17.824219 46.832032 29.230469 74.28125 33.308594v18.484375h-118.753906c-5.515625 0-9.988281 4.472656-9.988281 9.988281s4.472656 9.988281 9.988281 9.988281h88.351563c-16.308594 8.230469-27.527344 25.128907-27.527344 44.609375 0 5.515625 4.472656 9.988282 9.988281 9.988282h211.75c5.515625 0 9.988282-4.472657 9.988282-9.988282 0-27.539062-22.402344-49.941406-49.941407-49.941406h-7.988281v-45.945312c0-5.558594-.804688-10.925782-2.269531-16.015626 5.582031-4.222656 10.90625-8.851562 15.878906-13.824218 28.582031-28.578125 44.320313-66.578125 44.320313-107zm-215.53125-196.769532c-3.789063 0-6.867188-3.082031-6.867188-6.867187v-30.945313l37.8125 37.8125zm121.019531-7.398437c1.476562-1.476563 3.441406-2.292969 5.527343-2.292969 2.089844 0 4.054688.816406 5.53125 2.292969l61.800782 61.800781c3.046875 3.046875 3.046875 8.007813 0 11.058594-3.050782 3.050781-8.011719 3.046875-11.0625 0l-.734375-.738281-60.328125-60.324219-.734375-.738281c-3.050781-3.050781-3.050781-8.011719 0-11.058594zm-58.902344 85.558594s.003906-.003907.003906-.003907l52.570313-52.570312 46.199218 46.199219-126.628906 126.628906-4.085937-4.085937-38.027344-38.023438-4.085937-4.085938zm61.4375 59.265625c15.851563 15.851562 24.582031 36.925781 24.582031 59.34375 0 22.417968-8.730468 43.492187-24.582031 59.34375-9.339844 9.339844-20.421875 16.121094-32.316406 20.183594-4.179688.613281-8.210938 1.675781-12.050781 3.128906-4.65625.847656-9.386719 1.304687-14.140626 1.34375v-84.886719l58.484376-58.484375c.007812.007812.015624.015625.023437.027344zm-167.011719 68.609375 28.542969-28.542969 23.902344 23.902344-28.542969 28.542968zm30.964844 45.089843 35.605469-35.605468 4.085937 4.085937c1.949219 1.949219 4.503906 2.925781 7.0625 2.925781 2.554688 0 5.109375-.976562 7.0625-2.925781l3.746094-3.746093v62.65625c-3.738281-.882813-7.453125-2.019532-11.109375-3.433594-3.535156-12.613282-15.125-21.890625-28.851563-21.890625h-20.628906c1.097656-.488281 2.128906-1.167969 3.027344-2.066407zm-92.597656 32.027344c0-5.503906 4.480468-9.988281 9.988281-9.988281h100.214844c5.507812 0 9.988281 4.484375 9.988281 9.988281 0 5.507813-4.480469 9.988282-9.988281 9.988282h-100.214844c-5.507813 0-9.988281-4.480469-9.988281-9.988282zm110.203125 29.964844c12.050781 0 22.453125-7.152344 27.207031-17.433594 6.257812 2.027344 12.613281 3.445313 18.992188 4.257813.328124.132812.667968.246093 1.011718.34375-5.324218 7.542969-8.890625 16.402343-10.109375 25.988281-13.746093-2.304688-26.890625-6.742188-39.078125-13.152344h1.976563zm188.730469 106.390625h-188.351563c4.121094-11.628906 15.230469-19.976563 28.253906-19.976563h131.84375c13.023438 0 24.132813 8.347657 28.253907 19.976563zm-132.132813-39.953125v-45.945312c0-15.609376 9.476563-29.046876 22.976563-34.867188 3.753906-.757812 7.464843-1.722656 11.117187-2.894531 1.269531-.128907 2.558594-.195313 3.863281-.195313 20.925782 0 37.953125 17.027344 37.953125 37.957032v45.945312zm84.597656-80.257812c-5.625-7.625-13.070312-13.832032-21.691406-17.964844 4.589844-3.296875 8.964844-6.992188 13.0625-11.089844 19.625-19.625 30.433594-45.71875 30.433594-73.472656s-10.808594-53.847656-30.433594-73.472656c-.007813-.007813-.015625-.015626-.023437-.023438l19.40625-19.40625c.007812.007812.015624.019531.023437.027344 51.210937 51.210937 51.210937 134.539062 0 185.75-3.417969 3.414062-7.023437 6.636718-10.777344 9.652344zm0 0"/><path d="m83.933594 139.835938h193.046875c5.515625 0 9.988281-4.472657 9.988281-9.988282s-4.472656-9.988281-9.988281-9.988281h-193.046875c-5.515625 0-9.988282 4.472656-9.988282 9.988281s4.472657 9.988282 9.988282 9.988282zm0 0"/><path d="m83.933594 187.777344h176.203125c5.515625 0 9.988281-4.472656 9.988281-9.988282 0-5.515624-4.472656-9.988281-9.988281-9.988281h-176.203125c-5.515625 0-9.988282 4.472657-9.988282 9.988281 0 5.515626 4.472657 9.988282 9.988282 9.988282zm0 0"/><path d="m83.933594 235.722656h148.800781c5.515625 0 9.988281-4.472656 9.988281-9.988281s-4.472656-9.988281-9.988281-9.988281h-148.800781c-5.515625 0-9.988282 4.472656-9.988282 9.988281s4.472657 9.988281 9.988282 9.988281zm0 0"/><path d="m83.933594 283.667969h96.910156c5.515625 0 9.988281-4.476563 9.988281-9.988281 0-5.515626-4.472656-9.988282-9.988281-9.988282h-96.910156c-5.515625 0-9.988282 4.472656-9.988282 9.988282 0 5.511718 4.472657 9.988281 9.988282 9.988281zm0 0"/><path d="m143.332031 311.632812h-59.398437c-5.515625 0-9.988282 4.472657-9.988282 9.988282s4.472657 9.988281 9.988282 9.988281h59.398437c5.515625 0 9.988281-4.472656 9.988281-9.988281s-4.472656-9.988282-9.988281-9.988282zm0 0"/><path d="m173.894531 437.484375c-2.625 0-5.203125 1.070313-7.058593 2.925781-1.859376 1.859375-2.929688 4.4375-2.929688 7.0625 0 2.628906 1.070312 5.203125 2.929688 7.0625 1.855468 1.855469 4.433593 2.925782 7.058593 2.925782 2.628907 0 5.203125-1.066407 7.0625-2.925782 1.867188-1.859375 2.925781-4.433594 2.925781-7.0625 0-2.625-1.058593-5.203125-2.925781-7.0625-1.859375-1.855468-4.4375-2.925781-7.0625-2.925781zm0 0"/></svg>