<?xml version="1.0" encoding="iso-8859-1"?>
<!-- Generator: Adobe Illustrator 19.0.0, SVG Export Plug-In . SVG Version: 6.00 Build 0)  -->
<svg version="1.1" id="Capa_1" xmlns="http://www.w3.org/2000/svg" xmlns:xlink="http://www.w3.org/1999/xlink" x="0px" y="0px"
	 viewBox="0 0 511.999 511.999" style="enable-background:new 0 0 511.999 511.999;" xml:space="preserve">
<g>
	<g>
		<path d="M368.067,175.988c21.838-27.916,29.663-55.557,18.271-75.289c-11.394-19.734-39.248-26.779-74.349-21.821
			c-13.256-32.875-33.284-53.476-56.07-53.476c-22.787,0-42.816,20.603-56.072,53.483c-27.137-3.881-60.675-1.868-74.347,21.814
			c-11.392,19.731-3.567,47.372,18.271,75.289c-16.917,21.541-31.938,51.635-18.271,75.307
			c13.66,23.658,47.134,25.707,74.347,21.814c13.257,32.88,33.286,53.483,56.072,53.483s42.816-20.601,56.072-53.479
			c26.895,3.798,60.778,1.685,74.347-21.818C400.006,227.621,384.988,197.533,368.067,175.988z M373.348,108.2
			c7.35,12.731,1.892,33.485-15.167,56.202c-9.223-10.002-20.008-19.75-32.007-28.942c-1.984-15.228-5.068-29.426-9.074-42.228
			C336.072,90.938,363.859,91.766,373.348,108.2z M328.156,156.335c7.491,6.409,14.324,13.023,20.377,19.734
			c-5.9,6.536-12.702,13.147-20.384,19.696C328.92,183.084,328.966,169.736,328.156,156.335z M309.158,123.343
			c-11.582-7.669-22.83-14.072-34.272-19.773c9.56-3.396,18.726-5.99,27.374-7.835C304.984,104.141,307.32,113.373,309.158,123.343z
			 M255.919,40.402c14.699,0,29.942,15.101,41.086,41.227c-13.096,2.933-26.94,7.364-41.127,13.264
			c-13.955-5.792-27.784-10.263-41.052-13.247C225.971,55.509,241.218,40.402,255.919,40.402z M209.544,95.845
			c8.842,1.886,17.98,4.48,27.281,7.764c-11.675,5.831-23.153,12.457-34.143,19.734C204.511,113.416,206.835,104.222,209.544,95.845
			z M138.49,108.2c9.562-16.562,37.195-17.212,56.217-14.872c-3.991,12.777-7.064,26.943-9.044,42.133
			c-11.999,9.192-22.784,18.94-32.007,28.942C136.599,141.685,131.141,120.93,138.49,108.2z M183.69,195.766
			c-7.682-6.55-14.484-13.16-20.384-19.696c6.052-6.711,12.886-13.325,20.377-19.734
			C182.916,169.019,182.875,182.366,183.69,195.766z M138.491,243.795c-9.545-16.532,3.662-40.8,15.221-56.131
			c9.067,9.843,19.794,19.585,31.955,28.894c1.98,15.181,5.052,29.339,9.042,42.11C175.594,261.019,148.032,260.319,138.491,243.795
			z M202.683,228.665c10.894,7.205,22.343,13.821,34.148,19.717c-9.303,3.285-18.444,5.88-27.289,7.766
			C206.836,247.775,204.513,238.586,202.683,228.665z M255.919,311.591c-14.702,0-29.948-15.107-41.093-41.244
			c13.27-2.984,27.1-7.455,41.055-13.249c14.184,5.898,28.029,10.336,41.122,13.269
			C285.859,296.492,270.616,311.591,255.919,311.591z M302.26,256.257c-8.648-1.845-17.813-4.438-27.373-7.833
			c11.3-5.63,22.639-12.068,34.267-19.758C307.318,238.628,304.983,247.854,302.26,256.257z M312.074,208.418
			c-16.51,12.017-35.927,23.425-56.216,32.388c-18.979-8.436-38.659-19.7-56.092-32.388c-2.218-20.931-2.24-43.653-0.006-64.78
			c17.715-12.949,37.291-24.09,56.097-32.45c19.841,8.766,39.133,19.958,56.223,32.45
			C314.293,164.57,314.312,187.291,312.074,208.418z M373.348,243.794c-9.487,16.43-37.254,17.263-56.247,14.965
			c4.003-12.795,7.085-26.984,9.071-42.202c12.161-9.308,22.888-19.05,31.955-28.894
			C369.691,203.002,382.889,227.267,373.348,243.794z"/>
	</g>
</g>
<g>
	<g>
		<path d="M495.214,412.85h-18.761v-12.896c0-8.313-6.502-15.064-14.804-15.367c-47.888-1.738-56.204-21.006-105.515-29.886
			c-4.066-0.735-7.977,1.976-8.711,6.052c-0.734,4.076,1.976,7.977,6.052,8.711c46.909,8.447,56.283,28.248,107.628,30.114
			c0.192,0.007,0.349,0.176,0.349,0.376v12.896H263.546c-0.057-9.203-0.059-5.49,0.015-17.507
			c6.735-5.967,27.907-22.732,57.289-26.876c4.102-0.579,6.957-4.373,6.379-8.476c-0.578-4.102-4.365-6.954-8.476-6.379
			c-30.498,4.301-52.933,20.227-62.748,28.433c-13.019-10.923-48.232-35.463-94.91-28.221
			c-53.859,8.352-61.205,28.926-110.601,30.759c-8.383,0.312-14.95,7.13-14.95,15.524v12.743H16.785C7.53,412.85,0,420.38,0,429.636
			v17.104c0,9.257,7.53,16.787,16.786,16.787h209.49c3.396,13.456,15.628,23.07,29.644,23.07c14.153,0,26.261-9.568,29.647-23.07
			h69.239c4.143,0,7.5-3.357,7.5-7.5s-3.357-7.5-7.5-7.5h-71.498c-5.976,0-11.039,4.263-12.038,10.139
			c-1.274,7.493-7.729,12.933-15.351,12.933c-7.399,0-13.821-5.254-15.269-12.492c-1.224-6.129-6.6-10.579-12.782-10.579H16.786
			c-0.984,0-1.785-0.801-1.785-1.786v-17.105c0-0.984,0.801-1.785,1.785-1.785c6.598,0,470.89,0,478.427,0
			c0.984,0,1.785,0.801,1.785,1.785v17.104c0,0.985-0.802,1.786-1.786,1.786H389.807c-4.143,0-7.5,3.357-7.5,7.5s3.357,7.5,7.5,7.5
			h105.405c9.257,0,16.787-7.53,16.787-16.787v-17.104C512,420.38,504.469,412.85,495.214,412.85z M248.453,412.85H50.548v-12.743
			c0-0.284,0.227-0.523,0.506-0.533c52.94-1.966,61.043-22.97,112.343-30.927c43.306-6.714,76.312,19.035,85.041,26.714
			C248.511,407.321,248.509,403.61,248.453,412.85z"/>
	</g>
</g>
<g>
</g>
<g>
</g>
<g>
</g>
<g>
</g>
<g>
</g>
<g>
</g>
<g>
</g>
<g>
</g>
<g>
</g>
<g>
</g>
<g>
</g>
<g>
</g>
<g>
</g>
<g>
</g>
<g>
</g>
</svg>
