<svg id="Capa_1" enable-background="new 0 0 512 512" height="512" viewBox="0 0 512 512" width="512" xmlns="http://www.w3.org/2000/svg"><g><g><path d="m473.392 359.522c-.469-.271-.943-.527-1.419-.772-4.632 2.967-8.652 7.037-11.593 12.13-9.537 16.519-4.314 37.506 11.575 47.699 5.561-2.853 10.396-7.278 13.753-13.093 9.292-16.093 3.778-36.672-12.316-45.964z" fill="#f27182"/><path d="m461.082 371.838c3.065-5.309 7.362-9.457 12.317-12.312-.002-.001-.005-.003-.007-.004-16.093-9.292-36.672-3.778-45.963 12.316-9.292 16.093-3.777 36.672 12.316 45.963 10.785 6.227 23.58 5.795 33.646-.004-16.088-9.293-21.599-29.868-12.309-45.959z" fill="#ed5469"/><path d="m274.28 224.877c-17.594 8.782-29.687 26.943-29.687 47.943s12.093 39.161 29.687 47.943c19.286-7.386 32.985-26.06 32.985-47.943-.001-21.884-13.7-40.557-32.985-47.943z" fill="#5291d9"/><path d="m245.931 272.82c0-20.996 12.611-39.036 30.667-46.989-6.325-2.786-13.312-4.344-20.667-4.344-28.351 0-51.333 22.983-51.333 51.333 0 28.351 22.983 51.333 51.333 51.333 7.355 0 14.342-1.558 20.667-4.344-18.056-7.953-30.667-25.994-30.667-46.989z" fill="#0972d0"/><path d="m272.755 12.01c-.469-.271-.943-.527-1.419-.772-4.632 2.967-8.652 7.037-11.593 12.13-9.537 16.519-4.314 37.506 11.575 47.699 5.561-2.853 10.396-7.278 13.753-13.093 9.291-16.094 3.777-36.672-12.316-45.964z" fill="#ffe02f"/><path d="m260.444 24.326c3.065-5.309 7.362-9.457 12.317-12.312-.002-.001-.005-.003-.007-.004-16.093-9.292-36.672-3.778-45.963 12.316-9.292 16.093-3.777 36.672 12.316 45.963 10.785 6.227 23.58 5.795 33.646-.004-16.088-9.293-21.599-29.868-12.309-45.959z" fill="#fbc700"/><path d="m72.117 359.525c-.469-.271-.943-.527-1.419-.772-4.632 2.967-8.652 7.037-11.593 12.13-9.537 16.519-4.314 37.506 11.575 47.699 5.561-2.853 10.396-7.278 13.753-13.093 9.292-16.094 3.778-36.673-12.316-45.964z" fill="#8bcaff"/><path d="m59.807 371.84c3.065-5.309 7.362-9.457 12.317-12.312-.002-.001-.005-.003-.007-.004-16.093-9.292-36.672-3.778-45.963 12.316-9.292 16.093-3.777 36.672 12.316 45.963 10.785 6.227 23.58 5.795 33.646-.004-16.088-9.293-21.599-29.867-12.309-45.959z" fill="#60b9fe"/></g><g><path d="m34.789 353.027c-19.695 11.37-26.434 36.512-15.061 56.208 11.344 19.649 36.451 26.469 56.208 15.061 3.165-1.827 5.989-4.018 8.463-6.483 27.325 7.913 61.269 4.012 89.126-2.25 18.433 58.871 48.234 96.437 82.474 96.437 34.241 0 64.042-37.566 82.475-96.436 27.875 6.267 61.811 10.159 89.126 2.25 2.474 2.465 5.299 4.656 8.463 6.483 19.867 11.471 44.936 4.463 56.208-15.061 11.372-19.695 4.637-44.836-15.061-56.208-3.161-1.825-6.467-3.175-9.835-4.085-5.657-22.943-21.62-49.048-46.523-76.063 41.767-45.398 59.399-89.99 42.279-119.643-7.357-12.745-20.24-21.55-38.289-26.17-4.016-1.027-8.099 1.394-9.125 5.406-1.027 4.013 1.394 8.099 5.406 9.125 13.991 3.582 23.754 10.021 29.018 19.138 17.027 29.493-16.658 76.044-39.752 101.28-16.103-16.065-34.688-31.717-55.144-46.491-2.564-25.081-6.822-48.981-12.676-70.943 16.298-3.637 31.675-5.734 45.611-6.101 4.141-.109 7.409-3.555 7.3-7.695-.107-4.073-3.442-7.302-7.493-7.302-.067 0-.135.001-.201.002-15.283.403-31.902 2.653-49.399 6.573-10.946-35.088-25.575-61.976-42.621-78.351.896-3.372 1.38-6.909 1.38-10.559.001-22.691-18.458-41.149-41.147-41.149s-41.147 18.458-41.147 41.147c0 3.65.483 7.188 1.38 10.56-17.05 16.38-31.683 43.279-42.63 78.382-41.736-9.36-103.271-14.03-124.734 23.146-17.12 29.654.512 74.245 42.279 119.643-24.903 27.016-40.866 53.122-46.523 76.064-3.369.91-6.674 2.26-9.835 4.085zm138.356-11.487c20.396 13.595 42.383 26.324 64.777 37.378-18.333 7.66-36.444 13.917-53.948 18.613-4.661-17.396-8.295-36.21-10.829-55.991zm82.854 155.46c-34.065 0-57.539-52.486-67.834-85.067 21.964-5.913 44.812-14.182 67.834-24.51 23.023 10.328 45.871 18.597 67.834 24.51-10.282 32.545-33.755 85.067-67.834 85.067zm72.028-99.469c-17.504-4.696-35.615-10.953-53.948-18.613 22.364-11.039 44.353-23.765 64.777-37.378-2.535 19.781-6.169 38.595-10.829 55.991zm141.684-31.513c12.516 7.227 16.797 23.202 9.57 35.718-7.227 12.517-23.202 16.798-35.718 9.571-12.472-7.2-16.781-23.224-9.571-35.718 7.19-12.444 23.19-16.804 35.719-9.571zm-69.698-93.17c-12.736 12.733-27.212 25.288-43.076 37.373 1.576-24.464 1.606-49.867-.018-74.787 15.801 12.047 30.275 24.602 43.094 37.414zm-44.728 57.298c20.879-15.051 39.41-30.722 55.156-46.433 20.819 22.738 35.068 45.029 41.048 64.11-12.856 1.603-24.065 9.193-30.453 20.209-.011.019-.023.036-.034.055-6.183 10.706-7.499 24.243-2.307 36.534-19.516 4.36-45.947 3.166-76.045-3.494 5.734-21.49 10.039-45.374 12.635-70.981zm-16.444-126.026c-20.563-13.728-42.387-26.336-64.675-37.345 18.399-7.666 36.532-13.934 53.841-18.604 4.675 17.486 8.305 36.272 10.834 55.949zm-82.842-189.12c14.418 0 26.147 11.729 26.147 26.147 0 14.416-11.741 26.148-26.147 26.148-14.491 0-26.147-11.818-26.147-26.148 0-14.418 11.73-26.147 26.147-26.147zm-32.792 51.026c7.921 10.472 20.206 16.27 32.793 16.27 12.551 0 24.854-5.772 32.794-16.27 13.537 14.724 25.721 38.217 35.004 67.627-21.747 5.856-44.611 14.133-67.801 24.551-23.111-10.372-45.973-18.634-67.806-24.511 9.284-29.429 21.473-52.937 35.016-67.667zm-39.192 82.067c17.402 4.665 35.52 10.927 53.926 18.627-22.361 11.047-44.182 23.648-64.781 37.4 2.532-19.707 6.168-38.52 10.855-56.027zm72.061 26.636c28.606 13.3 57.709 29.944 84.891 49.04 2.889 32.445 2.87 65.996.018 98.12-26.387 18.527-55.433 35.322-84.984 49.045-29.484-13.692-58.536-30.475-84.984-49.045-2.846-32.049-2.878-65.6.018-98.12 26.488-18.61 55.252-35.261 85.041-49.04zm-194.218-13.993c17.001-29.447 74.239-23.584 107.587-16.213-5.862 21.978-10.125 45.899-12.691 71.002-20.456 14.774-39.041 30.427-55.144 46.491-23.045-25.182-56.79-71.769-39.752-101.28zm93.204 149.485c-15.864-12.085-30.34-24.64-43.076-37.373 12.819-12.812 27.293-25.367 43.093-37.414-1.62 24.89-1.594 50.293-.017 74.787zm-53.502-26.508c15.746 15.711 34.277 31.381 55.156 46.433 2.595 25.607 6.901 49.491 12.634 70.982-30.102 6.661-56.53 7.855-76.046 3.494 5.068-11.996 4.044-25.538-2.306-36.534-6.233-10.79-17.347-18.628-30.486-20.265 5.98-19.08 20.229-41.371 41.048-64.11zm-23.554 91.876c7.223 12.51 2.892 28.522-9.57 35.718-12.515 7.226-28.491 2.945-35.718-9.571-7.226-12.516-2.946-28.492 9.57-35.718 12.566-7.256 28.558-2.828 35.718 9.571z"/><path d="m255.999 331.653c24.678 0 46.909-15.583 55.32-38.776 1.412-3.894-.6-8.196-4.494-9.608-3.89-1.412-8.194.601-9.607 4.494-6.267 17.28-22.831 28.89-41.219 28.89-24.17 0-43.833-19.664-43.833-43.833 0-24.17 19.663-43.833 43.833-43.833 18.388 0 34.952 11.61 41.219 28.891 1.413 3.894 5.717 5.907 9.607 4.494 3.895-1.412 5.906-5.714 4.494-9.608-8.411-23.193-30.643-38.776-55.32-38.776-32.44 0-58.833 26.393-58.833 58.833 0 32.439 26.393 58.832 58.833 58.832z"/></g></g></svg>