<svg id="Color" enable-background="new 0 0 64 64" height="512" viewBox="0 0 64 64" width="512" xmlns="http://www.w3.org/2000/svg"><g fill="#e89d43"><circle cx="54" cy="25" r="4"/><path d="m61 35h-14v-2c0-2.209 1.791-4 4-4h6c2.209 0 4 1.791 4 4z"/><circle cx="26" cy="51" r="4"/><path d="m33 61h-14v-2c0-2.209 1.791-4 4-4h6c2.209 0 4 1.791 4 4z"/><circle cx="49" cy="7" r="4"/><path d="m56 17h-14v-2c0-2.209 1.791-4 4-4h6c2.209 0 4 1.791 4 4z"/><circle cx="6" cy="29" r="3"/><circle cx="11" cy="9" r="3"/><circle cx="10" cy="47" r="3"/></g><path d="m39 36 21.379 21.379c.398.398.621.937.621 1.5 0 1.171-.95 2.121-2.121 2.121-.563 0-1.102-.223-1.5-.621l-21.379-21.379z" fill="#454a6d"/><circle cx="29" cy="29" fill="#eae8e5" r="14"/><circle cx="29" cy="25" fill="#4ac3ed" r="4"/><path d="m37 35h-16v-1.996c0-2.211 1.793-4.004 4.004-4.004h7.992c2.211 0 4.004 1.793 4.004 4.004z" fill="#4ac3ed"/><path d="m34.499 28.256.002-.011-.086-.015c-.385-.115-.785-.19-1.202-.208l-.042-.007v.003c-.06-.002-.115-.018-.175-.018h-.022c.635-.838 1.026-1.87 1.026-3 0-2.757-2.243-5-5-5s-5 2.243-5 5c0 1.13.391 2.162 1.026 3h-.022c-2.759 0-5.004 2.245-5.004 5.004v1.996c0 .552.448 1 1 1h16c.552 0 1-.448 1-1v-1.996c0-2.233-1.479-4.106-3.501-4.748zm-8.499-3.256c0-1.654 1.346-3 3-3s3 1.346 3 3-1.346 3-3 3-3-1.346-3-3zm10 9h-14v-.996c0-1.656 1.348-3.004 3.004-3.004h7.91l1.103.191c1.153.42 1.983 1.517 1.983 2.813z" fill="#0d1030"/><path d="m5.86 32.986 2.328 10.468c-1.292.663-2.188 1.996-2.188 3.546 0 2.206 1.794 4 4 4 .804 0 1.55-.243 2.177-.653l6.581 6.038c-.472.763-.758 1.654-.758 2.615v2c0 .552.448 1 1 1h14c.552 0 1-.448 1-1v-1.624l9.779-11.183 12.894 12.894c.589.589 1.372.913 2.207.913.822 0 1.627-.333 2.207-.913s.913-1.385.913-2.207c0-.834-.324-1.618-.913-2.207l-13.188-13.188 6.555-7.485h6.546c.552 0 1-.448 1-1v-2c0-2.449-1.773-4.483-4.101-4.909.679-.854 1.101-1.919 1.101-3.091 0-2.757-2.243-5-5-5-.384 0-.754.053-1.113.135l-.973-2.135h4.086c.552 0 1-.448 1-1v-2c0-2.449-1.773-4.483-4.101-4.909.679-.854 1.101-1.919 1.101-3.091 0-2.757-2.243-5-5-5-2.503 0-4.563 1.854-4.925 4.258l-29.28 1.539c-.515-1.616-2.012-2.797-3.795-2.797-2.206 0-4 1.794-4 4 0 1.512.853 2.814 2.094 3.494l-3.123 12.509c-2.192.016-3.971 1.802-3.971 3.997 0 2.158 1.721 3.91 3.86 3.986zm6.97-20.45 5.424 6.021c-2.627 2.703-4.254 6.384-4.254 10.443 0 .031.004.06.005.09l-4.091-.911c-.243-1.159-.998-2.12-2.007-2.673l3.123-12.509c.651-.005 1.258-.179 1.8-.461zm2.09-2.744 29.259-1.537c.178.681.495 1.3.922 1.836-2.328.426-4.101 2.46-4.101 4.909v1.719l-1.727 1.381c-2.687-2.534-6.297-4.1-10.273-4.1-3.494 0-6.704 1.21-9.257 3.221l-5.414-6.01c.282-.424.487-.903.591-1.419zm14.08 32.208c-7.168 0-13-5.832-13-13s5.832-13 13-13 13 5.832 13 13-5.832 13-13 13zm-19.205-11.798 4.381.976c.93 6.351 5.841 11.416 12.12 12.565l-.264 2.26c-.011 0-.021-.003-.032-.003-2.757 0-5 2.243-5 5 0 1.172.422 2.237 1.101 3.091-.727.133-1.396.421-1.977.833l-6.605-6.061c.296-.559.481-1.187.481-1.863 0-2.158-1.721-3.91-3.86-3.986l-2.329-10.468c.942-.483 1.659-1.322 1.984-2.344zm16.205 23.798c-1.654 0-3-1.346-3-3s1.346-3 3-3 3 1.346 3 3-1.346 3-3 3zm-16-5c-1.103 0-2-.897-2-2s.897-2 2-2 2 .897 2 2-.897 2-2 2zm22 11h-12v-1c0-1.654 1.346-3 3-3h6c1.654 0 3 1.346 3 3zm1.516-3.11c-.676-1.439-2.008-2.505-3.617-2.799.679-.854 1.101-1.919 1.101-3.091 0-2.046-1.239-3.805-3.003-4.578l.287-2.458c.239.011.474.036.716.036 3.008 0 5.806-.899 8.157-2.429l5.205 5.205zm26.484 1.99c0 .296-.119.585-.327.793-.419.418-1.167.418-1.586 0l-19.316-19.316c.567-.489 1.097-1.019 1.586-1.586l19.316 19.316c.211.211.327.493.327.793zm-13.519-16.813-4.91-4.91c1.024-1.573 1.765-3.344 2.141-5.248l2.357.412c-.031.224-.069.447-.069.679v2c0 .552.448 1 1 1h4.795zm13.519-9.067v1h-12v-1c0-1.654 1.346-3 3-3h6c1.654 0 3 1.346 3 3zm-3-8c0 1.654-1.346 3-3 3s-3-1.346-3-3 1.346-3 3-3 3 1.346 3 3zm-5.932-4.031c-1.247.91-2.068 2.372-2.068 4.031 0 1.172.422 2.237 1.101 3.091-1.423.26-2.627 1.126-3.356 2.319l-2.791-.489c.018-.306.046-.61.046-.921 0-3.574-1.261-6.857-3.355-9.436l1.956-1.564h7.115zm3.932-5.969v1h-12v-1c0-1.654 1.346-3 3-3h6c1.654 0 3 1.346 3 3zm-6-11c1.654 0 3 1.346 3 3s-1.346 3-3 3-3-1.346-3-3 1.346-3 3-3zm-38 3c1.103 0 2 .897 2 2s-.897 2-2 2-2-.897-2-2 .897-2 2-2zm-5 20c1.103 0 2 .897 2 2s-.897 2-2 2-2-.897-2-2 .897-2 2-2z" fill="#0d1030"/></svg>