<svg xmlns="http://www.w3.org/2000/svg" xmlns:xlink="http://www.w3.org/1999/xlink" viewBox="0 0 67.91 51.32"><defs><style>.cls-1{fill:none;}.cls-2{fill:#fff;}.cls-3{clip-path:url(#clip-path);}.cls-4{fill:#2c2a7c;}.cls-5{fill:#e81e25;}</style><clipPath id="clip-path"><path class="cls-1" d="M3.05,9.35c20.35,10.2,40.69-13.31,61-4V41c-20.34-9.35-40.69,14.16-61,4Z"/></clipPath></defs><g id="Layer_2" data-name="Layer 2"><g id="Flags_Icon" data-name="Flags Icon"><path class="cls-2" d="M67.91,4.42C45.28-10.88,22.64,19.71,0,4.42V46.9c22.64,15.3,45.28-15.29,67.91,0Z"/><g id="AUSTRALIA"><g class="cls-3"><path class="cls-4" d="M3.05,45c20.35,10.2,40.69-13.31,61-4V5.39c-20.34-9.35-40.69,14.16-61,4Z"/><path class="cls-2" d="M19.1,33.42c.31.92.63,1.84.94,2.75.94-.52,1.89-1.07,2.83-1.64-.55,1-1.11,1.93-1.67,2.88.87.35,1.73.67,2.6,1-1,.34-2,.65-3,.92l.42,2.92q-1.05-.88-2.1-1.83c-.69.83-1.39,1.64-2.08,2.43.14-1,.28-2,.41-3-1,0-2,0-3-.11.87-.51,1.74-1.07,2.61-1.66-.56-.8-1.12-1.6-1.68-2.43.95.33,1.89.61,2.84.86C18.49,35.44,18.8,34.43,19.1,33.42Z"/><path class="cls-2" d="M51.21,30.24l.45,1.35L53,31l-.8,1.23c.42.23.83.46,1.24.71-.48,0-1,.1-1.44.16.07.48.14,1,.2,1.42l-1-1-1,1.13c.07-.48.13-1,.2-1.45l-1.44,0,1.24-.89-.79-1.11,1.34.36C50.92,31.18,51.06,30.71,51.21,30.24Z"/><path class="cls-2" d="M43.19,19l.44,1.26q.67-.43,1.35-.84c-.27.46-.53.93-.8,1.4l1.24.44L44,21.69c.06.46.13.92.19,1.39l-1-.8-1,1.32c.07-.5.13-1,.2-1.49L41,22.4l1.24-1.09-.79-1,1.35.13C42.89,20,43,19.47,43.19,19Z"/><path class="cls-2" d="M51.21,8.84l.45,1.34c.45-.2.9-.38,1.35-.56-.27.4-.53.81-.8,1.22.42.23.83.47,1.24.71-.48,0-1,.1-1.44.17.07.47.14.94.2,1.41l-1-1-1,1.13c.07-.48.13-1,.2-1.44-.48,0-1,0-1.44,0L50.22,11l-.79-1.1,1.34.36C50.92,9.78,51.06,9.31,51.21,8.84Z"/><path class="cls-2" d="M58.35,15.73l.44,1.46c.45-.08.91-.14,1.36-.19l-.81,1c.42.34.83.69,1.25,1.06q-.72-.15-1.44-.24c.06.49.13,1,.2,1.48-.33-.43-.66-.85-1-1.26l-1,.89c.07-.47.13-.94.2-1.4-.48-.12-1-.22-1.44-.31.41-.21.82-.4,1.24-.59l-.8-1.3c.45.22.9.45,1.35.7C58.06,16.59,58.21,16.16,58.35,15.73Z"/><path class="cls-2" d="M54.42,21.75l.36.88.92.12L55,23.3c.08.3.15.61.22.91l-.79-.52-.78.47c.08-.3.15-.6.22-.89l-.7-.6.92-.07C54.19,22.32,54.31,22,54.42,21.75Z"/><path class="cls-2" d="M16.43,11.9v5.35A25.14,25.14,0,0,1,3.05,14.7v5.36a25.33,25.33,0,0,0,13.38,2.55V28a40.77,40.77,0,0,0,5.35-.76V21.85a117.84,117.84,0,0,0,13.39-4V12.5a119.91,119.91,0,0,1-13.39,4V11.14A39.15,39.15,0,0,1,16.43,11.9Z"/><path class="cls-2" d="M3.05,9.35v1.8c9.51,9.52,19,11.67,28.52,13.26,1.2-.39,2.39-.8,3.59-1.2v-1.8c-9.51-1.55-19-2.82-28.52-10.6A25.06,25.06,0,0,1,3.05,9.35Z"/><path class="cls-2" d="M31.57,8.36c-9.5,7.92-19,15.27-28.52,15.25v1.8a25.06,25.06,0,0,0,3.59,1.46c9.51-1.73,19-10,28.52-17.92V7.15Z"/><path class="cls-5" d="M17.5,11.81v6.42A25.57,25.57,0,0,1,3.05,15.77V19A25.49,25.49,0,0,0,17.5,21.44v6.43c1.07-.11,2.14-.27,3.21-.46V21a104.93,104.93,0,0,0,14.45-4.2V13.57a106.34,106.34,0,0,1-14.45,4.2V11.35C19.64,11.55,18.57,11.7,17.5,11.81Z"/><path class="cls-5" d="M3.05,9.35v1.2a44.52,44.52,0,0,0,8.31,6.61c.8.09,1.6.14,2.4.16A43.42,43.42,0,0,1,3.05,9.35ZM32.77,8c-3.57,3-7.14,5.93-10.7,8.48l2.39-.57c3.57-2.71,7.13-5.73,10.7-8.72Z"/><path class="cls-5" d="M13.76,22.67A24.88,24.88,0,0,1,3.05,25.41a24.87,24.87,0,0,0,2.4,1,29.62,29.62,0,0,0,10.7-3.83C15.35,22.67,14.55,22.69,13.76,22.67Zm10.7-1.45c3.57.86,7.14,1.4,10.71,2V22c-2.77-.45-5.55-.88-8.32-1.45C26.06,20.79,25.26,21,24.46,21.22Z"/></g></g></g></g></svg>