<svg xmlns="http://www.w3.org/2000/svg" xmlns:xlink="http://www.w3.org/1999/xlink" viewBox="0 0 67.91 51.31"><defs><style>.cls-1{fill:none;}.cls-2{clip-path:url(#clip-path);}.cls-3{fill:#fff;}.cls-4{fill:#e81e25;}</style><clipPath id="clip-path"><path class="cls-1" d="M3.05,9.35c20.34,10.2,40.68-13.31,61-4V41c-20.35-9.35-40.69,14.17-61,4Z"/></clipPath></defs><g id="Layer_2" data-name="Layer 2"><g id="Flags_Icon" data-name="Flags Icon"><path class="cls-3" d="M67.91,4.41C45.27-10.88,22.64,19.71,0,4.41V46.9c22.64,15.29,45.27-15.3,67.91,0Z"/><g id="CANADA"><g class="cls-2"><path class="cls-4" d="M3.05,45a25.61,25.61,0,0,0,14.36,2.46V11.82A25.62,25.62,0,0,1,3.05,9.35Z"/><path class="cls-4" d="M49.72,39a26.05,26.05,0,0,1,14.36,2V5.39a26.05,26.05,0,0,0-14.36-2Z"/><path class="cls-3" d="M17.41,47.41C28.18,46.37,39,40.26,49.72,39V3.38C39,4.66,28.18,10.77,17.41,11.82Z"/><g class="cls-2"><path class="cls-4" d="M33.56,12.3c-.7,1.61-1.41,3.22-2.11,4.82a.88.88,0,0,1-1.11.52l-1.53-.33,1.14,6c.25,1.08-.52,1.33-.91.95q-1.34-1.14-2.67-2.31c-.15.57-.29,1.14-.44,1.71a.72.72,0,0,1-.59.54c-1.13.05-2.26.08-3.38.07.29,1.06.59,2.12.88,3.18.2.7.34,1-.19,1.3s-.8.57-1.21.84c1.94,1.26,3.89,2.39,5.83,3.45a.64.64,0,0,1,.26.75L27,35.63c2-.83,3.8-1.65,5.81-2.56.17-.06.47,0,.47.21L33,39.75l1-.33c0-2.1-.11-4.21-.16-6.31a.76.76,0,0,1,.44-.54c2-.44,3.81-.82,5.81-1.19l-.51-1.59a1,1,0,0,1,.27-.9c1.94-2.24,3.88-4.42,5.82-6.49l-1.21-.31c-.53-.07-.38-.42-.19-1.21.3-1.2.59-2.39.89-3.58-1.13.51-2.25,1.05-3.38,1.62-.33.14-.55,0-.6-.2-.15-.49-.29-1-.43-1.46-.9,1.31-1.79,2.62-2.68,3.95-.38.62-1.15.88-.91-.36l1.14-6.69-1.53,1.33c-.43.39-.86.58-1.1.21Z"/></g></g></g></g></g></svg>