<svg xmlns="http://www.w3.org/2000/svg" xmlns:xlink="http://www.w3.org/1999/xlink" viewBox="0 0 67.91 51.31"><defs><style>.cls-1{fill:none;}.cls-2{fill:#fff;}.cls-3{clip-path:url(#clip-path);}.cls-4{fill:#bd1f37;}.cls-5{fill:#2d2f77;}</style><clipPath id="clip-path"><path class="cls-1" d="M3.05,9.35c20.35,10.2,40.69-13.31,61-4V41c-20.34-9.35-40.68,14.17-61,4Z"/></clipPath></defs><g id="Layer_2" data-name="Layer 2"><g id="Flags_Icon" data-name="Flags Icon"><path class="cls-2" d="M67.91,4.42C45.27-10.88,22.64,19.71,0,4.42V46.9c22.64,15.29,45.27-15.3,67.91,0Z"/><g id="UNITED_KINGDOM" data-name="UNITED KINGDOM"><g class="cls-3"><path class="cls-2" d="M3.05,44.94c20.35,10.21,40.69-13.31,61-4V5.39C43.74-4,23.4,19.55,3.05,9.35Z"/><path class="cls-4" d="M43.91,17.35C50.64,11.9,57.36,7.64,64.08,7V5.39c-.47-.21-.93-.41-1.39-.59C55,6.12,47.36,11.89,39.7,18.54,41.1,18.11,42.51,17.7,43.91,17.35Z"/><path class="cls-4" d="M43,28.17A46.06,46.06,0,0,1,64.08,40.65V38.28a45.14,45.14,0,0,0-16.9-11.07C45.78,27.46,44.37,27.79,43,28.17Z"/><path class="cls-4" d="M3.05,12.06A45.76,45.76,0,0,0,21.12,24.14c1.4-.27,2.81-.61,4.22-1A46.44,46.44,0,0,1,3.05,9.69Z"/><path class="cls-4" d="M24.38,34C17.27,39.79,10.16,44.32,3.05,44.74v.2a23.94,23.94,0,0,0,3.86,1.55c7.23-1.84,14.46-7.42,21.69-13.73C27.2,33.2,25.79,33.61,24.38,34Z"/><path class="cls-5" d="M59.9,3.91C52.78,2.1,45.66,3.76,38.54,6V18C45.66,11.74,52.78,6.09,59.9,3.91Z"/><path class="cls-5" d="M29.1,9.16C22,11.41,14.91,13,7.82,11.15,14.91,17,22,19.39,29.1,21.13Z"/><path class="cls-5" d="M64.08,18.26V10.09c-4.83.5-9.67,2.86-14.5,6.17A26.17,26.17,0,0,1,64.08,18.26Z"/><path class="cls-5" d="M64.08,36.91V28.83a26.17,26.17,0,0,0-14.5-2A45.12,45.12,0,0,1,64.08,36.91Z"/><path class="cls-5" d="M9,47c6.69,1.4,13.38-.15,20.07-2.27V33.51C22.41,39.38,15.72,44.68,9,47Z"/><path class="cls-5" d="M38.54,41.63c6.71-2.14,13.42-3.74,20.13-2.4C52,34.14,45.25,32,38.54,30.39Z"/><path class="cls-5" d="M3.05,32.79v8.44c5-.31,10-2.65,15-6A25.77,25.77,0,0,1,3.05,32.79Z"/><path class="cls-5" d="M3.05,22.22a25.77,25.77,0,0,0,15,2.4,45.9,45.9,0,0,1-15-10.86Z"/><path class="cls-4" d="M31,8.55v15c-9.31,3.07-18.62,5.47-27.94.8v6.34C12.37,35.35,21.68,33,31,29.88V44.15c1.89-.63,3.77-1.28,5.66-1.9V28c9.14-3,18.28-5.46,27.43-1.26V20.37c-9.15-4.2-18.29-1.76-27.43,1.27v-15C34.76,7.28,32.88,7.93,31,8.55Z"/></g></g></g></g></svg>