<svg xmlns="http://www.w3.org/2000/svg" xmlns:xlink="http://www.w3.org/1999/xlink" viewBox="0 0 67.91 51.33"><defs><style>.cls-1{fill:none;}.cls-2{fill:#fff;}.cls-3{clip-path:url(#clip-path);}.cls-4{fill:#ad1e3a;}.cls-5{fill:#262d65;}</style><clipPath id="clip-path"><path class="cls-1" d="M3.05,9.35c20.35,10.2,40.69-13.31,61-4V41c-20.34-9.35-40.68,14.17-61,4Z"/></clipPath></defs><g id="Layer_2" data-name="Layer 2"><g id="Flags_Icon" data-name="Flags Icon"><path class="cls-2" d="M67.91,4.42C45.28-10.88,22.64,19.71,0,4.42V46.91c22.64,15.3,45.28-15.3,67.91,0Z"/><g id="LIBERIA"><g class="cls-3"><path class="cls-4" d="M19.24,11.6C13.84,18.86,8.45,25,3.05,28.77V32c.55.81,1.09,1.59,1.63,2.35-.54.32-1.08.62-1.63.89v3.23c.55.81,1.09,1.6,1.63,2.37-.54.31-1.08.6-1.63.87V45c20.35,10.2,40.69-13.32,61-4V37.76c-.54-.79-1.08-1.55-1.62-2.29.54-.34,1.08-.66,1.62-.95V31.29q-.81-1.18-1.62-2.31.81-.5,1.62-.93V24.81c-.54-.79-1.08-1.56-1.62-2.3q.81-.5,1.62-.93V18.34c-.54-.78-1.08-1.55-1.62-2.29.54-.34,1.08-.65,1.62-1V11.87c-.54-.79-1.08-1.56-1.62-2.3.54-.33,1.08-.65,1.62-.94V5.39C49.13-1.48,34.18,9.39,19.24,11.6Z"/><path class="cls-2" d="M3.05,41.72c20.35,10.2,40.69-13.32,61-4V34.52c-20.34-9.36-40.68,14.16-61,4Zm0-6.47c20.35,10.2,40.69-13.32,61-4V28.05c-20.34-9.35-40.68,14.16-61,4ZM19.24,14.84C13.84,20,8.45,23.93,3.05,25.54v3.23c20.35,10.2,40.69-13.31,61-4V21.58c-14.95-6.87-29.9,4-44.84,6.21Q17.62,26.41,16,24.88C32,24,48.05,11,64.08,18.34V15.1c-16-7.36-32,5.67-48.08,6.54V18.41c16-.88,32.05-13.91,48.08-6.54V8.63C49.13,1.76,34.18,12.63,19.24,14.84Z"/><path class="cls-5" d="M3.05,25.54a26.33,26.33,0,0,0,16.19,2.25V11.6A26.33,26.33,0,0,1,3.05,9.35Z"/><path class="cls-2" d="M11.15,15c-.5,1.48-1,2.94-1.5,4.39.92.47,1.84.88,2.77,1.25Q11.78,17.87,11.15,15Z"/><path class="cls-2" d="M11.15,15q.75,2.4,1.5,4.75a25.3,25.3,0,0,1-2.77.58C10.3,18.59,10.72,16.82,11.15,15Z"/><path class="cls-2" d="M15.76,18.54a28.15,28.15,0,0,1-4.85-.18v2.91A40.11,40.11,0,0,0,15.76,18.54Z"/><path class="cls-2" d="M15.76,18.54c-1.31,1-2.61,1.94-3.92,2.77-.57-.84-1.14-1.7-1.71-2.57A27.19,27.19,0,0,0,15.76,18.54Z"/><path class="cls-2" d="M14,24q-.75-2.33-1.5-4.68a24.71,24.71,0,0,1-2.77.56Q11.86,22.12,14,24Z"/><path class="cls-2" d="M14,24q-2-1.45-3.92-3.19c.56-.7,1.13-1.41,1.7-2.14Q12.89,21.37,14,24Z"/><path class="cls-2" d="M8.3,23.3a36.54,36.54,0,0,0,3.92-2.24q-.86-1.24-1.71-2.55Q9.4,21,8.3,23.3Z"/><path class="cls-2" d="M8.3,23.3,9.79,19c.93.46,1.85.86,2.78,1.22A46.94,46.94,0,0,1,8.3,23.3Z"/><path class="cls-2" d="M6.53,17.38q2,2.06,3.93,3.76.85-1,1.71-2.16A26,26,0,0,1,6.53,17.38Z"/><path class="cls-2" d="M6.53,17.38a24.09,24.09,0,0,0,4.86,1v2.92A49.57,49.57,0,0,1,6.53,17.38Z"/></g></g></g></g></svg>