<?xml version="1.0" standalone="no"?>
<!DOCTYPE svg PUBLIC "-//W3C//DTD SVG 20010904//EN"
 "http://www.w3.org/TR/2001/REC-SVG-20010904/DTD/svg10.dtd">
<svg version="1.0" xmlns="http://www.w3.org/2000/svg"
 width="1822.000000pt" height="1822.000000pt" viewBox="0 0 1822.000000 1822.000000"
 preserveAspectRatio="xMidYMid meet">
<metadata>
Created by potrace 1.14, written by Peter Selinger 2001-2017
</metadata>
<g transform="translate(0.000000,1822.000000) scale(0.100000,-0.100000)"
fill="#000000" stroke="none">
<path d="M9980 17769 c-212 -105 -533 -264 -715 -354 -181 -89 -625 -309 -985
-487 -360 -178 -754 -373 -876 -433 l-221 -108 0 -904 0 -903 106 0 106 0 0
840 c0 462 3 840 7 840 7 0 233 -110 958 -467 212 -104 424 -209 473 -232 l87
-43 153 75 c264 130 540 222 796 263 18 3 43 7 55 10 11 2 53 7 91 10 39 3 81
7 95 10 27 5 338 4 405 -1 37 -2 80 -7 180 -21 308 -42 674 -161 997 -325 77
-39 112 -47 122 -30 3 5 52 31 108 59 137 67 983 485 1333 659 154 76 281 142
283 146 2 7 -563 291 -2503 1258 -351 176 -646 321 -655 323 -8 3 -188 -81
-400 -185z"/>
<path d="M10148 15525 c-2 -1 -37 -5 -78 -9 -125 -11 -160 -16 -286 -41 -119
-24 -283 -72 -399 -116 -33 -13 -62 -24 -65 -24 -19 -5 -85 -35 -212 -98 -148
-72 -148 -72 -163 -117 -20 -62 -63 -236 -69 -285 -3 -22 -10 -67 -14 -100
-19 -140 -3 -375 34 -530 38 -154 121 -329 219 -460 168 -224 431 -415 742
-541 92 -36 239 -79 313 -90 25 -3 69 -9 99 -14 61 -8 265 -5 326 5 81 13 202
44 275 71 352 126 663 415 839 779 169 348 203 735 94 1055 -42 125 -39 122
-185 193 -304 148 -628 254 -893 292 -22 3 -53 7 -70 10 -90 13 -157 17 -322
20 -100 2 -183 2 -185 0z"/>
<path d="M9888 12795 c4 -8 72 -96 119 -155 97 -122 285 -383 426 -594 32 -48
63 -84 67 -80 18 18 275 672 268 680 -8 8 -250 80 -303 90 -11 2 -45 9 -75 15
-30 7 -65 13 -77 15 -13 1 -40 5 -60 8 -68 12 -107 16 -208 22 -160 10 -164
10 -157 -1z"/>
<path d="M9510 12779 c-88 -13 -116 -18 -188 -33 -341 -72 -641 -204 -967
-424 -185 -126 -325 -222 -352 -243 l-23 -17 38 -10 c20 -5 111 -30 202 -56
91 -25 174 -48 185 -50 11 -2 61 -14 110 -26 50 -12 97 -23 105 -25 135 -29
279 -58 295 -60 11 -2 54 -10 95 -18 83 -17 108 -21 255 -42 163 -23 244 -34
306 -40 24 -3 62 -7 84 -10 22 -2 74 -7 115 -10 41 -4 91 -8 111 -10 19 -2 92
-7 162 -10 l127 -8 -24 49 c-14 27 -76 153 -139 279 -108 217 -206 408 -267
520 -15 28 -46 86 -70 130 -71 132 -66 128 -160 114z"/>
<path d="M11056 12363 c-43 -158 -95 -338 -136 -468 -16 -49 -33 -109 -40
-133 -6 -24 -14 -49 -16 -57 -5 -11 10 -13 78 -10 91 4 218 13 288 20 25 3 72
7 105 11 33 3 71 7 85 9 14 2 50 7 80 10 72 8 167 22 325 49 50 9 94 16 98 16
14 0 -53 80 -163 194 -113 117 -277 257 -399 339 -83 56 -251 157 -261 157 -4
0 -24 -62 -44 -137z"/>
<path d="M7075 11445 c-44 -30 -118 -81 -165 -112 -47 -32 -89 -62 -95 -66 -5
-4 -71 -49 -145 -100 -74 -51 -191 -131 -260 -178 -69 -47 -181 -124 -250
-171 -172 -117 -534 -366 -715 -490 -248 -171 -443 -305 -575 -394 -69 -47
-165 -113 -215 -148 -49 -34 -146 -100 -215 -146 -69 -47 -127 -87 -130 -91
-3 -3 -25 -19 -50 -35 -315 -210 -454 -318 -608 -472 -268 -269 -476 -596
-606 -955 -41 -113 -95 -306 -111 -397 -3 -19 -7 -42 -9 -50 -1 -8 -6 -37 -10
-65 -4 -27 -10 -61 -12 -75 -6 -34 -18 -252 -18 -320 0 -67 13 -285 18 -320 3
-14 10 -59 16 -100 15 -94 18 -108 24 -128 3 -9 8 -32 11 -49 3 -18 21 -85 41
-150 87 -287 188 -496 372 -768 187 -276 166 -252 220 -249 237 11 544 49 752
92 286 60 515 125 765 218 55 20 116 43 135 50 19 7 71 28 115 47 575 248
1079 559 1595 982 80 66 150 124 156 130 6 5 41 37 79 70 228 201 604 579 782
785 21 24 45 51 53 60 8 8 49 56 90 105 41 50 78 92 81 95 3 3 63 76 133 163
366 456 768 1039 1075 1559 35 59 160 275 178 308 11 19 44 78 74 130 72 128
120 218 174 322 l45 87 -38 9 c-29 8 -327 72 -402 87 -111 23 -554 144 -770
212 -285 88 -814 277 -935 333 -11 5 -76 32 -145 60 -69 28 -149 62 -178 76
-29 13 -54 24 -57 24 -2 0 -43 18 -90 40 -47 22 -89 40 -93 40 -4 0 -43 -25
-87 -55z"/>
<path d="M10460 10528 c0 -2 -16 -42 -35 -88 -19 -47 -35 -85 -35 -85 10 0
-265 -657 -370 -885 -116 -252 -134 -289 -254 -530 -217 -433 -429 -812 -670
-1195 -38 -61 -334 -503 -378 -565 -226 -319 -577 -755 -811 -1007 -168 -181
-386 -402 -507 -514 -19 -18 -60 -55 -90 -83 -30 -29 -93 -85 -140 -125 -47
-41 -98 -86 -115 -100 -16 -15 -95 -78 -175 -142 -694 -554 -1442 -973 -2210
-1239 -52 -18 -98 -36 -102 -39 -4 -3 7 -26 24 -51 17 -25 73 -106 123 -180
51 -74 120 -175 154 -225 34 -49 181 -263 326 -475 145 -212 307 -448 360
-525 53 -77 136 -198 185 -270 48 -71 103 -150 120 -175 17 -25 124 -180 237
-345 194 -283 272 -391 332 -459 40 -46 252 -258 289 -289 150 -127 358 -265
528 -350 220 -110 529 -211 739 -241 23 -4 50 -8 60 -10 18 -3 72 -10 184 -22
49 -5 381 -6 406 0 11 2 56 7 100 11 44 4 82 8 85 10 3 2 23 6 45 9 221 34
504 124 717 228 150 73 289 160 633 399 72 50 159 110 195 134 281 190 290
198 312 250 11 28 26 64 33 80 122 279 310 816 415 1181 43 149 128 470 144
544 3 14 12 54 21 90 18 79 45 206 52 240 2 14 15 79 28 145 13 66 26 138 29
160 3 22 8 51 11 65 8 42 24 132 30 180 7 53 14 95 20 130 2 14 7 50 10 80 3
30 8 66 10 80 3 14 7 50 10 80 3 30 8 71 10 90 2 19 7 64 10 100 3 36 8 81 10
100 4 34 9 90 19 235 7 95 17 273 21 370 5 117 5 765 0 865 -5 110 -16 323
-20 380 -8 118 -16 209 -20 250 -2 25 -7 72 -10 105 -4 33 -8 76 -10 95 -3 19
-9 76 -15 125 -18 153 -21 179 -26 205 -2 14 -6 50 -9 80 -4 30 -8 62 -10 70
-3 8 -11 62 -20 120 -8 58 -17 115 -20 128 -4 21 -36 206 -50 287 -3 17 -8 41
-11 55 -3 14 -8 36 -10 50 -9 51 -46 220 -80 370 -20 85 -38 162 -39 170 -3
13 -49 199 -60 240 -112 432 -296 1012 -462 1455 -24 66 -46 126 -48 133 -3 6
-10 12 -17 13 -7 0 -20 2 -29 4 -8 1 -42 6 -75 9 -32 4 -69 10 -81 13 -13 3
-23 3 -23 1z"/>
<path d="M12755 10520 c-22 -4 -69 -11 -105 -15 -36 -3 -76 -8 -90 -10 -14 -1
-64 -6 -110 -10 -47 -3 -96 -8 -110 -10 -23 -3 -182 -13 -340 -21 -107 -5
-590 -5 -598 0 -4 3 -13 1 -20 -3 -9 -5 13 -60 78 -194 49 -103 90 -189 90
-191 0 -2 20 -46 44 -98 42 -90 122 -270 173 -393 14 -33 31 -73 38 -90 60
-142 153 -383 225 -580 34 -93 65 -179 70 -190 9 -21 161 -482 165 -500 1 -5
12 -44 25 -85 13 -41 24 -79 26 -85 1 -5 18 -66 38 -135 20 -69 43 -147 51
-175 15 -54 65 -240 70 -265 2 -8 17 -71 33 -140 36 -149 62 -258 68 -285 2
-11 6 -30 8 -41 2 -12 13 -64 25 -115 24 -111 24 -113 51 -254 11 -60 22 -121
25 -135 4 -20 48 -281 80 -481 5 -25 7 -44 20 -144 4 -27 8 -61 10 -75 10 -76
15 -110 20 -155 3 -27 7 -66 10 -85 12 -105 15 -131 20 -191 3 -36 7 -75 10
-87 2 -12 7 -65 10 -119 4 -53 8 -104 10 -112 1 -9 6 -72 10 -141 4 -69 9
-143 11 -165 27 -398 32 -1174 10 -1545 -3 -52 -8 -140 -12 -195 -3 -55 -7
-121 -9 -147 -3 -50 6 -59 34 -34 9 7 104 73 211 146 107 74 236 161 285 195
50 34 277 190 505 347 229 156 425 292 435 301 11 8 56 44 100 79 109 86 332
310 377 378 9 14 24 34 34 45 20 21 29 34 105 145 79 115 163 271 240 445 71
160 146 429 175 625 3 25 8 52 9 61 24 126 23 529 0 679 -15 93 -47 258 -56
287 -6 17 -12 43 -15 58 -9 50 -86 270 -130 371 -86 195 -163 321 -462 754
-66 96 -144 210 -174 253 -68 101 -195 285 -248 362 -23 33 -135 197 -250 365
-115 168 -213 310 -218 316 -5 5 -15 21 -22 34 -7 14 -18 30 -24 37 -6 6 -64
90 -129 185 -65 95 -256 373 -423 618 -168 245 -331 483 -363 530 -32 47 -64
86 -72 87 -8 0 -32 -3 -54 -7z"/>
</g>
</svg>
